<svg xmlns="http://www.w3.org/2000/svg" id="Camada_1" data-name="Camada 1" viewBox="0 0 912.32 864"><defs><style>      .cls-1, .cls-2 {        fill: #888989;      }      .cls-2 {        fill-rule: evenodd;      }    </style></defs><path class="cls-1" d="M300.3,389.77h23.95s0,55.81,0,55.81h31.52v-55.82h25.17s0-25.62,0-25.62h-80.63v25.62Z"></path><path class="cls-1" d="M206.51,444.96h62.42l5.16-18.53h-36.21l-.11-8.52h39.68l6.4-19.77h-45.98l.14-8.37c18.93,0,29.25,0,48.18.01l8.12-24.03v-1.59h-87.81v80.81Z"></path><path class="cls-1" d="M392.1,389.86v55.11h30.72v-61.98l-30.72,6.87Z"></path><path class="cls-1" d="M461.14,403.67h-28.38v41.29h28.38v-18.58h44.35c16.65.23,30.8-13.86,30.55-30.53.25-16.73-13.9-31.86-30.55-31.7h-72.73v25.73h66.87c1.87,0,3.49.66,4.8,2.05,1.39,1.31,2.05,2.94,2.05,4.87s-.66,3.51-2.05,4.88c-1.31,1.34-2.94,1.99-4.8,1.99h-38.5Z"></path><path class="cls-2" d="M667.37,310.95l7.46,4.31,7.46,4.31v17.23l-7.46,4.31-7.46,4.31-7.46-4.31-7.46-4.31v-17.23l7.46-4.31,7.46-4.31Z"></path><path class="cls-2" d="M685.65,344.31l5.97,3.45,5.97,3.45v13.8l-5.97,3.45-5.97,3.45-5.97-3.45-5.97-3.45v-13.8l5.97-3.45,5.97-3.45Z"></path><path class="cls-2" d="M645.6,340.17l3.75,2.17,3.75,2.17v8.66l-3.75,2.17-3.75,2.17-3.75-2.17-3.75-2.17v-8.66l3.75-2.17,3.75-2.17Z"></path><path class="cls-2" d="M635.98,375.05l6.92,3.99,6.92,3.99v15.98l-6.92,3.99-6.92,3.99-6.92-3.99-6.92-3.99v-15.98l6.92-3.99,6.92-3.99Z"></path><path class="cls-2" d="M680.25,384.68l7.99,4.61,7.99,4.61v18.45l-7.99,4.61-7.99,4.61-7.99-4.61-7.99-4.61v-18.45l7.99-4.61,7.99-4.61Z"></path><path class="cls-2" d="M628.59,411.62l6.1,3.52,6.1,3.52v14.1l-6.1,3.52-6.1,3.52-6.1-3.52-6.11-3.52v-14.1l6.11-3.52,6.1-3.52Z"></path><path class="cls-2" d="M669.21,423.64l3.49,2.02,3.49,2.02v8.07l-3.49,2.02-3.49,2.02-3.49-2.02-3.49-2.02v-8.07l3.49-2.02,3.49-2.02Z"></path><path class="cls-2" d="M655.21,440.18l6.43,3.71,6.43,3.71v14.85l-6.43,3.71-6.43,3.71-6.43-3.71-6.43-3.71v-14.85l6.43-3.71,6.43-3.71Z"></path><path class="cls-2" d="M633.4,464.8l3.56,2.06,3.56,2.06v8.23l-3.56,2.06-3.56,2.06-3.56-2.06-3.56-2.06v-8.23l3.56-2.06,3.56-2.06Z"></path><path class="cls-2" d="M600.43,448.37l8,4.62,8,4.62v18.47l-8,4.62-8,4.62-8-4.62-8-4.62v-18.47l8-4.62,8-4.62Z"></path><path class="cls-2" d="M692.39,443.76l8,4.62,8,4.62v18.47l-8,4.62-8,4.62-8-4.62-8-4.62v-18.47l8-4.62,8-4.62Z"></path><path class="cls-2" d="M665.38,476.28l9.5,5.49,9.5,5.49v21.95l-9.5,5.49-9.5,5.49-9.5-5.49-9.5-5.49v-21.95l9.5-5.49,9.5-5.49Z"></path><path class="cls-2" d="M625.2,495.24l5.94,3.43,5.94,3.43v13.71l-5.94,3.43-5.94,3.43-5.94-3.43-5.94-3.43v-13.71l5.94-3.43,5.94-3.43Z"></path><path class="cls-2" d="M584,510.13l9.29,5.36,9.29,5.36v21.46l-9.29,5.36-9.29,5.36-9.29-5.36-9.29-5.36v-21.46l9.29-5.36,9.29-5.36Z"></path><path class="cls-2" d="M561.38,458.77l5.73,3.31,5.73,3.31v13.23l-5.73,3.31-5.73,3.31-5.73-3.31-5.73-3.31v-13.23l5.73-3.31,5.73-3.31Z"></path><path class="cls-2" d="M658.33,362.08l3.49,2.02,3.49,2.02v8.07l-3.49,2.02-3.49,2.02-3.49-2.02-3.49-2.02v-8.07l3.49-2.02,3.49-2.02Z"></path><path class="cls-2" d="M582.1,486.13l3.56,2.06,3.56,2.06v8.23l-3.56,2.06-3.56,2.06-3.56-2.06-3.56-2.06v-8.23l3.56-2.06,3.56-2.06Z"></path><path class="cls-1" d="M548.93,530.27l9.26,5.34v11.29l-9.79,5.65-9.79-5.65v-11.29l9.78-5.65.53.31ZM552.23,534.63l-3.83-2.21-7.65,4.41v8.84l7.65,4.42,7.65-4.42v-8.84l-3.82-2.2Z"></path><path class="cls-1" d="M365.09,485.6v-12h-4.75v-3.47h13.85v3.47h-4.73v12h-4.38ZM379.85,476.12h7.18v3.27h-7.18v-3.27ZM380.16,482.22h8.09v3.38h-12.42v-15.47h12.13v3.38h-7.8v8.71ZM398.39,485.91c-1.22,0-2.35-.2-3.39-.59-1.04-.39-1.94-.95-2.7-1.67-.76-.72-1.35-1.57-1.78-2.55-.43-.98-.64-2.06-.64-3.24s.21-2.26.64-3.24c.43-.98,1.02-1.83,1.78-2.55.76-.72,1.66-1.28,2.7-1.67,1.04-.39,2.17-.59,3.39-.59,1.43,0,2.71.25,3.83.75,1.13.5,2.07,1.22,2.82,2.17l-2.78,2.52c-.5-.59-1.05-1.04-1.65-1.35-.6-.31-1.26-.46-2-.46-.63,0-1.21.1-1.75.31-.53.21-.98.5-1.36.89-.38.39-.67.86-.88,1.4-.21.54-.32,1.15-.32,1.81s.11,1.27.32,1.81c.21.55.51,1.01.88,1.4.38.39.83.69,1.36.9.53.21,1.11.31,1.75.31.74,0,1.4-.15,2-.46.6-.31,1.14-.76,1.65-1.35l2.78,2.52c-.75.93-1.69,1.65-2.82,2.15-1.13.51-2.4.76-3.83.76ZM406.99,485.6v-15.47h3.6l8.53,10.3h-1.7v-10.3h4.29v15.47h-3.6l-8.53-10.3h1.7v10.3h-4.29ZM432.6,485.91c-1.24,0-2.38-.2-3.42-.6-1.05-.4-1.96-.96-2.73-1.69-.77-.73-1.37-1.58-1.8-2.55-.43-.97-.64-2.04-.64-3.2s.21-2.23.64-3.2c.43-.97,1.03-1.82,1.8-2.55.77-.73,1.68-1.29,2.73-1.69,1.04-.4,2.19-.6,3.42-.6s2.4.2,3.44.6c1.04.4,1.94.96,2.71,1.69.77.73,1.37,1.58,1.8,2.55.43.97.65,2.04.65,3.2s-.22,2.24-.65,3.22c-.43.98-1.03,1.83-1.8,2.55-.77.72-1.67,1.28-2.71,1.68-1.04.4-2.18.6-3.44.6ZM432.6,482.28c.59,0,1.14-.1,1.65-.31.51-.21.95-.5,1.33-.9.38-.39.67-.86.88-1.4.21-.55.32-1.15.32-1.81s-.11-1.29-.32-1.82c-.21-.54-.51-1-.88-1.39-.38-.39-.82-.69-1.33-.89-.51-.21-1.06-.31-1.65-.31s-1.14.1-1.65.31c-.51.21-.95.5-1.33.89-.38.39-.67.85-.88,1.39-.22.54-.32,1.14-.32,1.82s.11,1.27.32,1.81c.21.55.51,1.01.88,1.4.38.39.82.69,1.33.9.51.21,1.06.31,1.65.31ZM443.49,485.6v-15.47h4.38v12h7.38v3.47h-11.76ZM464.53,485.91c-1.24,0-2.38-.2-3.43-.6-1.05-.4-1.96-.96-2.73-1.69-.77-.73-1.37-1.58-1.8-2.55-.43-.97-.64-2.04-.64-3.2s.21-2.23.64-3.2c.43-.97,1.03-1.82,1.8-2.55.77-.73,1.68-1.29,2.73-1.69,1.05-.4,2.19-.6,3.43-.6s2.4.2,3.44.6c1.04.4,1.94.96,2.71,1.69.77.73,1.37,1.58,1.8,2.55.43.97.65,2.04.65,3.2s-.22,2.24-.65,3.22c-.43.98-1.03,1.83-1.8,2.55-.77.72-1.67,1.28-2.71,1.68-1.04.4-2.18.6-3.44.6ZM464.53,482.28c.59,0,1.14-.1,1.65-.31.51-.21.95-.5,1.33-.9.38-.39.67-.86.88-1.4.21-.55.32-1.15.32-1.81s-.11-1.29-.32-1.82c-.21-.54-.51-1-.88-1.39-.38-.39-.82-.69-1.33-.89-.51-.21-1.06-.31-1.65-.31s-1.14.1-1.65.31c-.51.21-.95.5-1.33.89-.37.39-.67.85-.88,1.39-.21.54-.32,1.14-.32,1.82s.11,1.27.32,1.81c.21.55.51,1.01.88,1.4.38.39.82.69,1.33.9.51.21,1.06.31,1.65.31ZM483.16,485.91c-1.22,0-2.36-.2-3.4-.59-1.05-.39-1.95-.95-2.71-1.67-.76-.72-1.35-1.57-1.78-2.55-.43-.98-.64-2.06-.64-3.24s.21-2.26.64-3.24c.43-.98,1.02-1.83,1.79-2.55.77-.72,1.68-1.28,2.73-1.67,1.05-.39,2.21-.59,3.46-.59,1.46,0,2.76.24,3.91.73,1.15.49,2.1,1.19,2.85,2.1l-2.78,2.52c-.53-.57-1.1-1.01-1.71-1.29-.61-.29-1.29-.43-2.04-.43-.66,0-1.27.1-1.81.31-.55.21-1.01.5-1.39.89-.38.39-.68.85-.9,1.39-.21.54-.32,1.14-.32,1.82s.11,1.25.32,1.79c.21.55.51,1.01.9,1.4.38.39.84.69,1.38.91.54.21,1.13.32,1.78.32s1.28-.11,1.9-.32c.62-.21,1.25-.58,1.88-1.1l2.45,3.07c-.88.63-1.91,1.12-3.07,1.46-1.16.34-2.3.51-3.43.51ZM485.79,483.36v-5.83h3.87v6.41l-3.87-.57ZM492.44,485.6v-15.47h4.38v15.47h-4.38ZM498.07,485.6l6.83-15.47h4.31l6.85,15.47h-4.55l-5.35-13.32h1.72l-5.35,13.32h-4.46ZM501.81,482.59l1.13-3.23h7.56l1.13,3.23h-9.81ZM206.59,476.56h7.69v2.36h-7.69v-2.36ZM206.81,483.19h8.73v2.41h-11.6v-15.47h11.29v2.41h-8.42v10.65ZM218.75,485.6v-15.47h2.36l6.76,11.29h-1.24l6.65-11.29h2.36l.02,15.47h-2.72l-.02-11.2h.58l-5.66,9.44h-1.28l-5.75-9.44h.66v11.2h-2.74ZM239.85,485.6v-15.47h6.36c1.37,0,2.54.22,3.54.66.97.44,1.72,1.08,2.25,1.9.53.82.8,1.81.8,2.94s-.27,2.12-.8,2.94c-.53.82-1.28,1.46-2.25,1.9-1,.44-2.17.66-3.54.66h-4.77l1.28-1.35v5.81h-2.87ZM242.72,480.09l-1.28-1.39h4.64c1.26,0,2.23-.26,2.87-.82.64-.53.95-1.28.95-2.25s-.31-1.75-.95-2.28c-.64-.53-1.61-.8-2.87-.8h-4.64l1.28-1.41v8.95ZM255.67,485.6v-15.47h6.36c1.37,0,2.54.22,3.54.66.97.44,1.72,1.08,2.25,1.9.53.82.8,1.81.8,2.94s-.27,2.1-.8,2.92c-.53.82-1.28,1.46-2.25,1.88-.99.44-2.17.66-3.54.66h-4.77l1.28-1.3v5.81h-2.87ZM265.79,485.6l-3.91-5.61h3.07l3.93,5.61h-3.09ZM258.54,480.09l-1.28-1.37h4.64c1.26,0,2.23-.27,2.87-.82.64-.55.95-1.3.95-2.28s-.31-1.75-.95-2.28c-.64-.53-1.61-.8-2.87-.8h-4.64l1.28-1.41v8.95ZM274.47,476.56h7.69v2.36h-7.69v-2.36ZM274.7,483.19h8.73v2.41h-11.6v-15.47h11.29v2.41h-8.42v10.65ZM291.42,485.82c-1.22,0-2.37-.18-3.47-.53-1.1-.33-1.99-.77-2.63-1.33l.99-2.23c.62.49,1.39.88,2.3,1.21.91.33,1.86.49,2.81.49.82,0,1.46-.09,1.97-.26.51-.18.86-.42,1.1-.73.24-.29.35-.64.35-1.02,0-.46-.18-.86-.51-1.15-.33-.29-.77-.51-1.3-.69-.55-.15-1.15-.31-1.79-.46-.66-.15-1.33-.33-1.97-.53-.66-.2-1.26-.44-1.79-.77-.55-.31-.99-.73-1.33-1.26-.33-.53-.51-1.22-.51-2.03s.22-1.61.69-2.32c.44-.68,1.13-1.26,2.06-1.68.91-.42,2.08-.62,3.49-.62.93,0,1.86.11,2.76.35.91.24,1.7.57,2.39,1.02l-.91,2.23c-.69-.42-1.41-.73-2.14-.93-.73-.2-1.44-.29-2.12-.29-.8,0-1.44.09-1.92.29-.51.2-.86.44-1.08.75-.24.31-.35.66-.35,1.06,0,.46.18.84.51,1.13.33.29.75.53,1.3.69.53.15,1.13.31,1.79.46.66.15,1.33.33,1.99.53.64.2,1.24.44,1.79.75.53.31.97.73,1.3,1.26.33.53.49,1.19.49,2.01s-.22,1.59-.66,2.28c-.46.71-1.15,1.26-2.08,1.68-.93.44-2.1.64-3.51.64ZM298.34,485.6l6.96-15.47h2.83l6.98,15.47h-3.01l-5.99-13.94h1.15l-5.97,13.94h-2.96ZM301.54,482.02l.77-2.25h8.35l.77,2.25h-9.9ZM323.18,485.6v-15.47h6.76c1.68,0,3.16.33,4.42.97,1.26.64,2.25,1.55,2.96,2.7.71,1.15,1.06,2.5,1.06,4.07s-.35,2.9-1.06,4.04c-.71,1.17-1.7,2.08-2.96,2.72-1.26.64-2.74.97-4.42.97h-6.76ZM326.05,483.17h3.76c1.17,0,2.17-.22,3.03-.66.84-.44,1.5-1.06,1.97-1.86.46-.8.68-1.72.68-2.78s-.22-2.01-.68-2.81c-.46-.77-1.13-1.39-1.97-1.84-.86-.44-1.86-.66-3.03-.66h-3.76v10.61ZM344.08,476.56h7.69v2.36h-7.69v-2.36ZM344.3,483.19h8.73v2.41h-11.6v-15.47h11.29v2.41h-8.42v10.65ZM239.61,511.74v-15.47h4.38v15.47h-4.38ZM247.1,511.74v-15.47h3.6l8.53,10.3h-1.7v-10.3h4.29v15.47h-3.6l-8.53-10.3h1.7v10.3h-4.29ZM268.97,503.06h7.14v3.38h-7.14v-3.38ZM269.28,511.74h-4.37v-15.47h12.13v3.38h-7.76v12.09ZM286.76,512.05c-1.24,0-2.38-.2-3.42-.6-1.05-.4-1.96-.96-2.73-1.69-.77-.73-1.37-1.58-1.8-2.55-.43-.97-.64-2.04-.64-3.2s.21-2.23.64-3.2c.43-.97,1.03-1.82,1.8-2.55.77-.73,1.68-1.29,2.73-1.69,1.05-.4,2.19-.6,3.42-.6s2.4.2,3.44.6c1.04.4,1.94.96,2.71,1.69.77.73,1.37,1.58,1.8,2.55.43.97.65,2.04.65,3.2s-.22,2.24-.65,3.21c-.43.98-1.03,1.83-1.8,2.55-.77.72-1.67,1.28-2.71,1.68-1.04.4-2.18.6-3.44.6ZM286.76,508.42c.59,0,1.14-.1,1.65-.31.51-.21.95-.5,1.33-.9.38-.39.67-.86.88-1.4.21-.54.32-1.15.32-1.81s-.11-1.28-.32-1.82c-.21-.54-.51-1-.88-1.39-.38-.39-.82-.69-1.33-.89-.51-.21-1.06-.31-1.65-.31s-1.14.1-1.65.31c-.51.21-.95.5-1.33.89-.37.39-.67.85-.88,1.39-.21.54-.32,1.15-.32,1.82s.11,1.27.32,1.81c.21.55.51,1.01.88,1.4.38.39.82.69,1.33.9.51.21,1.06.31,1.65.31ZM297.66,511.74v-15.47h7.07c1.41,0,2.63.23,3.66.68,1.02.46,1.81,1.12,2.37,1.98.56.86.84,1.88.84,3.06s-.28,2.17-.84,3.02c-.56.85-1.35,1.49-2.37,1.94-1.02.45-2.24.67-3.66.67h-4.64l1.94-1.83v5.94h-4.38ZM307.22,511.74l-3.84-5.64h4.66l3.87,5.64h-4.68ZM302.03,506.26l-1.94-2.01h4.37c.91,0,1.59-.2,2.04-.6.45-.4.67-.95.67-1.66s-.22-1.28-.67-1.68c-.45-.4-1.13-.6-2.04-.6h-4.37l1.94-2.01v8.55ZM314.01,511.74v-15.47h3.6l6.41,10.52h-1.9l6.23-10.52h3.6l.04,15.47h-4.02l-.04-9.35h.69l-4.66,7.82h-1.95l-4.79-7.82h.84v9.35h-4.04ZM333.23,511.74l6.83-15.47h4.31l6.85,15.47h-4.55l-5.35-13.32h1.72l-5.35,13.32h-4.46ZM336.97,508.73l1.13-3.23h7.56l1.13,3.23h-9.81ZM359.95,512.05c-1.22,0-2.35-.2-3.39-.59-1.04-.39-1.94-.95-2.69-1.67-.76-.72-1.35-1.57-1.78-2.55-.43-.98-.64-2.06-.64-3.24s.21-2.26.64-3.24c.43-.98,1.02-1.83,1.78-2.55.76-.72,1.66-1.28,2.69-1.67,1.04-.39,2.17-.58,3.39-.58,1.43,0,2.71.25,3.83.75,1.13.5,2.07,1.22,2.82,2.16l-2.78,2.52c-.5-.59-1.05-1.04-1.65-1.35-.6-.31-1.26-.46-2-.46-.63,0-1.22.1-1.75.31-.53.21-.98.5-1.36.89-.38.39-.67.86-.88,1.4-.21.55-.32,1.15-.32,1.81s.11,1.27.32,1.81c.21.55.51,1.01.88,1.4.38.39.83.69,1.36.9.53.21,1.11.31,1.75.31.74,0,1.4-.15,2-.46.6-.31,1.14-.76,1.65-1.35l2.78,2.52c-.75.93-1.69,1.65-2.82,2.15-1.13.51-2.4.76-3.83.76ZM358.6,516.95c-.37,0-.75-.04-1.14-.13-.39-.09-.71-.2-.96-.33l.58-1.66c.19.09.4.16.63.22.23.06.48.09.74.09.4,0,.68-.06.85-.18.17-.12.25-.27.25-.44s-.08-.31-.23-.41c-.16-.09-.41-.14-.76-.14h-.82l.58-2.43h2.19l-.31,1.33c.68.07,1.16.29,1.46.64.29.35.44.74.44,1.15,0,.71-.32,1.27-.95,1.68-.63.41-1.48.62-2.54.62ZM366.42,511.74l6.83-15.47h4.31l6.85,15.47h-4.55l-5.35-13.32h1.72l-5.35,13.32h-4.46ZM370.16,508.73l1.13-3.23h7.56l1.13,3.23h-9.81ZM377.14,495.17c-.4,0-.75-.07-1.05-.21-.3-.14-.58-.3-.83-.47-.25-.18-.48-.34-.68-.48-.21-.14-.41-.21-.62-.21-.29,0-.53.1-.71.31-.18.21-.28.49-.31.86h-2.06c.03-1.07.29-1.93.78-2.56.49-.63,1.17-.95,2.02-.95.4,0,.75.07,1.06.2.31.13.58.29.83.48.24.18.47.34.69.48.21.13.42.2.61.2.3,0,.53-.1.72-.3.18-.2.28-.47.3-.81h2.05c-.02,1.03-.27,1.87-.77,2.51-.5.64-1.18.96-2.03.96ZM393.23,512.05c-1.24,0-2.38-.2-3.43-.6-1.05-.4-1.96-.96-2.73-1.69-.77-.73-1.37-1.58-1.8-2.55-.43-.97-.64-2.04-.64-3.2s.21-2.23.64-3.2c.43-.97,1.03-1.82,1.8-2.55.77-.73,1.68-1.29,2.73-1.69,1.05-.4,2.19-.6,3.43-.6s2.4.2,3.44.6c1.04.4,1.94.96,2.71,1.69.77.73,1.37,1.58,1.8,2.55.43.97.65,2.04.65,3.2s-.22,2.24-.65,3.21c-.44.98-1.03,1.83-1.8,2.55-.77.72-1.67,1.28-2.71,1.68-1.04.4-2.18.6-3.44.6ZM393.23,508.42c.59,0,1.14-.1,1.65-.31.51-.21.95-.5,1.33-.9.38-.39.67-.86.88-1.4.21-.54.32-1.15.32-1.81s-.11-1.28-.32-1.82c-.21-.54-.51-1-.88-1.39-.38-.39-.82-.69-1.33-.89-.51-.21-1.06-.31-1.65-.31s-1.14.1-1.65.31c-.51.21-.95.5-1.33.89-.38.39-.67.85-.88,1.39-.21.54-.32,1.15-.32,1.82s.11,1.27.32,1.81c.21.55.51,1.01.88,1.4.38.39.82.69,1.33.9.51.21,1.06.31,1.65.31ZM410.75,511.74v-15.47h6.76c1.68,0,3.15.32,4.42.97,1.27.65,2.25,1.55,2.96,2.7.71,1.15,1.06,2.5,1.06,4.07s-.35,2.9-1.06,4.05c-.71,1.16-1.69,2.06-2.96,2.71-1.27.65-2.74.97-4.42.97h-6.76ZM413.62,509.31h3.76c1.16,0,2.17-.22,3.02-.66.85-.44,1.5-1.06,1.97-1.86.46-.8.7-1.72.7-2.78s-.23-2.01-.7-2.8c-.46-.79-1.12-1.4-1.97-1.84-.85-.44-1.85-.66-3.02-.66h-3.76v10.61ZM436.25,511.96c-1.21,0-2.32-.2-3.34-.6-1.02-.4-1.9-.95-2.65-1.67-.75-.71-1.33-1.55-1.75-2.52-.41-.96-.62-2.02-.62-3.17s.21-2.21.62-3.17c.41-.96,1-1.8,1.75-2.52.75-.71,1.64-1.27,2.65-1.67,1.02-.4,2.12-.6,3.31-.6s2.32.2,3.33.6c1.01.4,1.89.95,2.64,1.67.75.71,1.33,1.55,1.75,2.52.41.97.62,2.02.62,3.17s-.21,2.21-.62,3.18c-.41.97-.99,1.81-1.75,2.52-.75.71-1.63,1.26-2.64,1.66-1.01.4-2.11.6-3.3.6ZM436.23,509.44c.78,0,1.5-.13,2.17-.4.66-.26,1.24-.64,1.72-1.14.49-.49.86-1.07,1.14-1.72.27-.66.41-1.38.41-2.18s-.14-1.52-.41-2.18c-.27-.66-.65-1.23-1.14-1.72-.49-.49-1.06-.87-1.72-1.14-.66-.27-1.38-.4-2.17-.4s-1.5.13-2.15.4c-.66.27-1.23.64-1.72,1.14-.49.49-.88,1.07-1.15,1.72-.27.66-.41,1.38-.41,2.18s.14,1.5.41,2.17c.27.66.65,1.24,1.14,1.74.49.49,1.06.87,1.72,1.14.66.27,1.39.4,2.17.4ZM453.7,511.74v-15.47h6.36c1.37,0,2.55.22,3.52.66.98.44,1.74,1.07,2.27,1.9.53.83.8,1.81.8,2.94s-.27,2.11-.8,2.94c-.53.82-1.29,1.46-2.27,1.9-.98.44-2.15.66-3.52.66h-4.77l1.28-1.35v5.81h-2.87ZM456.58,506.24l-1.28-1.39h4.64c1.27,0,2.22-.27,2.86-.81.64-.54.96-1.29.96-2.26s-.32-1.75-.96-2.28c-.64-.53-1.59-.8-2.86-.8h-4.64l1.28-1.41v8.95ZM469.53,511.74v-15.47h2.87v15.47h-2.87ZM474.39,511.74l6.96-15.47h2.83l6.98,15.47h-3l-5.99-13.94h1.15l-5.97,13.94h-2.96ZM477.59,508.16l.77-2.25h8.35l.77,2.25h-9.9ZM499.45,511.96c-2.12,0-3.78-.6-4.98-1.79-1.2-1.19-1.8-2.92-1.8-5.17v-8.73h2.87v8.62c0,1.59.34,2.75,1.03,3.47.68.72,1.65,1.08,2.91,1.08s2.22-.36,2.89-1.08c.68-.72,1.02-1.88,1.02-3.47v-8.62h2.83v8.73c0,2.25-.6,3.98-1.8,5.17-1.2,1.19-2.85,1.79-4.96,1.79ZM510.23,511.74v-15.47h2.87v15.47h-2.87ZM509.81,495.01l2.98-3.03h3.25l-3.84,3.03h-2.39ZM203.99,511.74v-15.47h6.76c1.68,0,3.15.32,4.42.97,1.27.65,2.25,1.55,2.96,2.7.71,1.15,1.06,2.5,1.06,4.07s-.35,2.9-1.06,4.05c-.71,1.16-1.69,2.06-2.96,2.71-1.27.65-2.74.97-4.42.97h-6.76ZM206.86,509.31h3.76c1.16,0,2.17-.22,3.02-.66.85-.44,1.5-1.06,1.97-1.86.46-.8.7-1.72.7-2.78s-.23-2.01-.7-2.8c-.46-.79-1.12-1.4-1.97-1.84-.85-.44-1.85-.66-3.02-.66h-3.76v10.61ZM218,511.74l6.96-15.47h2.83l6.98,15.47h-3.01l-5.99-13.94h1.15l-5.97,13.94h-2.96ZM221.2,508.16l.77-2.25h8.35l.77,2.25h-9.9Z"></path><path class="cls-2" d="M544.8,484.72l8.25,4.76,8.25,4.76v19.06l-8.25,4.76-8.25,4.76-8.25-4.76-8.25-4.76v-19.06l8.25-4.76,8.25-4.76Z"></path><path class="cls-1" d="M392.1,363.97v19.91l30.72-6.58v-13.33h-30.72Z"></path><path class="cls-1" d="M545.06,389.86v55.11h30.72v-61.98l-30.72,6.87Z"></path><path class="cls-1" d="M545.06,363.97v19.91l30.72-6.58v-13.33h-30.72Z"></path></svg>