<svg xmlns="http://www.w3.org/2000/svg" id="Camada_1" data-name="Camada 1" viewBox="0 0 912.32 864"><defs><style>      .cls-1 {        fill: #888989;      }    </style></defs><g><path class="cls-1" d="M570.47,378.29c16.02-7.88,31.96-13.87,47.69-15.06.12-2.75.24-5.48.37-8.19-15.75,1.65-31.66,6.99-47.66,14.35-.13,2.96-.27,5.93-.4,8.9"></path><path class="cls-1" d="M618.34,369.41c-14.71.84-29.62,6.23-44.61,13.52-.13,2.95-.26,5.9-.4,8.87,15.01-7.66,29.94-13.49,44.63-13.99.13-2.82.25-5.62.38-8.4"></path><path class="cls-1" d="M565.94,410.78c18.64-10.37,37.22-19.31,55.35-18.07.13-2.91.26-5.8.39-8.67-18.14-.81-36.7,7.57-55.33,17.68-.13,3.02-.27,6.04-.4,9.06"></path><path class="cls-1" d="M622.94,414.57c-.13,2.98-.27,5.98-.4,9-39.62-5.8-81.8,45.74-121.42,39.97l1.71-8.71c39.24,4.56,80.95-46.37,120.12-40.26"></path><path class="cls-1" d="M630.43,432.03c-.14,3.03-.27,6.07-.41,9.1-22.37-8.61-45.76,5.64-69.08,18.1-23.2,12.79-46.33,23.81-68.71,18.23l1.69-8.66c44.36,13.28,92.25-52.4,136.5-36.77"></path><path class="cls-1" d="M626.16,446.84c-.14,3.05-.27,6.1-.41,9.17-21.47-5.44-43.8,8.21-66.01,19.32-22.15,11.59-44.2,20.65-65.72,18.12l1.7-8.7c21.06,3.19,42.7-6.72,64.42-18.5,22.24-11.68,44.56-25.31,66.01-19.41"></path><path class="cls-1" d="M546.5,517.4c-.13,2.84-.25,5.67-.38,8.49-12.74,3.96-25.43,6.54-38.12,9.23l1.55-7.9c12.27-2.29,24.58-5.37,36.95-9.81"></path><path class="cls-1" d="M620.43,470.81c-20.54-1.83-41.74,10.99-62.79,20.49-21.54,10.39-42.92,17.33-63.99,17.21l1.71-8.75c20.58,1.25,41.57-6.7,62.68-17.49,21.08-10.24,42.29-23.3,62.8-20.84l-.42,9.38Z"></path><path class="cls-1" d="M591.81,492.42c-13.22,4.69-26.53,11.37-39.78,16.51-16.77,6.82-33.43,11.18-50,13.57l1.62-8.27c16.12-1.71,32.4-6.79,48.78-14.11,13.27-5.71,26.6-12.89,39.83-17.67l-.45,9.98Z"></path><path class="cls-1" d="M612.72,341.89c-.12,2.58-.23,5.19-.35,7.82-11.99,1.99-24.07,5.82-36.2,10.84l.39-8.63c12.11-4.5,24.16-7.86,36.17-10.02"></path><path class="cls-1" d="M592.7,333.11c5.73-1.48,11.47-2.84,17.2-4.23-.02,2.52-.04,5.06-.06,7.63-5.83,1.26-11.65,2.69-17.48,4.36l.35-7.77Z"></path><path class="cls-1" d="M618.59,407.5c-23.23-1.16-47.28,15.94-71.12,28.42l.41-9.15c23.84-12.51,47.87-29.06,71.11-28.07-.13,2.91-.26,5.84-.39,8.8"></path><path class="cls-1" d="M656.18,471.49h-6.22l-1.29,2.92h-1.72l5.3-11.7h1.65l5.32,11.7h-1.76l-1.29-2.92ZM655.6,470.16l-2.52-5.73-2.52,5.73h5.05Z"></path><path class="cls-1" d="M672.44,475.49c-.38.45-.82.79-1.32,1.02-.5.23-1.04.35-1.62.35-.74,0-1.42-.18-2.06-.53-.64-.35-1.37-.95-2.2-1.8-1.1-.06-2.1-.35-2.98-.89-.89-.54-1.58-1.25-2.07-2.13-.5-.89-.74-1.87-.74-2.95s.27-2.15.81-3.06c.54-.91,1.28-1.63,2.23-2.15.95-.52,2.01-.78,3.19-.78s2.23.26,3.18.78c.95.52,1.69,1.23,2.22,2.14.53.91.8,1.93.8,3.07,0,.96-.19,1.84-.58,2.64-.38.8-.92,1.48-1.62,2.02-.7.55-1.5.93-2.4,1.14.39.41.77.71,1.13.89.36.18.73.28,1.11.28.82,0,1.54-.33,2.14-1l.79.95ZM661.7,470.87c.4.69.94,1.22,1.64,1.61.7.39,1.47.58,2.33.58s1.62-.19,2.31-.58c.69-.39,1.23-.93,1.63-1.61.4-.69.59-1.45.59-2.3s-.2-1.61-.59-2.3c-.39-.69-.94-1.22-1.63-1.61-.69-.39-1.46-.59-2.31-.59s-1.64.2-2.33.59c-.7.39-1.24.93-1.64,1.61-.4.69-.59,1.45-.59,2.3s.2,1.61.59,2.3"></path><path class="cls-1" d="M675.35,473.22c-.87-.89-1.3-2.17-1.3-3.85v-6.65h1.67v6.59c0,2.51,1.1,3.76,3.29,3.76,1.07,0,1.89-.31,2.46-.93.57-.62.85-1.56.85-2.83v-6.59h1.62v6.65c0,1.68-.43,2.97-1.3,3.85-.87.89-2.08,1.33-3.64,1.33s-2.77-.44-3.64-1.34"></path><rect class="cls-1" x="687.1" y="462.72" width="1.67" height="11.7"></rect><polygon class="cls-1" points="699.1 464.17 695.09 464.17 695.09 462.72 704.77 462.72 704.77 464.17 700.76 464.17 700.76 474.42 699.1 474.42 699.1 464.17"></polygon><polygon class="cls-1" points="714.93 472.97 714.93 474.42 706.44 474.42 706.44 462.72 714.7 462.72 714.7 464.17 708.11 464.17 708.11 467.77 713.98 467.77 713.98 469.19 708.11 469.19 708.11 472.97 714.93 472.97"></polygon><polygon class="cls-1" points="728.03 474.42 728.02 465.89 723.79 473 723.02 473 718.79 465.95 718.79 474.42 717.19 474.42 717.19 462.72 718.56 462.72 723.44 470.94 728.25 462.72 729.62 462.72 729.64 474.42 728.03 474.42"></polygon><polygon class="cls-1" points="739.7 464.93 735.96 464.93 735.96 462.72 746.15 462.72 746.15 464.93 742.41 464.93 742.41 474.42 739.7 474.42 739.7 464.93"></polygon><path class="cls-1" d="M754.95,474.42l-2.26-3.26h-2.49v3.26h-2.71v-11.7h5.06c1.04,0,1.94.17,2.7.52.76.35,1.35.84,1.76,1.47.41.64.62,1.39.62,2.26s-.21,1.62-.63,2.25c-.42.63-1.01,1.11-1.78,1.45l2.62,3.76h-2.91ZM754.26,465.45c-.42-.35-1.04-.53-1.86-.53h-2.21v4.08h2.21c.81,0,1.43-.18,1.86-.53.42-.36.63-.86.63-1.5s-.21-1.16-.63-1.51"></path><path class="cls-1" d="M767.91,471.91h-5.43l-1.04,2.51h-2.77l5.22-11.7h2.67l5.23,11.7h-2.84l-1.04-2.51ZM767.06,469.86l-1.86-4.48-1.86,4.48h3.71Z"></path><path class="cls-1" d="M783.18,469.4c.38.5.57,1.11.57,1.83,0,1.03-.4,1.81-1.19,2.36-.8.55-1.96.83-3.48.83h-6.05v-11.7h5.72c1.43,0,2.52.27,3.29.82.76.55,1.14,1.29,1.14,2.22,0,.57-.14,1.08-.41,1.52-.27.44-.65.8-1.14,1.05.67.21,1.19.57,1.57,1.06M775.71,464.76v2.76h2.69c.67,0,1.18-.12,1.52-.35.35-.23.52-.58.52-1.04s-.17-.8-.52-1.03c-.35-.23-.85-.34-1.52-.34h-2.69ZM780.48,472.03c.36-.23.54-.6.54-1.09,0-.97-.72-1.45-2.16-1.45h-3.16v2.89h3.16c.71,0,1.25-.12,1.61-.35"></path><path class="cls-1" d="M793.39,471.91h-5.43l-1.04,2.51h-2.77l5.22-11.7h2.67l5.23,11.7h-2.84l-1.04-2.51ZM792.53,469.86l-1.86-4.48-1.86,4.48h3.71Z"></path><polygon class="cls-1" points="798.49 462.72 801.2 462.72 801.2 472.21 807.06 472.21 807.06 474.42 798.49 474.42 798.49 462.72"></polygon><polygon class="cls-1" points="819.17 462.72 819.17 474.42 816.46 474.42 816.46 469.62 811.15 469.62 811.15 474.42 808.44 474.42 808.44 462.72 811.15 462.72 811.15 467.33 816.46 467.33 816.46 462.72 819.17 462.72"></polygon><path class="cls-1" d="M824.34,473.83c-.98-.52-1.74-1.25-2.29-2.16-.55-.92-.83-1.95-.83-3.1s.28-2.18.83-3.1c.55-.92,1.31-1.64,2.29-2.17.97-.52,2.07-.79,3.28-.79s2.31.26,3.28.79c.97.52,1.73,1.25,2.29,2.17.56.92.84,1.95.84,3.1s-.28,2.18-.84,3.1c-.56.92-1.32,1.64-2.29,2.16-.97.52-2.06.79-3.28.79s-2.31-.26-3.28-.79M829.49,471.84c.56-.32.99-.76,1.31-1.33.32-.57.48-1.21.48-1.94s-.16-1.37-.48-1.94c-.32-.57-.76-1.01-1.31-1.33-.56-.32-1.18-.48-1.87-.48s-1.31.16-1.87.48c-.56.32-.99.76-1.31,1.33-.32.57-.48,1.22-.48,1.94s.16,1.37.48,1.94c.32.57.76,1.01,1.31,1.33.56.32,1.18.48,1.87.48s1.31-.16,1.87-.48"></path><path class="cls-1" d="M835.27,474.19c-.22-.22-.33-.49-.33-.83s.11-.59.33-.81c.22-.22.49-.33.8-.33s.57.11.79.32c.21.21.32.49.32.82s-.11.61-.33.83c-.22.22-.48.33-.78.33s-.58-.11-.8-.33"></path><path class="cls-1" d="M656.18,490.84h-6.22l-1.29,2.93h-1.72l5.3-11.7h1.65l5.32,11.7h-1.76l-1.29-2.93ZM655.6,489.51l-2.52-5.73-2.52,5.73h5.05Z"></path><path class="cls-1" d="M672.44,494.84c-.38.45-.82.79-1.32,1.02-.5.23-1.04.35-1.62.35-.74,0-1.42-.18-2.06-.53-.64-.35-1.37-.95-2.2-1.8-1.1-.06-2.1-.35-2.98-.89-.89-.54-1.58-1.25-2.07-2.13-.5-.89-.74-1.87-.74-2.95s.27-2.15.81-3.06c.54-.91,1.28-1.63,2.23-2.15.95-.52,2.01-.78,3.19-.78s2.23.26,3.18.78c.95.52,1.69,1.23,2.22,2.14.53.91.8,1.93.8,3.07,0,.96-.19,1.84-.58,2.64-.38.8-.92,1.48-1.62,2.02-.7.55-1.5.93-2.4,1.14.39.41.77.71,1.13.89.36.18.73.28,1.11.28.82,0,1.54-.33,2.14-1l.79.95ZM661.7,490.22c.4.69.94,1.22,1.64,1.61.7.39,1.47.58,2.33.58s1.62-.19,2.31-.58c.69-.39,1.23-.93,1.63-1.61.4-.69.59-1.45.59-2.3s-.2-1.61-.59-2.3c-.39-.69-.94-1.22-1.63-1.61-.69-.39-1.46-.59-2.31-.59s-1.64.2-2.33.59c-.7.39-1.24.93-1.64,1.61-.4.69-.59,1.45-.59,2.3s.2,1.61.59,2.3"></path><path class="cls-1" d="M675.35,492.56c-.87-.89-1.3-2.17-1.3-3.85v-6.65h1.67v6.59c0,2.51,1.1,3.76,3.29,3.76,1.07,0,1.89-.31,2.46-.93.57-.62.85-1.56.85-2.83v-6.59h1.62v6.65c0,1.68-.43,2.97-1.3,3.85-.87.89-2.08,1.33-3.64,1.33s-2.77-.44-3.64-1.34"></path><rect class="cls-1" x="687.1" y="482.07" width="1.67" height="11.7"></rect><polygon class="cls-1" points="699.1 483.52 695.09 483.52 695.09 482.07 704.77 482.07 704.77 483.52 700.76 483.52 700.76 493.77 699.1 493.77 699.1 483.52"></polygon><polygon class="cls-1" points="714.93 492.31 714.93 493.77 706.44 493.77 706.44 482.07 714.7 482.07 714.7 483.52 708.11 483.52 708.11 487.12 713.98 487.12 713.98 488.54 708.11 488.54 708.11 492.31 714.93 492.31"></polygon><polygon class="cls-1" points="728.03 493.77 728.02 485.24 723.79 492.35 723.02 492.35 718.79 485.29 718.79 493.77 717.19 493.77 717.19 482.07 718.56 482.07 723.44 490.29 728.25 482.07 729.62 482.07 729.64 493.77 728.03 493.77"></polygon><polygon class="cls-1" points="739.98 484.24 739.98 487.33 745.4 487.33 745.4 489.51 739.98 489.51 739.98 493.77 737.28 493.77 737.28 482.07 746.12 482.07 746.12 484.24 739.98 484.24"></polygon><path class="cls-1" d="M749.19,492.58c-.93-.92-1.4-2.24-1.4-3.96v-6.55h2.71v6.45c0,2.1.87,3.14,2.61,3.14.85,0,1.49-.25,1.94-.76.45-.51.67-1.3.67-2.38v-6.45h2.67v6.55c0,1.72-.47,3.04-1.4,3.96-.93.93-2.23,1.39-3.9,1.39s-2.97-.46-3.9-1.39"></path><polygon class="cls-1" points="763.43 484.27 759.69 484.27 759.69 482.07 769.89 482.07 769.89 484.27 766.14 484.27 766.14 493.77 763.43 493.77 763.43 484.27"></polygon><path class="cls-1" d="M772.58,492.58c-.93-.92-1.4-2.24-1.4-3.96v-6.55h2.71v6.45c0,2.1.87,3.14,2.61,3.14.85,0,1.49-.25,1.94-.76.45-.51.67-1.3.67-2.38v-6.45h2.67v6.55c0,1.72-.47,3.04-1.4,3.96-.93.93-2.23,1.39-3.9,1.39s-2.97-.46-3.9-1.39"></path><path class="cls-1" d="M791.9,493.77l-2.26-3.26h-2.49v3.26h-2.71v-11.7h5.06c1.04,0,1.94.17,2.7.52.76.35,1.35.84,1.76,1.47.41.64.62,1.39.62,2.26s-.21,1.62-.63,2.25c-.42.63-1.01,1.11-1.78,1.45l2.62,3.76h-2.91ZM791.21,484.8c-.42-.35-1.04-.53-1.86-.53h-2.21v4.08h2.21c.81,0,1.43-.18,1.86-.53.42-.36.63-.86.63-1.5s-.21-1.16-.63-1.51"></path><path class="cls-1" d="M799.03,493.18c-.98-.52-1.74-1.25-2.29-2.16-.55-.92-.83-1.95-.83-3.1s.28-2.18.83-3.1c.55-.92,1.31-1.64,2.29-2.17.97-.52,2.07-.79,3.28-.79s2.31.26,3.28.79c.97.52,1.73,1.25,2.29,2.17.56.92.84,1.95.84,3.1s-.28,2.18-.84,3.1c-.56.92-1.32,1.64-2.29,2.16-.97.52-2.06.79-3.28.79s-2.31-.26-3.28-.79M804.18,491.19c.56-.32.99-.76,1.31-1.33.32-.57.48-1.21.48-1.94s-.16-1.37-.48-1.94c-.32-.57-.75-1.01-1.31-1.33-.56-.32-1.18-.48-1.87-.48s-1.31.16-1.87.48c-.56.32-.99.76-1.31,1.33-.32.57-.48,1.22-.48,1.94s.16,1.37.48,1.94c.32.57.76,1.01,1.31,1.33.56.32,1.18.48,1.87.48s1.31-.16,1.87-.48"></path><path class="cls-1" d="M809.96,493.54c-.22-.22-.33-.49-.33-.83s.11-.59.33-.81c.22-.22.49-.33.8-.33s.57.11.79.32c.21.21.32.49.32.82s-.11.61-.33.83c-.22.22-.48.33-.78.33s-.58-.11-.8-.33"></path><path class="cls-1" d="M653.42,380.14c.97-.53,2.09-.79,3.34-.79,1.92,0,3.55.68,4.91,2.04l2.09-2.04c-.83-.95-1.86-1.67-3.08-2.16-1.22-.49-2.58-.74-4.07-.74-1.83,0-3.48.39-4.95,1.18-1.47.79-2.62,1.88-3.45,3.27-.83,1.39-1.25,2.96-1.25,4.71s.42,3.32,1.25,4.7c.83,1.39,1.98,2.48,3.43,3.27,1.46.79,3.09,1.18,4.91,1.18,1.29,0,2.54-.2,3.76-.59,1.22-.39,2.29-.95,3.21-1.68v-7.1h-3.13v5.54c-1.05.61-2.27.92-3.66.92-1.24,0-2.34-.27-3.32-.81-.98-.54-1.74-1.29-2.29-2.24-.55-.95-.83-2.02-.83-3.2s.28-2.31.83-3.26c.55-.95,1.31-1.69,2.29-2.21"></path><path class="cls-1" d="M682.12,377.64c-1.46-.79-3.09-1.18-4.91-1.18s-3.45.39-4.91,1.18c-1.46.79-2.6,1.88-3.43,3.28-.83,1.4-1.25,2.96-1.25,4.69s.42,3.29,1.25,4.69c.83,1.4,1.98,2.49,3.43,3.28,1.46.79,3.09,1.18,4.91,1.18s3.45-.39,4.91-1.18c1.46-.79,2.6-1.88,3.43-3.27.83-1.39,1.25-2.96,1.25-4.7s-.42-3.32-1.25-4.71c-.83-1.39-1.98-2.48-3.43-3.27M682.66,388.83c-.54.96-1.29,1.7-2.24,2.24-.95.53-2.02.8-3.2.8s-2.26-.27-3.2-.8c-.95-.53-1.7-1.28-2.24-2.24-.54-.96-.81-2.03-.81-3.22s.27-2.26.81-3.22c.54-.96,1.29-1.7,2.24-2.24.95-.53,2.02-.8,3.2-.8s2.25.27,3.2.8c.95.53,1.7,1.28,2.24,2.24.54.96.81,2.03.81,3.22s-.27,2.26-.81,3.22"></path><polygon class="cls-1" points="697.77 390.45 691.84 376.71 688.25 376.71 696.04 394.52 699.29 394.52 707.05 376.71 703.74 376.71 697.77 390.45"></polygon><polygon class="cls-1" points="713.26 386.83 721.85 386.83 721.85 384.11 713.26 384.11 713.26 379.48 722.95 379.48 722.95 376.71 709.95 376.71 709.95 394.52 723.3 394.52 723.3 391.74 713.26 391.74 713.26 386.83"></polygon><path class="cls-1" d="M741.93,386.5c.65-.97.98-2.12.98-3.46s-.31-2.43-.92-3.38c-.61-.95-1.49-1.68-2.63-2.19-1.14-.51-2.49-.76-4.03-.76h-7.33v17.8h3.31v-5.19h4.02c.31,0,.53,0,.69-.03l3.64,5.21h3.56l-4.1-5.85c1.22-.48,2.16-1.2,2.81-2.16M735.18,386.6h-3.87v-7.1h3.87c1.44,0,2.53.31,3.28.92.75.61,1.12,1.48,1.12,2.62s-.37,2.01-1.12,2.63c-.75.62-1.84.93-3.28.93"></path><polygon class="cls-1" points="760.16 388.77 750.34 376.71 747.62 376.71 747.62 394.52 750.9 394.52 750.9 382.46 760.72 394.52 763.44 394.52 763.44 376.71 760.16 376.71 760.16 388.77"></polygon><path class="cls-1" d="M782.46,377.64c-1.46-.79-3.09-1.18-4.91-1.18s-3.45.39-4.91,1.18c-1.46.79-2.6,1.88-3.43,3.28-.83,1.4-1.25,2.96-1.25,4.69s.42,3.29,1.25,4.69c.83,1.4,1.98,2.49,3.43,3.28,1.46.79,3.09,1.18,4.91,1.18s3.45-.39,4.91-1.18c1.46-.79,2.6-1.88,3.43-3.27.83-1.39,1.25-2.96,1.25-4.7s-.42-3.32-1.25-4.71c-.83-1.39-1.98-2.48-3.43-3.27M783,388.83c-.54.96-1.29,1.7-2.24,2.24-.95.53-2.02.8-3.2.8s-2.26-.27-3.2-.8c-.95-.53-1.7-1.28-2.24-2.24-.54-.96-.81-2.03-.81-3.22s.27-2.26.81-3.22c.54-.96,1.29-1.7,2.24-2.24.95-.53,2.02-.8,3.2-.8s2.25.27,3.2.8c.95.53,1.7,1.28,2.24,2.24.54.96.81,2.03.81,3.22s-.27,2.26-.81,3.22"></path><path class="cls-1" d="M812.55,377.82c-1.47-.74-3.16-1.11-5.06-1.11h-7.78v17.8h7.78c1.9,0,3.59-.37,5.06-1.11,1.48-.74,2.62-1.78,3.43-3.13.81-1.35,1.22-2.9,1.22-4.67s-.41-3.32-1.22-4.67c-.81-1.35-1.96-2.39-3.43-3.13M813.07,388.83c-.53.92-1.3,1.64-2.29,2.14-.99.5-2.14.75-3.45.75h-4.32v-12.21h4.32c1.31,0,2.45.25,3.45.75s1.76,1.21,2.29,2.14c.53.92.8,2,.8,3.22s-.27,2.29-.8,3.22"></path><path class="cls-1" d="M838.39,380.91c-.83-1.39-1.98-2.48-3.43-3.27-1.46-.79-3.09-1.18-4.91-1.18s-3.45.39-4.91,1.18c-1.46.79-2.6,1.88-3.43,3.28-.83,1.4-1.25,2.96-1.25,4.69s.42,3.29,1.25,4.69c.83,1.4,1.98,2.49,3.43,3.28,1.46.79,3.09,1.18,4.91,1.18s3.45-.39,4.91-1.18c1.46-.79,2.6-1.88,3.43-3.27.83-1.39,1.25-2.96,1.25-4.7s-.42-3.32-1.25-4.71M835.49,388.83c-.54.96-1.29,1.7-2.24,2.24-.95.53-2.02.8-3.2.8s-2.26-.27-3.2-.8c-.95-.53-1.7-1.28-2.24-2.24-.54-.96-.81-2.03-.81-3.22s.27-2.26.81-3.22c.54-.96,1.29-1.7,2.24-2.24.95-.53,2.02-.8,3.2-.8s2.25.27,3.2.8c.95.53,1.7,1.28,2.24,2.24.54.96.81,2.03.81,3.22s-.27,2.26-.81,3.22"></path><path class="cls-1" d="M682.77,403.9c3.44,1.55,6.1,3.76,7.97,6.64,1.87,2.88,2.8,6.26,2.8,10.15s-.94,7.26-2.8,10.11c-1.87,2.85-4.53,5.05-7.97,6.6-3.44,1.55-7.5,2.32-12.18,2.32h-9v13.5h-14.61v-51.66h23.61c4.67,0,8.73.78,12.18,2.32M676.49,426.26c1.52-1.3,2.29-3.16,2.29-5.57s-.76-4.28-2.29-5.61c-1.53-1.33-3.79-1.99-6.79-1.99h-8.12v15.13h8.12c3,0,5.26-.65,6.79-1.96"></path><rect class="cls-1" x="696.2" y="401.58" width="14.61" height="51.66"></rect><path class="cls-1" d="M754.35,443.2h-21.84l-4.06,10.04h-14.91l22.8-51.66h14.39l22.88,51.66h-15.2l-4.06-10.04ZM750.07,432.43l-6.64-16.53-6.64,16.53h13.28Z"></path><path class="cls-1" d="M776.67,448c-4.26-4.18-6.38-10.11-6.38-17.78v-28.63h14.61v28.19c0,8.27,3.27,12.4,9.81,12.4s9.74-4.13,9.74-12.4v-28.19h14.39v28.63c0,7.67-2.13,13.6-6.38,17.78-4.26,4.18-10.22,6.27-17.9,6.27s-13.64-2.09-17.9-6.27"></path><polygon class="cls-1" points="837.44 401.58 837.44 401.58 822.83 401.58 822.83 410.97 837.44 401.58"></polygon><polygon class="cls-1" points="822.83 415.21 822.83 453.24 837.44 453.24 837.44 405.82 822.83 415.21"></polygon><rect class="cls-1" x="657.65" y="385.41" width="5.88" height="2.61"></rect></g><g><path class="cls-1" d="M260.87,418.9c-1.61,0-3.15-.26-4.62-.79-1.47-.53-2.61-1.2-3.41-2.02l.9-1.76c.76.74,1.79,1.36,3.07,1.87,1.29.51,2.64.76,4.06.76s2.47-.17,3.32-.51c.85-.34,1.48-.8,1.88-1.37s.6-1.21.6-1.92c0-.84-.24-1.52-.73-2.04-.48-.51-1.12-.92-1.9-1.22-.78-.3-1.65-.56-2.59-.79s-1.89-.47-2.84-.73c-.95-.26-1.82-.6-2.61-1.03-.79-.43-1.43-1-1.91-1.71-.48-.71-.73-1.64-.73-2.79,0-1.07.28-2.05.85-2.95.57-.9,1.44-1.62,2.61-2.16,1.17-.55,2.68-.82,4.51-.82,1.21,0,2.42.17,3.61.51,1.19.34,2.22.81,3.09,1.41l-.77,1.82c-.93-.62-1.91-1.07-2.95-1.36-1.04-.29-2.04-.43-3.01-.43-1.3,0-2.37.18-3.21.53-.84.35-1.47.82-1.87,1.4-.4.59-.6,1.25-.6,1.99,0,.84.24,1.52.73,2.04.48.51,1.12.92,1.91,1.2.79.29,1.66.55,2.61.77.95.23,1.89.47,2.83.74s1.8.61,2.59,1.03c.79.42,1.43.98,1.91,1.68.48.7.73,1.62.73,2.75,0,1.05-.29,2.02-.86,2.92-.58.9-1.46,1.62-2.64,2.16-1.18.55-2.7.82-4.55.82Z"></path><path class="cls-1" d="M276.18,416.74h13v1.98h-15.29v-21.62h14.82v1.98h-12.54v17.66ZM275.94,406.76h11.43v1.95h-11.43v-1.95Z"></path><path class="cls-1" d="M303.95,418.9c-1.63,0-3.13-.27-4.51-.82-1.38-.55-2.57-1.31-3.58-2.3-1.01-.99-1.8-2.15-2.36-3.49-.57-1.34-.85-2.8-.85-4.39s.28-3.05.85-4.39c.57-1.34,1.36-2.5,2.38-3.49s2.22-1.75,3.6-2.3c1.38-.55,2.88-.82,4.51-.82s3.04.26,4.42.79c1.38.53,2.54,1.31,3.49,2.36l-1.45,1.45c-.89-.91-1.86-1.56-2.93-1.96-1.07-.4-2.22-.6-3.46-.6-1.3,0-2.5.22-3.61.66-1.11.44-2.08,1.07-2.9,1.88-.82.81-1.47,1.76-1.93,2.84-.46,1.08-.69,2.27-.69,3.57s.23,2.49.69,3.57,1.11,2.03,1.93,2.84c.82.81,1.79,1.44,2.9,1.88,1.11.44,2.32.66,3.61.66s2.39-.2,3.46-.62c1.07-.41,2.05-1.07,2.93-1.98l1.45,1.45c-.95,1.05-2.11,1.84-3.49,2.38-1.38.54-2.86.8-4.45.8Z"></path><path class="cls-1" d="M316.76,418.72v-21.62h8.09c1.83,0,3.41.29,4.72.88,1.32.59,2.33,1.43,3.04,2.53s1.07,2.43,1.07,4-.36,2.84-1.07,3.94-1.72,1.94-3.04,2.53c-1.32.59-2.89.88-4.72.88h-6.82l1.02-1.05v7.91h-2.29ZM319.05,411l-1.02-1.08h6.76c2.16,0,3.8-.47,4.93-1.42,1.12-.95,1.68-2.27,1.68-3.98s-.56-3.07-1.68-4.01c-1.12-.95-2.76-1.42-4.93-1.42h-6.76l1.02-1.08v13ZM331.52,418.72l-5.56-7.84h2.47l5.59,7.84h-2.5Z"></path><path class="cls-1" d="M341.37,416.74h13v1.98h-15.29v-21.62h14.82v1.98h-12.54v17.66ZM341.13,406.76h11.43v1.95h-11.43v-1.95Z"></path><path class="cls-1" d="M363.95,418.72v-19.64h-7.6v-1.98h17.48v1.98h-7.6v19.64h-2.29Z"></path><path class="cls-1" d="M374.01,418.72l9.88-21.62h2.25l9.88,21.62h-2.41l-9.08-20.29h.93l-9.08,20.29h-2.38ZM377.9,412.94l.68-1.85h12.57l.68,1.85h-13.93Z"></path><path class="cls-1" d="M399.61,418.72v-21.62h8.09c1.83,0,3.41.29,4.72.88,1.32.59,2.33,1.43,3.04,2.53s1.07,2.43,1.07,4-.36,2.84-1.07,3.94-1.72,1.94-3.04,2.53c-1.32.59-2.89.88-4.72.88h-6.82l1.02-1.05v7.91h-2.29ZM401.9,411l-1.02-1.08h6.76c2.16,0,3.8-.47,4.93-1.42,1.12-.95,1.68-2.27,1.68-3.98s-.56-3.07-1.68-4.01c-1.12-.95-2.76-1.42-4.93-1.42h-6.76l1.02-1.08v13ZM414.37,418.72l-5.56-7.84h2.47l5.59,7.84h-2.5Z"></path><path class="cls-1" d="M421.94,418.72v-21.62h2.29v21.62h-2.29Z"></path><path class="cls-1" d="M427.81,418.72l9.88-21.62h2.25l9.88,21.62h-2.41l-9.08-20.29h.93l-9.08,20.29h-2.38ZM431.7,412.94l.68-1.85h12.57l.68,1.85h-13.93Z"></path><path class="cls-1" d="M70.95,455.77v-21.62h8.8c2.31,0,4.33.46,6.07,1.37s3.09,2.19,4.06,3.81c.97,1.63,1.45,3.5,1.45,5.62s-.48,3.99-1.45,5.62c-.97,1.63-2.32,2.9-4.06,3.81-1.74.92-3.76,1.37-6.07,1.37h-8.8ZM73.24,453.8h6.39c1.91,0,3.58-.38,4.99-1.13,1.41-.75,2.51-1.79,3.29-3.12.78-1.33,1.17-2.86,1.17-4.59s-.39-3.28-1.17-4.6c-.78-1.32-1.88-2.35-3.29-3.1-1.41-.75-3.07-1.13-4.99-1.13h-6.39v17.66Z"></path><path class="cls-1" d="M93,455.77l9.88-21.62h2.25l9.88,21.62h-2.41l-9.08-20.29h.93l-9.08,20.29h-2.38ZM96.89,450l.68-1.85h12.57l.68,1.85h-13.93Z"></path><path class="cls-1" d="M128.98,453.8h13v1.98h-15.29v-21.62h14.82v1.98h-12.54v17.66ZM128.73,443.82h11.43v1.95h-11.43v-1.95Z"></path><path class="cls-1" d="M147.35,455.77v-21.62h8.8c2.31,0,4.33.46,6.07,1.37s3.09,2.19,4.06,3.81c.97,1.63,1.45,3.5,1.45,5.62s-.48,3.99-1.45,5.62c-.97,1.63-2.32,2.9-4.06,3.81-1.74.92-3.76,1.37-6.07,1.37h-8.8ZM149.63,453.8h6.39c1.91,0,3.58-.38,4.99-1.13,1.41-.75,2.51-1.79,3.29-3.12.78-1.33,1.17-2.86,1.17-4.59s-.39-3.28-1.17-4.6c-.78-1.32-1.88-2.35-3.29-3.1-1.41-.75-3.07-1.13-4.99-1.13h-6.39v17.66Z"></path><path class="cls-1" d="M181.57,455.96c-2.76,0-4.93-.79-6.52-2.38-1.59-1.58-2.38-3.93-2.38-7.04v-12.38h2.29v12.29c0,2.55.58,4.44,1.73,5.65,1.15,1.21,2.78,1.82,4.88,1.82s3.76-.61,4.91-1.82c1.15-1.21,1.73-3.1,1.73-5.65v-12.29h2.22v12.38c0,3.11-.79,5.46-2.36,7.04-1.57,1.59-3.74,2.38-6.5,2.38Z"></path><path class="cls-1" d="M206.7,455.96c-1.63,0-3.13-.27-4.51-.82-1.38-.55-2.57-1.31-3.58-2.3-1.01-.99-1.8-2.15-2.36-3.49-.57-1.34-.85-2.8-.85-4.39s.28-3.05.85-4.39c.57-1.34,1.36-2.5,2.38-3.49s2.22-1.75,3.6-2.3c1.38-.55,2.88-.82,4.51-.82s3.04.26,4.42.79c1.38.53,2.54,1.31,3.49,2.36l-1.45,1.45c-.89-.91-1.86-1.56-2.93-1.96-1.07-.4-2.22-.6-3.46-.6-1.3,0-2.5.22-3.61.66-1.11.44-2.08,1.07-2.9,1.88-.82.81-1.47,1.76-1.93,2.84-.46,1.08-.69,2.27-.69,3.57s.23,2.49.69,3.57,1.11,2.03,1.93,2.84c.82.81,1.79,1.44,2.9,1.88,1.11.44,2.32.66,3.61.66s2.39-.2,3.46-.62c1.07-.41,2.05-1.07,2.93-1.98l1.45,1.45c-.95,1.05-2.11,1.84-3.49,2.38-1.38.54-2.86.8-4.45.8Z"></path><path class="cls-1" d="M216.06,455.77l9.88-21.62h2.25l9.88,21.62h-2.41l-9.08-20.29h.93l-9.08,20.29h-2.38ZM219.95,450l.68-1.85h12.57l.68,1.85h-13.93Z"></path><path class="cls-1" d="M251.05,455.96c-1.63,0-3.13-.27-4.51-.82-1.38-.55-2.57-1.31-3.58-2.3-1.01-.99-1.8-2.15-2.36-3.49-.57-1.34-.85-2.8-.85-4.39s.28-3.05.85-4.39c.57-1.34,1.36-2.5,2.38-3.49s2.22-1.75,3.6-2.3c1.38-.55,2.88-.82,4.51-.82s3.04.26,4.42.79c1.38.53,2.54,1.31,3.49,2.36l-1.45,1.45c-.89-.91-1.86-1.56-2.93-1.96-1.07-.4-2.22-.6-3.46-.6-1.3,0-2.5.22-3.61.66-1.11.44-2.08,1.07-2.9,1.88-.82.81-1.47,1.76-1.93,2.84-.46,1.08-.69,2.27-.69,3.57s.23,2.49.69,3.57,1.11,2.03,1.93,2.84c.82.81,1.79,1.44,2.9,1.88,1.11.44,2.32.66,3.61.66s2.39-.2,3.46-.62c1.07-.41,2.05-1.07,2.93-1.98l1.45,1.45c-.95,1.05-2.11,1.84-3.49,2.38-1.38.54-2.86.8-4.45.8ZM249.94,462.57c-.51,0-.98-.06-1.41-.19-.42-.12-.82-.3-1.19-.53l.53-1.17c.31.19.63.33.97.43.34.1.69.15,1.07.15.62,0,1.09-.13,1.42-.39.33-.26.49-.61.49-1.07,0-.41-.16-.75-.48-1.02-.32-.27-.8-.4-1.44-.4h-.71l.74-2.81h1.33l-.46,1.79c.84.06,1.49.32,1.95.79.45.46.68,1.03.68,1.71,0,.82-.32,1.48-.97,1.96-.65.48-1.49.73-2.52.73Z"></path><path class="cls-1" d="M260.4,455.77l9.88-21.62h2.25l9.88,21.62h-2.41l-9.08-20.29h.93l-9.08,20.29h-2.38ZM264.29,450l.68-1.85h12.57l.68,1.85h-13.93ZM273.53,432.21c-.47,0-.9-.1-1.27-.31-.37-.21-.71-.45-1-.73-.3-.28-.59-.52-.88-.74-.29-.22-.59-.32-.9-.32-.47,0-.85.18-1.13.53s-.44.83-.48,1.45h-1.33c.04-1.03.31-1.85.82-2.47.5-.62,1.16-.93,1.96-.93.47,0,.9.11,1.28.32.38.22.72.46,1.02.74.3.28.59.52.86.73.28.21.57.31.88.31.47,0,.85-.17,1.14-.51.29-.34.44-.81.46-1.41h1.33c-.02.99-.29,1.79-.8,2.41-.51.62-1.17.93-1.98.93Z"></path><path class="cls-1" d="M295.45,455.96c-1.63,0-3.13-.27-4.52-.82-1.39-.55-2.59-1.32-3.61-2.32s-1.81-2.16-2.38-3.49c-.57-1.33-.85-2.78-.85-4.37s.28-3.04.85-4.37c.57-1.33,1.36-2.49,2.38-3.49s2.22-1.77,3.6-2.32c1.38-.55,2.89-.82,4.54-.82s3.13.27,4.51.82c1.38.55,2.58,1.31,3.6,2.3s1.81,2.15,2.38,3.49c.57,1.34.85,2.8.85,4.39s-.28,3.05-.85,4.39c-.57,1.34-1.36,2.5-2.38,3.49-1.02.99-2.22,1.75-3.6,2.3-1.38.55-2.88.82-4.51.82ZM295.45,453.92c1.3,0,2.5-.22,3.6-.66,1.1-.44,2.06-1.07,2.87-1.88.81-.81,1.45-1.76,1.9-2.84.45-1.08.68-2.27.68-3.57s-.23-2.49-.68-3.57c-.45-1.08-1.09-2.03-1.9-2.84-.81-.81-1.77-1.44-2.87-1.88-1.1-.44-2.3-.66-3.6-.66s-2.5.22-3.61.66c-1.11.44-2.08,1.07-2.9,1.88-.82.81-1.46,1.76-1.91,2.84-.45,1.08-.68,2.27-.68,3.57s.23,2.46.68,3.55c.45,1.09,1.09,2.04,1.91,2.86.82.81,1.79,1.44,2.9,1.88,1.11.44,2.32.66,3.61.66Z"></path><path class="cls-1" d="M318.64,445.86v-1.92h8.09v1.92h-8.09Z"></path><path class="cls-1" d="M346.68,456.14c-1.73,0-3.39-.23-4.99-.7-1.6-.46-2.88-1.07-3.84-1.81l1.7-3.77c.91.66,2,1.2,3.27,1.62,1.28.42,2.56.63,3.86.63.99,0,1.79-.1,2.39-.31.61-.21,1.05-.48,1.34-.82.29-.34.43-.74.43-1.19,0-.58-.23-1.03-.68-1.37-.45-.34-1.06-.62-1.81-.83-.75-.22-1.57-.42-2.46-.62-.89-.2-1.78-.43-2.67-.71-.9-.28-1.72-.65-2.47-1.11s-1.35-1.07-1.79-1.82c-.44-.75-.66-1.69-.66-2.83,0-1.24.33-2.36.99-3.38.66-1.02,1.66-1.83,3.01-2.44,1.35-.61,3.04-.91,5.08-.91,1.36,0,2.7.17,4.03.49,1.33.33,2.49.8,3.47,1.42l-1.57,3.77c-.97-.56-1.97-.97-3-1.25-1.03-.28-2.02-.42-2.96-.42s-1.78.11-2.38.32c-.6.22-1.03.51-1.31.88-.28.37-.42.78-.42,1.24,0,.58.23,1.04.68,1.39.45.35,1.05.62,1.79.82s1.56.39,2.47.59c.91.2,1.8.44,2.69.73.88.29,1.7.65,2.44,1.1.74.44,1.34,1.04,1.81,1.79.46.75.69,1.68.69,2.79,0,1.22-.33,2.33-1,3.34-.67,1.01-1.68,1.82-3.04,2.44-1.36.62-3.06.93-5.1.93Z"></path><path class="cls-1" d="M364.22,451.76h11.77v4.01h-16.74v-21.62h16.34v4.01h-11.36v13.59ZM363.85,442.83h10.41v3.92h-10.41v-3.92Z"></path><path class="cls-1" d="M379.97,455.77v-21.62h9.82c2.35,0,4.42.45,6.21,1.34,1.79.9,3.19,2.15,4.2,3.77,1.01,1.62,1.51,3.52,1.51,5.7s-.5,4.08-1.51,5.7c-1.01,1.62-2.41,2.87-4.2,3.77-1.79.9-3.86,1.34-6.21,1.34h-9.82ZM385.01,451.7h4.54c1.44,0,2.69-.27,3.75-.82,1.06-.55,1.88-1.33,2.47-2.35s.88-2.21.88-3.57-.29-2.57-.88-3.58-1.41-1.79-2.47-2.33c-1.06-.55-2.31-.82-3.75-.82h-4.54v13.46Z"></path><path class="cls-1" d="M415.08,456.14c-3.07,0-5.47-.85-7.2-2.56-1.73-1.71-2.59-4.16-2.59-7.35v-12.07h5.03v11.95c0,2.04.42,3.52,1.27,4.43.84.92,2.02,1.37,3.52,1.37s2.71-.46,3.55-1.37c.84-.92,1.27-2.39,1.27-4.43v-11.95h4.91v12.07c0,3.19-.87,5.64-2.59,7.35-1.73,1.71-4.12,2.56-7.16,2.56Z"></path><path class="cls-1" d="M440.16,456.14c-1.67,0-3.22-.27-4.65-.82-1.43-.55-2.67-1.32-3.72-2.33-1.05-1.01-1.87-2.19-2.46-3.55-.59-1.36-.88-2.85-.88-4.48s.29-3.12.88-4.48c.59-1.36,1.41-2.54,2.47-3.55,1.06-1.01,2.31-1.79,3.74-2.33,1.43-.55,2.98-.82,4.65-.82,1.87,0,3.57.32,5.1.97,1.52.65,2.8,1.6,3.83,2.86l-3.24,2.96c-.72-.84-1.54-1.48-2.45-1.91-.92-.43-1.91-.65-2.98-.65-1.01,0-1.94.17-2.78.51-.84.34-1.57.82-2.19,1.44-.62.62-1.1,1.35-1.44,2.19-.34.84-.51,1.78-.51,2.81s.17,1.97.51,2.81c.34.84.82,1.57,1.44,2.19.62.62,1.35,1.1,2.19,1.44.84.34,1.77.51,2.78.51,1.07,0,2.06-.22,2.98-.66.92-.44,1.73-1.09,2.45-1.93l3.24,2.96c-1.03,1.26-2.31,2.21-3.83,2.87-1.52.66-3.23.99-5.13.99Z"></path></g></svg>