<svg xmlns="http://www.w3.org/2000/svg" id="Camada_1" data-name="Camada 1" viewBox="0 0 912.32 864"><defs><style>      .cls-1 {        font-size: 26.07px;      }      .cls-1, .cls-2 {        fill: #888989;      }      .cls-3 {        font-family: MontserratRoman-SemiBold, Montserrat;        font-variation-settings: 'wght' 600;        font-weight: 600;      }      .cls-4 {        font-family: MontserratRoman-Regular, Montserrat;        font-variation-settings: 'wght' 400;      }    </style></defs><g><path class="cls-2" d="M565.78,402.57c16.02-7.88,31.96-13.87,47.69-15.06.12-2.75.24-5.48.37-8.19-15.75,1.65-31.66,6.99-47.66,14.35-.13,2.96-.27,5.93-.4,8.9"></path><path class="cls-2" d="M613.65,393.7c-14.71.84-29.62,6.23-44.61,13.52-.13,2.95-.26,5.9-.4,8.87,15.01-7.66,29.94-13.49,44.63-13.99.13-2.82.25-5.62.38-8.4"></path><path class="cls-2" d="M561.24,435.07c18.64-10.37,37.22-19.31,55.35-18.07.13-2.91.26-5.8.39-8.67-18.14-.81-36.7,7.57-55.33,17.68-.13,3.02-.27,6.04-.4,9.06"></path><path class="cls-2" d="M618.25,438.86c-.13,2.98-.27,5.98-.4,9-39.62-5.8-81.8,45.74-121.42,39.97l1.71-8.71c39.24,4.56,80.95-46.37,120.12-40.26"></path><path class="cls-2" d="M625.74,456.32c-.14,3.03-.27,6.07-.41,9.1-22.37-8.61-45.76,5.64-69.08,18.1-23.2,12.79-46.33,23.81-68.71,18.23l1.69-8.66c44.36,13.28,92.25-52.4,136.5-36.77"></path><path class="cls-2" d="M621.47,471.12c-.14,3.05-.27,6.1-.41,9.17-21.47-5.44-43.8,8.21-66.01,19.32-22.15,11.59-44.2,20.65-65.72,18.12l1.7-8.7c21.06,3.19,42.7-6.72,64.42-18.5,22.24-11.68,44.56-25.31,66.01-19.41"></path><path class="cls-2" d="M541.81,541.69c-.13,2.84-.25,5.67-.38,8.49-12.74,3.96-25.43,6.54-38.12,9.23l1.55-7.9c12.27-2.29,24.58-5.37,36.95-9.81"></path><path class="cls-2" d="M615.74,495.1c-20.54-1.83-41.74,10.99-62.79,20.49-21.54,10.39-42.92,17.33-63.99,17.21l1.71-8.75c20.58,1.25,41.57-6.7,62.68-17.49,21.08-10.24,42.29-23.3,62.8-20.84l-.42,9.38Z"></path><path class="cls-2" d="M587.12,516.71c-13.22,4.69-26.53,11.37-39.78,16.51-16.77,6.82-33.43,11.18-50,13.57l1.62-8.27c16.12-1.71,32.4-6.79,48.78-14.11,13.27-5.71,26.6-12.89,39.83-17.67l-.45,9.98Z"></path><path class="cls-2" d="M608.03,366.17c-.12,2.58-.23,5.19-.35,7.82-11.99,1.99-24.07,5.82-36.2,10.84l.39-8.63c12.11-4.5,24.16-7.86,36.17-10.02"></path><path class="cls-2" d="M588.01,357.39c5.73-1.48,11.47-2.84,17.2-4.23-.02,2.52-.04,5.06-.06,7.63-5.83,1.26-11.65,2.69-17.48,4.36l.35-7.77Z"></path><path class="cls-2" d="M613.9,431.78c-23.23-1.16-47.28,15.94-71.12,28.42l.41-9.15c23.84-12.51,47.87-29.06,71.11-28.07-.13,2.91-.26,5.84-.39,8.8"></path><path class="cls-2" d="M651.49,495.78h-6.22l-1.29,2.92h-1.72l5.3-11.7h1.65l5.32,11.7h-1.76l-1.29-2.92ZM650.9,494.44l-2.52-5.73-2.52,5.73h5.05Z"></path><path class="cls-2" d="M667.75,499.77c-.38.45-.82.79-1.32,1.02-.5.23-1.04.35-1.62.35-.74,0-1.42-.18-2.06-.53-.64-.35-1.37-.95-2.2-1.8-1.1-.06-2.1-.35-2.98-.89-.89-.54-1.58-1.25-2.07-2.13-.5-.89-.74-1.87-.74-2.95s.27-2.15.81-3.06c.54-.91,1.28-1.63,2.23-2.15.95-.52,2.01-.78,3.19-.78s2.23.26,3.18.78c.95.52,1.69,1.23,2.22,2.14.53.91.8,1.93.8,3.07,0,.96-.19,1.84-.58,2.64-.38.8-.92,1.48-1.62,2.02-.7.55-1.5.93-2.4,1.14.39.41.77.71,1.13.89.36.18.73.28,1.11.28.82,0,1.54-.33,2.14-1l.79.95ZM657.01,495.15c.4.69.94,1.22,1.64,1.61.7.39,1.47.58,2.33.58s1.62-.19,2.31-.58c.69-.39,1.23-.93,1.63-1.61.4-.69.59-1.45.59-2.3s-.2-1.61-.59-2.3c-.39-.69-.94-1.22-1.63-1.61-.69-.39-1.46-.59-2.31-.59s-1.64.2-2.33.59c-.7.39-1.24.93-1.64,1.61-.4.69-.59,1.45-.59,2.3s.2,1.61.59,2.3"></path><path class="cls-2" d="M670.66,497.5c-.87-.89-1.3-2.17-1.3-3.85v-6.65h1.67v6.59c0,2.51,1.1,3.76,3.29,3.76,1.07,0,1.89-.31,2.46-.93.57-.62.85-1.56.85-2.83v-6.59h1.62v6.65c0,1.68-.43,2.97-1.3,3.85-.87.89-2.08,1.33-3.64,1.33s-2.77-.44-3.64-1.34"></path><rect class="cls-2" x="682.41" y="487" width="1.67" height="11.7"></rect><polygon class="cls-2" points="694.41 488.46 690.4 488.46 690.4 487 700.07 487 700.07 488.46 696.06 488.46 696.06 498.7 694.41 498.7 694.41 488.46"></polygon><polygon class="cls-2" points="710.24 497.25 710.24 498.7 701.75 498.7 701.75 487 710 487 710 488.46 703.42 488.46 703.42 492.05 709.28 492.05 709.28 493.47 703.42 493.47 703.42 497.25 710.24 497.25"></polygon><polygon class="cls-2" points="723.34 498.7 723.32 490.18 719.1 497.28 718.33 497.28 714.1 490.23 714.1 498.7 712.49 498.7 712.49 487 713.86 487 718.74 495.23 723.56 487 724.93 487 724.95 498.7 723.34 498.7"></polygon><polygon class="cls-2" points="735.01 489.21 731.26 489.21 731.26 487 741.46 487 741.46 489.21 737.72 489.21 737.72 498.7 735.01 498.7 735.01 489.21"></polygon><path class="cls-2" d="M750.26,498.7l-2.26-3.26h-2.49v3.26h-2.71v-11.7h5.06c1.04,0,1.94.17,2.7.52.76.35,1.35.84,1.76,1.47.41.64.62,1.39.62,2.26s-.21,1.62-.63,2.25c-.42.63-1.01,1.11-1.78,1.45l2.62,3.76h-2.91ZM749.57,489.74c-.42-.35-1.04-.53-1.86-.53h-2.21v4.08h2.21c.81,0,1.43-.18,1.86-.53.42-.36.63-.86.63-1.5s-.21-1.16-.63-1.51"></path><path class="cls-2" d="M763.22,496.2h-5.43l-1.04,2.51h-2.77l5.22-11.7h2.67l5.23,11.7h-2.84l-1.04-2.51ZM762.37,494.14l-1.86-4.48-1.86,4.48h3.71Z"></path><path class="cls-2" d="M778.48,493.68c.38.5.57,1.11.57,1.83,0,1.03-.4,1.81-1.19,2.36-.8.55-1.96.83-3.48.83h-6.05v-11.7h5.72c1.43,0,2.52.27,3.29.82.76.55,1.14,1.29,1.14,2.22,0,.57-.14,1.08-.41,1.52-.27.44-.65.8-1.14,1.05.67.21,1.19.57,1.57,1.06M771.01,489.04v2.76h2.69c.67,0,1.18-.12,1.52-.35.35-.23.52-.58.52-1.04s-.17-.8-.52-1.03c-.35-.23-.85-.34-1.52-.34h-2.69ZM775.79,496.31c.36-.23.54-.6.54-1.09,0-.97-.72-1.45-2.16-1.45h-3.16v2.89h3.16c.71,0,1.25-.12,1.61-.35"></path><path class="cls-2" d="M788.69,496.2h-5.43l-1.04,2.51h-2.77l5.22-11.7h2.67l5.23,11.7h-2.84l-1.04-2.51ZM787.84,494.14l-1.86-4.48-1.86,4.48h3.71Z"></path><polygon class="cls-2" points="793.8 487 796.5 487 796.5 496.5 802.37 496.5 802.37 498.7 793.8 498.7 793.8 487"></polygon><polygon class="cls-2" points="814.47 487 814.47 498.7 811.77 498.7 811.77 493.91 806.45 493.91 806.45 498.7 803.74 498.7 803.74 487 806.45 487 806.45 491.62 811.77 491.62 811.77 487 814.47 487"></polygon><path class="cls-2" d="M819.65,498.12c-.98-.52-1.74-1.25-2.29-2.16-.55-.92-.83-1.95-.83-3.1s.28-2.18.83-3.1c.55-.92,1.31-1.64,2.29-2.17.97-.52,2.07-.79,3.28-.79s2.31.26,3.28.79c.97.52,1.73,1.25,2.29,2.17.56.92.84,1.95.84,3.1s-.28,2.18-.84,3.1c-.56.92-1.32,1.64-2.29,2.16-.97.52-2.06.79-3.28.79s-2.31-.26-3.28-.79M824.8,496.12c.56-.32.99-.76,1.31-1.33.32-.57.48-1.21.48-1.94s-.16-1.37-.48-1.94c-.32-.57-.76-1.01-1.31-1.33-.56-.32-1.18-.48-1.87-.48s-1.31.16-1.87.48c-.56.32-.99.76-1.31,1.33-.32.57-.48,1.22-.48,1.94s.16,1.37.48,1.94c.32.57.76,1.01,1.31,1.33.56.32,1.18.48,1.87.48s1.31-.16,1.87-.48"></path><path class="cls-2" d="M830.58,498.48c-.22-.22-.33-.49-.33-.83s.11-.59.33-.81c.22-.22.49-.33.8-.33s.57.11.79.32c.21.21.32.49.32.82s-.11.61-.33.83c-.22.22-.48.33-.78.33s-.58-.11-.8-.33"></path><path class="cls-2" d="M651.49,515.13h-6.22l-1.29,2.93h-1.72l5.3-11.7h1.65l5.32,11.7h-1.76l-1.29-2.93ZM650.9,513.79l-2.52-5.73-2.52,5.73h5.05Z"></path><path class="cls-2" d="M667.75,519.12c-.38.45-.82.79-1.32,1.02-.5.23-1.04.35-1.62.35-.74,0-1.42-.18-2.06-.53-.64-.35-1.37-.95-2.2-1.8-1.1-.06-2.1-.35-2.98-.89-.89-.54-1.58-1.25-2.07-2.13-.5-.89-.74-1.87-.74-2.95s.27-2.15.81-3.06c.54-.91,1.28-1.63,2.23-2.15.95-.52,2.01-.78,3.19-.78s2.23.26,3.18.78c.95.52,1.69,1.23,2.22,2.14.53.91.8,1.93.8,3.07,0,.96-.19,1.84-.58,2.64-.38.8-.92,1.48-1.62,2.02-.7.55-1.5.93-2.4,1.14.39.41.77.71,1.13.89.36.18.73.28,1.11.28.82,0,1.54-.33,2.14-1l.79.95ZM657.01,514.5c.4.69.94,1.22,1.64,1.61.7.39,1.47.58,2.33.58s1.62-.19,2.31-.58c.69-.39,1.23-.93,1.63-1.61.4-.69.59-1.45.59-2.3s-.2-1.61-.59-2.3c-.39-.69-.94-1.22-1.63-1.61-.69-.39-1.46-.59-2.31-.59s-1.64.2-2.33.59c-.7.39-1.24.93-1.64,1.61-.4.69-.59,1.45-.59,2.3s.2,1.61.59,2.3"></path><path class="cls-2" d="M670.66,516.85c-.87-.89-1.3-2.17-1.3-3.85v-6.65h1.67v6.59c0,2.51,1.1,3.76,3.29,3.76,1.07,0,1.89-.31,2.46-.93.57-.62.85-1.56.85-2.83v-6.59h1.62v6.65c0,1.68-.43,2.97-1.3,3.85-.87.89-2.08,1.33-3.64,1.33s-2.77-.44-3.64-1.34"></path><rect class="cls-2" x="682.41" y="506.35" width="1.67" height="11.7"></rect><polygon class="cls-2" points="694.41 507.81 690.4 507.81 690.4 506.35 700.07 506.35 700.07 507.81 696.06 507.81 696.06 518.05 694.41 518.05 694.41 507.81"></polygon><polygon class="cls-2" points="710.24 516.6 710.24 518.05 701.75 518.05 701.75 506.35 710 506.35 710 507.81 703.42 507.81 703.42 511.4 709.28 511.4 709.28 512.82 703.42 512.82 703.42 516.6 710.24 516.6"></polygon><polygon class="cls-2" points="723.34 518.05 723.32 509.53 719.1 516.63 718.33 516.63 714.1 509.58 714.1 518.05 712.49 518.05 712.49 506.35 713.86 506.35 718.74 514.57 723.56 506.35 724.93 506.35 724.95 518.05 723.34 518.05"></polygon><polygon class="cls-2" points="735.29 508.52 735.29 511.62 740.71 511.62 740.71 513.79 735.29 513.79 735.29 518.05 732.58 518.05 732.58 506.35 741.43 506.35 741.43 508.52 735.29 508.52"></polygon><path class="cls-2" d="M744.5,516.86c-.93-.92-1.4-2.24-1.4-3.96v-6.55h2.71v6.45c0,2.1.87,3.14,2.61,3.14.85,0,1.49-.25,1.94-.76.45-.51.67-1.3.67-2.38v-6.45h2.67v6.55c0,1.72-.47,3.04-1.4,3.96-.93.93-2.23,1.39-3.9,1.39s-2.97-.46-3.9-1.39"></path><polygon class="cls-2" points="758.74 508.56 755 508.56 755 506.35 765.19 506.35 765.19 508.56 761.45 508.56 761.45 518.05 758.74 518.05 758.74 508.56"></polygon><path class="cls-2" d="M767.88,516.86c-.93-.92-1.4-2.24-1.4-3.96v-6.55h2.71v6.45c0,2.1.87,3.14,2.61,3.14.85,0,1.49-.25,1.94-.76.45-.51.67-1.3.67-2.38v-6.45h2.67v6.55c0,1.72-.47,3.04-1.4,3.96-.93.93-2.23,1.39-3.9,1.39s-2.97-.46-3.9-1.39"></path><path class="cls-2" d="M787.2,518.05l-2.26-3.26h-2.49v3.26h-2.71v-11.7h5.06c1.04,0,1.94.17,2.7.52.76.35,1.35.84,1.76,1.47.41.64.62,1.39.62,2.26s-.21,1.62-.63,2.25c-.42.63-1.01,1.11-1.78,1.45l2.62,3.76h-2.91ZM786.52,509.08c-.42-.35-1.04-.53-1.86-.53h-2.21v4.08h2.21c.81,0,1.43-.18,1.86-.53.42-.36.63-.86.63-1.5s-.21-1.16-.63-1.51"></path><path class="cls-2" d="M794.33,517.47c-.98-.52-1.74-1.25-2.29-2.16-.55-.92-.83-1.95-.83-3.1s.28-2.18.83-3.1c.55-.92,1.31-1.64,2.29-2.17.97-.52,2.07-.79,3.28-.79s2.31.26,3.28.79c.97.52,1.73,1.25,2.29,2.17.56.92.84,1.95.84,3.1s-.28,2.18-.84,3.1c-.56.92-1.32,1.64-2.29,2.16-.97.52-2.06.79-3.28.79s-2.31-.26-3.28-.79M799.49,515.47c.56-.32.99-.76,1.31-1.33.32-.57.48-1.21.48-1.94s-.16-1.37-.48-1.94c-.32-.57-.75-1.01-1.31-1.33-.56-.32-1.18-.48-1.87-.48s-1.31.16-1.87.48c-.56.32-.99.76-1.31,1.33-.32.57-.48,1.22-.48,1.94s.16,1.37.48,1.94c.32.57.76,1.01,1.31,1.33.56.32,1.18.48,1.87.48s1.31-.16,1.87-.48"></path><path class="cls-2" d="M805.27,517.83c-.22-.22-.33-.49-.33-.83s.11-.59.33-.81c.22-.22.49-.33.8-.33s.57.11.79.32c.21.21.32.49.32.82s-.11.61-.33.83c-.22.22-.48.33-.78.33s-.58-.11-.8-.33"></path><path class="cls-2" d="M648.73,404.43c.97-.53,2.09-.79,3.34-.79,1.92,0,3.55.68,4.91,2.04l2.09-2.04c-.83-.95-1.86-1.67-3.08-2.16-1.22-.49-2.58-.74-4.07-.74-1.83,0-3.48.39-4.95,1.18-1.47.79-2.62,1.88-3.45,3.27-.83,1.39-1.25,2.96-1.25,4.71s.42,3.32,1.25,4.7c.83,1.39,1.98,2.48,3.43,3.27,1.46.79,3.09,1.18,4.91,1.18,1.29,0,2.54-.2,3.76-.59,1.22-.39,2.29-.95,3.21-1.68v-7.1h-3.13v5.54c-1.05.61-2.27.92-3.66.92-1.24,0-2.34-.27-3.32-.81-.98-.54-1.74-1.29-2.29-2.24-.55-.95-.83-2.02-.83-3.2s.28-2.31.83-3.26c.55-.95,1.31-1.69,2.29-2.21"></path><path class="cls-2" d="M677.43,401.92c-1.46-.79-3.09-1.18-4.91-1.18s-3.45.39-4.91,1.18c-1.46.79-2.6,1.88-3.43,3.28-.83,1.4-1.25,2.96-1.25,4.69s.42,3.29,1.25,4.69c.83,1.4,1.98,2.49,3.43,3.28,1.46.79,3.09,1.18,4.91,1.18s3.45-.39,4.91-1.18c1.46-.79,2.6-1.88,3.43-3.27.83-1.39,1.25-2.96,1.25-4.7s-.42-3.32-1.25-4.71c-.83-1.39-1.98-2.48-3.43-3.27M677.96,413.11c-.54.96-1.29,1.7-2.24,2.24-.95.53-2.02.8-3.2.8s-2.26-.27-3.2-.8c-.95-.53-1.7-1.28-2.24-2.24-.54-.96-.81-2.03-.81-3.22s.27-2.26.81-3.22c.54-.96,1.29-1.7,2.24-2.24.95-.53,2.02-.8,3.2-.8s2.25.27,3.2.8c.95.53,1.7,1.28,2.24,2.24.54.96.81,2.03.81,3.22s-.27,2.26-.81,3.22"></path><polygon class="cls-2" points="693.07 414.73 687.15 400.99 683.56 400.99 691.34 418.8 694.6 418.8 702.36 400.99 699.05 400.99 693.07 414.73"></polygon><polygon class="cls-2" points="708.56 411.12 717.16 411.12 717.16 408.4 708.56 408.4 708.56 403.77 718.25 403.77 718.25 400.99 705.26 400.99 705.26 418.8 718.61 418.8 718.61 416.03 708.56 416.03 708.56 411.12"></polygon><path class="cls-2" d="M737.24,410.79c.65-.97.98-2.12.98-3.46s-.31-2.43-.92-3.38c-.61-.95-1.49-1.68-2.63-2.19-1.14-.51-2.49-.76-4.03-.76h-7.33v17.8h3.31v-5.19h4.02c.31,0,.53,0,.69-.03l3.64,5.21h3.56l-4.1-5.85c1.22-.48,2.16-1.2,2.81-2.16M730.49,410.89h-3.87v-7.1h3.87c1.44,0,2.53.31,3.28.92.75.61,1.12,1.48,1.12,2.62s-.37,2.01-1.12,2.63c-.75.62-1.84.93-3.28.93"></path><polygon class="cls-2" points="755.46 413.05 745.65 400.99 742.92 400.99 742.92 418.8 746.2 418.8 746.2 406.74 756.02 418.8 758.74 418.8 758.74 400.99 755.46 400.99 755.46 413.05"></polygon><path class="cls-2" d="M777.77,401.92c-1.46-.79-3.09-1.18-4.91-1.18s-3.45.39-4.91,1.18c-1.46.79-2.6,1.88-3.43,3.28-.83,1.4-1.25,2.96-1.25,4.69s.42,3.29,1.25,4.69c.83,1.4,1.98,2.49,3.43,3.28,1.46.79,3.09,1.18,4.91,1.18s3.45-.39,4.91-1.18c1.46-.79,2.6-1.88,3.43-3.27.83-1.39,1.25-2.96,1.25-4.7s-.42-3.32-1.25-4.71c-.83-1.39-1.98-2.48-3.43-3.27M778.3,413.11c-.54.96-1.29,1.7-2.24,2.24-.95.53-2.02.8-3.2.8s-2.26-.27-3.2-.8c-.95-.53-1.7-1.28-2.24-2.24-.54-.96-.81-2.03-.81-3.22s.27-2.26.81-3.22c.54-.96,1.29-1.7,2.24-2.24.95-.53,2.02-.8,3.2-.8s2.25.27,3.2.8c.95.53,1.7,1.28,2.24,2.24.54.96.81,2.03.81,3.22s-.27,2.26-.81,3.22"></path><path class="cls-2" d="M807.86,402.1c-1.47-.74-3.16-1.11-5.06-1.11h-7.78v17.8h7.78c1.9,0,3.59-.37,5.06-1.11,1.48-.74,2.62-1.78,3.43-3.13.81-1.35,1.22-2.9,1.22-4.67s-.41-3.32-1.22-4.67c-.81-1.35-1.96-2.39-3.43-3.13M808.38,413.11c-.53.92-1.3,1.64-2.29,2.14-.99.5-2.14.75-3.45.75h-4.32v-12.21h4.32c1.31,0,2.45.25,3.45.75s1.76,1.21,2.29,2.14c.53.92.8,2,.8,3.22s-.27,2.29-.8,3.22"></path><path class="cls-2" d="M833.7,405.19c-.83-1.39-1.98-2.48-3.43-3.27-1.46-.79-3.09-1.18-4.91-1.18s-3.45.39-4.91,1.18c-1.46.79-2.6,1.88-3.43,3.28-.83,1.4-1.25,2.96-1.25,4.69s.42,3.29,1.25,4.69c.83,1.4,1.98,2.49,3.43,3.28,1.46.79,3.09,1.18,4.91,1.18s3.45-.39,4.91-1.18c1.46-.79,2.6-1.88,3.43-3.27.83-1.39,1.25-2.96,1.25-4.7s-.42-3.32-1.25-4.71M830.8,413.11c-.54.96-1.29,1.7-2.24,2.24-.95.53-2.02.8-3.2.8s-2.26-.27-3.2-.8c-.95-.53-1.7-1.28-2.24-2.24-.54-.96-.81-2.03-.81-3.22s.27-2.26.81-3.22c.54-.96,1.29-1.7,2.24-2.24.95-.53,2.02-.8,3.2-.8s2.25.27,3.2.8c.95.53,1.7,1.28,2.24,2.24.54.96.81,2.03.81,3.22s-.27,2.26-.81,3.22"></path><path class="cls-2" d="M678.08,428.19c3.44,1.55,6.1,3.76,7.97,6.64,1.87,2.88,2.8,6.26,2.8,10.15s-.94,7.26-2.8,10.11c-1.87,2.85-4.53,5.05-7.97,6.6-3.44,1.55-7.5,2.32-12.18,2.32h-9v13.5h-14.61v-51.66h23.61c4.67,0,8.73.78,12.18,2.32M671.8,450.55c1.52-1.3,2.29-3.16,2.29-5.57s-.76-4.28-2.29-5.61c-1.53-1.33-3.79-1.99-6.79-1.99h-8.12v15.13h8.12c3,0,5.26-.65,6.79-1.96"></path><rect class="cls-2" x="691.51" y="425.86" width="14.61" height="51.66"></rect><path class="cls-2" d="M749.66,467.48h-21.84l-4.06,10.04h-14.91l22.8-51.66h14.39l22.88,51.66h-15.2l-4.06-10.04ZM745.38,456.71l-6.64-16.53-6.64,16.53h13.28Z"></path><path class="cls-2" d="M771.98,472.28c-4.26-4.18-6.38-10.11-6.38-17.78v-28.63h14.61v28.19c0,8.27,3.27,12.4,9.81,12.4s9.74-4.13,9.74-12.4v-28.19h14.39v28.63c0,7.67-2.13,13.6-6.38,17.78-4.26,4.18-10.22,6.27-17.9,6.27s-13.64-2.09-17.9-6.27"></path><polygon class="cls-2" points="832.75 425.86 832.75 425.86 818.14 425.86 818.14 435.25 832.75 425.86"></polygon><polygon class="cls-2" points="818.14 439.5 818.14 477.52 832.75 477.52 832.75 430.11 818.14 439.5"></polygon><rect class="cls-2" x="652.96" y="409.69" width="5.88" height="2.61"></rect></g><text class="cls-1" transform="translate(281.29 448.34)"><tspan class="cls-4"><tspan x="0" y="0">SECRETARIA</tspan></tspan><tspan class="cls-4" x="-214.03" y="31.29">DA</tspan><tspan class="cls-3" x="-173.8" y="31.29" xml:space="preserve"> ADMINISTRAÇÃO - SEAD</tspan></text></svg>