<svg xmlns="http://www.w3.org/2000/svg" id="Camada_1" data-name="Camada 1" viewBox="0 0 912.32 864"><defs><style>      .cls-1 {        fill: #888989;      }    </style></defs><path class="cls-1" d="M581.47,378.29c16.02-7.88,31.96-13.87,47.69-15.06.12-2.75.24-5.48.37-8.19-15.75,1.65-31.66,6.99-47.66,14.35-.13,2.96-.27,5.93-.4,8.9"></path><path class="cls-1" d="M629.34,369.41c-14.71.84-29.62,6.23-44.61,13.52-.13,2.95-.26,5.9-.4,8.87,15.01-7.66,29.94-13.49,44.63-13.99.13-2.82.25-5.62.38-8.4"></path><path class="cls-1" d="M576.94,410.78c18.64-10.37,37.22-19.31,55.35-18.07.13-2.91.26-5.8.39-8.67-18.14-.81-36.7,7.57-55.33,17.68-.13,3.02-.27,6.04-.4,9.06"></path><path class="cls-1" d="M633.94,414.57c-.13,2.98-.27,5.98-.4,9-39.62-5.8-81.8,45.74-121.42,39.97l1.71-8.71c39.24,4.56,80.95-46.37,120.12-40.26"></path><path class="cls-1" d="M641.43,432.03c-.14,3.03-.27,6.07-.41,9.1-22.37-8.61-45.76,5.64-69.08,18.1-23.2,12.79-46.33,23.81-68.71,18.23l1.69-8.66c44.36,13.28,92.25-52.4,136.5-36.77"></path><path class="cls-1" d="M637.16,446.84c-.14,3.05-.27,6.1-.41,9.17-21.47-5.44-43.8,8.21-66.01,19.32-22.15,11.59-44.2,20.65-65.72,18.12l1.7-8.7c21.06,3.19,42.7-6.72,64.42-18.5,22.24-11.68,44.56-25.31,66.01-19.41"></path><path class="cls-1" d="M557.51,517.4c-.13,2.84-.25,5.67-.38,8.49-12.74,3.96-25.43,6.54-38.12,9.23l1.55-7.9c12.27-2.29,24.58-5.37,36.95-9.81"></path><path class="cls-1" d="M631.43,470.81c-20.54-1.83-41.74,10.99-62.79,20.49-21.54,10.39-42.92,17.33-63.99,17.21l1.71-8.75c20.58,1.25,41.57-6.7,62.68-17.49,21.08-10.24,42.29-23.3,62.8-20.84l-.42,9.38Z"></path><path class="cls-1" d="M602.81,492.42c-13.22,4.69-26.53,11.37-39.78,16.51-16.77,6.82-33.43,11.18-50,13.57l1.62-8.27c16.12-1.71,32.4-6.79,48.78-14.11,13.27-5.71,26.6-12.89,39.83-17.67l-.45,9.98Z"></path><path class="cls-1" d="M623.72,341.89c-.12,2.58-.23,5.19-.35,7.82-11.99,1.99-24.07,5.82-36.2,10.84l.39-8.63c12.11-4.5,24.16-7.86,36.17-10.02"></path><path class="cls-1" d="M620.9,328.88c-.02,2.52-.04,5.06-.06,7.63-5.83,1.26-11.65,2.69-17.48,4.36l.35-7.77c5.73-1.48,11.47-2.84,17.2-4.23"></path><path class="cls-1" d="M629.59,407.5c-23.23-1.16-47.28,15.94-71.12,28.42l.41-9.15c23.84-12.51,47.87-29.06,71.11-28.07-.13,2.91-.26,5.84-.39,8.8"></path><path class="cls-1" d="M667.18,471.49h-6.22l-1.29,2.92h-1.72l5.3-11.7h1.65l5.32,11.7h-1.76l-1.29-2.92ZM666.6,470.16l-2.52-5.73-2.52,5.73h5.05Z"></path><path class="cls-1" d="M683.44,475.49c-.38.45-.82.79-1.32,1.02-.5.23-1.04.35-1.62.35-.74,0-1.42-.18-2.06-.53-.64-.35-1.37-.95-2.2-1.8-1.1-.06-2.1-.35-2.98-.89-.89-.54-1.58-1.25-2.07-2.13-.5-.89-.74-1.87-.74-2.95s.27-2.15.81-3.06c.54-.91,1.28-1.63,2.23-2.15.95-.52,2.01-.78,3.19-.78s2.23.26,3.18.78c.95.52,1.69,1.23,2.22,2.14.53.91.8,1.93.8,3.07,0,.96-.19,1.84-.58,2.64-.38.8-.92,1.48-1.62,2.02-.7.55-1.5.93-2.4,1.14.39.41.77.71,1.13.89.36.18.73.28,1.11.28.82,0,1.54-.33,2.14-1l.79.95ZM672.7,470.87c.4.69.94,1.22,1.64,1.61.7.39,1.47.58,2.33.58s1.62-.19,2.31-.58c.69-.39,1.23-.93,1.63-1.61.4-.69.59-1.45.59-2.3s-.2-1.61-.59-2.3c-.39-.69-.94-1.22-1.63-1.61-.69-.39-1.46-.59-2.31-.59s-1.64.2-2.33.59c-.7.39-1.24.93-1.64,1.61-.4.69-.59,1.45-.59,2.3s.2,1.61.59,2.3"></path><path class="cls-1" d="M686.36,473.22c-.87-.89-1.3-2.17-1.3-3.85v-6.65h1.67v6.59c0,2.51,1.1,3.76,3.29,3.76,1.07,0,1.89-.31,2.46-.93.57-.62.85-1.56.85-2.83v-6.59h1.62v6.65c0,1.68-.43,2.97-1.3,3.85-.87.89-2.08,1.33-3.64,1.33s-2.77-.44-3.64-1.34"></path><rect class="cls-1" x="698.1" y="462.72" width="1.67" height="11.7"></rect><polygon class="cls-1" points="710.1 464.17 706.09 464.17 706.09 462.72 715.77 462.72 715.77 464.17 711.76 464.17 711.76 474.42 710.1 474.42 710.1 464.17"></polygon><polygon class="cls-1" points="725.93 472.97 725.93 474.42 717.44 474.42 717.44 462.72 725.7 462.72 725.7 464.17 719.11 464.17 719.11 467.77 724.98 467.77 724.98 469.19 719.11 469.19 719.11 472.97 725.93 472.97"></polygon><polygon class="cls-1" points="739.03 474.42 739.02 465.89 734.79 473 734.02 473 729.79 465.95 729.79 474.42 728.19 474.42 728.19 462.72 729.56 462.72 734.44 470.94 739.25 462.72 740.62 462.72 740.64 474.42 739.03 474.42"></polygon><polygon class="cls-1" points="750.7 464.93 746.96 464.93 746.96 462.72 757.15 462.72 757.15 464.93 753.41 464.93 753.41 474.42 750.7 474.42 750.7 464.93"></polygon><path class="cls-1" d="M765.95,474.42l-2.26-3.26h-2.49v3.26h-2.71v-11.7h5.06c1.04,0,1.94.17,2.7.52.76.35,1.35.84,1.76,1.47.41.64.62,1.39.62,2.26s-.21,1.62-.63,2.25c-.42.63-1.01,1.11-1.78,1.45l2.62,3.76h-2.91ZM765.27,465.45c-.42-.35-1.04-.53-1.86-.53h-2.21v4.08h2.21c.81,0,1.43-.18,1.86-.53.42-.36.63-.86.63-1.5s-.21-1.16-.63-1.51"></path><path class="cls-1" d="M778.91,471.91h-5.43l-1.04,2.51h-2.77l5.22-11.7h2.67l5.23,11.7h-2.84l-1.04-2.51ZM778.06,469.86l-1.86-4.48-1.86,4.48h3.71Z"></path><path class="cls-1" d="M794.18,469.4c.38.5.57,1.11.57,1.83,0,1.03-.4,1.81-1.19,2.36-.8.55-1.96.83-3.48.83h-6.05v-11.7h5.72c1.43,0,2.52.27,3.29.82.76.55,1.14,1.29,1.14,2.22,0,.57-.14,1.08-.41,1.52-.27.44-.65.8-1.14,1.05.67.21,1.19.57,1.57,1.06M786.71,464.76v2.76h2.69c.67,0,1.18-.12,1.52-.35.35-.23.52-.58.52-1.04s-.17-.8-.52-1.03c-.35-.23-.85-.34-1.52-.34h-2.69ZM791.48,472.03c.36-.23.54-.6.54-1.09,0-.97-.72-1.45-2.16-1.45h-3.16v2.89h3.16c.71,0,1.25-.12,1.61-.35"></path><path class="cls-1" d="M804.39,471.91h-5.43l-1.04,2.51h-2.77l5.22-11.7h2.67l5.23,11.7h-2.84l-1.04-2.51ZM803.53,469.86l-1.86-4.48-1.86,4.48h3.71Z"></path><polygon class="cls-1" points="809.49 462.72 812.2 462.72 812.2 472.21 818.06 472.21 818.06 474.42 809.49 474.42 809.49 462.72"></polygon><polygon class="cls-1" points="830.17 462.72 830.17 474.42 827.46 474.42 827.46 469.62 822.15 469.62 822.15 474.42 819.44 474.42 819.44 462.72 822.15 462.72 822.15 467.33 827.46 467.33 827.46 462.72 830.17 462.72"></polygon><path class="cls-1" d="M835.34,473.83c-.98-.52-1.74-1.25-2.29-2.16-.55-.92-.83-1.95-.83-3.1s.28-2.18.83-3.1c.55-.92,1.31-1.64,2.29-2.17.97-.52,2.07-.79,3.28-.79s2.31.26,3.28.79c.97.52,1.73,1.25,2.29,2.17.56.92.84,1.95.84,3.1s-.28,2.18-.84,3.1c-.56.92-1.32,1.64-2.29,2.16-.97.52-2.06.79-3.28.79s-2.31-.26-3.28-.79M840.5,471.84c.56-.32.99-.76,1.31-1.33.32-.57.48-1.21.48-1.94s-.16-1.37-.48-1.94c-.32-.57-.76-1.01-1.31-1.33-.56-.32-1.18-.48-1.87-.48s-1.31.16-1.87.48c-.56.32-.99.76-1.31,1.33-.32.57-.48,1.22-.48,1.94s.16,1.37.48,1.94c.32.57.76,1.01,1.31,1.33.56.32,1.18.48,1.87.48s1.31-.16,1.87-.48"></path><path class="cls-1" d="M846.27,474.19c-.22-.22-.33-.49-.33-.83s.11-.59.33-.81c.22-.22.49-.33.8-.33s.57.11.79.32c.21.21.32.49.32.82s-.11.61-.33.83c-.22.22-.48.33-.78.33s-.58-.11-.8-.33"></path><path class="cls-1" d="M667.18,490.84h-6.22l-1.29,2.93h-1.72l5.3-11.7h1.65l5.32,11.7h-1.76l-1.29-2.93ZM666.6,489.51l-2.52-5.73-2.52,5.73h5.05Z"></path><path class="cls-1" d="M683.44,494.84c-.38.45-.82.79-1.32,1.02-.5.23-1.04.35-1.62.35-.74,0-1.42-.18-2.06-.53-.64-.35-1.37-.95-2.2-1.8-1.1-.06-2.1-.35-2.98-.89-.89-.54-1.58-1.25-2.07-2.13-.5-.89-.74-1.87-.74-2.95s.27-2.15.81-3.06c.54-.91,1.28-1.63,2.23-2.15.95-.52,2.01-.78,3.19-.78s2.23.26,3.18.78c.95.52,1.69,1.23,2.22,2.14.53.91.8,1.93.8,3.07,0,.96-.19,1.84-.58,2.64-.38.8-.92,1.48-1.62,2.02-.7.55-1.5.93-2.4,1.14.39.41.77.71,1.13.89.36.18.73.28,1.11.28.82,0,1.54-.33,2.14-1l.79.95ZM672.7,490.22c.4.69.94,1.22,1.64,1.61.7.39,1.47.58,2.33.58s1.62-.19,2.31-.58c.69-.39,1.23-.93,1.63-1.61.4-.69.59-1.45.59-2.3s-.2-1.61-.59-2.3c-.39-.69-.94-1.22-1.63-1.61-.69-.39-1.46-.59-2.31-.59s-1.64.2-2.33.59c-.7.39-1.24.93-1.64,1.61-.4.69-.59,1.45-.59,2.3s.2,1.61.59,2.3"></path><path class="cls-1" d="M686.36,492.56c-.87-.89-1.3-2.17-1.3-3.85v-6.65h1.67v6.59c0,2.51,1.1,3.76,3.29,3.76,1.07,0,1.89-.31,2.46-.93.57-.62.85-1.56.85-2.83v-6.59h1.62v6.65c0,1.68-.43,2.97-1.3,3.85-.87.89-2.08,1.33-3.64,1.33s-2.77-.44-3.64-1.34"></path><rect class="cls-1" x="698.1" y="482.07" width="1.67" height="11.7"></rect><polygon class="cls-1" points="710.1 483.52 706.09 483.52 706.09 482.07 715.77 482.07 715.77 483.52 711.76 483.52 711.76 493.77 710.1 493.77 710.1 483.52"></polygon><polygon class="cls-1" points="725.93 492.31 725.93 493.77 717.44 493.77 717.44 482.07 725.7 482.07 725.7 483.52 719.11 483.52 719.11 487.12 724.98 487.12 724.98 488.54 719.11 488.54 719.11 492.31 725.93 492.31"></polygon><polygon class="cls-1" points="739.03 493.77 739.02 485.24 734.79 492.35 734.02 492.35 729.79 485.29 729.79 493.77 728.19 493.77 728.19 482.07 729.56 482.07 734.44 490.29 739.25 482.07 740.62 482.07 740.64 493.77 739.03 493.77"></polygon><polygon class="cls-1" points="750.99 484.24 750.99 487.33 756.4 487.33 756.4 489.51 750.99 489.51 750.99 493.77 748.28 493.77 748.28 482.07 757.12 482.07 757.12 484.24 750.99 484.24"></polygon><path class="cls-1" d="M760.19,492.58c-.93-.92-1.4-2.24-1.4-3.96v-6.55h2.71v6.45c0,2.1.87,3.14,2.61,3.14.85,0,1.49-.25,1.94-.76.45-.51.67-1.3.67-2.38v-6.45h2.67v6.55c0,1.72-.47,3.04-1.4,3.96-.93.93-2.23,1.39-3.9,1.39s-2.97-.46-3.9-1.39"></path><polygon class="cls-1" points="774.44 484.27 770.69 484.27 770.69 482.07 780.89 482.07 780.89 484.27 777.14 484.27 777.14 493.77 774.44 493.77 774.44 484.27"></polygon><path class="cls-1" d="M783.58,492.58c-.93-.92-1.4-2.24-1.4-3.96v-6.55h2.71v6.45c0,2.1.87,3.14,2.61,3.14.85,0,1.49-.25,1.94-.76.45-.51.67-1.3.67-2.38v-6.45h2.67v6.55c0,1.72-.47,3.04-1.4,3.96-.93.93-2.23,1.39-3.9,1.39s-2.97-.46-3.9-1.39"></path><path class="cls-1" d="M802.9,493.77l-2.26-3.26h-2.49v3.26h-2.71v-11.7h5.06c1.04,0,1.94.17,2.7.52.76.35,1.35.84,1.76,1.47.41.64.62,1.39.62,2.26s-.21,1.62-.63,2.25c-.42.63-1.01,1.11-1.78,1.45l2.62,3.76h-2.91ZM802.21,484.8c-.42-.35-1.04-.53-1.86-.53h-2.21v4.08h2.21c.81,0,1.43-.18,1.86-.53.42-.36.63-.86.63-1.5s-.21-1.16-.63-1.51"></path><path class="cls-1" d="M810.03,493.18c-.98-.52-1.74-1.25-2.29-2.16-.55-.92-.83-1.95-.83-3.1s.28-2.18.83-3.1c.55-.92,1.31-1.64,2.29-2.17.97-.52,2.07-.79,3.28-.79s2.31.26,3.28.79c.97.52,1.73,1.25,2.29,2.17.56.92.84,1.95.84,3.1s-.28,2.18-.84,3.1c-.56.92-1.32,1.64-2.29,2.16-.97.52-2.06.79-3.28.79s-2.31-.26-3.28-.79M815.18,491.19c.56-.32.99-.76,1.31-1.33.32-.57.48-1.21.48-1.94s-.16-1.37-.48-1.94c-.32-.57-.75-1.01-1.31-1.33-.56-.32-1.18-.48-1.87-.48s-1.31.16-1.87.48c-.56.32-.99.76-1.31,1.33-.32.57-.48,1.22-.48,1.94s.16,1.37.48,1.94c.32.57.76,1.01,1.31,1.33.56.32,1.18.48,1.87.48s1.31-.16,1.87-.48"></path><path class="cls-1" d="M820.96,493.54c-.22-.22-.33-.49-.33-.83s.11-.59.33-.81c.22-.22.49-.33.8-.33s.57.11.79.32c.21.21.32.49.32.82s-.11.61-.33.83c-.22.22-.48.33-.78.33s-.58-.11-.8-.33"></path><path class="cls-1" d="M664.42,380.14c.97-.53,2.09-.79,3.34-.79,1.92,0,3.55.68,4.91,2.04l2.09-2.04c-.83-.95-1.86-1.67-3.08-2.16-1.22-.49-2.58-.74-4.07-.74-1.83,0-3.48.39-4.95,1.18-1.47.79-2.62,1.88-3.45,3.27-.83,1.39-1.25,2.96-1.25,4.71s.42,3.32,1.25,4.7c.83,1.39,1.98,2.48,3.43,3.27,1.46.79,3.09,1.18,4.91,1.18,1.29,0,2.54-.2,3.76-.59,1.22-.39,2.29-.95,3.21-1.68v-7.1h-3.13v5.54c-1.05.61-2.27.92-3.66.92-1.24,0-2.34-.27-3.32-.81-.98-.54-1.74-1.29-2.29-2.24-.55-.95-.83-2.02-.83-3.2s.28-2.31.83-3.26c.55-.95,1.31-1.69,2.29-2.21"></path><path class="cls-1" d="M693.12,377.64c-1.46-.79-3.09-1.18-4.91-1.18s-3.45.39-4.91,1.18c-1.46.79-2.6,1.88-3.43,3.28-.83,1.4-1.25,2.96-1.25,4.69s.42,3.29,1.25,4.69c.83,1.4,1.98,2.49,3.43,3.28,1.46.79,3.09,1.18,4.91,1.18s3.45-.39,4.91-1.18c1.46-.79,2.6-1.88,3.43-3.27.83-1.39,1.25-2.96,1.25-4.7s-.42-3.32-1.25-4.71c-.83-1.39-1.98-2.48-3.43-3.27M693.66,388.83c-.54.96-1.29,1.7-2.24,2.24-.95.53-2.02.8-3.2.8s-2.26-.27-3.2-.8c-.95-.53-1.7-1.28-2.24-2.24-.54-.96-.81-2.03-.81-3.22s.27-2.26.81-3.22c.54-.96,1.29-1.7,2.24-2.24.95-.53,2.02-.8,3.2-.8s2.25.27,3.2.8c.95.53,1.7,1.28,2.24,2.24.54.96.81,2.03.81,3.22s-.27,2.26-.81,3.22"></path><polygon class="cls-1" points="708.77 390.45 702.84 376.71 699.25 376.71 707.04 394.52 710.29 394.52 718.05 376.71 714.74 376.71 708.77 390.45"></polygon><polygon class="cls-1" points="724.26 386.83 732.85 386.83 732.85 384.11 724.26 384.11 724.26 379.48 733.95 379.48 733.95 376.71 720.95 376.71 720.95 394.52 734.3 394.52 734.3 391.74 724.26 391.74 724.26 386.83"></polygon><path class="cls-1" d="M752.93,386.5c.65-.97.98-2.12.98-3.46s-.31-2.43-.92-3.38c-.61-.95-1.49-1.68-2.63-2.19-1.14-.51-2.49-.76-4.03-.76h-7.33v17.8h3.31v-5.19h4.02c.31,0,.53,0,.69-.03l3.64,5.21h3.56l-4.1-5.85c1.22-.48,2.16-1.2,2.81-2.16M746.18,386.6h-3.87v-7.1h3.87c1.44,0,2.53.31,3.28.92.75.61,1.12,1.48,1.12,2.62s-.37,2.01-1.12,2.63c-.75.62-1.84.93-3.28.93"></path><polygon class="cls-1" points="771.16 388.77 761.34 376.71 758.62 376.71 758.62 394.52 761.9 394.52 761.9 382.46 771.72 394.52 774.44 394.52 774.44 376.71 771.16 376.71 771.16 388.77"></polygon><path class="cls-1" d="M793.46,377.64c-1.46-.79-3.09-1.18-4.91-1.18s-3.45.39-4.91,1.18c-1.46.79-2.6,1.88-3.43,3.28-.83,1.4-1.25,2.96-1.25,4.69s.42,3.29,1.25,4.69c.83,1.4,1.98,2.49,3.43,3.28,1.46.79,3.09,1.18,4.91,1.18s3.45-.39,4.91-1.18c1.46-.79,2.6-1.88,3.43-3.27.83-1.39,1.25-2.96,1.25-4.7s-.42-3.32-1.25-4.71c-.83-1.39-1.98-2.48-3.43-3.27M794,388.83c-.54.96-1.29,1.7-2.24,2.24-.95.53-2.02.8-3.2.8s-2.26-.27-3.2-.8c-.95-.53-1.7-1.28-2.24-2.24-.54-.96-.81-2.03-.81-3.22s.27-2.26.81-3.22c.54-.96,1.29-1.7,2.24-2.24.95-.53,2.02-.8,3.2-.8s2.25.27,3.2.8c.95.53,1.7,1.28,2.24,2.24.54.96.81,2.03.81,3.22s-.27,2.26-.81,3.22"></path><path class="cls-1" d="M823.55,377.82c-1.47-.74-3.16-1.11-5.06-1.11h-7.78v17.8h7.78c1.9,0,3.59-.37,5.06-1.11,1.48-.74,2.62-1.78,3.43-3.13.81-1.35,1.22-2.9,1.22-4.67s-.41-3.32-1.22-4.67c-.81-1.35-1.96-2.39-3.43-3.13M824.07,388.83c-.53.92-1.3,1.64-2.29,2.14-.99.5-2.14.75-3.45.75h-4.32v-12.21h4.32c1.31,0,2.45.25,3.45.75s1.76,1.21,2.29,2.14c.53.92.8,2,.8,3.22s-.27,2.29-.8,3.22"></path><path class="cls-1" d="M849.39,380.91c-.83-1.39-1.98-2.48-3.43-3.27-1.46-.79-3.09-1.18-4.91-1.18s-3.45.39-4.91,1.18c-1.46.79-2.6,1.88-3.43,3.28-.83,1.4-1.25,2.96-1.25,4.69s.42,3.29,1.25,4.69c.83,1.4,1.98,2.49,3.43,3.28,1.46.79,3.09,1.18,4.91,1.18s3.45-.39,4.91-1.18c1.46-.79,2.6-1.88,3.43-3.27.83-1.39,1.25-2.96,1.25-4.7s-.42-3.32-1.25-4.71M846.49,388.83c-.54.96-1.29,1.7-2.24,2.24-.95.53-2.02.8-3.2.8s-2.26-.27-3.2-.8c-.95-.53-1.7-1.28-2.24-2.24-.54-.96-.81-2.03-.81-3.22s.27-2.26.81-3.22c.54-.96,1.29-1.7,2.24-2.24.95-.53,2.02-.8,3.2-.8s2.25.27,3.2.8c.95.53,1.7,1.28,2.24,2.24.54.96.81,2.03.81,3.22s-.27,2.26-.81,3.22"></path><path class="cls-1" d="M693.77,403.9c3.44,1.55,6.1,3.76,7.97,6.64,1.87,2.88,2.8,6.26,2.8,10.15s-.94,7.26-2.8,10.11c-1.87,2.85-4.53,5.05-7.97,6.6-3.44,1.55-7.5,2.32-12.18,2.32h-9v13.5h-14.61v-51.66h23.61c4.67,0,8.73.78,12.18,2.32M687.5,426.26c1.52-1.3,2.29-3.16,2.29-5.57s-.76-4.28-2.29-5.61c-1.53-1.33-3.79-1.99-6.79-1.99h-8.12v15.13h8.12c3,0,5.26-.65,6.79-1.96"></path><rect class="cls-1" x="707.2" y="401.58" width="14.61" height="51.66"></rect><path class="cls-1" d="M765.35,443.2h-21.84l-4.06,10.04h-14.91l22.8-51.66h14.39l22.88,51.66h-15.2l-4.06-10.04ZM761.07,432.43l-6.64-16.53-6.64,16.53h13.28Z"></path><path class="cls-1" d="M787.67,448c-4.26-4.18-6.38-10.11-6.38-17.78v-28.63h14.61v28.19c0,8.27,3.27,12.4,9.81,12.4s9.74-4.13,9.74-12.4v-28.19h14.39v28.63c0,7.67-2.13,13.6-6.38,17.78-4.26,4.18-10.22,6.27-17.9,6.27s-13.64-2.09-17.9-6.27"></path><polygon class="cls-1" points="848.44 401.58 848.44 401.58 833.83 401.58 833.83 410.97 848.44 401.58"></polygon><polygon class="cls-1" points="833.83 415.21 833.83 453.24 848.44 453.24 848.44 405.82 833.83 415.21"></polygon><rect class="cls-1" x="668.65" y="385.41" width="5.88" height="2.61"></rect><g><path class="cls-1" d="M100.92,424.87c-1.5,0-2.94-.25-4.31-.74-1.38-.49-2.44-1.12-3.19-1.89l.84-1.64c.71.69,1.67,1.27,2.87,1.75,1.2.47,2.47.71,3.79.71s2.3-.16,3.1-.48c.8-.32,1.39-.75,1.76-1.28.38-.54.56-1.14.56-1.79,0-.79-.23-1.42-.68-1.9-.45-.48-1.04-.86-1.77-1.14-.73-.28-1.54-.52-2.42-.74-.89-.21-1.77-.44-2.65-.68-.89-.24-1.7-.56-2.44-.97-.74-.4-1.34-.94-1.79-1.6-.45-.66-.68-1.53-.68-2.61,0-1,.26-1.92.79-2.76s1.34-1.51,2.44-2.02c1.1-.51,2.5-.76,4.21-.76,1.14,0,2.26.16,3.38.48,1.12.32,2.08.75,2.89,1.31l-.72,1.7c-.87-.58-1.78-1-2.76-1.27-.97-.27-1.91-.4-2.81-.4-1.21,0-2.21.16-3,.49-.79.33-1.37.76-1.75,1.31-.38.55-.56,1.17-.56,1.86,0,.79.23,1.42.68,1.9.45.48,1.05.86,1.79,1.13.74.27,1.55.51,2.44.72.88.21,1.76.44,2.64.69.88.25,1.68.57,2.42.97.74.39,1.34.92,1.79,1.57.45.65.68,1.51.68,2.57,0,.98-.27,1.89-.81,2.73-.54.84-1.36,1.51-2.47,2.02-1.11.51-2.52.77-4.26.77Z"></path><path class="cls-1" d="M115.23,422.85h12.15v1.85h-14.28v-20.2h13.85v1.85h-11.72v16.51ZM115,413.53h10.68v1.82h-10.68v-1.82Z"></path><path class="cls-1" d="M141.17,424.87c-1.52,0-2.92-.25-4.21-.77-1.29-.51-2.41-1.23-3.35-2.15-.94-.92-1.68-2.01-2.21-3.26-.53-1.25-.79-2.62-.79-4.1s.26-2.85.79-4.1c.53-1.25,1.27-2.34,2.22-3.26.95-.92,2.07-1.64,3.36-2.15,1.29-.51,2.69-.76,4.21-.76s2.84.25,4.13.74c1.29.49,2.38,1.23,3.26,2.21l-1.36,1.36c-.83-.85-1.74-1.46-2.74-1.83-1-.38-2.08-.56-3.23-.56-1.21,0-2.34.21-3.38.62s-1.94,1-2.71,1.76c-.77.76-1.37,1.64-1.8,2.65-.43,1.01-.65,2.12-.65,3.33s.22,2.32.65,3.33c.43,1.01,1.03,1.9,1.8,2.66.77.76,1.67,1.35,2.71,1.76s2.16.62,3.38.62,2.23-.19,3.23-.58c1-.38,1.91-1,2.74-1.85l1.36,1.36c-.89.98-1.97,1.72-3.26,2.22-1.29.5-2.67.75-4.16.75Z"></path><path class="cls-1" d="M153.15,424.7v-20.2h7.56c1.71,0,3.18.27,4.42.82,1.23.55,2.18,1.34,2.84,2.37.66,1.03,1,2.27,1,3.74s-.33,2.65-1,3.68c-.66,1.03-1.61,1.82-2.84,2.37-1.23.55-2.7.82-4.42.82h-6.38l.95-.98v7.39h-2.14ZM155.28,417.48l-.95-1.01h6.32c2.02,0,3.55-.44,4.6-1.33,1.05-.89,1.57-2.13,1.57-3.72s-.52-2.87-1.57-3.75c-1.05-.88-2.58-1.33-4.6-1.33h-6.32l.95-1.01v12.15ZM166.94,424.7l-5.19-7.33h2.31l5.22,7.33h-2.34Z"></path><path class="cls-1" d="M176.15,422.85h12.15v1.85h-14.28v-20.2h13.85v1.85h-11.72v16.51ZM175.92,413.53h10.68v1.82h-10.68v-1.82Z"></path><path class="cls-1" d="M197.24,424.7v-18.35h-7.1v-1.85h16.33v1.85h-7.1v18.35h-2.14Z"></path><path class="cls-1" d="M206.65,424.7l9.23-20.2h2.11l9.23,20.2h-2.25l-8.48-18.96h.87l-8.48,18.96h-2.22ZM210.29,419.3l.63-1.73h11.75l.63,1.73h-13.02Z"></path><path class="cls-1" d="M230.57,424.7v-20.2h7.56c1.71,0,3.18.27,4.42.82,1.23.55,2.18,1.34,2.84,2.37.66,1.03,1,2.27,1,3.74s-.33,2.65-1,3.68c-.66,1.03-1.61,1.82-2.84,2.37-1.23.55-2.7.82-4.42.82h-6.38l.95-.98v7.39h-2.14ZM232.71,417.48l-.95-1.01h6.32c2.02,0,3.55-.44,4.6-1.33,1.05-.89,1.57-2.13,1.57-3.72s-.52-2.87-1.57-3.75c-1.05-.88-2.58-1.33-4.6-1.33h-6.32l.95-1.01v12.15ZM244.37,424.7l-5.19-7.33h2.31l5.22,7.33h-2.34Z"></path><path class="cls-1" d="M251.44,424.7v-20.2h2.14v20.2h-2.14Z"></path><path class="cls-1" d="M256.92,424.7l9.23-20.2h2.11l9.23,20.2h-2.25l-8.48-18.96h.87l-8.48,18.96h-2.22ZM260.56,419.3l.63-1.73h11.75l.63,1.73h-13.02Z"></path><path class="cls-1" d="M288.4,424.7v-20.2h8.22c2.15,0,4.04.43,5.67,1.28,1.63.86,2.89,2.04,3.79,3.56.9,1.52,1.36,3.27,1.36,5.25s-.45,3.73-1.36,5.25c-.9,1.52-2.17,2.71-3.79,3.56-1.63.86-3.52,1.28-5.67,1.28h-8.22ZM290.54,422.85h5.97c1.79,0,3.34-.35,4.66-1.05,1.32-.7,2.34-1.67,3.07-2.91.73-1.24,1.1-2.67,1.1-4.29s-.37-3.07-1.1-4.3c-.73-1.23-1.76-2.2-3.07-2.9-1.32-.7-2.87-1.05-4.66-1.05h-5.97v16.51Z"></path><path class="cls-1" d="M314.38,422.85h12.15v1.85h-14.28v-20.2h13.85v1.85h-11.72v16.51ZM314.15,413.53h10.68v1.82h-10.68v-1.82Z"></path><path class="cls-1" d="M341.24,422.85h12.15v1.85h-14.28v-20.2h13.85v1.85h-11.72v16.51ZM341.01,413.53h10.68v1.82h-10.68v-1.82Z"></path><path class="cls-1" d="M363.98,424.87c-1.5,0-2.94-.25-4.31-.74-1.38-.49-2.44-1.12-3.19-1.89l.84-1.64c.71.69,1.67,1.27,2.87,1.75,1.2.47,2.47.71,3.79.71s2.3-.16,3.1-.48c.8-.32,1.39-.75,1.76-1.28.38-.54.56-1.14.56-1.79,0-.79-.23-1.42-.68-1.9-.45-.48-1.04-.86-1.77-1.14-.73-.28-1.54-.52-2.42-.74-.89-.21-1.77-.44-2.65-.68-.89-.24-1.7-.56-2.44-.97-.74-.4-1.34-.94-1.79-1.6-.45-.66-.68-1.53-.68-2.61,0-1,.26-1.92.79-2.76s1.34-1.51,2.44-2.02c1.1-.51,2.5-.76,4.21-.76,1.14,0,2.26.16,3.38.48,1.12.32,2.08.75,2.89,1.31l-.72,1.7c-.87-.58-1.78-1-2.76-1.27-.97-.27-1.91-.4-2.81-.4-1.21,0-2.21.16-3,.49-.79.33-1.37.76-1.75,1.31-.38.55-.56,1.17-.56,1.86,0,.79.23,1.42.68,1.9.45.48,1.05.86,1.79,1.13.74.27,1.55.51,2.44.72.88.21,1.76.44,2.64.69.88.25,1.68.57,2.42.97.74.39,1.34.92,1.79,1.57.45.65.68,1.51.68,2.57,0,.98-.27,1.89-.81,2.73-.54.84-1.36,1.51-2.47,2.02-1.11.51-2.52.77-4.26.77Z"></path><path class="cls-1" d="M380.09,424.7v-18.35h-7.1v-1.85h16.33v1.85h-7.1v18.35h-2.14Z"></path><path class="cls-1" d="M389.49,424.7l9.23-20.2h2.11l9.23,20.2h-2.25l-8.48-18.96h.87l-8.48,18.96h-2.22ZM393.13,419.3l.63-1.73h11.75l.63,1.73h-13.02Z"></path><path class="cls-1" d="M413.42,424.7v-20.2h8.22c2.15,0,4.04.43,5.67,1.28,1.63.86,2.89,2.04,3.79,3.56.9,1.52,1.36,3.27,1.36,5.25s-.45,3.73-1.36,5.25c-.9,1.52-2.17,2.71-3.79,3.56-1.63.86-3.52,1.28-5.67,1.28h-8.22ZM415.55,422.85h5.97c1.79,0,3.34-.35,4.66-1.05,1.32-.7,2.34-1.67,3.07-2.91.73-1.24,1.1-2.67,1.1-4.29s-.37-3.07-1.1-4.3c-.73-1.23-1.76-2.2-3.07-2.9-1.32-.7-2.87-1.05-4.66-1.05h-5.97v16.51Z"></path><path class="cls-1" d="M446.08,424.87c-1.52,0-2.93-.25-4.23-.77-1.3-.51-2.42-1.23-3.38-2.16-.95-.93-1.69-2.02-2.22-3.26-.53-1.24-.79-2.6-.79-4.08s.26-2.84.79-4.08c.53-1.24,1.27-2.33,2.22-3.26.95-.93,2.07-1.65,3.36-2.16,1.29-.51,2.7-.76,4.24-.76s2.92.25,4.21.76c1.29.51,2.41,1.23,3.36,2.15.95.92,1.69,2.01,2.22,3.26.53,1.25.79,2.62.79,4.1s-.26,2.85-.79,4.1c-.53,1.25-1.27,2.34-2.22,3.26-.95.92-2.07,1.64-3.36,2.15-1.29.51-2.69.77-4.21.77ZM446.08,422.96c1.21,0,2.33-.21,3.36-.62,1.03-.41,1.92-1,2.68-1.76s1.35-1.65,1.77-2.66c.42-1.01.63-2.12.63-3.33s-.21-2.32-.63-3.33c-.42-1.01-1.02-1.89-1.77-2.65-.76-.76-1.65-1.35-2.68-1.76-1.03-.41-2.15-.62-3.36-.62s-2.34.21-3.38.62c-1.04.41-1.94,1-2.71,1.76-.77.76-1.37,1.64-1.79,2.65-.42,1.01-.63,2.12-.63,3.33s.21,2.3.63,3.32c.42,1.02,1.02,1.91,1.79,2.67.77.76,1.67,1.35,2.71,1.76,1.04.41,2.16.62,3.38.62Z"></path><path class="cls-1" d="M95.35,459.33v-20.2h8.22c2.15,0,4.04.43,5.67,1.28,1.63.86,2.89,2.04,3.79,3.56.9,1.52,1.36,3.27,1.36,5.25s-.45,3.73-1.36,5.25c-.9,1.52-2.17,2.71-3.79,3.56-1.63.86-3.52,1.28-5.67,1.28h-8.22ZM97.48,457.48h5.97c1.79,0,3.34-.35,4.66-1.05,1.32-.7,2.34-1.67,3.07-2.91.73-1.24,1.1-2.67,1.1-4.29s-.37-3.07-1.1-4.3c-.73-1.23-1.76-2.2-3.07-2.9-1.32-.7-2.87-1.05-4.66-1.05h-5.97v16.51Z"></path><path class="cls-1" d="M115.95,459.33l9.23-20.2h2.11l9.23,20.2h-2.25l-8.48-18.96h.87l-8.48,18.96h-2.22ZM119.59,453.93l.63-1.73h11.75l.63,1.73h-13.02Z"></path><path class="cls-1" d="M153,459.5c-1.5,0-2.94-.25-4.31-.74-1.38-.49-2.44-1.12-3.19-1.89l.84-1.64c.71.69,1.67,1.27,2.87,1.75,1.2.47,2.47.71,3.79.71s2.3-.16,3.1-.48c.8-.32,1.39-.75,1.76-1.28.38-.54.56-1.14.56-1.79,0-.79-.23-1.42-.68-1.9-.45-.48-1.04-.86-1.77-1.14-.73-.28-1.54-.52-2.42-.74-.89-.21-1.77-.44-2.65-.68-.89-.24-1.7-.56-2.44-.97-.74-.4-1.34-.94-1.79-1.6-.45-.66-.68-1.53-.68-2.61,0-1,.26-1.92.79-2.76.53-.84,1.34-1.51,2.44-2.02,1.1-.51,2.5-.76,4.21-.76,1.14,0,2.26.16,3.38.48,1.12.32,2.08.75,2.89,1.31l-.72,1.7c-.87-.58-1.78-1-2.76-1.27-.97-.27-1.91-.4-2.81-.4-1.21,0-2.21.16-3,.49-.79.33-1.37.76-1.75,1.31-.38.55-.56,1.17-.56,1.86,0,.79.23,1.42.68,1.9.45.48,1.05.86,1.79,1.13.74.27,1.55.51,2.44.72.88.21,1.76.44,2.64.69.88.25,1.68.57,2.42.97.74.39,1.34.92,1.79,1.57.45.65.68,1.51.68,2.57,0,.98-.27,1.89-.81,2.73-.54.84-1.36,1.51-2.47,2.02-1.11.51-2.52.77-4.26.77Z"></path><path class="cls-1" d="M161.95,459.33l9.23-20.2h2.11l9.23,20.2h-2.25l-8.48-18.96h.87l-8.48,18.96h-2.22ZM165.59,453.93l.63-1.73h11.75l.63,1.73h-13.02Z"></path><path class="cls-1" d="M194.01,459.5c-2.58,0-4.61-.74-6.09-2.22-1.48-1.48-2.22-3.67-2.22-6.58v-11.57h2.14v11.49c0,2.39.54,4.15,1.62,5.28,1.08,1.14,2.6,1.7,4.56,1.7s3.51-.57,4.59-1.7c1.08-1.14,1.62-2.9,1.62-5.28v-11.49h2.08v11.57c0,2.91-.74,5.1-2.21,6.58-1.47,1.48-3.5,2.22-6.07,2.22ZM192.14,437.48l3.95-3.58h2.74l-4.67,3.58h-2.02Z"></path><path class="cls-1" d="M208.73,459.33v-20.2h8.22c2.15,0,4.04.43,5.67,1.28,1.63.86,2.89,2.04,3.79,3.56.9,1.52,1.36,3.27,1.36,5.25s-.45,3.73-1.36,5.25c-.9,1.52-2.17,2.71-3.79,3.56-1.63.86-3.52,1.28-5.67,1.28h-8.22ZM210.86,457.48h5.97c1.79,0,3.34-.35,4.66-1.05,1.32-.7,2.34-1.67,3.07-2.91.73-1.24,1.1-2.67,1.1-4.29s-.37-3.07-1.1-4.3c-.73-1.23-1.76-2.2-3.07-2.9-1.32-.7-2.87-1.05-4.66-1.05h-5.97v16.51Z"></path><path class="cls-1" d="M234.7,457.48h12.15v1.85h-14.28v-20.2h13.85v1.85h-11.72v16.51ZM234.47,448.16h10.68v1.82h-10.68v-1.82Z"></path><path class="cls-1" d="M258.16,450.06v-1.79h7.56v1.79h-7.56Z"></path><path class="cls-1" d="M284.36,459.67c-1.62,0-3.17-.22-4.66-.65-1.49-.43-2.69-1-3.59-1.69l1.59-3.52c.85.62,1.87,1.12,3.06,1.51,1.19.39,2.4.59,3.61.59.92,0,1.67-.1,2.24-.29.57-.19.99-.45,1.26-.77.27-.32.4-.69.4-1.11,0-.54-.21-.97-.63-1.28-.42-.32-.99-.58-1.69-.78-.7-.2-1.47-.39-2.29-.58-.83-.18-1.66-.4-2.5-.66-.84-.26-1.61-.61-2.31-1.04-.7-.43-1.26-1-1.67-1.7-.41-.7-.62-1.58-.62-2.64,0-1.15.31-2.21.92-3.16.62-.95,1.55-1.71,2.81-2.28,1.26-.57,2.84-.85,4.75-.85,1.27,0,2.53.15,3.77.46,1.24.31,2.32.75,3.25,1.33l-1.47,3.52c-.9-.52-1.84-.91-2.8-1.17-.96-.26-1.89-.39-2.77-.39s-1.66.1-2.22.3c-.56.2-.97.48-1.23.82-.26.35-.39.73-.39,1.15,0,.54.21.97.63,1.3.42.33.98.58,1.67.77.69.18,1.46.37,2.31.55.85.18,1.68.41,2.51.68.83.27,1.59.61,2.28,1.02.69.41,1.26.97,1.69,1.67.43.7.65,1.57.65,2.61,0,1.14-.31,2.17-.94,3.12-.63.94-1.57,1.7-2.84,2.28-1.27.58-2.86.87-4.76.87Z"></path><path class="cls-1" d="M300.76,455.57h11v3.75h-15.64v-20.2h15.27v3.75h-10.62v12.7ZM300.41,447.23h9.73v3.67h-9.73v-3.67Z"></path><path class="cls-1" d="M322.14,459.67c-1.62,0-3.17-.22-4.66-.65-1.49-.43-2.69-1-3.59-1.69l1.59-3.52c.85.62,1.87,1.12,3.06,1.51,1.19.39,2.4.59,3.61.59.92,0,1.67-.1,2.24-.29.57-.19.99-.45,1.26-.77.27-.32.4-.69.4-1.11,0-.54-.21-.97-.63-1.28-.42-.32-.99-.58-1.69-.78-.7-.2-1.47-.39-2.29-.58-.83-.18-1.66-.4-2.5-.66-.84-.26-1.61-.61-2.31-1.04-.7-.43-1.26-1-1.67-1.7-.41-.7-.62-1.58-.62-2.64,0-1.15.31-2.21.92-3.16.62-.95,1.55-1.71,2.81-2.28,1.26-.57,2.84-.85,4.75-.85,1.27,0,2.53.15,3.77.46,1.24.31,2.32.75,3.25,1.33l-1.47,3.52c-.9-.52-1.84-.91-2.8-1.17-.96-.26-1.89-.39-2.77-.39s-1.66.1-2.22.3c-.56.2-.97.48-1.23.82-.26.35-.39.73-.39,1.15,0,.54.21.97.63,1.3.42.33.98.58,1.67.77.69.18,1.46.37,2.31.55.85.18,1.68.41,2.51.68.83.27,1.59.61,2.28,1.02.69.41,1.26.97,1.69,1.67.43.7.65,1.57.65,2.61,0,1.14-.31,2.17-.94,3.12-.63.94-1.57,1.7-2.84,2.28-1.27.58-2.86.87-4.76.87Z"></path><path class="cls-1" d="M331.23,459.33l8.97-20.2h4.62l9.06,20.2h-4.91l-7.42-17.83h1.88l-7.42,17.83h-4.79ZM335.76,455l1.18-3.55h10.45l1.21,3.55h-12.84Z"></path><path class="cls-1" d="M355.99,459.33v-20.2h8.74c1.81,0,3.37.29,4.67.88,1.31.59,2.32,1.43,3.03,2.53.71,1.1,1.07,2.39,1.07,3.9s-.36,2.82-1.07,3.91c-.71,1.09-1.72,1.93-3.03,2.52-1.31.6-2.87.89-4.67.89h-6.18l2.14-2.11v7.68h-4.7ZM360.69,452.17l-2.14-2.22h5.92c1.42,0,2.5-.31,3.23-.92.73-.62,1.1-1.48,1.1-2.6s-.37-1.98-1.1-2.58c-.73-.61-1.81-.91-3.23-.91h-5.92l2.14-2.22v11.46Z"></path><path class="cls-1" d="M377.11,459.33v-20.2h4.7v20.2h-4.7Z"></path></g></svg>