<svg xmlns="http://www.w3.org/2000/svg" width="211" height="81" viewBox="0 0 211 81" fill="none"><path d="M43.5 1.61666C45.5 2.41666 46.3333 3.95 46.5 4.61666L49.5 12.6167L47.5 10.6162C48.1667 11.283 48.7 11.8166 45.5 8.61621C42.3 5.41585 39.1667 8.28273 38 10.1162C37.6667 10.6162 36.8 12.0162 36 13.6162C34.4 14.0162 33.6667 24.1162 33.5 29.1162L34.5 36.1162L36.5 44.1162L37.5 49.1162V55.6162L36.5 60.6162L35 64.1162L33.5 65.1162L34 62.1162V50.1162C33.5 46.4495 32.1 37.8162 30.5 32.6162C28.5 26.1162 31.5 16.6162 31.5 14.6162C31.5 12.6162 36.5 4.11666 37 3.61666C37.5 3.11666 41 0.616665 43.5 1.61666Z" fill="url(#paint0_linear_2154_3586)"></path><path d="M26.5 76.6162L31 70.1162H30L26 71.6162L21.5 73.1162H17L12 71.6162L9 69.1162L7 66.6162L6.5 62.6162L7 58.1162L10 54.1162L14 50.6162L19 48.6162L25 47.6162L30 48.1162H33.5H35L40 47.6162L45.5 46L50 43.5L52.5 39.5L53.5 35V31.5L52.5 30.5L51 35.5L47.5 39.5L43 42.5L38.5 44L33 44.6162L26 43.6162L16.5 44.1162L9 47.1162L4.5 52.1162L2 56.6162L1 64.1162L3 71.1162L8.5 77.1162L17.5 79.6162L26.5 76.6162Z" fill="url(#paint1_linear_2154_3586)"></path><path d="M47.7402 7.20732C51.4629 17.6875 64.303 47.0518 25.0217 43.9267C3.72599 42.233 -0.705955 60.2574 1.51646 67.866C7.33688 87.7861 43.6006 83.3886 32.295 41.902C23.5343 9.75214 42.5044 -7.53286 47.7402 7.20732Z" stroke="url(#paint2_linear_2154_3586)" stroke-width="2" stroke-miterlimit="10"></path><path d="M48.1442 11.7001C52.7352 20.9379 64.6598 50.7493 28.8775 47.9079C9.48188 46.3646 4.2031 60.0946 7.10041 66.706C12.5339 79.1034 44.6064 75.0325 36.1767 43.8499C28.2585 14.5501 41.808 -1.05842 48.1442 11.7001Z" stroke="url(#paint3_linear_2154_3586)" stroke-miterlimit="10"></path><path d="M52.0862 21.2856C57.9367 36.3697 59.4756 63.5416 37.2085 57.4805C26.7627 54.6391 17.0347 57.8244 18.9004 62.6088C21.9782 70.5012 51.45 67.4663 45.1825 47.284C38.3304 25.2146 48.4194 11.8414 52.0862 21.2856Z" stroke="url(#paint4_linear_2154_3586)" stroke-miterlimit="10"></path><path d="M50.934 18.1613C58.1773 35.2572 60.2751 55.7748 34.023 52.3273C18.2812 50.2596 11.3131 59.2782 13.4538 64.7676C16.983 73.825 47.551 70.343 39.7918 45.1528C31.9897 19.812 45.522 5.39425 50.934 18.1656V18.1613Z" stroke="url(#paint5_linear_2154_3586)" stroke-miterlimit="10"></path><path d="M81.0019 46.0771C81.0019 47.1162 80.7559 47.9958 80.2637 48.7158C79.7806 49.4268 79.056 49.9691 78.0898 50.3428C77.1237 50.7074 75.9206 50.8896 74.4805 50.8896C73.4141 50.8896 72.498 50.8213 71.7324 50.6846C70.9759 50.5479 70.2103 50.32 69.4355 50.001V46.5557C70.265 46.9294 71.1536 47.2393 72.1016 47.4854C73.0586 47.7223 73.8971 47.8408 74.6172 47.8408C75.4284 47.8408 76.0072 47.7223 76.3535 47.4854C76.709 47.2393 76.8867 46.9202 76.8867 46.5283C76.8867 46.2731 76.8138 46.0452 76.668 45.8447C76.5312 45.6351 76.2305 45.4027 75.7656 45.1475C75.3008 44.8831 74.5716 44.5413 73.5781 44.1221C72.6211 43.721 71.8327 43.3154 71.2129 42.9053C70.6022 42.4951 70.1465 42.012 69.8457 41.4561C69.554 40.891 69.4082 40.1755 69.4082 39.3096C69.4082 37.8968 69.9551 36.835 71.0488 36.124C72.1517 35.404 73.6237 35.0439 75.4648 35.0439C76.4128 35.0439 77.3151 35.1396 78.1719 35.3311C79.0378 35.5225 79.9264 35.8278 80.8379 36.2471L79.5801 39.2549C78.8236 38.9268 78.1081 38.6579 77.4336 38.4482C76.7682 38.2386 76.0892 38.1338 75.3965 38.1338C74.7858 38.1338 74.3255 38.2158 74.0156 38.3799C73.7057 38.5439 73.5508 38.7946 73.5508 39.1318C73.5508 39.3779 73.6282 39.5967 73.7832 39.7881C73.9473 39.9795 74.2572 40.1937 74.7129 40.4307C75.1777 40.6585 75.8568 40.9548 76.75 41.3193C77.6159 41.6748 78.3678 42.0485 79.0059 42.4404C79.6439 42.8232 80.1361 43.3018 80.4824 43.876C80.8288 44.4411 81.0019 45.1748 81.0019 46.0771ZM90.7976 35.0166C92.8484 35.0166 94.4206 35.4632 95.5144 36.3564C96.6081 37.2497 97.155 38.6077 97.155 40.4307V50.6162H94.2429L93.4362 48.5381H93.3269C92.8894 49.085 92.4428 49.5316 91.987 49.8779C91.5313 50.2243 91.0072 50.4795 90.4148 50.6436C89.8223 50.8076 89.1023 50.8896 88.2546 50.8896C87.3523 50.8896 86.5411 50.7165 85.821 50.3701C85.1101 50.0238 84.5495 49.4951 84.1394 48.7842C83.7292 48.0641 83.5241 47.1527 83.5241 46.0498C83.5241 44.4274 84.0938 43.2334 85.2331 42.4678C86.3724 41.693 88.0814 41.2646 90.3601 41.1826L93.0124 41.1006V40.4307C93.0124 39.6286 92.8028 39.0407 92.3835 38.667C91.9642 38.2933 91.3809 38.1064 90.6335 38.1064C89.8952 38.1064 89.1706 38.2113 88.4597 38.4209C87.7487 38.6305 87.0378 38.8949 86.3269 39.2139L84.946 36.3975C85.7572 35.9691 86.6641 35.6318 87.6667 35.3857C88.6784 35.1396 89.722 35.0166 90.7976 35.0166ZM93.0124 43.5342L91.3991 43.5889C90.0502 43.6253 89.1114 43.8669 88.5827 44.3135C88.0632 44.7601 87.8034 45.348 87.8034 46.0771C87.8034 46.7152 87.9903 47.1709 88.364 47.4443C88.7377 47.7087 89.2253 47.8408 89.8269 47.8408C90.7201 47.8408 91.472 47.5765 92.0827 47.0479C92.7025 46.5192 93.0124 45.7673 93.0124 44.792V43.5342ZM115.769 35.3311V50.6162H112.57L112.009 48.6611H111.79C111.462 49.1807 111.052 49.6045 110.56 49.9326C110.068 50.2607 109.525 50.5023 108.933 50.6572C108.341 50.8122 107.725 50.8896 107.087 50.8896C105.994 50.8896 105.041 50.6982 104.23 50.3154C103.419 49.9235 102.785 49.3174 102.33 48.4971C101.883 47.6768 101.66 46.6104 101.66 45.2979V35.3311H105.83V44.2588C105.83 45.3525 106.025 46.1774 106.417 46.7334C106.809 47.2894 107.434 47.5674 108.29 47.5674C109.138 47.5674 109.803 47.376 110.287 46.9932C110.77 46.6012 111.107 46.0316 111.298 45.2842C111.499 44.5277 111.599 43.6071 111.599 42.5225V35.3311H115.769ZM114.142 29.165V29.4521C113.878 29.7074 113.531 30.0218 113.103 30.3955C112.675 30.7692 112.214 31.1611 111.722 31.5713C111.23 31.9723 110.747 32.3597 110.273 32.7334C109.799 33.098 109.384 33.4033 109.029 33.6494H106.253V33.2803C106.554 32.9339 106.9 32.5238 107.292 32.0498C107.693 31.5667 108.09 31.07 108.482 30.5596C108.874 30.0492 109.202 29.5843 109.466 29.165H114.142ZM125.264 50.8896C123.559 50.8896 122.169 50.2243 121.094 48.8936C120.027 47.5537 119.494 45.5895 119.494 43.001C119.494 40.3851 120.037 38.4072 121.121 37.0674C122.206 35.7184 123.623 35.0439 125.373 35.0439C126.102 35.0439 126.745 35.1442 127.301 35.3447C127.857 35.5452 128.335 35.8141 128.736 36.1514C129.147 36.4886 129.493 36.8669 129.776 37.2861H129.912C129.858 36.9945 129.789 36.5661 129.707 36.001C129.634 35.4268 129.598 34.8389 129.598 34.2373V29.3428H133.781V50.6162H130.582L129.776 48.6338H129.598C129.333 49.0531 129.001 49.4359 128.6 49.7822C128.208 50.1195 127.738 50.3883 127.192 50.5889C126.645 50.7894 126.002 50.8896 125.264 50.8896ZM126.727 47.5674C127.866 47.5674 128.668 47.2301 129.133 46.5557C129.607 45.8721 129.858 44.8467 129.885 43.4795V43.0283C129.885 41.5426 129.657 40.4079 129.201 39.624C128.746 38.8311 127.898 38.4346 126.658 38.4346C125.738 38.4346 125.018 38.8311 124.498 39.624C123.979 40.417 123.719 41.5609 123.719 43.0557C123.719 44.5505 123.979 45.6761 124.498 46.4326C125.027 47.1891 125.77 47.5674 126.727 47.5674ZM144.725 35.0439C146.138 35.0439 147.355 35.3174 148.376 35.8643C149.397 36.402 150.185 37.1859 150.741 38.2158C151.297 39.2458 151.575 40.5036 151.575 41.9893V44.0127H141.718C141.763 45.1885 142.114 46.1136 142.77 46.7881C143.436 47.4535 144.356 47.7861 145.532 47.7861C146.507 47.7861 147.401 47.6859 148.212 47.4854C149.023 47.2848 149.857 46.984 150.714 46.583V49.8096C149.957 50.1833 149.164 50.4567 148.335 50.6299C147.515 50.8031 146.516 50.8896 145.341 50.8896C143.809 50.8896 142.451 50.6071 141.266 50.042C140.091 49.4769 139.166 48.6156 138.491 47.458C137.826 46.3005 137.493 44.8421 137.493 43.083C137.493 41.2965 137.794 39.8109 138.395 38.626C139.006 37.432 139.854 36.5387 140.938 35.9463C142.023 35.3447 143.285 35.0439 144.725 35.0439ZM144.753 38.0107C143.942 38.0107 143.267 38.2705 142.729 38.79C142.201 39.3096 141.895 40.1253 141.813 41.2373H147.665C147.656 40.6175 147.542 40.0661 147.323 39.583C147.113 39.0999 146.794 38.7171 146.366 38.4346C145.947 38.152 145.409 38.0107 144.753 38.0107ZM160.291 49.0303C160.664 49.0303 161.047 48.9984 161.439 48.9346C161.831 48.8708 162.15 48.7933 162.396 48.7021V50.4658C162.132 50.5843 161.763 50.6846 161.289 50.7666C160.824 50.8486 160.368 50.8896 159.921 50.8896C159.129 50.8896 158.408 50.7529 157.761 50.4795C157.114 50.1969 156.595 49.723 156.203 49.0576C155.82 48.3923 155.629 47.4717 155.629 46.2959V37.4092H153.496V36.3018L155.642 35.4131L156.545 32.1592H157.912V35.6318H162.3V37.4092H157.912V46.2275C157.912 47.1663 158.126 47.8682 158.554 48.333C158.992 48.7979 159.571 49.0303 160.291 49.0303ZM171.481 35.3584C172.757 35.3584 173.851 35.641 174.762 36.2061C175.673 36.7712 176.371 37.5641 176.854 38.585C177.337 39.5967 177.578 40.7816 177.578 42.1396V43.5479H167.229C167.256 45.307 167.694 46.6468 168.541 47.5674C169.389 48.488 170.583 48.9482 172.123 48.9482C173.071 48.9482 173.91 48.8617 174.639 48.6885C175.368 48.5153 176.125 48.2601 176.909 47.9229V49.9189C176.152 50.2562 175.4 50.5023 174.653 50.6572C173.914 50.8122 173.039 50.8896 172.028 50.8896C170.588 50.8896 169.33 50.598 168.254 50.0146C167.188 49.4222 166.358 48.5563 165.766 47.417C165.173 46.2777 164.877 44.8831 164.877 43.2334C164.877 41.6201 165.146 40.2256 165.684 39.0498C166.231 37.8649 166.996 36.9535 167.981 36.3154C168.974 35.6774 170.141 35.3584 171.481 35.3584ZM171.453 37.2178C170.241 37.2178 169.275 37.6143 168.555 38.4072C167.835 39.2002 167.407 40.3076 167.27 41.7295H175.2C175.19 40.8363 175.049 40.0524 174.776 39.3779C174.511 38.6943 174.106 38.1657 173.559 37.792C173.012 37.4092 172.31 37.2178 171.453 37.2178ZM187.716 50.8896C186.367 50.8896 185.177 50.6117 184.147 50.0557C183.118 49.4997 182.315 48.652 181.741 47.5127C181.167 46.3734 180.88 44.9378 180.88 43.2061C180.88 41.3923 181.181 39.9111 181.782 38.7627C182.393 37.6051 183.231 36.7484 184.298 36.1924C185.364 35.6364 186.577 35.3584 187.935 35.3584C188.682 35.3584 189.402 35.4359 190.095 35.5908C190.797 35.7367 191.371 35.9235 191.817 36.1514L191.134 38.0518C190.678 37.8695 190.149 37.7054 189.548 37.5596C188.955 37.4137 188.399 37.3408 187.88 37.3408C186.841 37.3408 185.975 37.5641 185.282 38.0107C184.599 38.4574 184.084 39.1136 183.737 39.9795C183.4 40.8454 183.231 41.9118 183.231 43.1787C183.231 44.391 183.396 45.4255 183.724 46.2822C184.061 47.139 184.558 47.7952 185.214 48.251C185.879 48.6976 186.709 48.9209 187.702 48.9209C188.495 48.9209 189.211 48.8389 189.849 48.6748C190.487 48.5016 191.065 48.3011 191.585 48.0732V50.0967C191.084 50.3519 190.523 50.5479 189.903 50.6846C189.293 50.8213 188.564 50.8896 187.716 50.8896ZM197.689 29.3428V35.7002C197.689 36.0648 197.68 36.4339 197.662 36.8076C197.644 37.1722 197.612 37.5094 197.566 37.8193H197.717C198.026 37.2907 198.418 36.8486 198.892 36.4932C199.375 36.1286 199.922 35.8551 200.533 35.6729C201.144 35.4814 201.791 35.3857 202.474 35.3857C203.677 35.3857 204.68 35.5771 205.482 35.96C206.293 36.3428 206.899 36.9352 207.301 37.7373C207.711 38.5394 207.916 39.5785 207.916 40.8545V50.6162H205.674V41.0049C205.674 39.7562 205.386 38.8219 204.812 38.2021C204.247 37.5824 203.377 37.2725 202.201 37.2725C201.089 37.2725 200.2 37.4867 199.535 37.915C198.879 38.3343 198.405 38.9541 198.113 39.7744C197.83 40.5947 197.689 41.5973 197.689 42.7822V50.6162H195.42V29.3428H197.689Z" fill="#008C6C"></path><path d="M94.6205 64.6162V58.1914H95.3675V64.6162H94.6205ZM99.395 59.7119C99.9663 59.7119 100.398 59.8525 100.691 60.1338C100.984 60.4121 101.131 60.8604 101.131 61.4785V64.6162H100.41V61.5269C100.41 61.1255 100.318 60.8252 100.133 60.626C99.9517 60.4268 99.6719 60.3271 99.294 60.3271C98.7608 60.3271 98.3858 60.478 98.169 60.7798C97.9522 61.0815 97.8438 61.5195 97.8438 62.0938V64.6162H97.1143V59.7998H97.7031L97.813 60.4941H97.8526C97.9551 60.3242 98.0855 60.1821 98.2437 60.0679C98.4019 59.9507 98.5791 59.8628 98.7754 59.8042C98.9717 59.7427 99.1782 59.7119 99.395 59.7119ZM106.877 62.1992C106.877 62.5947 106.825 62.9478 106.723 63.2583C106.62 63.5688 106.472 63.8311 106.279 64.0449C106.086 64.2588 105.851 64.4229 105.576 64.5371C105.303 64.6484 104.994 64.7041 104.649 64.7041C104.326 64.7041 104.03 64.6484 103.761 64.5371C103.494 64.4229 103.263 64.2588 103.067 64.0449C102.873 63.8311 102.722 63.5688 102.614 63.2583C102.508 62.9478 102.456 62.5947 102.456 62.1992C102.456 61.6719 102.545 61.2236 102.724 60.8545C102.903 60.4824 103.157 60.1997 103.488 60.0063C103.822 59.8101 104.219 59.7119 104.679 59.7119C105.119 59.7119 105.503 59.8101 105.831 60.0063C106.162 60.2026 106.418 60.4868 106.6 60.8589C106.784 61.228 106.877 61.6748 106.877 62.1992ZM103.212 62.1992C103.212 62.5859 103.263 62.9214 103.365 63.2056C103.468 63.4897 103.626 63.7095 103.84 63.8647C104.054 64.02 104.329 64.0977 104.666 64.0977C105 64.0977 105.274 64.02 105.488 63.8647C105.705 63.7095 105.864 63.4897 105.967 63.2056C106.07 62.9214 106.121 62.5859 106.121 62.1992C106.121 61.8154 106.07 61.4844 105.967 61.2061C105.864 60.9248 105.706 60.708 105.492 60.5557C105.278 60.4033 105.002 60.3271 104.662 60.3271C104.161 60.3271 103.793 60.4927 103.559 60.8237C103.327 61.1548 103.212 61.6133 103.212 62.1992ZM109.287 64.6162L107.459 59.7998H108.241L109.3 62.7134C109.373 62.9126 109.448 63.1323 109.524 63.3726C109.6 63.6128 109.653 63.8062 109.682 63.9526H109.713C109.748 63.8062 109.807 63.6128 109.889 63.3726C109.971 63.1294 110.046 62.9097 110.113 62.7134L111.172 59.7998H111.954L110.122 64.6162H109.287ZM114.62 59.7207C115.194 59.7207 115.62 59.8496 115.898 60.1074C116.177 60.3652 116.316 60.7769 116.316 61.3423V64.6162H115.784L115.644 63.9043H115.608C115.474 64.0801 115.333 64.228 115.187 64.3481C115.04 64.4653 114.87 64.5547 114.677 64.6162C114.486 64.6748 114.252 64.7041 113.974 64.7041C113.681 64.7041 113.42 64.6528 113.191 64.5503C112.966 64.4478 112.787 64.2925 112.655 64.0845C112.526 63.8765 112.462 63.6128 112.462 63.2935C112.462 62.813 112.652 62.4438 113.033 62.186C113.414 61.9282 113.994 61.7876 114.773 61.7642L115.604 61.729V61.4346C115.604 61.0186 115.515 60.7271 115.336 60.5601C115.157 60.3931 114.905 60.3096 114.58 60.3096C114.328 60.3096 114.088 60.3462 113.859 60.4194C113.631 60.4927 113.414 60.5791 113.209 60.6787L112.985 60.125C113.202 60.0137 113.451 59.9185 113.732 59.8394C114.013 59.7603 114.309 59.7207 114.62 59.7207ZM115.595 62.2432L114.861 62.2739C114.261 62.2974 113.837 62.3955 113.591 62.5684C113.345 62.7412 113.222 62.9858 113.222 63.3022C113.222 63.5776 113.306 63.7812 113.473 63.9131C113.64 64.0449 113.861 64.1108 114.136 64.1108C114.564 64.1108 114.914 63.9922 115.187 63.7549C115.459 63.5176 115.595 63.1616 115.595 62.687V62.2432ZM119.838 64.7041C119.404 64.7041 119.022 64.6147 118.691 64.436C118.36 64.2573 118.102 63.9849 117.918 63.6187C117.733 63.2524 117.641 62.791 117.641 62.2344C117.641 61.6514 117.737 61.1753 117.931 60.8062C118.127 60.4341 118.397 60.1587 118.739 59.98C119.082 59.8013 119.472 59.7119 119.908 59.7119C120.149 59.7119 120.38 59.7368 120.603 59.7866C120.828 59.8335 121.013 59.8936 121.156 59.9668L120.937 60.5776C120.79 60.519 120.62 60.4663 120.427 60.4194C120.236 60.3726 120.058 60.3491 119.891 60.3491C119.557 60.3491 119.278 60.4209 119.056 60.5645C118.836 60.708 118.671 60.9189 118.559 61.1973C118.451 61.4756 118.397 61.8184 118.397 62.2256C118.397 62.6152 118.449 62.9478 118.555 63.2231C118.663 63.4985 118.823 63.7095 119.034 63.856C119.248 63.9995 119.514 64.0713 119.834 64.0713C120.089 64.0713 120.319 64.0449 120.524 63.9922C120.729 63.9365 120.915 63.8721 121.082 63.7988V64.4492C120.921 64.5312 120.74 64.5942 120.541 64.6382C120.345 64.6821 120.111 64.7041 119.838 64.7041ZM120.554 65.873C120.554 66.1572 120.444 66.3784 120.225 66.5366C120.005 66.6978 119.683 66.7783 119.258 66.7783C119.167 66.7783 119.081 66.7725 118.999 66.7607C118.917 66.752 118.851 66.7417 118.801 66.73V66.2686C118.857 66.2803 118.928 66.2905 119.016 66.2993C119.104 66.3081 119.192 66.3125 119.28 66.3125C119.5 66.3125 119.668 66.2803 119.785 66.2158C119.902 66.1514 119.961 66.043 119.961 65.8906C119.961 65.7295 119.882 65.6123 119.724 65.5391C119.569 65.4658 119.369 65.416 119.126 65.3896L119.517 64.6162H120.005L119.768 65.1084C119.914 65.1377 120.046 65.1831 120.163 65.2446C120.283 65.3062 120.379 65.3882 120.449 65.4907C120.519 65.5933 120.554 65.7207 120.554 65.873ZM124.116 59.7207C124.69 59.7207 125.117 59.8496 125.395 60.1074C125.673 60.3652 125.812 60.7769 125.812 61.3423V64.6162H125.281L125.14 63.9043H125.105C124.97 64.0801 124.829 64.228 124.683 64.3481C124.536 64.4653 124.367 64.5547 124.173 64.6162C123.983 64.6748 123.748 64.7041 123.47 64.7041C123.177 64.7041 122.916 64.6528 122.688 64.5503C122.462 64.4478 122.284 64.2925 122.152 64.0845C122.023 63.8765 121.958 63.6128 121.958 63.2935C121.958 62.813 122.149 62.4438 122.53 62.186C122.91 61.9282 123.491 61.7876 124.27 61.7642L125.1 61.729V61.4346C125.1 61.0186 125.011 60.7271 124.832 60.5601C124.654 60.3931 124.402 60.3096 124.076 60.3096C123.825 60.3096 123.584 60.3462 123.356 60.4194C123.127 60.4927 122.91 60.5791 122.705 60.6787L122.481 60.125C122.698 60.0137 122.947 59.9185 123.228 59.8394C123.51 59.7603 123.805 59.7207 124.116 59.7207ZM125.092 62.2432L124.358 62.2739C123.757 62.2974 123.334 62.3955 123.088 62.5684C122.842 62.7412 122.719 62.9858 122.719 63.3022C122.719 63.5776 122.802 63.7812 122.969 63.9131C123.136 64.0449 123.357 64.1108 123.633 64.1108C124.06 64.1108 124.41 63.9922 124.683 63.7549C124.955 63.5176 125.092 63.1616 125.092 62.687V62.2432ZM122.385 59.1494C122.402 58.9736 122.436 58.8169 122.486 58.6792C122.535 58.5415 122.601 58.4243 122.683 58.3276C122.765 58.231 122.862 58.1577 122.973 58.1079C123.088 58.0552 123.214 58.0288 123.351 58.0288C123.486 58.0288 123.615 58.0566 123.738 58.1123C123.861 58.165 123.978 58.2266 124.09 58.2969C124.201 58.3643 124.308 58.4258 124.41 58.4814C124.516 58.5342 124.617 58.5605 124.714 58.5605C124.854 58.5605 124.963 58.5181 125.039 58.4331C125.118 58.3452 125.178 58.2075 125.219 58.02H125.65C125.612 58.3628 125.511 58.6367 125.347 58.8418C125.182 59.0439 124.961 59.145 124.683 59.145C124.554 59.145 124.43 59.1187 124.309 59.0659C124.189 59.0103 124.074 58.9487 123.962 58.8813C123.851 58.811 123.741 58.7495 123.633 58.6968C123.527 58.6411 123.423 58.6133 123.321 58.6133C123.177 58.6133 123.067 58.6572 122.991 58.7451C122.915 58.8301 122.856 58.9648 122.815 59.1494H122.385ZM131.558 62.1992C131.558 62.5947 131.507 62.9478 131.404 63.2583C131.302 63.5688 131.154 63.8311 130.96 64.0449C130.767 64.2588 130.533 64.4229 130.257 64.5371C129.985 64.6484 129.676 64.7041 129.33 64.7041C129.008 64.7041 128.712 64.6484 128.442 64.5371C128.176 64.4229 127.944 64.2588 127.748 64.0449C127.555 63.8311 127.404 63.5688 127.295 63.2583C127.19 62.9478 127.137 62.5947 127.137 62.1992C127.137 61.6719 127.227 61.2236 127.405 60.8545C127.584 60.4824 127.839 60.1997 128.17 60.0063C128.504 59.8101 128.901 59.7119 129.361 59.7119C129.8 59.7119 130.184 59.8101 130.512 60.0063C130.843 60.2026 131.1 60.4868 131.281 60.8589C131.466 61.228 131.558 61.6748 131.558 62.1992ZM127.893 62.1992C127.893 62.5859 127.944 62.9214 128.047 63.2056C128.149 63.4897 128.308 63.7095 128.521 63.8647C128.735 64.02 129.011 64.0977 129.348 64.0977C129.682 64.0977 129.956 64.02 130.169 63.8647C130.386 63.7095 130.546 63.4897 130.648 63.2056C130.751 62.9214 130.802 62.5859 130.802 62.1992C130.802 61.8154 130.751 61.4844 130.648 61.2061C130.546 60.9248 130.388 60.708 130.174 60.5557C129.96 60.4033 129.683 60.3271 129.343 60.3271C128.842 60.3271 128.475 60.4927 128.24 60.8237C128.009 61.1548 127.893 61.6133 127.893 62.1992ZM137.192 59.7119C137.602 59.7119 137.953 59.8027 138.246 59.9844C138.539 60.166 138.763 60.4209 138.919 60.749C139.074 61.0742 139.152 61.4551 139.152 61.8916V62.3442H135.825C135.834 62.9097 135.974 63.3403 136.247 63.6362C136.519 63.9321 136.903 64.0801 137.398 64.0801C137.703 64.0801 137.972 64.0522 138.207 63.9966C138.441 63.9409 138.684 63.8589 138.936 63.7505V64.3921C138.693 64.5005 138.451 64.5796 138.211 64.6294C137.974 64.6792 137.693 64.7041 137.367 64.7041C136.905 64.7041 136.5 64.6104 136.155 64.4229C135.812 64.2324 135.545 63.9541 135.355 63.5879C135.164 63.2217 135.069 62.7734 135.069 62.2432C135.069 61.7246 135.156 61.2764 135.328 60.8984C135.504 60.5176 135.75 60.2246 136.067 60.0195C136.386 59.8145 136.761 59.7119 137.192 59.7119ZM137.183 60.3096C136.793 60.3096 136.483 60.437 136.251 60.6919C136.02 60.9468 135.882 61.3027 135.838 61.7598H138.387C138.384 61.4727 138.339 61.2207 138.251 61.0039C138.166 60.7842 138.035 60.6143 137.86 60.4941C137.684 60.3711 137.458 60.3096 137.183 60.3096ZM145.71 59.7119C146.241 59.7119 146.641 59.8511 146.91 60.1294C147.18 60.4048 147.314 60.8486 147.314 61.4609V64.6162H146.594V61.4961C146.594 61.1064 146.509 60.8149 146.339 60.6216C146.172 60.4253 145.923 60.3271 145.592 60.3271C145.126 60.3271 144.788 60.4619 144.577 60.7314C144.366 61.001 144.26 61.3979 144.26 61.9224V64.6162H143.535V61.4961C143.535 61.2354 143.497 61.0186 143.421 60.8457C143.348 60.6729 143.236 60.5439 143.087 60.459C142.94 60.3711 142.754 60.3271 142.529 60.3271C142.209 60.3271 141.953 60.3931 141.76 60.5249C141.566 60.6567 141.426 60.853 141.338 61.1138C141.253 61.3716 141.21 61.6895 141.21 62.0674V64.6162H140.481V59.7998H141.07L141.18 60.481H141.219C141.316 60.314 141.437 60.1733 141.584 60.0591C141.73 59.9448 141.894 59.8584 142.076 59.7998C142.258 59.7412 142.451 59.7119 142.656 59.7119C143.022 59.7119 143.329 59.7808 143.575 59.9185C143.824 60.0532 144.004 60.2598 144.115 60.5381H144.155C144.313 60.2598 144.53 60.0532 144.805 59.9185C145.081 59.7808 145.382 59.7119 145.71 59.7119ZM155.066 62.9067C155.066 63.2876 154.971 63.6128 154.781 63.8823C154.593 64.1489 154.329 64.3525 153.99 64.4932C153.65 64.6338 153.25 64.7041 152.79 64.7041C152.547 64.7041 152.317 64.6924 152.1 64.6689C151.883 64.6455 151.684 64.6118 151.502 64.5679C151.321 64.5239 151.161 64.4697 151.023 64.4053V63.689C151.243 63.7798 151.511 63.8647 151.827 63.9438C152.144 64.02 152.475 64.0581 152.821 64.0581C153.143 64.0581 153.415 64.0156 153.638 63.9307C153.861 63.8428 154.029 63.7183 154.143 63.5571C154.261 63.3931 154.319 63.1968 154.319 62.9683C154.319 62.7485 154.271 62.5654 154.174 62.4189C154.077 62.2695 153.916 62.1348 153.691 62.0146C153.468 61.8916 153.163 61.7612 152.777 61.6235C152.504 61.5269 152.264 61.4214 152.056 61.3071C151.848 61.1899 151.674 61.0581 151.533 60.9116C151.392 60.7651 151.285 60.5952 151.212 60.4019C151.142 60.2085 151.107 59.9873 151.107 59.7383C151.107 59.3955 151.193 59.1025 151.366 58.8594C151.542 58.6133 151.783 58.4258 152.091 58.2969C152.402 58.165 152.758 58.0991 153.159 58.0991C153.502 58.0991 153.818 58.1313 154.108 58.1958C154.401 58.2603 154.669 58.3467 154.912 58.4551L154.679 59.0967C154.448 59 154.202 58.9194 153.941 58.855C153.683 58.7905 153.417 58.7583 153.141 58.7583C152.866 58.7583 152.633 58.7993 152.443 58.8813C152.255 58.9604 152.112 59.0732 152.012 59.2197C151.912 59.3662 151.863 59.5405 151.863 59.7427C151.863 59.9683 151.909 60.1558 152.003 60.3052C152.1 60.4546 152.252 60.5879 152.46 60.7051C152.671 60.8193 152.949 60.9395 153.295 61.0654C153.673 61.2031 153.994 61.3496 154.258 61.5049C154.521 61.6572 154.722 61.8447 154.86 62.0674C154.997 62.2871 155.066 62.5669 155.066 62.9067ZM158.162 59.7207C158.736 59.7207 159.163 59.8496 159.441 60.1074C159.719 60.3652 159.858 60.7769 159.858 61.3423V64.6162H159.327L159.186 63.9043H159.151C159.016 64.0801 158.875 64.228 158.729 64.3481C158.582 64.4653 158.413 64.5547 158.219 64.6162C158.029 64.6748 157.794 64.7041 157.516 64.7041C157.223 64.7041 156.962 64.6528 156.734 64.5503C156.508 64.4478 156.33 64.2925 156.198 64.0845C156.069 63.8765 156.004 63.6128 156.004 63.2935C156.004 62.813 156.195 62.4438 156.576 62.186C156.956 61.9282 157.537 61.7876 158.316 61.7642L159.146 61.729V61.4346C159.146 61.0186 159.057 60.7271 158.878 60.5601C158.7 60.3931 158.448 60.3096 158.122 60.3096C157.871 60.3096 157.63 60.3462 157.402 60.4194C157.173 60.4927 156.956 60.5791 156.751 60.6787L156.527 60.125C156.744 60.0137 156.993 59.9185 157.274 59.8394C157.556 59.7603 157.852 59.7207 158.162 59.7207ZM159.138 62.2432L158.404 62.2739C157.803 62.2974 157.38 62.3955 157.134 62.5684C156.888 62.7412 156.765 62.9858 156.765 63.3022C156.765 63.5776 156.848 63.7812 157.015 63.9131C157.182 64.0449 157.403 64.1108 157.679 64.1108C158.106 64.1108 158.456 63.9922 158.729 63.7549C159.001 63.5176 159.138 63.1616 159.138 62.687V62.2432ZM165.428 59.7998V64.6162H164.831L164.725 63.9395H164.686C164.586 64.1064 164.457 64.2471 164.299 64.3613C164.141 64.4756 163.962 64.5605 163.763 64.6162C163.566 64.6748 163.357 64.7041 163.134 64.7041C162.754 64.7041 162.434 64.6426 162.176 64.5195C161.919 64.3965 161.724 64.2061 161.592 63.9482C161.463 63.6904 161.399 63.3594 161.399 62.9551V59.7998H162.137V62.9023C162.137 63.3037 162.228 63.604 162.409 63.8032C162.591 63.9995 162.868 64.0977 163.24 64.0977C163.597 64.0977 163.881 64.0303 164.092 63.8955C164.306 63.7607 164.46 63.563 164.554 63.3022C164.648 63.0386 164.694 62.7163 164.694 62.3354V59.7998H165.428ZM164.716 57.7212V57.8091C164.658 57.894 164.577 57.9966 164.475 58.1167C164.375 58.2339 164.264 58.3584 164.141 58.4902C164.018 58.6191 163.893 58.7422 163.767 58.8594C163.644 58.9766 163.53 59.0776 163.424 59.1626H162.937V59.0571C163.03 58.9458 163.133 58.8125 163.244 58.6572C163.356 58.499 163.464 58.3379 163.569 58.1738C163.675 58.0068 163.763 57.856 163.833 57.7212H164.716ZM168.775 64.7041C168.165 64.7041 167.682 64.4961 167.324 64.0801C166.97 63.6641 166.793 63.0459 166.793 62.2256C166.793 61.3965 166.974 60.771 167.338 60.3491C167.701 59.9243 168.184 59.7119 168.788 59.7119C169.043 59.7119 169.265 59.7456 169.456 59.813C169.646 59.8804 169.81 59.9712 169.948 60.0854C170.086 60.1968 170.201 60.3242 170.295 60.4678H170.348C170.336 60.377 170.324 60.2524 170.313 60.0942C170.301 59.936 170.295 59.8071 170.295 59.7075V57.7783H171.025V64.6162H170.436L170.326 63.9307H170.295C170.204 64.0742 170.089 64.2046 169.948 64.3218C169.81 64.439 169.645 64.5327 169.451 64.603C169.261 64.6704 169.035 64.7041 168.775 64.7041ZM168.889 64.0977C169.405 64.0977 169.769 63.9512 169.983 63.6582C170.197 63.3652 170.304 62.9302 170.304 62.353V62.2212C170.304 61.6089 170.201 61.1387 169.996 60.8105C169.794 60.4824 169.425 60.3184 168.889 60.3184C168.441 60.3184 168.105 60.4912 167.883 60.8369C167.66 61.1797 167.549 61.6484 167.549 62.2432C167.549 62.835 167.658 63.292 167.878 63.6143C168.101 63.9365 168.438 64.0977 168.889 64.0977ZM174.516 59.7119C174.926 59.7119 175.278 59.8027 175.571 59.9844C175.864 60.166 176.088 60.4209 176.243 60.749C176.398 61.0742 176.476 61.4551 176.476 61.8916V62.3442H173.149C173.158 62.9097 173.299 63.3403 173.571 63.6362C173.844 63.9321 174.227 64.0801 174.723 64.0801C175.027 64.0801 175.297 64.0522 175.531 63.9966C175.766 63.9409 176.009 63.8589 176.261 63.7505V64.3921C176.018 64.5005 175.776 64.5796 175.536 64.6294C175.298 64.6792 175.017 64.7041 174.692 64.7041C174.229 64.7041 173.825 64.6104 173.479 64.4229C173.136 64.2324 172.87 63.9541 172.679 63.5879C172.489 63.2217 172.393 62.7734 172.393 62.2432C172.393 61.7246 172.48 61.2764 172.653 60.8984C172.829 60.5176 173.075 60.2246 173.391 60.0195C173.71 59.8145 174.085 59.7119 174.516 59.7119ZM174.507 60.3096C174.118 60.3096 173.807 60.437 173.576 60.6919C173.344 60.9468 173.206 61.3027 173.163 61.7598H175.711C175.708 61.4727 175.663 61.2207 175.575 61.0039C175.49 60.7842 175.36 60.6143 175.184 60.4941C175.008 60.3711 174.783 60.3096 174.507 60.3096ZM182.088 59.7119C182.498 59.7119 182.849 59.8027 183.142 59.9844C183.435 60.166 183.659 60.4209 183.815 60.749C183.97 61.0742 184.048 61.4551 184.048 61.8916V62.3442H180.721C180.73 62.9097 180.87 63.3403 181.143 63.6362C181.415 63.9321 181.799 64.0801 182.294 64.0801C182.599 64.0801 182.868 64.0522 183.103 63.9966C183.337 63.9409 183.58 63.8589 183.832 63.7505V64.3921C183.589 64.5005 183.347 64.5796 183.107 64.6294C182.87 64.6792 182.589 64.7041 182.263 64.7041C181.801 64.7041 181.396 64.6104 181.051 64.4229C180.708 64.2324 180.441 63.9541 180.251 63.5879C180.06 63.2217 179.965 62.7734 179.965 62.2432C179.965 61.7246 180.051 61.2764 180.224 60.8984C180.4 60.5176 180.646 60.2246 180.963 60.0195C181.282 59.8145 181.657 59.7119 182.088 59.7119ZM182.079 60.3096C181.689 60.3096 181.379 60.437 181.147 60.6919C180.916 60.9468 180.778 61.3027 180.734 61.7598H183.283C183.28 61.4727 183.235 61.2207 183.147 61.0039C183.062 60.7842 182.931 60.6143 182.756 60.4941C182.58 60.3711 182.354 60.3096 182.079 60.3096ZM118.024 70.1914H119.843C120.646 70.1914 121.25 70.3115 121.654 70.5518C122.058 70.792 122.26 71.2007 122.26 71.7778C122.26 72.0269 122.212 72.251 122.115 72.4502C122.022 72.6465 121.884 72.8091 121.702 72.938C121.521 73.0669 121.297 73.1562 121.03 73.2061V73.25C121.311 73.2939 121.56 73.3745 121.777 73.4917C121.994 73.6089 122.164 73.7729 122.287 73.9839C122.41 74.1948 122.471 74.4629 122.471 74.7881C122.471 75.1836 122.379 75.5176 122.195 75.79C122.013 76.0625 121.755 76.269 121.421 76.4097C121.087 76.5474 120.692 76.6162 120.235 76.6162H118.024V70.1914ZM118.771 72.9468H120.002C120.561 72.9468 120.948 72.8545 121.162 72.6699C121.379 72.4854 121.487 72.2158 121.487 71.8613C121.487 71.4951 121.358 71.2314 121.1 71.0703C120.845 70.9092 120.438 70.8286 119.879 70.8286H118.771V72.9468ZM118.771 73.5752V75.979H120.107C120.678 75.979 121.083 75.8677 121.32 75.645C121.557 75.4194 121.676 75.1162 121.676 74.7354C121.676 74.4922 121.622 74.2842 121.513 74.1113C121.408 73.9385 121.235 73.8066 120.995 73.7158C120.758 73.6221 120.44 73.5752 120.041 73.5752H118.771ZM125.677 71.7119C126.087 71.7119 126.439 71.8027 126.732 71.9844C127.025 72.166 127.249 72.4209 127.404 72.749C127.559 73.0742 127.637 73.4551 127.637 73.8916V74.3442H124.31C124.319 74.9097 124.46 75.3403 124.732 75.6362C125.005 75.9321 125.389 76.0801 125.884 76.0801C126.188 76.0801 126.458 76.0522 126.692 75.9966C126.927 75.9409 127.17 75.8589 127.422 75.7505V76.3921C127.179 76.5005 126.937 76.5796 126.697 76.6294C126.459 76.6792 126.178 76.7041 125.853 76.7041C125.39 76.7041 124.986 76.6104 124.64 76.4229C124.297 76.2324 124.031 75.9541 123.84 75.5879C123.65 75.2217 123.555 74.7734 123.555 74.2432C123.555 73.7246 123.641 73.2764 123.814 72.8984C123.99 72.5176 124.236 72.2246 124.552 72.0195C124.871 71.8145 125.246 71.7119 125.677 71.7119ZM125.668 72.3096C125.279 72.3096 124.968 72.437 124.737 72.6919C124.505 72.9468 124.368 73.3027 124.324 73.7598H126.872C126.87 73.4727 126.824 73.2207 126.736 73.0039C126.651 72.7842 126.521 72.6143 126.345 72.4941C126.169 72.3711 125.944 72.3096 125.668 72.3096ZM134.196 71.7119C134.726 71.7119 135.126 71.8511 135.396 72.1294C135.665 72.4048 135.8 72.8486 135.8 73.4609V76.6162H135.079V73.4961C135.079 73.1064 134.994 72.8149 134.824 72.6216C134.657 72.4253 134.408 72.3271 134.077 72.3271C133.611 72.3271 133.273 72.4619 133.062 72.7314C132.851 73.001 132.746 73.3979 132.746 73.9224V76.6162H132.021V73.4961C132.021 73.2354 131.982 73.0186 131.906 72.8457C131.833 72.6729 131.722 72.5439 131.572 72.459C131.426 72.3711 131.24 72.3271 131.014 72.3271C130.695 72.3271 130.439 72.3931 130.245 72.5249C130.052 72.6567 129.911 72.853 129.823 73.1138C129.738 73.3716 129.696 73.6895 129.696 74.0674V76.6162H128.966V71.7998H129.555L129.665 72.481H129.705C129.801 72.314 129.923 72.1733 130.069 72.0591C130.216 71.9448 130.38 71.8584 130.562 71.7998C130.743 71.7412 130.937 71.7119 131.142 71.7119C131.508 71.7119 131.814 71.7808 132.06 71.9185C132.309 72.0532 132.489 72.2598 132.601 72.5381H132.64C132.798 72.2598 133.015 72.0532 133.291 71.9185C133.566 71.7808 133.868 71.7119 134.196 71.7119ZM136.98 74.5244V73.874H139.159V74.5244H136.98ZM142.233 71.7119C142.643 71.7119 142.995 71.8027 143.288 71.9844C143.581 72.166 143.805 72.4209 143.96 72.749C144.116 73.0742 144.193 73.4551 144.193 73.8916V74.3442H140.867C140.875 74.9097 141.016 75.3403 141.288 75.6362C141.561 75.9321 141.945 76.0801 142.44 76.0801C142.745 76.0801 143.014 76.0522 143.248 75.9966C143.483 75.9409 143.726 75.8589 143.978 75.7505V76.3921C143.735 76.5005 143.493 76.5796 143.253 76.6294C143.016 76.6792 142.734 76.7041 142.409 76.7041C141.946 76.7041 141.542 76.6104 141.196 76.4229C140.853 76.2324 140.587 75.9541 140.396 75.5879C140.206 75.2217 140.111 74.7734 140.111 74.2432C140.111 73.7246 140.197 73.2764 140.37 72.8984C140.546 72.5176 140.792 72.2246 141.108 72.0195C141.428 71.8145 141.803 71.7119 142.233 71.7119ZM142.224 72.3096C141.835 72.3096 141.524 72.437 141.293 72.6919C141.061 72.9468 140.924 73.3027 140.88 73.7598H143.429C143.426 73.4727 143.38 73.2207 143.292 73.0039C143.207 72.7842 143.077 72.6143 142.901 72.4941C142.725 72.3711 142.5 72.3096 142.224 72.3096ZM148.638 75.2979C148.638 75.6055 148.561 75.8647 148.405 76.0757C148.253 76.2837 148.033 76.4404 147.746 76.5459C147.462 76.6514 147.122 76.7041 146.727 76.7041C146.39 76.7041 146.098 76.6777 145.852 76.625C145.606 76.5723 145.391 76.4976 145.206 76.4009V75.7285C145.402 75.8252 145.637 75.9131 145.909 75.9922C146.182 76.0713 146.46 76.1108 146.744 76.1108C147.16 76.1108 147.462 76.0435 147.649 75.9087C147.837 75.7739 147.931 75.5908 147.931 75.3594C147.931 75.2275 147.893 75.1118 147.816 75.0122C147.743 74.9097 147.619 74.8115 147.443 74.7178C147.267 74.6211 147.024 74.5156 146.713 74.4014C146.406 74.2842 146.139 74.1685 145.914 74.0542C145.691 73.937 145.518 73.7949 145.395 73.6279C145.275 73.4609 145.215 73.2441 145.215 72.9775C145.215 72.5703 145.379 72.2583 145.707 72.0415C146.038 71.8218 146.472 71.7119 147.008 71.7119C147.298 71.7119 147.569 71.7412 147.821 71.7998C148.076 71.8555 148.313 71.9316 148.533 72.0283L148.287 72.6128C148.087 72.5278 147.875 72.4561 147.649 72.3975C147.424 72.3389 147.194 72.3096 146.96 72.3096C146.623 72.3096 146.363 72.3652 146.182 72.4766C146.003 72.5879 145.914 72.7402 145.914 72.9336C145.914 73.083 145.955 73.2061 146.037 73.3027C146.122 73.3994 146.256 73.4902 146.441 73.5752C146.626 73.6602 146.869 73.7598 147.17 73.874C147.472 73.9854 147.733 74.1011 147.953 74.2212C148.172 74.3384 148.341 74.4819 148.458 74.6519C148.578 74.8188 148.638 75.0342 148.638 75.2979ZM151.457 76.1064C151.577 76.1064 151.7 76.0962 151.826 76.0757C151.952 76.0552 152.055 76.0303 152.134 76.001V76.5679C152.049 76.606 151.93 76.6382 151.778 76.6646C151.629 76.6909 151.482 76.7041 151.339 76.7041C151.084 76.7041 150.852 76.6602 150.644 76.5723C150.436 76.4814 150.269 76.3291 150.143 76.1152C150.02 75.9014 149.959 75.6055 149.959 75.2275V72.3711H149.273V72.0151L149.963 71.7295L150.253 70.6836H150.693V71.7998H152.103V72.3711H150.693V75.2056C150.693 75.5073 150.761 75.7329 150.899 75.8823C151.04 76.0317 151.226 76.1064 151.457 76.1064ZM155.001 71.7207C155.576 71.7207 156.002 71.8496 156.28 72.1074C156.558 72.3652 156.698 72.7769 156.698 73.3423V76.6162H156.166L156.025 75.9043H155.99C155.855 76.0801 155.715 76.228 155.568 76.3481C155.422 76.4653 155.252 76.5547 155.058 76.6162C154.868 76.6748 154.634 76.7041 154.355 76.7041C154.062 76.7041 153.802 76.6528 153.573 76.5503C153.348 76.4478 153.169 76.2925 153.037 76.0845C152.908 75.8765 152.844 75.6128 152.844 75.2935C152.844 74.813 153.034 74.4438 153.415 74.186C153.796 73.9282 154.376 73.7876 155.155 73.7642L155.986 73.729V73.4346C155.986 73.0186 155.896 72.7271 155.718 72.5601C155.539 72.3931 155.287 72.3096 154.962 72.3096C154.71 72.3096 154.47 72.3462 154.241 72.4194C154.013 72.4927 153.796 72.5791 153.591 72.6787L153.367 72.125C153.583 72.0137 153.832 71.9185 154.114 71.8394C154.395 71.7603 154.691 71.7207 155.001 71.7207ZM155.977 74.2432L155.243 74.2739C154.642 74.2974 154.219 74.3955 153.973 74.5684C153.727 74.7412 153.604 74.9858 153.604 75.3022C153.604 75.5776 153.687 75.7812 153.854 75.9131C154.021 76.0449 154.243 76.1108 154.518 76.1108C154.946 76.1108 155.296 75.9922 155.568 75.7549C155.841 75.5176 155.977 75.1616 155.977 74.687V74.2432ZM160.479 71.7119C160.576 71.7119 160.677 71.7178 160.782 71.7295C160.888 71.7383 160.981 71.7515 161.063 71.769L160.971 72.4458C160.892 72.4253 160.804 72.4092 160.708 72.3975C160.611 72.3857 160.52 72.3799 160.435 72.3799C160.242 72.3799 160.059 72.4194 159.886 72.4985C159.716 72.5747 159.566 72.686 159.438 72.8325C159.309 72.9761 159.208 73.1504 159.134 73.3555C159.061 73.5576 159.024 73.7832 159.024 74.0322V76.6162H158.291V71.7998H158.897L158.976 72.6875H159.007C159.106 72.5088 159.227 72.3462 159.367 72.1997C159.508 72.0503 159.67 71.9316 159.855 71.8438C160.042 71.7559 160.251 71.7119 160.479 71.7119Z" fill="black"></path><defs><linearGradient id="paint0_linear_2154_3586" x1="39.6562" y1="1.38281" x2="39.6563" y2="65.1162" gradientUnits="userSpaceOnUse"><stop stop-color="#008C6C"></stop><stop offset="0.298077" stop-color="#75F7DA"></stop><stop offset="0.673077" stop-color="#26AF90"></stop><stop offset="0.769231" stop-color="#1FA889"></stop><stop offset="1" stop-color="#7EFFE2"></stop></linearGradient><linearGradient id="paint1_linear_2154_3586" x1="17.25" y1="43.6162" x2="17.25" y2="79.6162" gradientUnits="userSpaceOnUse"><stop stop-color="#008C6C"></stop><stop offset="0.9999" stop-color="#7EFFE2"></stop></linearGradient><linearGradient id="paint2_linear_2154_3586" x1="26.8667" y1="1.8877" x2="26.8667" y2="79.344" gradientUnits="userSpaceOnUse"><stop stop-color="#008C6C"></stop></linearGradient><linearGradient id="paint3_linear_2154_3586" x1="30.0712" y1="7.21289" x2="30.0712" y2="73.2219" gradientUnits="userSpaceOnUse"><stop stop-color="#008C6C"></stop></linearGradient><linearGradient id="paint4_linear_2154_3586" x1="37.2456" y1="18.2148" x2="37.2456" y2="66.6288" gradientUnits="userSpaceOnUse"><stop stop-color="#008C6C"></stop></linearGradient><linearGradient id="paint5_linear_2154_3586" x1="34.3825" y1="13.4297" x2="34.3825" y2="69.3106" gradientUnits="userSpaceOnUse"><stop stop-color="#008C6C"></stop></linearGradient></defs></svg>