<svg xmlns="http://www.w3.org/2000/svg" width="190" height="79" viewBox="0 0 190 79" fill="none"><path d="M40.9458 51.2838L38.9999 43.5L36.9999 34.5V24.5L39.9999 16.5L43.4999 13H47.9999L51.4999 19L48.9999 17L46.4999 18L42.9999 23.5L42.4999 30.5L43.4999 42.5L45.4999 49L45.2593 50.8045L47.9999 50.5L51.9999 47L54.4999 43.5L54.9999 45L53.4999 50L51.9999 53.5L47.9999 56.5L44.9999 57.5L43.8644 57.3738L40.4999 62L35.9999 64L38.9999 57.5L39.2427 56.7714L34.9999 56L29.9999 55.5L23.4999 56L18.9999 58.5L18.4999 60.5L19.4999 63.5L23.4999 65.5H29.4999L31.9999 66.5L21.9999 69L15.4999 67L12.4999 63V59.5L16.4999 54.5L23.4999 52L28.9999 50.5L34.9999 51.5H38.9999L40.9458 51.2838Z" fill="url(#paint0_linear_2154_3613)"></path><path d="M47.3215 6.09111C51.0442 16.5713 63.8843 45.9356 24.603 42.8105C3.30728 41.1168 -1.12466 59.1411 1.09776 66.7498C6.91818 86.6699 43.1819 82.2724 31.8763 40.7858C23.1156 8.63593 42.0857 -8.64907 47.3215 6.09111Z" stroke="#E9C600" stroke-miterlimit="10"></path><path d="M47.7256 10.5839C52.3166 19.8217 64.2411 49.6331 28.4589 46.7917C9.06324 45.2484 3.78446 58.9784 6.68177 65.5898C12.1153 77.9872 44.1878 73.9163 35.7581 42.7337C27.8399 13.4339 41.3893 -2.17463 47.7256 10.5839Z" stroke="#E9C600" stroke-miterlimit="10"></path><path d="M50.5153 17.0451C57.7586 34.141 59.8564 54.6586 33.6043 51.2111C17.8625 49.1434 10.8944 58.162 13.0351 63.6514C16.5643 72.7088 47.1323 69.2268 39.3731 44.0365C31.571 18.6958 45.1033 4.27804 50.5153 17.0494V17.0451Z" stroke="#E9C600" stroke-width="2" stroke-miterlimit="10"></path><path d="M51.6675 20.1694C57.518 35.2535 59.0569 62.4254 36.7898 56.3643C26.344 53.5229 16.616 56.7082 18.4817 61.4926C21.5595 69.385 51.0313 66.3501 44.7638 46.1678C37.9117 24.0984 48.0007 10.7252 51.6675 20.1694Z" stroke="#E9C600" stroke-miterlimit="10"></path><path d="M86.4415 37.3237C87.7029 37.3237 88.7893 37.5679 89.7008 38.0562C90.6123 38.5363 91.3162 39.2362 91.8126 40.1558C92.309 41.0754 92.5573 42.1984 92.5573 43.5249V45.3315H83.756C83.7967 46.3813 84.11 47.2074 84.6959 47.8096C85.29 48.4036 86.1119 48.7007 87.1617 48.7007C88.0325 48.7007 88.83 48.6112 89.5543 48.4321C90.2786 48.2531 91.0232 47.9845 91.7882 47.6265V50.5073C91.1128 50.841 90.4047 51.0851 89.6642 51.2397C88.9318 51.3944 88.0406 51.4717 86.9908 51.4717C85.6237 51.4717 84.4111 51.2194 83.3531 50.7148C82.3033 50.2103 81.4773 49.4412 80.8751 48.4077C80.281 47.3742 79.984 46.0721 79.984 44.5015C79.984 42.9064 80.2526 41.5799 80.7897 40.522C81.3349 39.4559 82.0918 38.6584 83.0602 38.1294C84.0286 37.5923 85.1557 37.3237 86.4415 37.3237ZM86.4659 39.9727C85.7417 39.9727 85.1394 40.2046 84.6593 40.6685C84.1873 41.1323 83.9147 41.8607 83.8414 42.8535H89.066C89.0579 42.3001 88.9562 41.8078 88.7609 41.3765C88.5737 40.9451 88.2889 40.6034 87.9064 40.3511C87.532 40.0988 87.0519 39.9727 86.4659 39.9727ZM100.156 51.4717C98.6341 51.4717 97.393 50.8776 96.4327 49.6895C95.4806 48.4932 95.0045 46.7394 95.0045 44.4282C95.0045 42.0926 95.4887 40.3267 96.4572 39.1304C97.4256 37.9259 98.691 37.3237 100.254 37.3237C100.905 37.3237 101.478 37.4132 101.975 37.5923C102.471 37.7713 102.898 38.0114 103.256 38.3125C103.623 38.6136 103.932 38.9513 104.184 39.3257H104.306C104.257 39.0653 104.196 38.6828 104.123 38.1782C104.058 37.6655 104.026 37.1406 104.026 36.6035V32.2334H107.761V51.2275H104.904L104.184 49.4575H104.026C103.79 49.8319 103.492 50.1737 103.134 50.4829C102.784 50.784 102.365 51.0241 101.877 51.2031C101.389 51.3822 100.815 51.4717 100.156 51.4717ZM101.462 48.5054C102.479 48.5054 103.195 48.2043 103.61 47.6021C104.034 46.9917 104.257 46.0762 104.282 44.8555V44.4526C104.282 43.1261 104.078 42.113 103.672 41.4131C103.265 40.7051 102.508 40.3511 101.401 40.3511C100.579 40.3511 99.9362 40.7051 99.4723 41.4131C99.0084 42.1211 98.7765 43.1424 98.7765 44.4771C98.7765 45.8117 99.0084 46.8167 99.4723 47.4922C99.9443 48.1676 100.608 48.5054 101.462 48.5054ZM124.429 37.5801V51.2275H121.573L121.072 49.4819H120.877C120.584 49.9458 120.218 50.3242 119.778 50.6172C119.339 50.9102 118.855 51.1258 118.326 51.2642C117.797 51.4025 117.248 51.4717 116.678 51.4717C115.701 51.4717 114.851 51.3008 114.127 50.959C113.402 50.609 112.837 50.0679 112.43 49.3354C112.031 48.603 111.832 47.6509 111.832 46.479V37.5801H115.555V45.5513C115.555 46.5278 115.73 47.2643 116.08 47.7607C116.43 48.2572 116.987 48.5054 117.752 48.5054C118.509 48.5054 119.103 48.3345 119.534 47.9927C119.966 47.6427 120.267 47.1341 120.438 46.4668C120.617 45.7913 120.706 44.9694 120.706 44.001V37.5801H124.429ZM133.09 49.8115C133.424 49.8115 133.765 49.783 134.115 49.7261C134.465 49.6691 134.75 49.5999 134.97 49.5186V51.0933C134.734 51.1991 134.404 51.2886 133.981 51.3618C133.566 51.4351 133.159 51.4717 132.76 51.4717C132.052 51.4717 131.409 51.3496 130.832 51.1055C130.254 50.8532 129.79 50.43 129.44 49.8359C129.098 49.2419 128.927 48.4199 128.927 47.3701V39.4355H127.023V38.4468L128.94 37.6533L129.745 34.748H130.966V37.8486H134.884V39.4355H130.966V47.3091C130.966 48.1473 131.157 48.7739 131.54 49.189C131.93 49.604 132.447 49.8115 133.09 49.8115ZM143.081 37.6045C144.22 37.6045 145.197 37.8568 146.011 38.3613C146.825 38.8659 147.447 39.5739 147.879 40.4854C148.31 41.3887 148.526 42.4466 148.526 43.6592V44.9165H139.285C139.309 46.4871 139.7 47.6834 140.457 48.5054C141.214 49.3273 142.28 49.7383 143.655 49.7383C144.501 49.7383 145.25 49.661 145.901 49.5063C146.552 49.3517 147.227 49.1239 147.927 48.8228V50.605C147.252 50.9061 146.581 51.1258 145.913 51.2642C145.254 51.4025 144.473 51.4717 143.569 51.4717C142.284 51.4717 141.161 51.2113 140.2 50.6904C139.248 50.1615 138.508 49.3883 137.979 48.3711C137.45 47.3538 137.185 46.1087 137.185 44.6357C137.185 43.1953 137.425 41.9502 137.905 40.9004C138.394 39.8424 139.077 39.0286 139.956 38.459C140.843 37.8893 141.885 37.6045 143.081 37.6045ZM143.057 39.2646C141.974 39.2646 141.112 39.6187 140.469 40.3267C139.826 41.0347 139.443 42.0234 139.321 43.293H146.401C146.393 42.4954 146.267 41.7956 146.023 41.1934C145.787 40.583 145.425 40.111 144.937 39.7773C144.448 39.4355 143.822 39.2646 143.057 39.2646ZM157.577 51.4717C156.372 51.4717 155.31 51.2235 154.391 50.7271C153.471 50.2306 152.755 49.4738 152.242 48.4565C151.73 47.4393 151.473 46.1576 151.473 44.6113C151.473 42.9919 151.742 41.6694 152.279 40.644C152.824 39.6105 153.573 38.8455 154.525 38.3491C155.477 37.8527 156.56 37.6045 157.772 37.6045C158.439 37.6045 159.082 37.6737 159.701 37.812C160.327 37.9422 160.84 38.109 161.239 38.3125L160.629 40.0093C160.222 39.8465 159.75 39.7 159.213 39.5698C158.684 39.4396 158.187 39.3745 157.723 39.3745C156.796 39.3745 156.022 39.5739 155.404 39.9727C154.794 40.3714 154.334 40.9574 154.025 41.7305C153.723 42.5036 153.573 43.4557 153.573 44.5869C153.573 45.6693 153.719 46.5929 154.012 47.3579C154.313 48.1229 154.757 48.7088 155.343 49.1157C155.937 49.5145 156.678 49.7139 157.565 49.7139C158.273 49.7139 158.911 49.6406 159.481 49.4941C160.051 49.3395 160.568 49.1605 161.031 48.957V50.7637C160.584 50.9915 160.083 51.1665 159.53 51.2886C158.985 51.4106 158.334 51.4717 157.577 51.4717ZM166.482 32.2334V37.9097C166.482 38.2352 166.473 38.5648 166.457 38.8984C166.441 39.224 166.412 39.5251 166.372 39.8018H166.506C166.783 39.3298 167.133 38.9351 167.556 38.6177C167.987 38.2922 168.475 38.048 169.021 37.8853C169.566 37.7144 170.144 37.6289 170.754 37.6289C171.828 37.6289 172.723 37.7998 173.44 38.1416C174.164 38.4834 174.705 39.0124 175.063 39.7285C175.429 40.4447 175.612 41.3724 175.612 42.5117V51.2275H173.61V42.646C173.61 41.5311 173.354 40.6969 172.841 40.1436C172.337 39.5902 171.56 39.3135 170.51 39.3135C169.517 39.3135 168.724 39.5047 168.13 39.8872C167.544 40.2616 167.12 40.8149 166.86 41.5474C166.608 42.2798 166.482 43.175 166.482 44.2329V51.2275H164.455V32.2334H166.482Z" fill="#E9C600"></path><path d="M98.9439 63.2275V56.8027H99.691V63.2275H98.9439ZM103.719 58.3232C104.29 58.3232 104.722 58.4639 105.015 58.7451C105.308 59.0234 105.454 59.4717 105.454 60.0898V63.2275H104.734V60.1382C104.734 59.7368 104.641 59.4365 104.457 59.2373C104.275 59.0381 103.995 58.9385 103.617 58.9385C103.084 58.9385 102.709 59.0894 102.492 59.3911C102.276 59.6929 102.167 60.1309 102.167 60.7051V63.2275H101.438V58.4111H102.027L102.136 59.1055H102.176C102.279 58.9355 102.409 58.7935 102.567 58.6792C102.725 58.562 102.903 58.4741 103.099 58.4155C103.295 58.354 103.502 58.3232 103.719 58.3232ZM111.2 60.8105C111.2 61.2061 111.149 61.5591 111.046 61.8696C110.944 62.1802 110.796 62.4424 110.602 62.6562C110.409 62.8701 110.175 63.0342 109.899 63.1484C109.627 63.2598 109.318 63.3154 108.972 63.3154C108.65 63.3154 108.354 63.2598 108.084 63.1484C107.818 63.0342 107.586 62.8701 107.39 62.6562C107.197 62.4424 107.046 62.1802 106.937 61.8696C106.832 61.5591 106.779 61.2061 106.779 60.8105C106.779 60.2832 106.869 59.835 107.047 59.4658C107.226 59.0938 107.481 58.811 107.812 58.6177C108.146 58.4214 108.543 58.3232 109.003 58.3232C109.442 58.3232 109.826 58.4214 110.154 58.6177C110.485 58.814 110.742 59.0981 110.923 59.4702C111.108 59.8394 111.2 60.2861 111.2 60.8105ZM107.535 60.8105C107.535 61.1973 107.586 61.5327 107.689 61.8169C107.791 62.1011 107.95 62.3208 108.163 62.4761C108.377 62.6313 108.653 62.709 108.99 62.709C109.324 62.709 109.598 62.6313 109.811 62.4761C110.028 62.3208 110.188 62.1011 110.29 61.8169C110.393 61.5327 110.444 61.1973 110.444 60.8105C110.444 60.4268 110.393 60.0957 110.29 59.8174C110.188 59.5361 110.03 59.3193 109.816 59.167C109.602 59.0146 109.325 58.9385 108.985 58.9385C108.484 58.9385 108.117 59.104 107.882 59.4351C107.651 59.7661 107.535 60.2246 107.535 60.8105ZM113.61 63.2275L111.782 58.4111H112.565L113.624 61.3247C113.697 61.5239 113.772 61.7437 113.848 61.9839C113.924 62.2241 113.977 62.4175 114.006 62.564H114.037C114.072 62.4175 114.13 62.2241 114.212 61.9839C114.294 61.7407 114.369 61.521 114.437 61.3247L115.496 58.4111H116.278L114.445 63.2275H113.61ZM118.943 58.332C119.517 58.332 119.944 58.4609 120.222 58.7188C120.5 58.9766 120.639 59.3882 120.639 59.9536V63.2275H120.108L119.967 62.5156H119.932C119.797 62.6914 119.656 62.8394 119.51 62.9595C119.364 63.0767 119.194 63.166 119 63.2275C118.81 63.2861 118.575 63.3154 118.297 63.3154C118.004 63.3154 117.743 63.2642 117.515 63.1616C117.289 63.0591 117.111 62.9038 116.979 62.6958C116.85 62.4878 116.785 62.2241 116.785 61.9048C116.785 61.4243 116.976 61.0552 117.357 60.7974C117.738 60.5396 118.318 60.3989 119.097 60.3755L119.927 60.3403V60.0459C119.927 59.6299 119.838 59.3384 119.659 59.1714C119.481 59.0044 119.229 58.9209 118.904 58.9209C118.652 58.9209 118.411 58.9575 118.183 59.0308C117.954 59.104 117.738 59.1904 117.532 59.29L117.308 58.7363C117.525 58.625 117.774 58.5298 118.055 58.4507C118.337 58.3716 118.633 58.332 118.943 58.332ZM119.919 60.8545L119.185 60.8853C118.584 60.9087 118.161 61.0068 117.915 61.1797C117.669 61.3525 117.546 61.5972 117.546 61.9136C117.546 62.189 117.629 62.3926 117.796 62.5244C117.963 62.6562 118.184 62.7222 118.46 62.7222C118.887 62.7222 119.238 62.6035 119.51 62.3662C119.782 62.1289 119.919 61.7729 119.919 61.2983V60.8545ZM124.162 63.3154C123.728 63.3154 123.346 63.2261 123.015 63.0474C122.683 62.8687 122.426 62.5962 122.241 62.23C122.057 61.8638 121.964 61.4023 121.964 60.8457C121.964 60.2627 122.061 59.7866 122.254 59.4175C122.451 59.0454 122.72 58.77 123.063 58.5913C123.406 58.4126 123.795 58.3232 124.232 58.3232C124.472 58.3232 124.704 58.3481 124.926 58.3979C125.152 58.4448 125.336 58.5049 125.48 58.5781L125.26 59.189C125.114 59.1304 124.944 59.0776 124.75 59.0308C124.56 58.9839 124.381 58.9604 124.214 58.9604C123.88 58.9604 123.602 59.0322 123.379 59.1758C123.16 59.3193 122.994 59.5303 122.883 59.8086C122.774 60.0869 122.72 60.4297 122.72 60.8369C122.72 61.2266 122.773 61.5591 122.878 61.8345C122.987 62.1099 123.146 62.3208 123.357 62.4673C123.571 62.6108 123.838 62.6826 124.157 62.6826C124.412 62.6826 124.642 62.6562 124.847 62.6035C125.052 62.5479 125.238 62.4834 125.405 62.4102V63.0605C125.244 63.1426 125.064 63.2056 124.865 63.2495C124.668 63.2935 124.434 63.3154 124.162 63.3154ZM124.878 64.4844C124.878 64.7686 124.768 64.9897 124.548 65.1479C124.329 65.3091 124.006 65.3896 123.581 65.3896C123.491 65.3896 123.404 65.3838 123.322 65.3721C123.24 65.3633 123.174 65.353 123.124 65.3413V64.8799C123.18 64.8916 123.252 64.9019 123.34 64.9106C123.428 64.9194 123.516 64.9238 123.603 64.9238C123.823 64.9238 123.992 64.8916 124.109 64.8271C124.226 64.7627 124.285 64.6543 124.285 64.502C124.285 64.3408 124.205 64.2236 124.047 64.1504C123.892 64.0771 123.693 64.0273 123.45 64.001L123.841 63.2275H124.329L124.091 63.7197C124.238 63.749 124.37 63.7944 124.487 63.856C124.607 63.9175 124.702 63.9995 124.772 64.1021C124.843 64.2046 124.878 64.332 124.878 64.4844ZM128.439 58.332C129.014 58.332 129.44 58.4609 129.718 58.7188C129.997 58.9766 130.136 59.3882 130.136 59.9536V63.2275H129.604L129.463 62.5156H129.428C129.294 62.6914 129.153 62.8394 129.006 62.9595C128.86 63.0767 128.69 63.166 128.497 63.2275C128.306 63.2861 128.072 63.3154 127.794 63.3154C127.501 63.3154 127.24 63.2642 127.011 63.1616C126.786 63.0591 126.607 62.9038 126.475 62.6958C126.346 62.4878 126.282 62.2241 126.282 61.9048C126.282 61.4243 126.472 61.0552 126.853 60.7974C127.234 60.5396 127.814 60.3989 128.593 60.3755L129.424 60.3403V60.0459C129.424 59.6299 129.335 59.3384 129.156 59.1714C128.977 59.0044 128.725 58.9209 128.4 58.9209C128.148 58.9209 127.908 58.9575 127.679 59.0308C127.451 59.104 127.234 59.1904 127.029 59.29L126.805 58.7363C127.022 58.625 127.271 58.5298 127.552 58.4507C127.833 58.3716 128.129 58.332 128.439 58.332ZM129.415 60.8545L128.681 60.8853C128.081 60.9087 127.657 61.0068 127.411 61.1797C127.165 61.3525 127.042 61.5972 127.042 61.9136C127.042 62.189 127.126 62.3926 127.293 62.5244C127.46 62.6562 127.681 62.7222 127.956 62.7222C128.384 62.7222 128.734 62.6035 129.006 62.3662C129.279 62.1289 129.415 61.7729 129.415 61.2983V60.8545ZM126.708 57.7607C126.726 57.585 126.759 57.4282 126.809 57.2905C126.859 57.1528 126.925 57.0356 127.007 56.939C127.089 56.8423 127.186 56.769 127.297 56.7192C127.411 56.6665 127.537 56.6401 127.675 56.6401C127.81 56.6401 127.939 56.668 128.062 56.7236C128.185 56.7764 128.302 56.8379 128.413 56.9082C128.524 56.9756 128.631 57.0371 128.734 57.0928C128.839 57.1455 128.94 57.1719 129.037 57.1719C129.178 57.1719 129.286 57.1294 129.362 57.0444C129.441 56.9565 129.502 56.8188 129.543 56.6313H129.973C129.935 56.9741 129.834 57.248 129.67 57.4531C129.506 57.6553 129.285 57.7563 129.006 57.7563C128.877 57.7563 128.753 57.73 128.633 57.6772C128.513 57.6216 128.397 57.5601 128.286 57.4927C128.174 57.4224 128.064 57.3608 127.956 57.3081C127.851 57.2524 127.747 57.2246 127.644 57.2246C127.501 57.2246 127.391 57.2686 127.314 57.3564C127.238 57.4414 127.18 57.5762 127.139 57.7607H126.708ZM135.882 60.8105C135.882 61.2061 135.83 61.5591 135.728 61.8696C135.625 62.1802 135.477 62.4424 135.284 62.6562C135.091 62.8701 134.856 63.0342 134.581 63.1484C134.308 63.2598 133.999 63.3154 133.654 63.3154C133.331 63.3154 133.035 63.2598 132.766 63.1484C132.499 63.0342 132.268 62.8701 132.071 62.6562C131.878 62.4424 131.727 62.1802 131.619 61.8696C131.513 61.5591 131.461 61.2061 131.461 60.8105C131.461 60.2832 131.55 59.835 131.729 59.4658C131.907 59.0938 132.162 58.811 132.493 58.6177C132.827 58.4214 133.224 58.3232 133.684 58.3232C134.124 58.3232 134.508 58.4214 134.836 58.6177C135.167 58.814 135.423 59.0981 135.605 59.4702C135.789 59.8394 135.882 60.2861 135.882 60.8105ZM132.217 60.8105C132.217 61.1973 132.268 61.5327 132.37 61.8169C132.473 62.1011 132.631 62.3208 132.845 62.4761C133.059 62.6313 133.334 62.709 133.671 62.709C134.005 62.709 134.279 62.6313 134.493 62.4761C134.71 62.3208 134.869 62.1011 134.972 61.8169C135.074 61.5327 135.126 61.1973 135.126 60.8105C135.126 60.4268 135.074 60.0957 134.972 59.8174C134.869 59.5361 134.711 59.3193 134.497 59.167C134.283 59.0146 134.007 58.9385 133.667 58.9385C133.166 58.9385 132.798 59.104 132.564 59.4351C132.332 59.7661 132.217 60.2246 132.217 60.8105ZM141.924 58.3232C142.524 58.3232 143.003 58.5298 143.361 58.9429C143.718 59.356 143.897 59.9771 143.897 60.8062C143.897 61.354 143.815 61.814 143.651 62.186C143.487 62.5581 143.255 62.8394 142.957 63.0298C142.661 63.2202 142.311 63.3154 141.906 63.3154C141.651 63.3154 141.427 63.2817 141.234 63.2144C141.041 63.147 140.875 63.0562 140.737 62.9419C140.6 62.8276 140.485 62.7031 140.395 62.5684H140.342C140.351 62.6826 140.361 62.8203 140.373 62.9814C140.387 63.1426 140.395 63.2832 140.395 63.4033V65.3809H139.661V58.4111H140.263L140.359 59.123H140.395C140.488 58.9766 140.603 58.8433 140.737 58.7231C140.872 58.6001 141.036 58.5034 141.23 58.4331C141.426 58.3599 141.657 58.3232 141.924 58.3232ZM141.796 58.9385C141.462 58.9385 141.193 59.0029 140.988 59.1318C140.786 59.2607 140.638 59.4541 140.544 59.7119C140.45 59.9668 140.4 60.2876 140.395 60.6743V60.8149C140.395 61.2222 140.439 61.5664 140.526 61.8477C140.617 62.1289 140.765 62.3428 140.97 62.4893C141.178 62.6357 141.457 62.709 141.805 62.709C142.104 62.709 142.353 62.6284 142.552 62.4673C142.751 62.3062 142.899 62.082 142.996 61.7949C143.096 61.5049 143.146 61.1724 143.146 60.7974C143.146 60.229 143.034 59.7778 142.812 59.4438C142.592 59.1069 142.253 58.9385 141.796 58.9385ZM147.063 58.332C147.637 58.332 148.064 58.4609 148.342 58.7188C148.62 58.9766 148.759 59.3882 148.759 59.9536V63.2275H148.228L148.087 62.5156H148.052C147.917 62.6914 147.777 62.8394 147.63 62.9595C147.484 63.0767 147.314 63.166 147.12 63.2275C146.93 63.2861 146.695 63.3154 146.417 63.3154C146.124 63.3154 145.863 63.2642 145.635 63.1616C145.409 63.0591 145.231 62.9038 145.099 62.6958C144.97 62.4878 144.905 62.2241 144.905 61.9048C144.905 61.4243 145.096 61.0552 145.477 60.7974C145.858 60.5396 146.438 60.3989 147.217 60.3755L148.048 60.3403V60.0459C148.048 59.6299 147.958 59.3384 147.779 59.1714C147.601 59.0044 147.349 58.9209 147.024 58.9209C146.772 58.9209 146.531 58.9575 146.303 59.0308C146.074 59.104 145.858 59.1904 145.653 59.29L145.428 58.7363C145.645 58.625 145.894 58.5298 146.175 58.4507C146.457 58.3716 146.753 58.332 147.063 58.332ZM148.039 60.8545L147.305 60.8853C146.704 60.9087 146.281 61.0068 146.035 61.1797C145.789 61.3525 145.666 61.5972 145.666 61.9136C145.666 62.189 145.749 62.3926 145.916 62.5244C146.083 62.6562 146.304 62.7222 146.58 62.7222C147.008 62.7222 147.358 62.6035 147.63 62.3662C147.903 62.1289 148.039 61.7729 148.039 61.2983V60.8545ZM152.541 58.3232C152.638 58.3232 152.739 58.3291 152.844 58.3408C152.95 58.3496 153.043 58.3628 153.125 58.3804L153.033 59.0571C152.954 59.0366 152.866 59.0205 152.769 59.0088C152.673 58.9971 152.582 58.9912 152.497 58.9912C152.304 58.9912 152.12 59.0308 151.948 59.1099C151.778 59.186 151.628 59.2974 151.499 59.4438C151.37 59.5874 151.269 59.7617 151.196 59.9668C151.123 60.1689 151.086 60.3945 151.086 60.6436V63.2275H150.352V58.4111H150.959L151.038 59.2988H151.069C151.168 59.1201 151.288 58.9575 151.429 58.811C151.57 58.6616 151.732 58.543 151.917 58.4551C152.104 58.3672 152.312 58.3232 152.541 58.3232ZM155.927 58.332C156.501 58.332 156.927 58.4609 157.206 58.7188C157.484 58.9766 157.623 59.3882 157.623 59.9536V63.2275H157.091L156.951 62.5156H156.916C156.781 62.6914 156.64 62.8394 156.494 62.9595C156.347 63.0767 156.177 63.166 155.984 63.2275C155.793 63.2861 155.559 63.3154 155.281 63.3154C154.988 63.3154 154.727 63.2642 154.499 63.1616C154.273 63.0591 154.094 62.9038 153.962 62.6958C153.834 62.4878 153.769 62.2241 153.769 61.9048C153.769 61.4243 153.959 61.0552 154.34 60.7974C154.721 60.5396 155.301 60.3989 156.081 60.3755L156.911 60.3403V60.0459C156.911 59.6299 156.822 59.3384 156.643 59.1714C156.464 59.0044 156.212 58.9209 155.887 58.9209C155.635 58.9209 155.395 58.9575 155.167 59.0308C154.938 59.104 154.721 59.1904 154.516 59.29L154.292 58.7363C154.509 58.625 154.758 58.5298 155.039 58.4507C155.32 58.3716 155.616 58.332 155.927 58.332ZM156.902 60.8545L156.168 60.8853C155.568 60.9087 155.145 61.0068 154.898 61.1797C154.652 61.3525 154.529 61.5972 154.529 61.9136C154.529 62.189 154.613 62.3926 154.78 62.5244C154.947 62.6562 155.168 62.7222 155.443 62.7222C155.871 62.7222 156.221 62.6035 156.494 62.3662C156.766 62.1289 156.902 61.7729 156.902 61.2983V60.8545ZM70.7491 75.2275H69.9977V69.4619H67.9762V68.8027H72.7618V69.4619H70.7491V75.2275ZM75.9016 70.3232C75.9983 70.3232 76.0994 70.3291 76.2049 70.3408C76.3103 70.3496 76.4041 70.3628 76.4861 70.3804L76.3938 71.0571C76.3147 71.0366 76.2268 71.0205 76.1302 71.0088C76.0335 70.9971 75.9427 70.9912 75.8577 70.9912C75.6643 70.9912 75.4812 71.0308 75.3084 71.1099C75.1385 71.186 74.989 71.2974 74.8601 71.4438C74.7312 71.5874 74.6302 71.7617 74.5569 71.9668C74.4837 72.1689 74.4471 72.3945 74.4471 72.6436V75.2275H73.7132V70.4111H74.3196L74.3987 71.2988H74.4295C74.5291 71.1201 74.6492 70.9575 74.7898 70.811C74.9305 70.6616 75.0931 70.543 75.2776 70.4551C75.4651 70.3672 75.6731 70.3232 75.9016 70.3232ZM79.2875 70.332C79.8618 70.332 80.288 70.4609 80.5664 70.7188C80.8447 70.9766 80.9838 71.3882 80.9838 71.9536V75.2275H80.4521L80.3115 74.5156H80.2763C80.1415 74.6914 80.0009 74.8394 79.8544 74.9595C79.708 75.0767 79.538 75.166 79.3447 75.2275C79.1542 75.2861 78.9199 75.3154 78.6415 75.3154C78.3486 75.3154 78.0878 75.2642 77.8593 75.1616C77.6337 75.0591 77.455 74.9038 77.3232 74.6958C77.1943 74.4878 77.1298 74.2241 77.1298 73.9048C77.1298 73.4243 77.3203 73.0552 77.7011 72.7974C78.082 72.5396 78.6621 72.3989 79.4414 72.3755L80.2719 72.3403V72.0459C80.2719 71.6299 80.1826 71.3384 80.0039 71.1714C79.8251 71.0044 79.5732 70.9209 79.248 70.9209C78.996 70.9209 78.7558 70.9575 78.5273 71.0308C78.2988 71.104 78.082 71.1904 77.8769 71.29L77.6528 70.7363C77.8696 70.625 78.1186 70.5298 78.3998 70.4507C78.6811 70.3716 78.977 70.332 79.2875 70.332ZM80.2631 72.8545L79.5292 72.8853C78.9287 72.9087 78.5053 73.0068 78.2592 73.1797C78.0131 73.3525 77.8901 73.5972 77.8901 73.9136C77.8901 74.189 77.9736 74.3926 78.1406 74.5244C78.3076 74.6562 78.5288 74.7222 78.8041 74.7222C79.2319 74.7222 79.582 74.6035 79.8544 74.3662C80.1269 74.1289 80.2631 73.7729 80.2631 73.2983V72.8545ZM84.8575 70.3232C85.4288 70.3232 85.8609 70.4639 86.1539 70.7451C86.4469 71.0234 86.5934 71.4717 86.5934 72.0898V75.2275H85.8727V72.1382C85.8727 71.7368 85.7804 71.4365 85.5958 71.2373C85.4142 71.0381 85.1344 70.9385 84.7565 70.9385C84.2232 70.9385 83.8482 71.0894 83.6315 71.3911C83.4147 71.6929 83.3063 72.1309 83.3063 72.7051V75.2275H82.5768V70.4111H83.1656L83.2755 71.1055H83.315C83.4176 70.9355 83.548 70.7935 83.7062 70.6792C83.8644 70.562 84.0416 70.4741 84.2379 70.4155C84.4342 70.354 84.6407 70.3232 84.8575 70.3232ZM91.302 73.9092C91.302 74.2168 91.2244 74.4761 91.0691 74.687C90.9168 74.895 90.697 75.0518 90.4099 75.1572C90.1257 75.2627 89.7859 75.3154 89.3904 75.3154C89.0535 75.3154 88.762 75.2891 88.5159 75.2363C88.2698 75.1836 88.0545 75.1089 87.8699 75.0122V74.3398C88.0662 74.4365 88.3006 74.5244 88.573 74.6035C88.8455 74.6826 89.1238 74.7222 89.408 74.7222C89.824 74.7222 90.1257 74.6548 90.3132 74.52C90.5007 74.3853 90.5945 74.2021 90.5945 73.9707C90.5945 73.8389 90.5564 73.7231 90.4802 73.6235C90.407 73.521 90.2825 73.4229 90.1067 73.3291C89.9309 73.2324 89.6878 73.127 89.3772 73.0127C89.0696 72.8955 88.803 72.7798 88.5774 72.6655C88.3548 72.5483 88.1819 72.4062 88.0589 72.2393C87.9387 72.0723 87.8787 71.8555 87.8787 71.5889C87.8787 71.1816 88.0427 70.8696 88.3709 70.6528C88.7019 70.4331 89.1355 70.3232 89.6716 70.3232C89.9617 70.3232 90.2327 70.3525 90.4846 70.4111C90.7395 70.4668 90.9768 70.543 91.1965 70.6396L90.9505 71.2241C90.7512 71.1392 90.5388 71.0674 90.3132 71.0088C90.0877 70.9502 89.8577 70.9209 89.6233 70.9209C89.2864 70.9209 89.0271 70.9766 88.8455 71.0879C88.6668 71.1992 88.5774 71.3516 88.5774 71.5449C88.5774 71.6943 88.6184 71.8174 88.7005 71.9141C88.7854 72.0107 88.9202 72.1016 89.1048 72.1865C89.2893 72.2715 89.5325 72.3711 89.8342 72.4854C90.136 72.5967 90.3967 72.7124 90.6165 72.8325C90.8362 72.9497 91.0047 73.0933 91.1218 73.2632C91.242 73.4302 91.302 73.6455 91.302 73.9092ZM94.7099 70.9824H93.5102V75.2275H92.7807V70.9824H91.9282V70.6309L92.7807 70.3892V70.0684C92.7807 69.6641 92.8407 69.3359 92.9609 69.084C93.081 68.8291 93.2553 68.6416 93.4838 68.5215C93.7123 68.4014 93.9907 68.3413 94.3188 68.3413C94.5033 68.3413 94.6718 68.3574 94.8241 68.3896C94.9794 68.4219 95.1157 68.4585 95.2328 68.4995L95.0439 69.0752C94.9443 69.043 94.8315 69.0137 94.7055 68.9873C94.5824 68.958 94.4565 68.9434 94.3276 68.9434C94.0492 68.9434 93.8427 69.0342 93.7079 69.2158C93.5761 69.3945 93.5102 69.6758 93.5102 70.0596V70.4111H94.7099V70.9824ZM99.8404 72.8105C99.8404 73.2061 99.7891 73.5591 99.6866 73.8696C99.5841 74.1802 99.4361 74.4424 99.2428 74.6562C99.0494 74.8701 98.815 75.0342 98.5396 75.1484C98.2672 75.2598 97.9581 75.3154 97.6124 75.3154C97.2901 75.3154 96.9942 75.2598 96.7247 75.1484C96.4581 75.0342 96.2266 74.8701 96.0304 74.6562C95.837 74.4424 95.6861 74.1802 95.5777 73.8696C95.4723 73.5591 95.4195 73.2061 95.4195 72.8105C95.4195 72.2832 95.5089 71.835 95.6876 71.4658C95.8663 71.0938 96.1212 70.811 96.4522 70.6177C96.7862 70.4214 97.1832 70.3232 97.6432 70.3232C98.0826 70.3232 98.4664 70.4214 98.7945 70.6177C99.1256 70.814 99.3819 71.0981 99.5636 71.4702C99.7481 71.8394 99.8404 72.2861 99.8404 72.8105ZM96.1754 72.8105C96.1754 73.1973 96.2266 73.5327 96.3292 73.8169C96.4317 74.1011 96.5899 74.3208 96.8038 74.4761C97.0177 74.6313 97.2931 74.709 97.63 74.709C97.964 74.709 98.2379 74.6313 98.4517 74.4761C98.6685 74.3208 98.8282 74.1011 98.9307 73.8169C99.0333 73.5327 99.0846 73.1973 99.0846 72.8105C99.0846 72.4268 99.0333 72.0957 98.9307 71.8174C98.8282 71.5361 98.67 71.3193 98.4561 71.167C98.2423 71.0146 97.9654 70.9385 97.6256 70.9385C97.1246 70.9385 96.7569 71.104 96.5225 71.4351C96.2911 71.7661 96.1754 72.2246 96.1754 72.8105ZM103.38 70.3232C103.477 70.3232 103.578 70.3291 103.683 70.3408C103.789 70.3496 103.883 70.3628 103.965 70.3804L103.872 71.0571C103.793 71.0366 103.705 71.0205 103.609 71.0088C103.512 70.9971 103.421 70.9912 103.336 70.9912C103.143 70.9912 102.96 71.0308 102.787 71.1099C102.617 71.186 102.468 71.2974 102.339 71.4438C102.21 71.5874 102.109 71.7617 102.035 71.9668C101.962 72.1689 101.926 72.3945 101.926 72.6436V75.2275H101.192V70.4111H101.798L101.877 71.2988H101.908C102.008 71.1201 102.128 70.9575 102.268 70.811C102.409 70.6616 102.572 70.543 102.756 70.4551C102.944 70.3672 103.152 70.3232 103.38 70.3232ZM110.194 70.3232C110.724 70.3232 111.124 70.4624 111.393 70.7407C111.663 71.0161 111.798 71.46 111.798 72.0723V75.2275H111.077V72.1074C111.077 71.7178 110.992 71.4263 110.822 71.2329C110.655 71.0366 110.406 70.9385 110.075 70.9385C109.609 70.9385 109.271 71.0732 109.06 71.3428C108.849 71.6123 108.744 72.0093 108.744 72.5337V75.2275H108.018V72.1074C108.018 71.8467 107.98 71.6299 107.904 71.457C107.831 71.2842 107.72 71.1553 107.57 71.0703C107.424 70.9824 107.238 70.9385 107.012 70.9385C106.693 70.9385 106.436 71.0044 106.243 71.1362C106.05 71.2681 105.909 71.4644 105.821 71.7251C105.736 71.9829 105.694 72.3008 105.694 72.6787V75.2275H104.964V70.4111H105.553L105.663 71.0923H105.703C105.799 70.9253 105.921 70.7847 106.067 70.6704C106.214 70.5562 106.378 70.4697 106.559 70.4111C106.741 70.3525 106.934 70.3232 107.14 70.3232C107.506 70.3232 107.812 70.3921 108.058 70.5298C108.307 70.6646 108.487 70.8711 108.599 71.1494H108.638C108.796 70.8711 109.013 70.6646 109.288 70.5298C109.564 70.3921 109.866 70.3232 110.194 70.3232ZM115.188 70.332C115.762 70.332 116.189 70.4609 116.467 70.7188C116.745 70.9766 116.884 71.3882 116.884 71.9536V75.2275H116.353L116.212 74.5156H116.177C116.042 74.6914 115.901 74.8394 115.755 74.9595C115.608 75.0767 115.439 75.166 115.245 75.2275C115.055 75.2861 114.82 75.3154 114.542 75.3154C114.249 75.3154 113.988 75.2642 113.76 75.1616C113.534 75.0591 113.356 74.9038 113.224 74.6958C113.095 74.4878 113.03 74.2241 113.03 73.9048C113.03 73.4243 113.221 73.0552 113.602 72.7974C113.982 72.5396 114.563 72.3989 115.342 72.3755L116.172 72.3403V72.0459C116.172 71.6299 116.083 71.3384 115.904 71.1714C115.726 71.0044 115.474 70.9209 115.149 70.9209C114.897 70.9209 114.656 70.9575 114.428 71.0308C114.199 71.104 113.982 71.1904 113.777 71.29L113.553 70.7363C113.77 70.625 114.019 70.5298 114.3 70.4507C114.582 70.3716 114.878 70.332 115.188 70.332ZM116.164 72.8545L115.43 72.8853C114.829 72.9087 114.406 73.0068 114.16 73.1797C113.914 73.3525 113.791 73.5972 113.791 73.9136C113.791 74.189 113.874 74.3926 114.041 74.5244C114.208 74.6562 114.429 74.7222 114.705 74.7222C115.132 74.7222 115.482 74.6035 115.755 74.3662C116.027 74.1289 116.164 73.7729 116.164 73.2983V72.8545ZM120.406 75.3154C119.973 75.3154 119.591 75.2261 119.259 75.0474C118.928 74.8687 118.671 74.5962 118.486 74.23C118.301 73.8638 118.209 73.4023 118.209 72.8457C118.209 72.2627 118.306 71.7866 118.499 71.4175C118.696 71.0454 118.965 70.77 119.308 70.5913C119.651 70.4126 120.04 70.3232 120.477 70.3232C120.717 70.3232 120.948 70.3481 121.171 70.3979C121.397 70.4448 121.581 70.5049 121.725 70.5781L121.505 71.189C121.359 71.1304 121.189 71.0776 120.995 71.0308C120.805 70.9839 120.626 70.9604 120.459 70.9604C120.125 70.9604 119.847 71.0322 119.624 71.1758C119.405 71.3193 119.239 71.5303 119.128 71.8086C119.019 72.0869 118.965 72.4297 118.965 72.8369C118.965 73.2266 119.018 73.5591 119.123 73.8345C119.232 74.1099 119.391 74.3208 119.602 74.4673C119.816 74.6108 120.083 74.6826 120.402 74.6826C120.657 74.6826 120.887 74.6562 121.092 74.6035C121.297 74.5479 121.483 74.4834 121.65 74.4102V75.0605C121.489 75.1426 121.309 75.2056 121.11 75.2495C120.913 75.2935 120.679 75.3154 120.406 75.3154ZM121.123 76.4844C121.123 76.7686 121.013 76.9897 120.793 77.1479C120.573 77.3091 120.251 77.3896 119.826 77.3896C119.736 77.3896 119.649 77.3838 119.567 77.3721C119.485 77.3633 119.419 77.353 119.369 77.3413V76.8799C119.425 76.8916 119.497 76.9019 119.585 76.9106C119.673 76.9194 119.76 76.9238 119.848 76.9238C120.068 76.9238 120.237 76.8916 120.354 76.8271C120.471 76.7627 120.53 76.6543 120.53 76.502C120.53 76.3408 120.45 76.2236 120.292 76.1504C120.137 76.0771 119.938 76.0273 119.695 76.001L120.086 75.2275H120.573L120.336 75.7197C120.483 75.749 120.614 75.7944 120.732 75.856C120.852 75.9175 120.947 75.9995 121.017 76.1021C121.088 76.2046 121.123 76.332 121.123 76.4844ZM124.684 70.332C125.259 70.332 125.685 70.4609 125.963 70.7188C126.242 70.9766 126.381 71.3882 126.381 71.9536V75.2275H125.849L125.708 74.5156H125.673C125.538 74.6914 125.398 74.8394 125.251 74.9595C125.105 75.0767 124.935 75.166 124.742 75.2275C124.551 75.2861 124.317 75.3154 124.038 75.3154C123.745 75.3154 123.485 75.2642 123.256 75.1616C123.031 75.0591 122.852 74.9038 122.72 74.6958C122.591 74.4878 122.527 74.2241 122.527 73.9048C122.527 73.4243 122.717 73.0552 123.098 72.7974C123.479 72.5396 124.059 72.3989 124.838 72.3755L125.669 72.3403V72.0459C125.669 71.6299 125.579 71.3384 125.401 71.1714C125.222 71.0044 124.97 70.9209 124.645 70.9209C124.393 70.9209 124.153 70.9575 123.924 71.0308C123.696 71.104 123.479 71.1904 123.274 71.29L123.05 70.7363C123.266 70.625 123.516 70.5298 123.797 70.4507C124.078 70.3716 124.374 70.332 124.684 70.332ZM125.66 72.8545L124.926 72.8853C124.326 72.9087 123.902 73.0068 123.656 73.1797C123.41 73.3525 123.287 73.5972 123.287 73.9136C123.287 74.189 123.37 74.3926 123.537 74.5244C123.704 74.6562 123.926 74.7222 124.201 74.7222C124.629 74.7222 124.979 74.6035 125.251 74.3662C125.524 74.1289 125.66 73.7729 125.66 73.2983V72.8545ZM122.953 69.7607C122.971 69.585 123.004 69.4282 123.054 69.2905C123.104 69.1528 123.17 69.0356 123.252 68.939C123.334 68.8423 123.431 68.769 123.542 68.7192C123.656 68.6665 123.782 68.6401 123.92 68.6401C124.055 68.6401 124.183 68.668 124.307 68.7236C124.43 68.7764 124.547 68.8379 124.658 68.9082C124.769 68.9756 124.876 69.0371 124.979 69.0928C125.084 69.1455 125.185 69.1719 125.282 69.1719C125.423 69.1719 125.531 69.1294 125.607 69.0444C125.686 68.9565 125.746 68.8188 125.787 68.6313H126.218C126.18 68.9741 126.079 69.248 125.915 69.4531C125.751 69.6553 125.53 69.7563 125.251 69.7563C125.122 69.7563 124.998 69.73 124.878 69.6772C124.758 69.6216 124.642 69.5601 124.531 69.4927C124.419 69.4224 124.309 69.3608 124.201 69.3081C124.096 69.2524 123.992 69.2246 123.889 69.2246C123.745 69.2246 123.636 69.2686 123.559 69.3564C123.483 69.4414 123.425 69.5762 123.384 69.7607H122.953ZM132.127 72.8105C132.127 73.2061 132.075 73.5591 131.973 73.8696C131.87 74.1802 131.722 74.4424 131.529 74.6562C131.335 74.8701 131.101 75.0342 130.826 75.1484C130.553 75.2598 130.244 75.3154 129.898 75.3154C129.576 75.3154 129.28 75.2598 129.011 75.1484C128.744 75.0342 128.513 74.8701 128.316 74.6562C128.123 74.4424 127.972 74.1802 127.864 73.8696C127.758 73.5591 127.706 73.2061 127.706 72.8105C127.706 72.2832 127.795 71.835 127.974 71.4658C128.152 71.0938 128.407 70.811 128.738 70.6177C129.072 70.4214 129.469 70.3232 129.929 70.3232C130.369 70.3232 130.752 70.4214 131.081 70.6177C131.412 70.814 131.668 71.0981 131.85 71.4702C132.034 71.8394 132.127 72.2861 132.127 72.8105ZM128.461 72.8105C128.461 73.1973 128.513 73.5327 128.615 73.8169C128.718 74.1011 128.876 74.3208 129.09 74.4761C129.304 74.6313 129.579 74.709 129.916 74.709C130.25 74.709 130.524 74.6313 130.738 74.4761C130.955 74.3208 131.114 74.1011 131.217 73.8169C131.319 73.5327 131.371 73.1973 131.371 72.8105C131.371 72.4268 131.319 72.0957 131.217 71.8174C131.114 71.5361 130.956 71.3193 130.742 71.167C130.528 71.0146 130.252 70.9385 129.912 70.9385C129.411 70.9385 129.043 71.104 128.809 71.4351C128.577 71.7661 128.461 72.2246 128.461 72.8105ZM142.021 75.2275H138.443V68.8027H142.021V69.4619H139.19V71.5405H141.858V72.1909H139.19V74.5684H142.021V75.2275ZM145.138 75.3154C144.529 75.3154 144.046 75.1074 143.688 74.6914C143.334 74.2754 143.156 73.6572 143.156 72.8369C143.156 72.0078 143.338 71.3823 143.701 70.9604C144.065 70.5356 144.548 70.3232 145.152 70.3232C145.406 70.3232 145.629 70.3569 145.82 70.4243C146.01 70.4917 146.174 70.5825 146.312 70.6968C146.449 70.8081 146.565 70.9355 146.659 71.0791H146.712C146.7 70.9883 146.688 70.8638 146.676 70.7056C146.665 70.5474 146.659 70.4185 146.659 70.3188V68.3896H147.388V75.2275H146.799L146.69 74.542H146.659C146.568 74.6855 146.452 74.8159 146.312 74.9331C146.174 75.0503 146.008 75.144 145.815 75.2144C145.625 75.2817 145.399 75.3154 145.138 75.3154ZM145.253 74.709C145.768 74.709 146.133 74.5625 146.347 74.2695C146.561 73.9766 146.668 73.5415 146.668 72.9644V72.8325C146.668 72.2202 146.565 71.75 146.36 71.4219C146.158 71.0938 145.789 70.9297 145.253 70.9297C144.804 70.9297 144.469 71.1025 144.246 71.4482C144.024 71.791 143.912 72.2598 143.912 72.8545C143.912 73.4463 144.022 73.9033 144.242 74.2256C144.465 74.5479 144.801 74.709 145.253 74.709ZM153.002 70.4111V75.2275H152.405L152.299 74.5508H152.26C152.16 74.7178 152.031 74.8584 151.873 74.9727C151.715 75.0869 151.536 75.1719 151.337 75.2275C151.14 75.2861 150.931 75.3154 150.708 75.3154C150.327 75.3154 150.008 75.2539 149.75 75.1309C149.493 75.0078 149.298 74.8174 149.166 74.5596C149.037 74.3018 148.973 73.9707 148.973 73.5664V70.4111H149.711V73.5137C149.711 73.915 149.802 74.2153 149.983 74.4146C150.165 74.6108 150.442 74.709 150.814 74.709C151.171 74.709 151.455 74.6416 151.666 74.5068C151.88 74.3721 152.034 74.1743 152.128 73.9136C152.222 73.6499 152.268 73.3276 152.268 72.9468V70.4111H153.002ZM156.564 75.3154C156.13 75.3154 155.748 75.2261 155.417 75.0474C155.086 74.8687 154.828 74.5962 154.644 74.23C154.459 73.8638 154.367 73.4023 154.367 72.8457C154.367 72.2627 154.463 71.7866 154.657 71.4175C154.853 71.0454 155.123 70.77 155.465 70.5913C155.808 70.4126 156.198 70.3232 156.634 70.3232C156.875 70.3232 157.106 70.3481 157.329 70.3979C157.554 70.4448 157.739 70.5049 157.882 70.5781L157.663 71.189C157.516 71.1304 157.346 71.0776 157.153 71.0308C156.962 70.9839 156.784 70.9604 156.617 70.9604C156.283 70.9604 156.004 71.0322 155.782 71.1758C155.562 71.3193 155.396 71.5303 155.285 71.8086C155.177 72.0869 155.123 72.4297 155.123 72.8369C155.123 73.2266 155.175 73.5591 155.281 73.8345C155.389 74.1099 155.549 74.3208 155.76 74.4673C155.974 74.6108 156.24 74.6826 156.56 74.6826C156.814 74.6826 157.044 74.6562 157.25 74.6035C157.455 74.5479 157.641 74.4834 157.808 74.4102V75.0605C157.646 75.1426 157.466 75.2056 157.267 75.2495C157.071 75.2935 156.836 75.3154 156.564 75.3154ZM160.842 70.332C161.416 70.332 161.842 70.4609 162.121 70.7188C162.399 70.9766 162.538 71.3882 162.538 71.9536V75.2275H162.007L161.866 74.5156H161.831C161.696 74.6914 161.555 74.8394 161.409 74.9595C161.262 75.0767 161.092 75.166 160.899 75.2275C160.709 75.2861 160.474 75.3154 160.196 75.3154C159.903 75.3154 159.642 75.2642 159.414 75.1616C159.188 75.0591 159.009 74.9038 158.878 74.6958C158.749 74.4878 158.684 74.2241 158.684 73.9048C158.684 73.4243 158.875 73.0552 159.256 72.7974C159.636 72.5396 160.216 72.3989 160.996 72.3755L161.826 72.3403V72.0459C161.826 71.6299 161.737 71.3384 161.558 71.1714C161.38 71.0044 161.128 70.9209 160.802 70.9209C160.55 70.9209 160.31 70.9575 160.082 71.0308C159.853 71.104 159.636 71.1904 159.431 71.29L159.207 70.7363C159.424 70.625 159.673 70.5298 159.954 70.4507C160.236 70.3716 160.531 70.332 160.842 70.332ZM161.818 72.8545L161.084 72.8853C160.483 72.9087 160.06 73.0068 159.814 73.1797C159.568 73.3525 159.444 73.5972 159.444 73.9136C159.444 74.189 159.528 74.3926 159.695 74.5244C159.862 74.6562 160.083 74.7222 160.359 74.7222C160.786 74.7222 161.136 74.6035 161.409 74.3662C161.681 74.1289 161.818 73.7729 161.818 73.2983V72.8545ZM166.06 75.3154C165.627 75.3154 165.244 75.2261 164.913 75.0474C164.582 74.8687 164.325 74.5962 164.14 74.23C163.955 73.8638 163.863 73.4023 163.863 72.8457C163.863 72.2627 163.96 71.7866 164.153 71.4175C164.349 71.0454 164.619 70.77 164.962 70.5913C165.305 70.4126 165.694 70.3232 166.131 70.3232C166.371 70.3232 166.602 70.3481 166.825 70.3979C167.051 70.4448 167.235 70.5049 167.379 70.5781L167.159 71.189C167.013 71.1304 166.843 71.0776 166.649 71.0308C166.459 70.9839 166.28 70.9604 166.113 70.9604C165.779 70.9604 165.501 71.0322 165.278 71.1758C165.058 71.3193 164.893 71.5303 164.782 71.8086C164.673 72.0869 164.619 72.4297 164.619 72.8369C164.619 73.2266 164.672 73.5591 164.777 73.8345C164.886 74.1099 165.045 74.3208 165.256 74.4673C165.47 74.6108 165.737 74.6826 166.056 74.6826C166.311 74.6826 166.541 74.6562 166.746 74.6035C166.951 74.5479 167.137 74.4834 167.304 74.4102V75.0605C167.143 75.1426 166.963 75.2056 166.764 75.2495C166.567 75.2935 166.333 75.3154 166.06 75.3154ZM169.266 70.4111V75.2275H168.537V70.4111H169.266ZM168.91 68.6094C169.03 68.6094 169.133 68.6489 169.218 68.728C169.306 68.8042 169.35 68.9243 169.35 69.0884C169.35 69.2495 169.306 69.3696 169.218 69.4487C169.133 69.5278 169.03 69.5674 168.91 69.5674C168.784 69.5674 168.679 69.5278 168.594 69.4487C168.512 69.3696 168.471 69.2495 168.471 69.0884C168.471 68.9243 168.512 68.8042 168.594 68.728C168.679 68.6489 168.784 68.6094 168.91 68.6094ZM175.056 72.8105C175.056 73.2061 175.005 73.5591 174.902 73.8696C174.799 74.1802 174.652 74.4424 174.458 74.6562C174.265 74.8701 174.03 75.0342 173.755 75.1484C173.483 75.2598 173.173 75.3154 172.828 75.3154C172.506 75.3154 172.21 75.2598 171.94 75.1484C171.673 75.0342 171.442 74.8701 171.246 74.6562C171.052 74.4424 170.902 74.1802 170.793 73.8696C170.688 73.5591 170.635 73.2061 170.635 72.8105C170.635 72.2832 170.724 71.835 170.903 71.4658C171.082 71.0938 171.337 70.811 171.668 70.6177C172.002 70.4214 172.399 70.3232 172.859 70.3232C173.298 70.3232 173.682 70.4214 174.01 70.6177C174.341 70.814 174.597 71.0981 174.779 71.4702C174.964 71.8394 175.056 72.2861 175.056 72.8105ZM171.391 72.8105C171.391 73.1973 171.442 73.5327 171.545 73.8169C171.647 74.1011 171.805 74.3208 172.019 74.4761C172.233 74.6313 172.508 74.709 172.845 74.709C173.179 74.709 173.453 74.6313 173.667 74.4761C173.884 74.3208 174.044 74.1011 174.146 73.8169C174.249 73.5327 174.3 73.1973 174.3 72.8105C174.3 72.4268 174.249 72.0957 174.146 71.8174C174.044 71.5361 173.885 71.3193 173.672 71.167C173.458 71.0146 173.181 70.9385 172.841 70.9385C172.34 70.9385 171.972 71.104 171.738 71.4351C171.506 71.7661 171.391 72.2246 171.391 72.8105ZM178.688 70.3232C179.259 70.3232 179.691 70.4639 179.984 70.7451C180.277 71.0234 180.424 71.4717 180.424 72.0898V75.2275H179.703V72.1382C179.703 71.7368 179.611 71.4365 179.426 71.2373C179.244 71.0381 178.965 70.9385 178.587 70.9385C178.054 70.9385 177.679 71.0894 177.462 71.3911C177.245 71.6929 177.137 72.1309 177.137 72.7051V75.2275H176.407V70.4111H176.996L177.106 71.1055H177.145C177.248 70.9355 177.378 70.7935 177.536 70.6792C177.695 70.562 177.872 70.4741 178.068 70.4155C178.264 70.354 178.471 70.3232 178.688 70.3232ZM183.818 70.332C184.393 70.332 184.819 70.4609 185.097 70.7188C185.375 70.9766 185.515 71.3882 185.515 71.9536V75.2275H184.983L184.842 74.5156H184.807C184.672 74.6914 184.532 74.8394 184.385 74.9595C184.239 75.0767 184.069 75.166 183.875 75.2275C183.685 75.2861 183.451 75.3154 183.172 75.3154C182.879 75.3154 182.619 75.2642 182.39 75.1616C182.165 75.0591 181.986 74.9038 181.854 74.6958C181.725 74.4878 181.661 74.2241 181.661 73.9048C181.661 73.4243 181.851 73.0552 182.232 72.7974C182.613 72.5396 183.193 72.3989 183.972 72.3755L184.803 72.3403V72.0459C184.803 71.6299 184.713 71.3384 184.535 71.1714C184.356 71.0044 184.104 70.9209 183.779 70.9209C183.527 70.9209 183.287 70.9575 183.058 71.0308C182.83 71.104 182.613 71.1904 182.408 71.29L182.184 70.7363C182.4 70.625 182.649 70.5298 182.931 70.4507C183.212 70.3716 183.508 70.332 183.818 70.332ZM184.794 72.8545L184.06 72.8853C183.459 72.9087 183.036 73.0068 182.79 73.1797C182.544 73.3525 182.421 73.5972 182.421 73.9136C182.421 74.189 182.504 74.3926 182.671 74.5244C182.838 74.6562 183.06 74.7222 183.335 74.7222C183.763 74.7222 184.113 74.6035 184.385 74.3662C184.658 74.1289 184.794 73.7729 184.794 73.2983V72.8545ZM187.841 75.2275H187.108V68.3896H187.841V75.2275Z" fill="black"></path><defs><linearGradient id="paint0_linear_2154_3613" x1="33.7499" y1="13" x2="33.7499" y2="69" gradientUnits="userSpaceOnUse"><stop stop-color="#EFE9C9"></stop><stop offset="0.581731" stop-color="#E9C600"></stop><stop offset="1" stop-color="#EFE6B7"></stop></linearGradient></defs></svg>