<svg xmlns="http://www.w3.org/2000/svg" width="275" height="79" viewBox="0 0 275 79" fill="none"><path d="M47 8.5L49 12.5L49.5 13.5H48.5L46.5 12.5H44L42 14L40.5 16L39 18.5L38.5 21L38 23.5L37.5 26.5V32L38 37.5L39 40.5L40 45L41 49.5V54L39.5 59L37 62.5L35 63.5L37.5 55.5V48L35.5 41L33.5 24.5L35.5 15L39 7.5L43.5 6L47 8.5Z" fill="url(#paint0_linear_2154_3600)"></path><path d="M25.5 71.5L30.5 68L29.5 67L26.5 68H22L18 67.5L15 66L13 63.5V60L15 56L19.5 53L24 51.5L30 51L38 51.5L38.5 47H32.5H28.5L21 47.5L16 49L11.5 51L8 56L6 62C6.33333 63.1667 7 65.6 7 66C7 66.4 9.66667 68.8333 11 70L16.5 72L25.5 71.5Z" fill="url(#paint1_linear_2154_3600)"></path><path d="M47.6589 6.09111C51.3816 16.5713 64.2217 45.9356 24.9404 42.8105C3.64469 41.1168 -0.787254 59.1411 1.43516 66.7498C7.25558 86.6699 43.5193 82.2724 32.2137 40.7858C23.453 8.63593 42.4231 -8.64907 47.6589 6.09111Z" stroke="#A90E0E" stroke-miterlimit="10"></path><path d="M48.0629 10.5839C52.6539 19.8217 64.5785 49.6331 28.7962 46.7917C9.40059 45.2484 4.1218 58.9784 7.01911 65.5898C12.4526 77.9872 44.5251 73.9163 36.0954 42.7337C28.1772 13.4339 41.7267 -2.17463 48.0629 10.5839Z" stroke="#A90E0E" stroke-width="2" stroke-miterlimit="10"></path><path d="M50.8527 17.0451C58.096 34.141 60.1938 54.6586 33.9417 51.2111C18.1999 49.1434 11.2318 58.162 13.3725 63.6514C16.9017 72.7088 47.4697 69.2268 39.7105 44.0365C31.9084 18.6958 45.4407 4.27804 50.8527 17.0494V17.0451Z" stroke="#A90E0E" stroke-miterlimit="10"></path><path d="M52.0049 20.1694C57.8554 35.2535 59.3943 62.4254 37.1272 56.3643C26.6814 53.5229 16.9534 56.7082 18.8191 61.4926C21.8969 69.385 51.3687 66.3501 45.1012 46.1678C38.2491 24.0984 48.3381 10.7252 52.0049 20.1694Z" stroke="#A90E0E" stroke-miterlimit="10"></path><path d="M82.0774 36.6885C82.0774 37.7275 81.8314 38.6071 81.3392 39.3271C80.8561 40.0381 80.1315 40.5804 79.1653 40.9541C78.1992 41.3187 76.9961 41.501 75.556 41.501C74.4896 41.501 73.5735 41.4326 72.8079 41.2959C72.0514 41.1592 71.2858 40.9313 70.511 40.6123V37.167C71.3405 37.5407 72.2291 37.8506 73.1771 38.0967C74.1341 38.3337 74.9726 38.4521 75.6927 38.4521C76.5039 38.4521 77.0827 38.3337 77.429 38.0967C77.7845 37.8506 77.9622 37.5316 77.9622 37.1396C77.9622 36.8844 77.8893 36.6566 77.7435 36.4561C77.6067 36.2464 77.306 36.014 76.8411 35.7588C76.3763 35.4945 75.6471 35.1527 74.6536 34.7334C73.6966 34.3324 72.9082 33.9268 72.2884 33.5166C71.6777 33.1064 71.222 32.6234 70.9212 32.0674C70.6295 31.5023 70.4837 30.7868 70.4837 29.9209C70.4837 28.5081 71.0306 27.4463 72.1243 26.7354C73.2272 26.0153 74.6992 25.6553 76.5403 25.6553C77.4883 25.6553 78.3906 25.751 79.2474 25.9424C80.1133 26.1338 81.0019 26.4391 81.9134 26.8584L80.6556 29.8662C79.8991 29.5381 79.1836 29.2692 78.5091 29.0596C77.8437 28.8499 77.1647 28.7451 76.472 28.7451C75.8613 28.7451 75.401 28.8271 75.0911 28.9912C74.7812 29.1553 74.6263 29.4059 74.6263 29.7432C74.6263 29.9893 74.7037 30.208 74.8587 30.3994C75.0228 30.5908 75.3327 30.805 75.7884 31.042C76.2532 31.2699 76.9323 31.5661 77.8255 31.9307C78.6914 32.2861 79.4433 32.6598 80.0814 33.0518C80.7194 33.4346 81.2116 33.9131 81.5579 34.4873C81.9043 35.0524 82.0774 35.7861 82.0774 36.6885ZM91.9141 25.6553C93.3268 25.6553 94.5436 25.9287 95.5645 26.4756C96.5853 27.0133 97.3737 27.7972 97.9297 28.8271C98.4857 29.8571 98.7637 31.1149 98.7637 32.6006V34.624H88.9063C88.9518 35.7998 89.3028 36.7249 89.959 37.3994C90.6244 38.0648 91.5449 38.3975 92.7207 38.3975C93.696 38.3975 94.5892 38.2972 95.4004 38.0967C96.2116 37.8962 97.0456 37.5954 97.9024 37.1943V40.4209C97.1459 40.7946 96.3529 41.068 95.5235 41.2412C94.7031 41.4144 93.7051 41.501 92.5293 41.501C90.9981 41.501 89.64 41.2184 88.4551 40.6533C87.2793 40.0882 86.3542 39.2269 85.6797 38.0693C85.0143 36.9118 84.6817 35.4535 84.6817 33.6943C84.6817 31.9079 84.9824 30.4222 85.584 29.2373C86.1947 28.0433 87.0423 27.1501 88.127 26.5576C89.2116 25.9561 90.474 25.6553 91.9141 25.6553ZM91.9414 28.6221C91.1302 28.6221 90.4558 28.8818 89.918 29.4014C89.3893 29.9209 89.084 30.7367 89.002 31.8486H94.8535C94.8444 31.2288 94.7305 30.6774 94.5117 30.1943C94.3021 29.7113 93.9831 29.3285 93.5547 29.0459C93.1354 28.7633 92.5977 28.6221 91.9414 28.6221ZM106.905 47.9541C104.772 47.9541 103.141 47.5804 102.01 46.833C100.889 46.0947 100.329 45.0557 100.329 43.7158C100.329 42.7952 100.616 42.0251 101.19 41.4053C101.764 40.7855 102.607 40.3434 103.719 40.0791C103.291 39.8968 102.917 39.6006 102.598 39.1904C102.279 38.7712 102.12 38.3291 102.12 37.8643C102.12 37.2809 102.288 36.7979 102.626 36.415C102.963 36.0231 103.451 35.6403 104.089 35.2666C103.287 34.9202 102.649 34.3643 102.175 33.5986C101.71 32.833 101.477 31.9307 101.477 30.8916C101.477 29.7796 101.719 28.8363 102.202 28.0615C102.694 27.2777 103.405 26.6807 104.335 26.2705C105.274 25.8604 106.413 25.6553 107.753 25.6553C108.035 25.6553 108.363 25.6735 108.737 25.71C109.111 25.7464 109.453 25.7874 109.762 25.833C110.081 25.8786 110.296 25.915 110.405 25.9424H115.737V28.0615L113.344 28.6768C113.563 29.014 113.727 29.374 113.837 29.7568C113.946 30.1396 114.001 30.5452 114.001 30.9736C114.001 32.6143 113.427 33.8949 112.278 34.8154C111.139 35.7269 109.553 36.1826 107.52 36.1826C107.037 36.1553 106.581 36.1188 106.153 36.0732C105.943 36.2373 105.784 36.4105 105.675 36.5928C105.565 36.7751 105.51 36.9665 105.51 37.167C105.51 37.3675 105.593 37.5361 105.757 37.6729C105.93 37.8005 106.185 37.9007 106.522 37.9736C106.869 38.0374 107.297 38.0693 107.807 38.0693H110.405C112.082 38.0693 113.358 38.4294 114.233 39.1494C115.117 39.8695 115.559 40.9268 115.559 42.3213C115.559 44.1077 114.812 45.4932 113.317 46.4775C111.831 47.4619 109.694 47.9541 106.905 47.9541ZM107.083 45.2334C108.076 45.2334 108.928 45.1377 109.639 44.9463C110.359 44.764 110.911 44.4997 111.294 44.1533C111.677 43.8161 111.868 43.4105 111.868 42.9365C111.868 42.5537 111.754 42.2484 111.526 42.0205C111.307 41.8018 110.97 41.6468 110.514 41.5557C110.068 41.4645 109.494 41.4189 108.792 41.4189H106.632C106.121 41.4189 105.661 41.501 105.251 41.665C104.85 41.8291 104.531 42.057 104.294 42.3486C104.057 42.6494 103.938 42.9958 103.938 43.3877C103.938 43.9619 104.212 44.4131 104.759 44.7412C105.315 45.0693 106.089 45.2334 107.083 45.2334ZM107.753 33.6396C108.537 33.6396 109.111 33.3981 109.475 32.915C109.84 32.432 110.022 31.7757 110.022 30.9463C110.022 30.0257 109.831 29.3376 109.448 28.8818C109.074 28.417 108.509 28.1846 107.753 28.1846C106.987 28.1846 106.413 28.417 106.03 28.8818C105.647 29.3376 105.456 30.0257 105.456 30.9463C105.456 31.7757 105.643 32.432 106.016 32.915C106.399 33.3981 106.978 33.6396 107.753 33.6396ZM132.574 25.9424V41.2275H129.374L128.814 39.2725H128.595C128.267 39.792 127.857 40.2158 127.365 40.5439C126.873 40.8721 126.33 41.1136 125.738 41.2686C125.145 41.4235 124.53 41.501 123.892 41.501C122.798 41.501 121.846 41.3096 121.035 40.9268C120.223 40.5348 119.59 39.9287 119.134 39.1084C118.688 38.2881 118.464 37.2217 118.464 35.9092V25.9424H122.634V34.8701C122.634 35.9639 122.83 36.7887 123.222 37.3447C123.614 37.9007 124.238 38.1787 125.095 38.1787C125.943 38.1787 126.608 37.9873 127.091 37.6045C127.574 37.2126 127.912 36.6429 128.103 35.8955C128.304 35.139 128.404 34.2184 128.404 33.1338V25.9424H132.574ZM145.76 25.6553C145.97 25.6553 146.211 25.6689 146.485 25.6963C146.767 25.7145 146.995 25.7419 147.168 25.7783L146.854 29.6885C146.717 29.6429 146.521 29.611 146.266 29.5928C146.02 29.5654 145.806 29.5518 145.623 29.5518C145.085 29.5518 144.561 29.6201 144.051 29.7568C143.55 29.8936 143.098 30.1169 142.697 30.4268C142.296 30.7275 141.977 31.1286 141.74 31.6299C141.513 32.1221 141.399 32.7282 141.399 33.4482V41.2275H137.229V25.9424H140.387L141.002 28.5127H141.207C141.508 27.9932 141.882 27.5192 142.328 27.0908C142.784 26.6533 143.299 26.307 143.873 26.0518C144.457 25.7874 145.085 25.6553 145.76 25.6553ZM156.485 25.6279C158.536 25.6279 160.108 26.0745 161.202 26.9678C162.296 27.861 162.843 29.2191 162.843 31.042V41.2275H159.931L159.124 39.1494H159.015C158.577 39.6963 158.13 40.1429 157.675 40.4893C157.219 40.8356 156.695 41.0908 156.102 41.2549C155.51 41.4189 154.79 41.501 153.942 41.501C153.04 41.501 152.229 41.3278 151.509 40.9814C150.798 40.6351 150.237 40.1064 149.827 39.3955C149.417 38.6755 149.212 37.764 149.212 36.6611C149.212 35.0387 149.781 33.8447 150.921 33.0791C152.06 32.3044 153.769 31.876 156.048 31.7939L158.7 31.7119V31.042C158.7 30.2399 158.49 29.652 158.071 29.2783C157.652 28.9046 157.069 28.7178 156.321 28.7178C155.583 28.7178 154.858 28.8226 154.147 29.0322C153.436 29.2419 152.725 29.5062 152.015 29.8252L150.634 27.0088C151.445 26.5804 152.352 26.2432 153.354 25.9971C154.366 25.751 155.41 25.6279 156.485 25.6279ZM158.7 34.1455L157.087 34.2002C155.738 34.2367 154.799 34.4782 154.27 34.9248C153.751 35.3714 153.491 35.9593 153.491 36.6885C153.491 37.3265 153.678 37.7822 154.052 38.0557C154.425 38.32 154.913 38.4521 155.515 38.4521C156.408 38.4521 157.16 38.1878 157.77 37.6592C158.39 37.1305 158.7 36.3786 158.7 35.4033V34.1455ZM176.111 25.6553C177.742 25.6553 179.055 26.1019 180.048 26.9951C181.042 27.8792 181.539 29.3011 181.539 31.2607V41.2275H177.369V32.2998C177.369 31.2061 177.168 30.3812 176.767 29.8252C176.375 29.2692 175.755 28.9912 174.908 28.9912C173.632 28.9912 172.761 29.4242 172.297 30.29C171.832 31.1559 171.599 32.4046 171.599 34.0361V41.2275H167.429V25.9424H170.615L171.175 27.8975H171.408C171.736 27.3688 172.142 26.9404 172.625 26.6123C173.117 26.2842 173.659 26.0426 174.252 25.8877C174.853 25.7327 175.473 25.6553 176.111 25.6553ZM192.319 41.501C190.806 41.501 189.516 41.2275 188.45 40.6807C187.383 40.1247 186.572 39.2679 186.016 38.1104C185.46 36.9528 185.182 35.4717 185.182 33.667C185.182 31.7985 185.496 30.2764 186.125 29.1006C186.763 27.9157 187.643 27.0452 188.764 26.4893C189.894 25.9333 191.202 25.6553 192.688 25.6553C193.745 25.6553 194.657 25.7601 195.422 25.9697C196.197 26.1702 196.871 26.4118 197.446 26.6943L196.215 29.9209C195.559 29.6566 194.948 29.4424 194.383 29.2783C193.818 29.1051 193.253 29.0186 192.688 29.0186C191.959 29.0186 191.353 29.1917 190.869 29.5381C190.386 29.8753 190.026 30.3857 189.789 31.0693C189.552 31.7529 189.434 32.6097 189.434 33.6396C189.434 34.6514 189.562 35.4899 189.817 36.1553C190.072 36.8206 190.441 37.3174 190.924 37.6455C191.407 37.9645 191.995 38.124 192.688 38.124C193.554 38.124 194.324 38.0101 194.998 37.7822C195.673 37.5452 196.329 37.2171 196.967 36.7979V40.3662C196.329 40.7673 195.659 41.0544 194.957 41.2275C194.265 41.4098 193.385 41.501 192.319 41.501ZM195.327 44.6455C195.327 45.6937 195.021 46.5049 194.41 47.0791C193.8 47.6624 192.697 47.9541 191.102 47.9541C190.692 47.9541 190.323 47.9268 189.994 47.8721C189.666 47.8174 189.37 47.749 189.106 47.667V45.3701C189.37 45.4339 189.694 45.4977 190.077 45.5615C190.459 45.6253 190.787 45.6572 191.061 45.6572C191.325 45.6572 191.553 45.5934 191.744 45.4658C191.945 45.3473 192.045 45.1286 192.045 44.8096C192.045 44.4723 191.877 44.1715 191.539 43.9072C191.202 43.6429 190.614 43.4515 189.776 43.333L190.842 41.2275H193.481L193.112 42.0615C193.485 42.18 193.841 42.3532 194.178 42.5811C194.515 42.818 194.789 43.1051 194.998 43.4424C195.217 43.7887 195.327 44.1898 195.327 44.6455ZM207.064 25.6279C209.114 25.6279 210.687 26.0745 211.78 26.9678C212.874 27.861 213.421 29.2191 213.421 31.042V41.2275H210.509L209.702 39.1494H209.593C209.155 39.6963 208.709 40.1429 208.253 40.4893C207.797 40.8356 207.273 41.0908 206.681 41.2549C206.088 41.4189 205.368 41.501 204.521 41.501C203.618 41.501 202.807 41.3278 202.087 40.9814C201.376 40.6351 200.815 40.1064 200.405 39.3955C199.995 38.6755 199.79 37.764 199.79 36.6611C199.79 35.0387 200.36 33.8447 201.499 33.0791C202.638 32.3044 204.347 31.876 206.626 31.7939L209.278 31.7119V31.042C209.278 30.2399 209.069 29.652 208.649 29.2783C208.23 28.9046 207.647 28.7178 206.899 28.7178C206.161 28.7178 205.437 28.8226 204.726 29.0322C204.015 29.2419 203.304 29.5062 202.593 29.8252L201.212 27.0088C202.023 26.5804 202.93 26.2432 203.933 25.9971C204.944 25.751 205.988 25.6279 207.064 25.6279ZM209.278 34.1455L207.665 34.2002C206.316 34.2367 205.377 34.4782 204.849 34.9248C204.329 35.3714 204.069 35.9593 204.069 36.6885C204.069 37.3265 204.256 37.7822 204.63 38.0557C205.004 38.32 205.491 38.4521 206.093 38.4521C206.986 38.4521 207.738 38.1878 208.349 37.6592C208.968 37.1305 209.278 36.3786 209.278 35.4033V34.1455ZM223.053 39.6416C223.426 39.6416 223.809 39.6097 224.201 39.5459C224.593 39.4821 224.912 39.4046 225.158 39.3135V41.0771C224.894 41.1956 224.525 41.2959 224.051 41.3779C223.586 41.46 223.13 41.501 222.683 41.501C221.89 41.501 221.17 41.3643 220.523 41.0908C219.876 40.8083 219.357 40.3343 218.965 39.6689C218.582 39.0036 218.39 38.083 218.39 36.9072V28.0205H216.258V26.9131L218.404 26.0244L219.306 22.7705H220.674V26.2432H225.062V28.0205H220.674V36.8389C220.674 37.7777 220.888 38.4795 221.316 38.9443C221.754 39.4092 222.332 39.6416 223.053 39.6416ZM234.243 25.9697C235.519 25.9697 236.612 26.2523 237.524 26.8174C238.435 27.3825 239.133 28.1755 239.616 29.1963C240.099 30.208 240.34 31.3929 240.34 32.751V34.1592H229.991C230.018 35.9183 230.456 37.2581 231.303 38.1787C232.151 39.0993 233.345 39.5596 234.885 39.5596C235.833 39.5596 236.672 39.473 237.401 39.2998C238.13 39.1266 238.887 38.8714 239.67 38.5342V40.5303C238.914 40.8675 238.162 41.1136 237.415 41.2686C236.676 41.4235 235.801 41.501 234.79 41.501C233.349 41.501 232.092 41.2093 231.016 40.626C229.95 40.0335 229.12 39.1676 228.528 38.0283C227.935 36.889 227.639 35.4945 227.639 33.8447C227.639 32.2314 227.908 30.8369 228.446 29.6611C228.993 28.4762 229.758 27.5648 230.743 26.9268C231.736 26.2887 232.903 25.9697 234.243 25.9697ZM234.215 27.8291C233.003 27.8291 232.037 28.2256 231.317 29.0186C230.597 29.8115 230.168 30.9189 230.032 32.3408H237.961C237.952 31.4476 237.811 30.6637 237.538 29.9893C237.273 29.3057 236.868 28.777 236.321 28.4033C235.774 28.0205 235.072 27.8291 234.215 27.8291ZM250.478 41.501C249.129 41.501 247.939 41.223 246.909 40.667C245.879 40.111 245.077 39.2633 244.503 38.124C243.929 36.9847 243.642 35.5492 243.642 33.8174C243.642 32.0036 243.943 30.5225 244.544 29.374C245.155 28.2165 245.993 27.3597 247.06 26.8037C248.126 26.2477 249.338 25.9697 250.697 25.9697C251.444 25.9697 252.164 26.0472 252.857 26.2021C253.558 26.348 254.133 26.5348 254.579 26.7627L253.896 28.6631C253.44 28.4808 252.911 28.3167 252.31 28.1709C251.717 28.0251 251.161 27.9521 250.642 27.9521C249.603 27.9521 248.737 28.1755 248.044 28.6221C247.361 29.0687 246.846 29.7249 246.499 30.5908C246.162 31.4567 245.993 32.5231 245.993 33.79C245.993 35.0023 246.157 36.0368 246.486 36.8936C246.823 37.7503 247.32 38.4066 247.976 38.8623C248.641 39.3089 249.471 39.5322 250.464 39.5322C251.257 39.5322 251.973 39.4502 252.611 39.2861C253.249 39.113 253.827 38.9124 254.347 38.6846V40.708C253.846 40.9632 253.285 41.1592 252.665 41.2959C252.055 41.4326 251.325 41.501 250.478 41.501ZM260.451 19.9541V26.3115C260.451 26.6761 260.442 27.0452 260.424 27.4189C260.406 27.7835 260.374 28.1208 260.328 28.4307H260.478C260.788 27.902 261.18 27.46 261.654 27.1045C262.137 26.7399 262.684 26.4665 263.295 26.2842C263.906 26.0928 264.553 25.9971 265.236 25.9971C266.439 25.9971 267.442 26.1885 268.244 26.5713C269.055 26.9541 269.661 27.5465 270.062 28.3486C270.473 29.1507 270.678 30.1898 270.678 31.4658V41.2275H268.435V31.6162C268.435 30.3675 268.148 29.4333 267.574 28.8135C267.009 28.1937 266.139 27.8838 264.963 27.8838C263.851 27.8838 262.962 28.098 262.297 28.5264C261.641 28.9456 261.167 29.5654 260.875 30.3857C260.592 31.2061 260.451 32.2087 260.451 33.3936V41.2275H258.182V19.9541H260.451Z" fill="#A90E0E"></path><path d="M92.7073 63.2275H91.9558V57.4619H89.9343V56.8027H94.72V57.4619H92.7073V63.2275ZM97.5258 58.3232C97.9359 58.3232 98.2875 58.4141 98.5805 58.5957C98.8734 58.7773 99.0976 59.0322 99.2528 59.3604C99.4081 59.6855 99.4857 60.0664 99.4857 60.5029V60.9556H96.1591C96.1679 61.521 96.3085 61.9517 96.581 62.2476C96.8534 62.5435 97.2372 62.6914 97.7323 62.6914C98.037 62.6914 98.3065 62.6636 98.5409 62.6079C98.7753 62.5522 99.0185 62.4702 99.2704 62.3618V63.0034C99.0272 63.1118 98.7855 63.1909 98.5453 63.2407C98.308 63.2905 98.0268 63.3154 97.7016 63.3154C97.2387 63.3154 96.8344 63.2217 96.4887 63.0342C96.1459 62.8438 95.8793 62.5654 95.6889 62.1992C95.4984 61.833 95.4032 61.3848 95.4032 60.8545C95.4032 60.3359 95.4897 59.8877 95.6625 59.5098C95.8383 59.1289 96.0844 58.8359 96.4008 58.6309C96.7201 58.4258 97.0951 58.3232 97.5258 58.3232ZM97.517 58.9209C97.1273 58.9209 96.8168 59.0483 96.5854 59.3032C96.3539 59.5581 96.2162 59.9141 96.1723 60.3711H98.7211C98.7182 60.084 98.6728 59.832 98.5849 59.6152C98.4999 59.3955 98.3695 59.2256 98.1938 59.1055C98.018 58.9824 97.7924 58.9209 97.517 58.9209ZM102.744 63.3154C102.311 63.3154 101.928 63.2261 101.597 63.0474C101.266 62.8687 101.008 62.5962 100.824 62.23C100.639 61.8638 100.547 61.4023 100.547 60.8457C100.547 60.2627 100.644 59.7866 100.837 59.4175C101.033 59.0454 101.303 58.77 101.646 58.5913C101.988 58.4126 102.378 58.3232 102.815 58.3232C103.055 58.3232 103.286 58.3481 103.509 58.3979C103.734 58.4448 103.919 58.5049 104.063 58.5781L103.843 59.189C103.696 59.1304 103.526 59.0776 103.333 59.0308C103.143 58.9839 102.964 58.9604 102.797 58.9604C102.463 58.9604 102.185 59.0322 101.962 59.1758C101.742 59.3193 101.577 59.5303 101.465 59.8086C101.357 60.0869 101.303 60.4297 101.303 60.8369C101.303 61.2266 101.356 61.5591 101.461 61.8345C101.569 62.1099 101.729 62.3208 101.94 62.4673C102.154 62.6108 102.42 62.6826 102.74 62.6826C102.995 62.6826 103.225 62.6562 103.43 62.6035C103.635 62.5479 103.821 62.4834 103.988 62.4102V63.0605C103.827 63.1426 103.647 63.2056 103.447 63.2495C103.251 63.2935 103.017 63.3154 102.744 63.3154ZM107.501 58.3232C108.072 58.3232 108.505 58.4639 108.798 58.7451C109.091 59.0234 109.237 59.4717 109.237 60.0898V63.2275H108.516V60.1382C108.516 59.7368 108.424 59.4365 108.239 59.2373C108.058 59.0381 107.778 58.9385 107.4 58.9385C106.867 58.9385 106.492 59.0894 106.275 59.3911C106.058 59.6929 105.95 60.1309 105.95 60.7051V63.2275H105.22V58.4111H105.809L105.919 59.1055H105.959C106.061 58.9355 106.192 58.7935 106.35 58.6792C106.508 58.562 106.685 58.4741 106.882 58.4155C107.078 58.354 107.284 58.3232 107.501 58.3232ZM114.983 60.8105C114.983 61.2061 114.932 61.5591 114.829 61.8696C114.726 62.1802 114.578 62.4424 114.385 62.6562C114.192 62.8701 113.957 63.0342 113.682 63.1484C113.41 63.2598 113.1 63.3154 112.755 63.3154C112.433 63.3154 112.137 63.2598 111.867 63.1484C111.6 63.0342 111.369 62.8701 111.173 62.6562C110.979 62.4424 110.828 62.1802 110.72 61.8696C110.615 61.5591 110.562 61.2061 110.562 60.8105C110.562 60.2832 110.651 59.835 110.83 59.4658C111.009 59.0938 111.264 58.811 111.595 58.6177C111.929 58.4214 112.326 58.3232 112.786 58.3232C113.225 58.3232 113.609 58.4214 113.937 58.6177C114.268 58.814 114.524 59.0981 114.706 59.4702C114.891 59.8394 114.983 60.2861 114.983 60.8105ZM111.318 60.8105C111.318 61.1973 111.369 61.5327 111.472 61.8169C111.574 62.1011 111.732 62.3208 111.946 62.4761C112.16 62.6313 112.435 62.709 112.772 62.709C113.106 62.709 113.38 62.6313 113.594 62.4761C113.811 62.3208 113.971 62.1011 114.073 61.8169C114.176 61.5327 114.227 61.1973 114.227 60.8105C114.227 60.4268 114.176 60.0957 114.073 59.8174C113.971 59.5361 113.812 59.3193 113.599 59.167C113.385 59.0146 113.108 58.9385 112.768 58.9385C112.267 58.9385 111.899 59.104 111.665 59.4351C111.433 59.7661 111.318 60.2246 111.318 60.8105ZM117.068 63.2275H116.334V56.3896H117.068V63.2275ZM122.853 60.8105C122.853 61.2061 122.802 61.5591 122.699 61.8696C122.597 62.1802 122.449 62.4424 122.256 62.6562C122.062 62.8701 121.828 63.0342 121.552 63.1484C121.28 63.2598 120.971 63.3154 120.625 63.3154C120.303 63.3154 120.007 63.2598 119.738 63.1484C119.471 63.0342 119.239 62.8701 119.043 62.6562C118.85 62.4424 118.699 62.1802 118.591 61.8696C118.485 61.5591 118.432 61.2061 118.432 60.8105C118.432 60.2832 118.522 59.835 118.7 59.4658C118.879 59.0938 119.134 58.811 119.465 58.6177C119.799 58.4214 120.196 58.3232 120.656 58.3232C121.095 58.3232 121.479 58.4214 121.807 58.6177C122.138 58.814 122.395 59.0981 122.576 59.4702C122.761 59.8394 122.853 60.2861 122.853 60.8105ZM119.188 60.8105C119.188 61.1973 119.239 61.5327 119.342 61.8169C119.445 62.1011 119.603 62.3208 119.817 62.4761C120.03 62.6313 120.306 62.709 120.643 62.709C120.977 62.709 121.251 62.6313 121.465 62.4761C121.681 62.3208 121.841 62.1011 121.944 61.8169C122.046 61.5327 122.097 61.1973 122.097 60.8105C122.097 60.4268 122.046 60.0957 121.944 59.8174C121.841 59.5361 121.683 59.3193 121.469 59.167C121.255 59.0146 120.978 58.9385 120.638 58.9385C120.137 58.9385 119.77 59.104 119.535 59.4351C119.304 59.7661 119.188 60.2246 119.188 60.8105ZM125.549 65.3896C124.916 65.3896 124.429 65.271 124.086 65.0337C123.743 64.7993 123.572 64.4697 123.572 64.0449C123.572 63.7432 123.667 63.4854 123.857 63.2715C124.051 63.0576 124.317 62.9155 124.657 62.8452C124.531 62.7866 124.423 62.6987 124.332 62.5815C124.244 62.4644 124.2 62.3296 124.2 62.1772C124.2 62.0015 124.248 61.8477 124.345 61.7158C124.445 61.5811 124.596 61.4521 124.798 61.3291C124.546 61.2266 124.341 61.0537 124.182 60.8105C124.027 60.5645 123.95 60.2788 123.95 59.9536C123.95 59.6079 124.021 59.3135 124.165 59.0703C124.308 58.8242 124.516 58.6367 124.789 58.5078C125.061 58.3789 125.391 58.3145 125.778 58.3145C125.863 58.3145 125.948 58.3188 126.033 58.3276C126.12 58.3335 126.204 58.3438 126.283 58.3584C126.362 58.3701 126.431 58.3848 126.49 58.4023H128.142V58.8726L127.254 58.9824C127.342 59.0967 127.415 59.2344 127.474 59.3955C127.533 59.5566 127.562 59.7354 127.562 59.9316C127.562 60.4121 127.399 60.7944 127.074 61.0786C126.749 61.3599 126.302 61.5005 125.734 61.5005C125.599 61.5005 125.461 61.4888 125.321 61.4653C125.177 61.5444 125.067 61.6323 124.991 61.729C124.918 61.8257 124.881 61.937 124.881 62.063C124.881 62.1567 124.909 62.2314 124.965 62.2871C125.023 62.3428 125.107 62.3838 125.215 62.4102C125.324 62.4336 125.454 62.4453 125.606 62.4453H126.454C126.979 62.4453 127.38 62.5552 127.659 62.7749C127.94 62.9946 128.08 63.3154 128.08 63.7373C128.08 64.2705 127.864 64.6792 127.43 64.9634C126.996 65.2476 126.369 65.3896 125.549 65.3896ZM125.571 64.8184C125.97 64.8184 126.299 64.7773 126.56 64.6953C126.824 64.6162 127.02 64.5005 127.149 64.3481C127.281 64.1987 127.347 64.02 127.347 63.812C127.347 63.6187 127.303 63.4722 127.215 63.3726C127.127 63.2759 126.998 63.2114 126.828 63.1792C126.658 63.144 126.45 63.1265 126.204 63.1265H125.369C125.152 63.1265 124.963 63.1602 124.802 63.2275C124.641 63.2949 124.516 63.3945 124.429 63.5264C124.344 63.6582 124.301 63.8223 124.301 64.0186C124.301 64.2793 124.411 64.4771 124.631 64.6118C124.85 64.7495 125.164 64.8184 125.571 64.8184ZM125.76 60.9688C126.109 60.9688 126.371 60.8809 126.547 60.7051C126.723 60.5293 126.81 60.2729 126.81 59.936C126.81 59.5757 126.721 59.3062 126.542 59.1274C126.364 58.9458 126.1 58.855 125.751 58.855C125.417 58.855 125.16 58.9487 124.978 59.1362C124.799 59.3208 124.71 59.5918 124.71 59.9492C124.71 60.2773 124.801 60.5293 124.982 60.7051C125.164 60.8809 125.423 60.9688 125.76 60.9688ZM129.911 58.4111V63.2275H129.181V58.4111H129.911ZM129.555 56.6094C129.675 56.6094 129.777 56.6489 129.862 56.728C129.95 56.8042 129.994 56.9243 129.994 57.0884C129.994 57.2495 129.95 57.3696 129.862 57.4487C129.777 57.5278 129.675 57.5674 129.555 57.5674C129.429 57.5674 129.323 57.5278 129.238 57.4487C129.156 57.3696 129.115 57.2495 129.115 57.0884C129.115 56.9243 129.156 56.8042 129.238 56.728C129.323 56.6489 129.429 56.6094 129.555 56.6094ZM133.349 58.332C133.924 58.332 134.35 58.4609 134.628 58.7188C134.906 58.9766 135.046 59.3882 135.046 59.9536V63.2275H134.514L134.373 62.5156H134.338C134.203 62.6914 134.063 62.8394 133.916 62.9595C133.77 63.0767 133.6 63.166 133.406 63.2275C133.216 63.2861 132.982 63.3154 132.703 63.3154C132.41 63.3154 132.15 63.2642 131.921 63.1616C131.695 63.0591 131.517 62.9038 131.385 62.6958C131.256 62.4878 131.192 62.2241 131.192 61.9048C131.192 61.4243 131.382 61.0552 131.763 60.7974C132.144 60.5396 132.724 60.3989 133.503 60.3755L134.334 60.3403V60.0459C134.334 59.6299 134.244 59.3384 134.066 59.1714C133.887 59.0044 133.635 58.9209 133.31 58.9209C133.058 58.9209 132.818 58.9575 132.589 59.0308C132.361 59.104 132.144 59.1904 131.939 59.29L131.715 58.7363C131.931 58.625 132.18 58.5298 132.462 58.4507C132.743 58.3716 133.039 58.332 133.349 58.332ZM134.325 60.8545L133.591 60.8853C132.99 60.9087 132.567 61.0068 132.321 61.1797C132.075 61.3525 131.952 61.5972 131.952 61.9136C131.952 62.189 132.035 62.3926 132.202 62.5244C132.369 62.6562 132.591 62.7222 132.866 62.7222C133.294 62.7222 133.644 62.6035 133.916 62.3662C134.189 62.1289 134.325 61.7729 134.325 61.2983V60.8545ZM139.754 61.9092C139.754 62.2168 139.677 62.4761 139.521 62.687C139.369 62.895 139.149 63.0518 138.862 63.1572C138.578 63.2627 138.238 63.3154 137.843 63.3154C137.506 63.3154 137.214 63.2891 136.968 63.2363C136.722 63.1836 136.507 63.1089 136.322 63.0122V62.3398C136.518 62.4365 136.753 62.5244 137.025 62.6035C137.298 62.6826 137.576 62.7222 137.86 62.7222C138.276 62.7222 138.578 62.6548 138.765 62.52C138.953 62.3853 139.047 62.2021 139.047 61.9707C139.047 61.8389 139.009 61.7231 138.932 61.6235C138.859 61.521 138.735 61.4229 138.559 61.3291C138.383 61.2324 138.14 61.127 137.829 61.0127C137.522 60.8955 137.255 60.7798 137.03 60.6655C136.807 60.5483 136.634 60.4062 136.511 60.2393C136.391 60.0723 136.331 59.8555 136.331 59.5889C136.331 59.1816 136.495 58.8696 136.823 58.6528C137.154 58.4331 137.588 58.3232 138.124 58.3232C138.414 58.3232 138.685 58.3525 138.937 58.4111C139.192 58.4668 139.429 58.543 139.649 58.6396L139.403 59.2241C139.203 59.1392 138.991 59.0674 138.765 59.0088C138.54 58.9502 138.31 58.9209 138.076 58.9209C137.739 58.9209 137.479 58.9766 137.298 59.0879C137.119 59.1992 137.03 59.3516 137.03 59.5449C137.03 59.6943 137.071 59.8174 137.153 59.9141C137.238 60.0107 137.372 60.1016 137.557 60.1865C137.742 60.2715 137.985 60.3711 138.286 60.4854C138.588 60.5967 138.849 60.7124 139.069 60.8325C139.288 60.9497 139.457 61.0933 139.574 61.2632C139.694 61.4302 139.754 61.6455 139.754 61.9092ZM145.709 58.3232C146.309 58.3232 146.788 58.5298 147.146 58.9429C147.503 59.356 147.682 59.9771 147.682 60.8062C147.682 61.354 147.6 61.814 147.436 62.186C147.272 62.5581 147.04 62.8394 146.741 63.0298C146.445 63.2202 146.095 63.3154 145.691 63.3154C145.436 63.3154 145.212 63.2817 145.019 63.2144C144.825 63.147 144.66 63.0562 144.522 62.9419C144.384 62.8276 144.27 62.7031 144.179 62.5684H144.127C144.135 62.6826 144.146 62.8203 144.157 62.9814C144.172 63.1426 144.179 63.2832 144.179 63.4033V65.3809H143.445V58.4111H144.048L144.144 59.123H144.179C144.273 58.9766 144.387 58.8433 144.522 58.7231C144.657 58.6001 144.821 58.5034 145.014 58.4331C145.211 58.3599 145.442 58.3232 145.709 58.3232ZM145.581 58.9385C145.247 58.9385 144.978 59.0029 144.773 59.1318C144.57 59.2607 144.423 59.4541 144.329 59.7119C144.235 59.9668 144.185 60.2876 144.179 60.6743V60.8149C144.179 61.2222 144.223 61.5664 144.311 61.8477C144.402 62.1289 144.55 62.3428 144.755 62.4893C144.963 62.6357 145.241 62.709 145.59 62.709C145.889 62.709 146.138 62.6284 146.337 62.4673C146.536 62.3062 146.684 62.082 146.781 61.7949C146.881 61.5049 146.93 61.1724 146.93 60.7974C146.93 60.229 146.819 59.7778 146.596 59.4438C146.377 59.1069 146.038 58.9385 145.581 58.9385ZM150.848 58.332C151.422 58.332 151.848 58.4609 152.127 58.7188C152.405 58.9766 152.544 59.3882 152.544 59.9536V63.2275H152.013L151.872 62.5156H151.837C151.702 62.6914 151.561 62.8394 151.415 62.9595C151.268 63.0767 151.098 63.166 150.905 63.2275C150.715 63.2861 150.48 63.3154 150.202 63.3154C149.909 63.3154 149.648 63.2642 149.42 63.1616C149.194 63.0591 149.015 62.9038 148.884 62.6958C148.755 62.4878 148.69 62.2241 148.69 61.9048C148.69 61.4243 148.881 61.0552 149.262 60.7974C149.642 60.5396 150.222 60.3989 151.002 60.3755L151.832 60.3403V60.0459C151.832 59.6299 151.743 59.3384 151.564 59.1714C151.386 59.0044 151.134 58.9209 150.808 58.9209C150.556 58.9209 150.316 58.9575 150.088 59.0308C149.859 59.104 149.642 59.1904 149.437 59.29L149.213 58.7363C149.43 58.625 149.679 58.5298 149.96 58.4507C150.242 58.3716 150.537 58.332 150.848 58.332ZM151.824 60.8545L151.09 60.8853C150.489 60.9087 150.066 61.0068 149.82 61.1797C149.574 61.3525 149.451 61.5972 149.451 61.9136C149.451 62.189 149.534 62.3926 149.701 62.5244C149.868 62.6562 150.089 62.7222 150.365 62.7222C150.792 62.7222 151.142 62.6035 151.415 62.3662C151.687 62.1289 151.824 61.7729 151.824 61.2983V60.8545ZM156.326 58.3232C156.422 58.3232 156.523 58.3291 156.629 58.3408C156.734 58.3496 156.828 58.3628 156.91 58.3804L156.818 59.0571C156.739 59.0366 156.651 59.0205 156.554 59.0088C156.458 58.9971 156.367 58.9912 156.282 58.9912C156.088 58.9912 155.905 59.0308 155.732 59.1099C155.562 59.186 155.413 59.2974 155.284 59.4438C155.155 59.5874 155.054 59.7617 154.981 59.9668C154.908 60.1689 154.871 60.3945 154.871 60.6436V63.2275H154.137V58.4111H154.744L154.823 59.2988H154.854C154.953 59.1201 155.073 58.9575 155.214 58.811C155.354 58.6616 155.517 58.543 155.702 58.4551C155.889 58.3672 156.097 58.3232 156.326 58.3232ZM159.712 58.332C160.286 58.332 160.712 58.4609 160.99 58.7188C161.269 58.9766 161.408 59.3882 161.408 59.9536V63.2275H160.876L160.735 62.5156H160.7C160.566 62.6914 160.425 62.8394 160.278 62.9595C160.132 63.0767 159.962 63.166 159.769 63.2275C159.578 63.2861 159.344 63.3154 159.066 63.3154C158.773 63.3154 158.512 63.2642 158.283 63.1616C158.058 63.0591 157.879 62.9038 157.747 62.6958C157.618 62.4878 157.554 62.2241 157.554 61.9048C157.554 61.4243 157.744 61.0552 158.125 60.7974C158.506 60.5396 159.086 60.3989 159.865 60.3755L160.696 60.3403V60.0459C160.696 59.6299 160.607 59.3384 160.428 59.1714C160.249 59.0044 159.997 58.9209 159.672 58.9209C159.42 58.9209 159.18 58.9575 158.951 59.0308C158.723 59.104 158.506 59.1904 158.301 59.29L158.077 58.7363C158.294 58.625 158.543 58.5298 158.824 58.4507C159.105 58.3716 159.401 58.332 159.712 58.332ZM160.687 60.8545L159.953 60.8853C159.353 60.9087 158.929 61.0068 158.683 61.1797C158.437 61.3525 158.314 61.5972 158.314 61.9136C158.314 62.189 158.398 62.3926 158.565 62.5244C158.732 62.6562 158.953 62.7222 159.228 62.7222C159.656 62.7222 160.006 62.6035 160.278 62.3662C160.551 62.1289 160.687 61.7729 160.687 61.2983V60.8545ZM169.164 61.5181C169.164 61.8989 169.069 62.2241 168.878 62.4937C168.691 62.7603 168.427 62.9639 168.087 63.1045C167.748 63.2451 167.348 63.3154 166.888 63.3154C166.644 63.3154 166.415 63.3037 166.198 63.2803C165.981 63.2568 165.782 63.2231 165.6 63.1792C165.418 63.1353 165.259 63.0811 165.121 63.0166V62.3003C165.341 62.3911 165.609 62.4761 165.925 62.5552C166.242 62.6313 166.573 62.6694 166.918 62.6694C167.241 62.6694 167.513 62.627 167.736 62.542C167.958 62.4541 168.127 62.3296 168.241 62.1685C168.358 62.0044 168.417 61.8081 168.417 61.5796C168.417 61.3599 168.369 61.1768 168.272 61.0303C168.175 60.8809 168.014 60.7461 167.789 60.626C167.566 60.5029 167.261 60.3726 166.874 60.2349C166.602 60.1382 166.362 60.0327 166.154 59.9185C165.946 59.8013 165.771 59.6694 165.631 59.5229C165.49 59.3765 165.383 59.2065 165.31 59.0132C165.24 58.8198 165.205 58.5986 165.205 58.3496C165.205 58.0068 165.291 57.7139 165.464 57.4707C165.64 57.2246 165.881 57.0371 166.189 56.9082C166.499 56.7764 166.855 56.7104 167.257 56.7104C167.6 56.7104 167.916 56.7427 168.206 56.8071C168.499 56.8716 168.767 56.958 169.01 57.0664L168.777 57.708C168.546 57.6113 168.3 57.5308 168.039 57.4663C167.781 57.4019 167.515 57.3696 167.239 57.3696C166.964 57.3696 166.731 57.4106 166.54 57.4927C166.353 57.5718 166.209 57.6846 166.11 57.8311C166.01 57.9775 165.96 58.1519 165.96 58.354C165.96 58.5796 166.007 58.7671 166.101 58.9165C166.198 59.0659 166.35 59.1992 166.558 59.3164C166.769 59.4307 167.047 59.5508 167.393 59.6768C167.771 59.8145 168.092 59.9609 168.355 60.1162C168.619 60.2686 168.82 60.4561 168.957 60.6787C169.095 60.8984 169.164 61.1782 169.164 61.5181ZM172.313 58.3232C172.723 58.3232 173.074 58.4141 173.367 58.5957C173.66 58.7773 173.884 59.0322 174.04 59.3604C174.195 59.6855 174.273 60.0664 174.273 60.5029V60.9556H170.946C170.955 61.521 171.095 61.9517 171.368 62.2476C171.64 62.5435 172.024 62.6914 172.519 62.6914C172.824 62.6914 173.093 62.6636 173.328 62.6079C173.562 62.5522 173.805 62.4702 174.057 62.3618V63.0034C173.814 63.1118 173.572 63.1909 173.332 63.2407C173.095 63.2905 172.814 63.3154 172.488 63.3154C172.026 63.3154 171.621 63.2217 171.276 63.0342C170.933 62.8438 170.666 62.5654 170.476 62.1992C170.285 61.833 170.19 61.3848 170.19 60.8545C170.19 60.3359 170.276 59.8877 170.449 59.5098C170.625 59.1289 170.871 58.8359 171.188 58.6309C171.507 58.4258 171.882 58.3232 172.313 58.3232ZM172.304 58.9209C171.914 58.9209 171.604 59.0483 171.372 59.3032C171.141 59.5581 171.003 59.9141 170.959 60.3711H173.508C173.505 60.084 173.46 59.832 173.372 59.6152C173.287 59.3955 173.156 59.2256 172.981 59.1055C172.805 58.9824 172.579 58.9209 172.304 58.9209ZM176.947 65.3896C176.314 65.3896 175.826 65.271 175.483 65.0337C175.14 64.7993 174.969 64.4697 174.969 64.0449C174.969 63.7432 175.064 63.4854 175.255 63.2715C175.448 63.0576 175.715 62.9155 176.054 62.8452C175.928 62.7866 175.82 62.6987 175.729 62.5815C175.641 62.4644 175.597 62.3296 175.597 62.1772C175.597 62.0015 175.646 61.8477 175.742 61.7158C175.842 61.5811 175.993 61.4521 176.195 61.3291C175.943 61.2266 175.738 61.0537 175.58 60.8105C175.425 60.5645 175.347 60.2788 175.347 59.9536C175.347 59.6079 175.419 59.3135 175.562 59.0703C175.706 58.8242 175.914 58.6367 176.186 58.5078C176.459 58.3789 176.788 58.3145 177.175 58.3145C177.26 58.3145 177.345 58.3188 177.43 58.3276C177.518 58.3335 177.601 58.3438 177.68 58.3584C177.76 58.3701 177.828 58.3848 177.887 58.4023H179.539V58.8726L178.652 58.9824C178.74 59.0967 178.813 59.2344 178.871 59.3955C178.93 59.5566 178.959 59.7354 178.959 59.9316C178.959 60.4121 178.797 60.7944 178.471 61.0786C178.146 61.3599 177.699 61.5005 177.131 61.5005C176.996 61.5005 176.859 61.4888 176.718 61.4653C176.574 61.5444 176.465 61.6323 176.388 61.729C176.315 61.8257 176.279 61.937 176.279 62.063C176.279 62.1567 176.306 62.2314 176.362 62.2871C176.421 62.3428 176.504 62.3838 176.613 62.4102C176.721 62.4336 176.851 62.4453 177.004 62.4453H177.852C178.376 62.4453 178.778 62.5552 179.056 62.7749C179.337 62.9946 179.478 63.3154 179.478 63.7373C179.478 64.2705 179.261 64.6792 178.827 64.9634C178.394 65.2476 177.767 65.3896 176.947 65.3896ZM176.969 64.8184C177.367 64.8184 177.697 64.7773 177.957 64.6953C178.221 64.6162 178.417 64.5005 178.546 64.3481C178.678 64.1987 178.744 64.02 178.744 63.812C178.744 63.6187 178.7 63.4722 178.612 63.3726C178.524 63.2759 178.395 63.2114 178.225 63.1792C178.055 63.144 177.847 63.1265 177.601 63.1265H176.766C176.55 63.1265 176.361 63.1602 176.199 63.2275C176.038 63.2949 175.914 63.3945 175.826 63.5264C175.741 63.6582 175.699 63.8223 175.699 64.0186C175.699 64.2793 175.808 64.4771 176.028 64.6118C176.248 64.7495 176.561 64.8184 176.969 64.8184ZM177.158 60.9688C177.506 60.9688 177.768 60.8809 177.944 60.7051C178.12 60.5293 178.208 60.2729 178.208 59.936C178.208 59.5757 178.118 59.3062 177.94 59.1274C177.761 58.9458 177.497 58.855 177.149 58.855C176.815 58.855 176.557 58.9487 176.375 59.1362C176.197 59.3208 176.107 59.5918 176.107 59.9492C176.107 60.2773 176.198 60.5293 176.38 60.7051C176.561 60.8809 176.821 60.9688 177.158 60.9688ZM184.556 58.4111V63.2275H183.958L183.852 62.5508H183.813C183.713 62.7178 183.584 62.8584 183.426 62.9727C183.268 63.0869 183.089 63.1719 182.89 63.2275C182.694 63.2861 182.484 63.3154 182.262 63.3154C181.881 63.3154 181.561 63.2539 181.304 63.1309C181.046 63.0078 180.851 62.8174 180.719 62.5596C180.59 62.3018 180.526 61.9707 180.526 61.5664V58.4111H181.264V61.5137C181.264 61.915 181.355 62.2153 181.537 62.4146C181.718 62.6108 181.995 62.709 182.367 62.709C182.725 62.709 183.009 62.6416 183.22 62.5068C183.434 62.3721 183.587 62.1743 183.681 61.9136C183.775 61.6499 183.822 61.3276 183.822 60.9468V58.4111H184.556ZM188.377 58.3232C188.473 58.3232 188.574 58.3291 188.68 58.3408C188.785 58.3496 188.879 58.3628 188.961 58.3804L188.869 59.0571C188.79 59.0366 188.702 59.0205 188.605 59.0088C188.508 58.9971 188.418 58.9912 188.333 58.9912C188.139 58.9912 187.956 59.0308 187.783 59.1099C187.613 59.186 187.464 59.2974 187.335 59.4438C187.206 59.5874 187.105 59.7617 187.032 59.9668C186.959 60.1689 186.922 60.3945 186.922 60.6436V63.2275H186.188V58.4111H186.795L186.874 59.2988H186.904C187.004 59.1201 187.124 58.9575 187.265 58.811C187.405 58.6616 187.568 58.543 187.753 58.4551C187.94 58.3672 188.148 58.3232 188.377 58.3232ZM191.762 58.332C192.337 58.332 192.763 58.4609 193.041 58.7188C193.32 58.9766 193.459 59.3882 193.459 59.9536V63.2275H192.927L192.786 62.5156H192.751C192.616 62.6914 192.476 62.8394 192.329 62.9595C192.183 63.0767 192.013 63.166 191.82 63.2275C191.629 63.2861 191.395 63.3154 191.116 63.3154C190.824 63.3154 190.563 63.2642 190.334 63.1616C190.109 63.0591 189.93 62.9038 189.798 62.6958C189.669 62.4878 189.605 62.2241 189.605 61.9048C189.605 61.4243 189.795 61.0552 190.176 60.7974C190.557 60.5396 191.137 60.3989 191.916 60.3755L192.747 60.3403V60.0459C192.747 59.6299 192.657 59.3384 192.479 59.1714C192.3 59.0044 192.048 58.9209 191.723 58.9209C191.471 58.9209 191.231 58.9575 191.002 59.0308C190.774 59.104 190.557 59.1904 190.352 59.29L190.128 58.7363C190.344 58.625 190.594 58.5298 190.875 58.4507C191.156 58.3716 191.452 58.332 191.762 58.332ZM192.738 60.8545L192.004 60.8853C191.404 60.9087 190.98 61.0068 190.734 61.1797C190.488 61.3525 190.365 61.5972 190.365 61.9136C190.365 62.189 190.449 62.3926 190.615 62.5244C190.782 62.6562 191.004 62.7222 191.279 62.7222C191.707 62.7222 192.057 62.6035 192.329 62.3662C192.602 62.1289 192.738 61.7729 192.738 61.2983V60.8545ZM197.332 58.3232C197.904 58.3232 198.336 58.4639 198.629 58.7451C198.922 59.0234 199.068 59.4717 199.068 60.0898V63.2275H198.348V60.1382C198.348 59.7368 198.255 59.4365 198.071 59.2373C197.889 59.0381 197.609 58.9385 197.231 58.9385C196.698 58.9385 196.323 59.0894 196.106 59.3911C195.89 59.6929 195.781 60.1309 195.781 60.7051V63.2275H195.052V58.4111H195.641L195.75 59.1055H195.79C195.893 58.9355 196.023 58.7935 196.181 58.6792C196.339 58.562 196.517 58.4741 196.713 58.4155C196.909 58.354 197.116 58.3232 197.332 58.3232ZM202.59 63.3154C202.157 63.3154 201.775 63.2261 201.443 63.0474C201.112 62.8687 200.855 62.5962 200.67 62.23C200.485 61.8638 200.393 61.4023 200.393 60.8457C200.393 60.2627 200.49 59.7866 200.683 59.4175C200.879 59.0454 201.149 58.77 201.492 58.5913C201.835 58.4126 202.224 58.3232 202.661 58.3232C202.901 58.3232 203.132 58.3481 203.355 58.3979C203.581 58.4448 203.765 58.5049 203.909 58.5781L203.689 59.189C203.543 59.1304 203.373 59.0776 203.179 59.0308C202.989 58.9839 202.81 58.9604 202.643 58.9604C202.309 58.9604 202.031 59.0322 201.808 59.1758C201.588 59.3193 201.423 59.5303 201.312 59.8086C201.203 60.0869 201.149 60.4297 201.149 60.8369C201.149 61.2266 201.202 61.5591 201.307 61.8345C201.416 62.1099 201.575 62.3208 201.786 62.4673C202 62.6108 202.267 62.6826 202.586 62.6826C202.841 62.6826 203.071 62.6562 203.276 62.6035C203.481 62.5479 203.667 62.4834 203.834 62.4102V63.0605C203.673 63.1426 203.493 63.2056 203.294 63.2495C203.097 63.2935 202.863 63.3154 202.59 63.3154ZM203.307 64.4844C203.307 64.7686 203.197 64.9897 202.977 65.1479C202.757 65.3091 202.435 65.3896 202.01 65.3896C201.92 65.3896 201.833 65.3838 201.751 65.3721C201.669 65.3633 201.603 65.353 201.553 65.3413V64.8799C201.609 64.8916 201.681 64.9019 201.769 64.9106C201.857 64.9194 201.944 64.9238 202.032 64.9238C202.252 64.9238 202.421 64.8916 202.538 64.8271C202.655 64.7627 202.713 64.6543 202.713 64.502C202.713 64.3408 202.634 64.2236 202.476 64.1504C202.321 64.0771 202.122 64.0273 201.879 64.001L202.27 63.2275H202.757L202.52 63.7197C202.667 63.749 202.798 63.7944 202.916 63.856C203.036 63.9175 203.131 63.9995 203.201 64.1021C203.272 64.2046 203.307 64.332 203.307 64.4844ZM206.868 58.332C207.443 58.332 207.869 58.4609 208.147 58.7188C208.426 58.9766 208.565 59.3882 208.565 59.9536V63.2275H208.033L207.892 62.5156H207.857C207.722 62.6914 207.582 62.8394 207.435 62.9595C207.289 63.0767 207.119 63.166 206.926 63.2275C206.735 63.2861 206.501 63.3154 206.222 63.3154C205.929 63.3154 205.669 63.2642 205.44 63.1616C205.215 63.0591 205.036 62.9038 204.904 62.6958C204.775 62.4878 204.711 62.2241 204.711 61.9048C204.711 61.4243 204.901 61.0552 205.282 60.7974C205.663 60.5396 206.243 60.3989 207.022 60.3755L207.853 60.3403V60.0459C207.853 59.6299 207.763 59.3384 207.585 59.1714C207.406 59.0044 207.154 58.9209 206.829 58.9209C206.577 58.9209 206.337 58.9575 206.108 59.0308C205.88 59.104 205.663 59.1904 205.458 59.29L205.234 58.7363C205.45 58.625 205.699 58.5298 205.981 58.4507C206.262 58.3716 206.558 58.332 206.868 58.332ZM207.844 60.8545L207.11 60.8853C206.51 60.9087 206.086 61.0068 205.84 61.1797C205.594 61.3525 205.471 61.5972 205.471 61.9136C205.471 62.189 205.554 62.3926 205.721 62.5244C205.888 62.6562 206.11 62.7222 206.385 62.7222C206.813 62.7222 207.163 62.6035 207.435 62.3662C207.708 62.1289 207.844 61.7729 207.844 61.2983V60.8545ZM214.374 56.8027C215.203 56.8027 215.808 56.9653 216.189 57.2905C216.573 57.6128 216.765 58.0757 216.765 58.6792C216.765 58.9517 216.719 59.2109 216.628 59.457C216.541 59.7002 216.397 59.9155 216.198 60.103C215.999 60.2876 215.736 60.4341 215.411 60.5425C215.089 60.6479 214.693 60.7007 214.225 60.7007H213.442V63.2275H212.695V56.8027H214.374ZM214.304 57.4399H213.442V60.0591H214.141C214.551 60.0591 214.893 60.0151 215.165 59.9272C215.44 59.8394 215.647 59.6973 215.785 59.501C215.922 59.3018 215.991 59.0381 215.991 58.71C215.991 58.2822 215.855 57.9644 215.583 57.7563C215.31 57.5454 214.884 57.4399 214.304 57.4399ZM222.067 58.4111V63.2275H221.469L221.363 62.5508H221.324C221.224 62.7178 221.095 62.8584 220.937 62.9727C220.779 63.0869 220.6 63.1719 220.401 63.2275C220.205 63.2861 219.995 63.3154 219.773 63.3154C219.392 63.3154 219.072 63.2539 218.815 63.1309C218.557 63.0078 218.362 62.8174 218.23 62.5596C218.101 62.3018 218.037 61.9707 218.037 61.5664V58.4111H218.775V61.5137C218.775 61.915 218.866 62.2153 219.048 62.4146C219.229 62.6108 219.506 62.709 219.878 62.709C220.236 62.709 220.52 62.6416 220.731 62.5068C220.945 62.3721 221.098 62.1743 221.192 61.9136C221.286 61.6499 221.333 61.3276 221.333 60.9468V58.4111H222.067ZM221.355 56.3325V56.4204C221.296 56.5054 221.216 56.6079 221.113 56.728C221.013 56.8452 220.902 56.9697 220.779 57.1016C220.656 57.2305 220.531 57.3535 220.405 57.4707C220.282 57.5879 220.168 57.689 220.063 57.7739H219.575V57.6685C219.669 57.5571 219.771 57.4238 219.883 57.2686C219.994 57.1104 220.102 56.9492 220.208 56.7852C220.313 56.6182 220.401 56.4673 220.471 56.3325H221.355ZM224.429 56.3896V58.0991C224.429 58.2954 224.423 58.4858 224.411 58.6704C224.402 58.855 224.395 58.9985 224.389 59.1011H224.429C224.56 58.8843 224.751 58.7012 225 58.5518C225.249 58.4023 225.567 58.3276 225.953 58.3276C226.557 58.3276 227.037 58.5371 227.395 58.9561C227.755 59.3721 227.935 59.9917 227.935 60.8149C227.935 61.3569 227.853 61.814 227.689 62.186C227.525 62.5581 227.294 62.8394 226.995 63.0298C226.696 63.2202 226.343 63.3154 225.936 63.3154C225.555 63.3154 225.242 63.2451 224.995 63.1045C224.752 62.9609 224.565 62.7866 224.433 62.5815H224.376L224.226 63.2275H223.699V56.3896H224.429ZM225.835 58.9385C225.486 58.9385 225.209 59.0073 225.004 59.145C224.799 59.2798 224.651 59.4849 224.56 59.7603C224.473 60.0327 224.429 60.3784 224.429 60.7974V60.8369C224.429 61.4434 224.53 61.9077 224.732 62.23C224.934 62.5493 225.302 62.709 225.835 62.709C226.283 62.709 226.619 62.5449 226.841 62.2168C227.067 61.8887 227.18 61.4199 227.18 60.8105C227.18 60.1895 227.068 59.7222 226.846 59.4087C226.626 59.0952 226.289 58.9385 225.835 58.9385ZM230.034 63.2275H229.3V56.3896H230.034V63.2275ZM232.396 58.4111V63.2275H231.666V58.4111H232.396ZM232.04 56.6094C232.16 56.6094 232.262 56.6489 232.347 56.728C232.435 56.8042 232.479 56.9243 232.479 57.0884C232.479 57.2495 232.435 57.3696 232.347 57.4487C232.262 57.5278 232.16 57.5674 232.04 57.5674C231.914 57.5674 231.808 57.5278 231.723 57.4487C231.641 57.3696 231.6 57.2495 231.6 57.0884C231.6 56.9243 231.641 56.8042 231.723 56.728C231.808 56.6489 231.914 56.6094 232.04 56.6094ZM235.962 63.3154C235.528 63.3154 235.146 63.2261 234.815 63.0474C234.484 62.8687 234.226 62.5962 234.041 62.23C233.857 61.8638 233.765 61.4023 233.765 60.8457C233.765 60.2627 233.861 59.7866 234.055 59.4175C234.251 59.0454 234.52 58.77 234.863 58.5913C235.206 58.4126 235.596 58.3232 236.032 58.3232C236.272 58.3232 236.504 58.3481 236.726 58.3979C236.952 58.4448 237.137 58.5049 237.28 58.5781L237.06 59.189C236.914 59.1304 236.744 59.0776 236.551 59.0308C236.36 58.9839 236.182 58.9604 236.015 58.9604C235.681 58.9604 235.402 59.0322 235.18 59.1758C234.96 59.3193 234.794 59.5303 234.683 59.8086C234.575 60.0869 234.52 60.4297 234.52 60.8369C234.52 61.2266 234.573 61.5591 234.679 61.8345C234.787 62.1099 234.947 62.3208 235.158 62.4673C235.371 62.6108 235.638 62.6826 235.957 62.6826C236.212 62.6826 236.442 62.6562 236.647 62.6035C236.852 62.5479 237.038 62.4834 237.205 62.4102V63.0605C237.044 63.1426 236.864 63.2056 236.665 63.2495C236.469 63.2935 236.234 63.3154 235.962 63.3154ZM240.24 58.332C240.814 58.332 241.24 58.4609 241.519 58.7188C241.797 58.9766 241.936 59.3882 241.936 59.9536V63.2275H241.404L241.264 62.5156H241.229C241.094 62.6914 240.953 62.8394 240.807 62.9595C240.66 63.0767 240.49 63.166 240.297 63.2275C240.106 63.2861 239.872 63.3154 239.594 63.3154C239.301 63.3154 239.04 63.2642 238.812 63.1616C238.586 63.0591 238.407 62.9038 238.275 62.6958C238.147 62.4878 238.082 62.2241 238.082 61.9048C238.082 61.4243 238.272 61.0552 238.653 60.7974C239.034 60.5396 239.614 60.3989 240.394 60.3755L241.224 60.3403V60.0459C241.224 59.6299 241.135 59.3384 240.956 59.1714C240.777 59.0044 240.525 58.9209 240.2 58.9209C239.948 58.9209 239.708 58.9575 239.48 59.0308C239.251 59.104 239.034 59.1904 238.829 59.29L238.605 58.7363C238.822 58.625 239.071 58.5298 239.352 58.4507C239.633 58.3716 239.929 58.332 240.24 58.332ZM241.215 60.8545L240.481 60.8853C239.881 60.9087 239.458 61.0068 239.211 61.1797C238.965 61.3525 238.842 61.5972 238.842 61.9136C238.842 62.189 238.926 62.3926 239.093 62.5244C239.26 62.6562 239.481 62.7222 239.756 62.7222C240.184 62.7222 240.534 62.6035 240.807 62.3662C241.079 62.1289 241.215 61.7729 241.215 61.2983V60.8545ZM247.811 58.3232C248.222 58.3232 248.573 58.4141 248.866 58.5957C249.159 58.7773 249.383 59.0322 249.538 59.3604C249.694 59.6855 249.771 60.0664 249.771 60.5029V60.9556H246.445C246.453 61.521 246.594 61.9517 246.867 62.2476C247.139 62.5435 247.523 62.6914 248.018 62.6914C248.323 62.6914 248.592 62.6636 248.827 62.6079C249.061 62.5522 249.304 62.4702 249.556 62.3618V63.0034C249.313 63.1118 249.071 63.1909 248.831 63.2407C248.594 63.2905 248.312 63.3154 247.987 63.3154C247.524 63.3154 247.12 63.2217 246.774 63.0342C246.431 62.8438 246.165 62.5654 245.974 62.1992C245.784 61.833 245.689 61.3848 245.689 60.8545C245.689 60.3359 245.775 59.8877 245.948 59.5098C246.124 59.1289 246.37 58.8359 246.686 58.6309C247.006 58.4258 247.381 58.3232 247.811 58.3232ZM247.803 58.9209C247.413 58.9209 247.102 59.0483 246.871 59.3032C246.639 59.5581 246.502 59.9141 246.458 60.3711H249.007C249.004 60.084 248.958 59.832 248.87 59.6152C248.785 59.3955 248.655 59.2256 248.479 59.1055C248.304 58.9824 248.078 58.9209 247.803 58.9209ZM147.319 69.3696C146.965 69.3696 146.645 69.4312 146.361 69.5542C146.08 69.6743 145.84 69.8501 145.64 70.0815C145.444 70.3101 145.293 70.5869 145.188 70.9121C145.082 71.2373 145.03 71.6035 145.03 72.0107C145.03 72.5498 145.113 73.0186 145.28 73.417C145.45 73.8125 145.702 74.1187 146.036 74.3354C146.373 74.5522 146.793 74.6606 147.297 74.6606C147.584 74.6606 147.854 74.6372 148.106 74.5903C148.361 74.5405 148.608 74.479 148.848 74.4058V75.0562C148.614 75.144 148.368 75.2085 148.11 75.2495C147.852 75.2935 147.546 75.3154 147.192 75.3154C146.538 75.3154 145.992 75.1807 145.553 74.9111C145.116 74.6387 144.788 74.2549 144.568 73.7598C144.351 73.2646 144.243 72.6802 144.243 72.0063C144.243 71.52 144.31 71.0762 144.445 70.6748C144.583 70.2705 144.782 69.9219 145.043 69.6289C145.306 69.3359 145.629 69.1104 146.01 68.9521C146.393 68.791 146.833 68.7104 147.328 68.7104C147.653 68.7104 147.967 68.7427 148.268 68.8071C148.57 68.8716 148.843 68.9639 149.086 69.084L148.787 69.7168C148.582 69.623 148.356 69.5425 148.11 69.4751C147.867 69.4048 147.603 69.3696 147.319 69.3696ZM154.374 72.8105C154.374 73.2061 154.323 73.5591 154.221 73.8696C154.118 74.1802 153.97 74.4424 153.777 74.6562C153.583 74.8701 153.349 75.0342 153.074 75.1484C152.801 75.2598 152.492 75.3154 152.146 75.3154C151.824 75.3154 151.528 75.2598 151.259 75.1484C150.992 75.0342 150.761 74.8701 150.564 74.6562C150.371 74.4424 150.22 74.1802 150.112 73.8696C150.006 73.5591 149.954 73.2061 149.954 72.8105C149.954 72.2832 150.043 71.835 150.222 71.4658C150.4 71.0938 150.655 70.811 150.986 70.6177C151.32 70.4214 151.717 70.3232 152.177 70.3232C152.617 70.3232 153 70.4214 153.329 70.6177C153.66 70.814 153.916 71.0981 154.098 71.4702C154.282 71.8394 154.374 72.2861 154.374 72.8105ZM150.709 72.8105C150.709 73.1973 150.761 73.5327 150.863 73.8169C150.966 74.1011 151.124 74.3208 151.338 74.4761C151.552 74.6313 151.827 74.709 152.164 74.709C152.498 74.709 152.772 74.6313 152.986 74.4761C153.203 74.3208 153.362 74.1011 153.465 73.8169C153.567 73.5327 153.619 73.1973 153.619 72.8105C153.619 72.4268 153.567 72.0957 153.465 71.8174C153.362 71.5361 153.204 71.3193 152.99 71.167C152.776 71.0146 152.499 70.9385 152.16 70.9385C151.659 70.9385 151.291 71.104 151.057 71.4351C150.825 71.7661 150.709 72.2246 150.709 72.8105ZM160.955 70.3232C161.485 70.3232 161.885 70.4624 162.155 70.7407C162.424 71.0161 162.559 71.46 162.559 72.0723V75.2275H161.839V72.1074C161.839 71.7178 161.754 71.4263 161.584 71.2329C161.417 71.0366 161.168 70.9385 160.837 70.9385C160.371 70.9385 160.032 71.0732 159.821 71.3428C159.61 71.6123 159.505 72.0093 159.505 72.5337V75.2275H158.78V72.1074C158.78 71.8467 158.742 71.6299 158.666 71.457C158.592 71.2842 158.481 71.1553 158.332 71.0703C158.185 70.9824 157.999 70.9385 157.774 70.9385C157.454 70.9385 157.198 71.0044 157.005 71.1362C156.811 71.2681 156.671 71.4644 156.583 71.7251C156.498 71.9829 156.455 72.3008 156.455 72.6787V75.2275H155.726V70.4111H156.315L156.424 71.0923H156.464C156.561 70.9253 156.682 70.7847 156.829 70.6704C156.975 70.5562 157.139 70.4697 157.321 70.4111C157.503 70.3525 157.696 70.3232 157.901 70.3232C158.267 70.3232 158.573 70.3921 158.819 70.5298C159.069 70.6646 159.249 70.8711 159.36 71.1494H159.4C159.558 70.8711 159.775 70.6646 160.05 70.5298C160.325 70.3921 160.627 70.3232 160.955 70.3232ZM168.125 70.4111V75.2275H167.527L167.422 74.5508H167.382C167.283 74.7178 167.154 74.8584 166.995 74.9727C166.837 75.0869 166.659 75.1719 166.459 75.2275C166.263 75.2861 166.054 75.3154 165.831 75.3154C165.45 75.3154 165.131 75.2539 164.873 75.1309C164.615 75.0078 164.42 74.8174 164.288 74.5596C164.159 74.3018 164.095 73.9707 164.095 73.5664V70.4111H164.833V73.5137C164.833 73.915 164.924 74.2153 165.106 74.4146C165.287 74.6108 165.564 74.709 165.936 74.709C166.294 74.709 166.578 74.6416 166.789 74.5068C167.003 74.3721 167.157 74.1743 167.25 73.9136C167.344 73.6499 167.391 73.3276 167.391 72.9468V70.4111H168.125ZM172.038 70.3232C172.609 70.3232 173.041 70.4639 173.334 70.7451C173.627 71.0234 173.774 71.4717 173.774 72.0898V75.2275H173.053V72.1382C173.053 71.7368 172.961 71.4365 172.776 71.2373C172.595 71.0381 172.315 70.9385 171.937 70.9385C171.404 70.9385 171.029 71.0894 170.812 71.3911C170.595 71.6929 170.487 72.1309 170.487 72.7051V75.2275H169.757V70.4111H170.346L170.456 71.1055H170.496C170.598 70.9355 170.728 70.7935 170.887 70.6792C171.045 70.562 171.222 70.4741 171.418 70.4155C171.615 70.354 171.821 70.3232 172.038 70.3232ZM176.096 70.4111V75.2275H175.367V70.4111H176.096ZM175.74 68.6094C175.86 68.6094 175.963 68.6489 176.048 68.728C176.136 68.8042 176.18 68.9243 176.18 69.0884C176.18 69.2495 176.136 69.3696 176.048 69.4487C175.963 69.5278 175.86 69.5674 175.74 69.5674C175.614 69.5674 175.509 69.5278 175.424 69.4487C175.342 69.3696 175.301 69.2495 175.301 69.0884C175.301 68.9243 175.342 68.8042 175.424 68.728C175.509 68.6489 175.614 68.6094 175.74 68.6094ZM179.289 74.7178C179.409 74.7178 179.532 74.7075 179.658 74.687C179.784 74.6665 179.887 74.6416 179.966 74.6123V75.1792C179.881 75.2173 179.762 75.2495 179.61 75.2759C179.46 75.3022 179.314 75.3154 179.17 75.3154C178.915 75.3154 178.684 75.2715 178.476 75.1836C178.268 75.0928 178.101 74.9404 177.975 74.7266C177.852 74.5127 177.79 74.2168 177.79 73.8389V70.9824H177.105V70.6265L177.795 70.3408L178.085 69.2949H178.524V70.4111H179.935V70.9824H178.524V73.8169C178.524 74.1187 178.593 74.3442 178.731 74.4937C178.871 74.6431 179.057 74.7178 179.289 74.7178ZM182.833 70.332C183.407 70.332 183.833 70.4609 184.112 70.7188C184.39 70.9766 184.529 71.3882 184.529 71.9536V75.2275H183.998L183.857 74.5156H183.822C183.687 74.6914 183.546 74.8394 183.4 74.9595C183.253 75.0767 183.083 75.166 182.89 75.2275C182.7 75.2861 182.465 75.3154 182.187 75.3154C181.894 75.3154 181.633 75.2642 181.405 75.1616C181.179 75.0591 181 74.9038 180.869 74.6958C180.74 74.4878 180.675 74.2241 180.675 73.9048C180.675 73.4243 180.866 73.0552 181.247 72.7974C181.627 72.5396 182.207 72.3989 182.987 72.3755L183.817 72.3403V72.0459C183.817 71.6299 183.728 71.3384 183.549 71.1714C183.371 71.0044 183.119 70.9209 182.793 70.9209C182.541 70.9209 182.301 70.9575 182.073 71.0308C181.844 71.104 181.627 71.1904 181.422 71.29L181.198 70.7363C181.415 70.625 181.664 70.5298 181.945 70.4507C182.227 70.3716 182.522 70.332 182.833 70.332ZM183.809 72.8545L183.075 72.8853C182.474 72.9087 182.051 73.0068 181.805 73.1797C181.559 73.3525 181.436 73.5972 181.436 73.9136C181.436 74.189 181.519 74.3926 181.686 74.5244C181.853 74.6562 182.074 74.7222 182.35 74.7222C182.777 74.7222 183.127 74.6035 183.4 74.3662C183.672 74.1289 183.809 73.7729 183.809 73.2983V72.8545ZM188.311 70.3232C188.407 70.3232 188.508 70.3291 188.614 70.3408C188.719 70.3496 188.813 70.3628 188.895 70.3804L188.803 71.0571C188.724 71.0366 188.636 71.0205 188.539 71.0088C188.442 70.9971 188.352 70.9912 188.267 70.9912C188.073 70.9912 187.89 71.0308 187.717 71.1099C187.547 71.186 187.398 71.2974 187.269 71.4438C187.14 71.5874 187.039 71.7617 186.966 71.9668C186.893 72.1689 186.856 72.3945 186.856 72.6436V75.2275H186.122V70.4111H186.729L186.808 71.2988H186.838C186.938 71.1201 187.058 70.9575 187.199 70.811C187.339 70.6616 187.502 70.543 187.687 70.4551C187.874 70.3672 188.082 70.3232 188.311 70.3232ZM190.624 70.4111V75.2275H189.895V70.4111H190.624ZM190.268 68.6094C190.388 68.6094 190.491 68.6489 190.576 68.728C190.664 68.8042 190.708 68.9243 190.708 69.0884C190.708 69.2495 190.664 69.3696 190.576 69.4487C190.491 69.5278 190.388 69.5674 190.268 69.5674C190.142 69.5674 190.037 69.5278 189.952 69.4487C189.87 69.3696 189.829 69.2495 189.829 69.0884C189.829 68.9243 189.87 68.8042 189.952 68.728C190.037 68.6489 190.142 68.6094 190.268 68.6094ZM194.063 70.332C194.637 70.332 195.063 70.4609 195.342 70.7188C195.62 70.9766 195.759 71.3882 195.759 71.9536V75.2275H195.227L195.087 74.5156H195.052C194.917 74.6914 194.776 74.8394 194.63 74.9595C194.483 75.0767 194.313 75.166 194.12 75.2275C193.93 75.2861 193.695 75.3154 193.417 75.3154C193.124 75.3154 192.863 75.2642 192.635 75.1616C192.409 75.0591 192.23 74.9038 192.099 74.6958C191.97 74.4878 191.905 74.2241 191.905 73.9048C191.905 73.4243 192.096 73.0552 192.476 72.7974C192.857 72.5396 193.437 72.3989 194.217 72.3755L195.047 72.3403V72.0459C195.047 71.6299 194.958 71.3384 194.779 71.1714C194.601 71.0044 194.349 70.9209 194.023 70.9209C193.771 70.9209 193.531 70.9575 193.303 71.0308C193.074 71.104 192.857 71.1904 192.652 71.29L192.428 70.7363C192.645 70.625 192.894 70.5298 193.175 70.4507C193.456 70.3716 193.752 70.332 194.063 70.332ZM195.039 72.8545L194.305 72.8853C193.704 72.9087 193.281 73.0068 193.035 73.1797C192.789 73.3525 192.665 73.5972 192.665 73.9136C192.665 74.189 192.749 74.3926 192.916 74.5244C193.083 74.6562 193.304 74.7222 193.58 74.7222C194.007 74.7222 194.357 74.6035 194.63 74.3662C194.902 74.1289 195.039 73.7729 195.039 73.2983V72.8545Z" fill="#010720"></path><defs><linearGradient id="paint0_linear_2154_3600" x1="41.5" y1="6" x2="41.5" y2="63.5" gradientUnits="userSpaceOnUse"><stop stop-color="#E29C9C"></stop><stop offset="0.384615" stop-color="#BC3D3D"></stop><stop offset="0.908654" stop-color="#A90E0E"></stop></linearGradient><linearGradient id="paint1_linear_2154_3600" x1="20" y1="47" x2="20" y2="72" gradientUnits="userSpaceOnUse"><stop stop-color="#A90E0E"></stop><stop offset="0.971154" stop-color="#D47B7B"></stop></linearGradient></defs></svg>