<svg width="31" height="43" viewBox="0 0 31 43" fill="none" xmlns="http://www.w3.org/2000/svg">
<rect width="31" height="43" fill="white"/>
<path d="M26.2127 3.86952C28.2209 9.52278 35.1469 25.3626 13.9578 23.6767C2.47046 22.7631 0.0797702 32.4859 1.27859 36.5901C4.41826 47.3354 23.9797 44.9633 17.8812 22.5846C13.1555 5.24226 23.3884 -4.08166 26.2127 3.86952Z" stroke="#00DBFF" stroke-width="0.40811" stroke-miterlimit="10"/>
<path d="M26.4303 6.29322C28.9068 11.2763 35.3392 27.3573 16.0375 25.8244C5.57505 24.992 2.72756 32.3983 4.29042 35.9645C7.22141 42.6521 24.5221 40.4561 19.9748 23.6356C15.7036 7.83059 23.0124 -0.588989 26.4303 6.29322Z" stroke="#00DBFF" stroke-width="0.40811" stroke-miterlimit="10"/>
<path d="M27.9359 9.77813C31.843 19 32.9746 30.0676 18.8136 28.2079C10.3222 27.0927 6.56338 31.9575 7.71815 34.9185C9.62188 39.8044 26.1108 37.926 21.9255 24.338C17.7168 10.6686 25.0164 2.89128 27.9359 9.78043V9.77813Z" stroke="#00DBFF" stroke-width="0.40811" stroke-miterlimit="10"/>
<path d="M28.5568 11.4634C31.7127 19.6001 32.543 34.2572 20.5315 30.9878C14.8968 29.4551 9.64935 31.1732 10.6557 33.7542C12.316 38.0115 28.2136 36.3744 24.8329 25.4875C21.1367 13.5828 26.5789 6.36902 28.5568 11.4634Z" stroke="#00DBFF" stroke-width="0.40811" stroke-miterlimit="10"/>
</svg>
