<svg xmlns="http://www.w3.org/2000/svg" id="Camada_1" data-name="Camada 1" viewBox="0 0 745.04 286.43"><defs><style>      .cls-1 {        font-family: MontserratRoman-Bold, Montserrat;        font-size: 22.35px;        font-variation-settings: 'wght' 700;        font-weight: 700;      }      .cls-1, .cls-2 {        fill: #888889;      }    </style></defs><g><path class="cls-2" d="M452.61,102.03c16.02-7.88,31.96-13.87,47.69-15.06.12-2.75.24-5.48.37-8.19-15.75,1.65-31.66,6.99-47.66,14.35-.13,2.96-.27,5.93-.4,8.9"></path><path class="cls-2" d="M500.48,93.15c-14.71.84-29.62,6.23-44.61,13.52-.13,2.95-.26,5.9-.4,8.87,15.01-7.66,29.94-13.49,44.63-13.99.13-2.82.25-5.62.38-8.4"></path><path class="cls-2" d="M448.08,134.52c18.64-10.37,37.22-19.31,55.35-18.07.13-2.91.26-5.8.39-8.67-18.14-.81-36.7,7.57-55.33,17.68-.13,3.02-.27,6.04-.4,9.06"></path><path class="cls-2" d="M505.08,138.31c-.13,2.98-.27,5.98-.4,9-39.62-5.8-81.8,45.74-121.42,39.97l1.71-8.71c39.24,4.56,80.95-46.37,120.12-40.26"></path><path class="cls-2" d="M512.57,155.77c-.14,3.03-.27,6.07-.41,9.1-22.37-8.61-45.76,5.64-69.08,18.1-23.2,12.79-46.33,23.81-68.71,18.23l1.69-8.66c44.36,13.28,92.25-52.4,136.5-36.77"></path><path class="cls-2" d="M508.3,170.58c-.14,3.05-.27,6.1-.41,9.17-21.47-5.44-43.8,8.21-66.01,19.32-22.15,11.59-44.2,20.65-65.72,18.12l1.7-8.7c21.06,3.19,42.7-6.72,64.42-18.5,22.24-11.68,44.56-25.31,66.01-19.41"></path><path class="cls-2" d="M428.64,241.14c-.13,2.84-.25,5.67-.38,8.49-12.74,3.96-25.43,6.54-38.12,9.23l1.55-7.9c12.27-2.29,24.58-5.37,36.95-9.81"></path><path class="cls-2" d="M502.57,194.55c-20.54-1.83-41.74,10.99-62.79,20.49-21.54,10.39-42.92,17.33-63.99,17.21l1.71-8.75c20.58,1.25,41.57-6.7,62.68-17.49,21.08-10.24,42.29-23.3,62.8-20.84l-.42,9.38Z"></path><path class="cls-2" d="M473.95,216.16c-13.22,4.69-26.53,11.37-39.78,16.51-16.77,6.82-33.43,11.18-50,13.57l1.62-8.27c16.12-1.71,32.4-6.79,48.78-14.11,13.27-5.71,26.6-12.89,39.83-17.67l-.45,9.98Z"></path><path class="cls-2" d="M494.86,65.63c-.12,2.58-.23,5.19-.35,7.82-11.99,1.99-24.07,5.82-36.2,10.84l.39-8.63c12.11-4.5,24.16-7.86,36.17-10.02"></path><path class="cls-2" d="M474.84,56.85c5.73-1.48,11.47-2.84,17.2-4.23-.02,2.52-.04,5.06-.06,7.63-5.83,1.26-11.65,2.69-17.48,4.36l.35-7.77Z"></path><path class="cls-2" d="M500.73,131.24c-23.23-1.16-47.28,15.94-71.12,28.42l.41-9.15c23.84-12.51,47.87-29.06,71.11-28.07-.13,2.91-.26,5.84-.39,8.8"></path><path class="cls-2" d="M538.32,195.23h-6.22l-1.29,2.92h-1.72l5.3-11.7h1.65l5.32,11.7h-1.76l-1.29-2.92ZM537.74,193.9l-2.52-5.73-2.52,5.73h5.05Z"></path><path class="cls-2" d="M554.58,199.23c-.38.45-.82.79-1.32,1.02-.5.23-1.04.35-1.62.35-.74,0-1.42-.18-2.06-.53-.64-.35-1.37-.95-2.2-1.8-1.1-.06-2.1-.35-2.98-.89-.89-.54-1.58-1.25-2.07-2.13-.5-.89-.74-1.87-.74-2.95s.27-2.15.81-3.06c.54-.91,1.28-1.63,2.23-2.15.95-.52,2.01-.78,3.19-.78s2.23.26,3.18.78c.95.52,1.69,1.23,2.22,2.14.53.91.8,1.93.8,3.07,0,.96-.19,1.84-.58,2.64-.38.8-.92,1.48-1.62,2.02-.7.55-1.5.93-2.4,1.14.39.41.77.71,1.13.89.36.18.73.28,1.11.28.82,0,1.54-.33,2.14-1l.79.95ZM543.84,194.61c.4.69.94,1.22,1.64,1.61.7.39,1.47.58,2.33.58s1.62-.19,2.31-.58c.69-.39,1.23-.93,1.63-1.61.4-.69.59-1.45.59-2.3s-.2-1.61-.59-2.3c-.39-.69-.94-1.22-1.63-1.61-.69-.39-1.46-.59-2.31-.59s-1.64.2-2.33.59c-.7.39-1.24.93-1.64,1.61-.4.69-.59,1.45-.59,2.3s.2,1.61.59,2.3"></path><path class="cls-2" d="M557.5,196.96c-.87-.89-1.3-2.17-1.3-3.85v-6.65h1.67v6.59c0,2.51,1.1,3.76,3.29,3.76,1.07,0,1.89-.31,2.46-.93.57-.62.85-1.56.85-2.83v-6.59h1.62v6.65c0,1.68-.43,2.97-1.3,3.85-.87.89-2.08,1.33-3.64,1.33s-2.77-.44-3.64-1.34"></path><rect class="cls-2" x="569.24" y="186.46" width="1.67" height="11.7"></rect><polygon class="cls-2" points="581.24 187.91 577.23 187.91 577.23 186.46 586.91 186.46 586.91 187.91 582.9 187.91 582.9 198.16 581.24 198.16 581.24 187.91"></polygon><polygon class="cls-2" points="597.07 196.7 597.07 198.16 588.58 198.16 588.58 186.46 596.84 186.46 596.84 187.91 590.25 187.91 590.25 191.51 596.12 191.51 596.12 192.93 590.25 192.93 590.25 196.7 597.07 196.7"></polygon><polygon class="cls-2" points="610.17 198.16 610.16 189.63 605.93 196.74 605.16 196.74 600.93 189.68 600.93 198.16 599.33 198.16 599.33 186.46 600.7 186.46 605.58 194.68 610.39 186.46 611.76 186.46 611.78 198.16 610.17 198.16"></polygon><polygon class="cls-2" points="621.84 188.67 618.1 188.67 618.1 186.46 628.29 186.46 628.29 188.67 624.55 188.67 624.55 198.16 621.84 198.16 621.84 188.67"></polygon><path class="cls-2" d="M637.09,198.16l-2.26-3.26h-2.49v3.26h-2.71v-11.7h5.06c1.04,0,1.94.17,2.7.52.76.35,1.35.84,1.76,1.47.41.64.62,1.39.62,2.26s-.21,1.62-.63,2.25c-.42.63-1.01,1.11-1.78,1.45l2.62,3.76h-2.91ZM636.41,189.19c-.42-.35-1.04-.53-1.86-.53h-2.21v4.08h2.21c.81,0,1.43-.18,1.86-.53.42-.36.63-.86.63-1.5s-.21-1.16-.63-1.51"></path><path class="cls-2" d="M650.05,195.65h-5.43l-1.04,2.51h-2.77l5.22-11.7h2.67l5.23,11.7h-2.84l-1.04-2.51ZM649.2,193.6l-1.86-4.48-1.86,4.48h3.71Z"></path><path class="cls-2" d="M665.32,193.14c.38.5.57,1.11.57,1.83,0,1.03-.4,1.81-1.19,2.36-.8.55-1.96.83-3.48.83h-6.05v-11.7h5.72c1.43,0,2.52.27,3.29.82.76.55,1.14,1.29,1.14,2.22,0,.57-.14,1.08-.41,1.52-.27.44-.65.8-1.14,1.05.67.21,1.19.57,1.57,1.06M657.85,188.5v2.76h2.69c.67,0,1.18-.12,1.52-.35.35-.23.52-.58.52-1.04s-.17-.8-.52-1.03c-.35-.23-.85-.34-1.52-.34h-2.69ZM662.62,195.77c.36-.23.54-.6.54-1.09,0-.97-.72-1.45-2.16-1.45h-3.16v2.89h3.16c.71,0,1.25-.12,1.61-.35"></path><path class="cls-2" d="M675.53,195.65h-5.43l-1.04,2.51h-2.77l5.22-11.7h2.67l5.23,11.7h-2.84l-1.04-2.51ZM674.67,193.6l-1.86-4.48-1.86,4.48h3.71Z"></path><polygon class="cls-2" points="680.63 186.46 683.34 186.46 683.34 195.95 689.2 195.95 689.2 198.16 680.63 198.16 680.63 186.46"></polygon><polygon class="cls-2" points="701.31 186.46 701.31 198.16 698.6 198.16 698.6 193.36 693.29 193.36 693.29 198.16 690.58 198.16 690.58 186.46 693.29 186.46 693.29 191.07 698.6 191.07 698.6 186.46 701.31 186.46"></polygon><path class="cls-2" d="M706.48,197.57c-.98-.52-1.74-1.25-2.29-2.16-.55-.92-.83-1.95-.83-3.1s.28-2.18.83-3.1c.55-.92,1.31-1.64,2.29-2.17.97-.52,2.07-.79,3.28-.79s2.31.26,3.28.79c.97.52,1.73,1.25,2.29,2.17.56.92.84,1.95.84,3.1s-.28,2.18-.84,3.1c-.56.92-1.32,1.64-2.29,2.16-.97.52-2.06.79-3.28.79s-2.31-.26-3.28-.79M711.64,195.58c.56-.32.99-.76,1.31-1.33.32-.57.48-1.21.48-1.94s-.16-1.37-.48-1.94c-.32-.57-.76-1.01-1.31-1.33-.56-.32-1.18-.48-1.87-.48s-1.31.16-1.87.48c-.56.32-.99.76-1.31,1.33-.32.57-.48,1.22-.48,1.94s.16,1.37.48,1.94c.32.57.76,1.01,1.31,1.33.56.32,1.18.48,1.87.48s1.31-.16,1.87-.48"></path><path class="cls-2" d="M717.41,197.93c-.22-.22-.33-.49-.33-.83s.11-.59.33-.81c.22-.22.49-.33.8-.33s.57.11.79.32c.21.21.32.49.32.82s-.11.61-.33.83c-.22.22-.48.33-.78.33s-.58-.11-.8-.33"></path><path class="cls-2" d="M538.32,214.58h-6.22l-1.29,2.93h-1.72l5.3-11.7h1.65l5.32,11.7h-1.76l-1.29-2.93ZM537.74,213.24l-2.52-5.73-2.52,5.73h5.05Z"></path><path class="cls-2" d="M554.58,218.58c-.38.45-.82.79-1.32,1.02-.5.23-1.04.35-1.62.35-.74,0-1.42-.18-2.06-.53-.64-.35-1.37-.95-2.2-1.8-1.1-.06-2.1-.35-2.98-.89-.89-.54-1.58-1.25-2.07-2.13-.5-.89-.74-1.87-.74-2.95s.27-2.15.81-3.06c.54-.91,1.28-1.63,2.23-2.15.95-.52,2.01-.78,3.19-.78s2.23.26,3.18.78c.95.52,1.69,1.23,2.22,2.14.53.91.8,1.93.8,3.07,0,.96-.19,1.84-.58,2.64-.38.8-.92,1.48-1.62,2.02-.7.55-1.5.93-2.4,1.14.39.41.77.71,1.13.89.36.18.73.28,1.11.28.82,0,1.54-.33,2.14-1l.79.95ZM543.84,213.95c.4.69.94,1.22,1.64,1.61.7.39,1.47.58,2.33.58s1.62-.19,2.31-.58c.69-.39,1.23-.93,1.63-1.61.4-.69.59-1.45.59-2.3s-.2-1.61-.59-2.3c-.39-.69-.94-1.22-1.63-1.61-.69-.39-1.46-.59-2.31-.59s-1.64.2-2.33.59c-.7.39-1.24.93-1.64,1.61-.4.69-.59,1.45-.59,2.3s.2,1.61.59,2.3"></path><path class="cls-2" d="M557.5,216.3c-.87-.89-1.3-2.17-1.3-3.85v-6.65h1.67v6.59c0,2.51,1.1,3.76,3.29,3.76,1.07,0,1.89-.31,2.46-.93.57-.62.85-1.56.85-2.83v-6.59h1.62v6.65c0,1.68-.43,2.97-1.3,3.85-.87.89-2.08,1.33-3.64,1.33s-2.77-.44-3.64-1.34"></path><rect class="cls-2" x="569.24" y="205.81" width="1.67" height="11.7"></rect><polygon class="cls-2" points="581.24 207.26 577.23 207.26 577.23 205.81 586.91 205.81 586.91 207.26 582.9 207.26 582.9 217.51 581.24 217.51 581.24 207.26"></polygon><polygon class="cls-2" points="597.07 216.05 597.07 217.51 588.58 217.51 588.58 205.81 596.84 205.81 596.84 207.26 590.25 207.26 590.25 210.85 596.12 210.85 596.12 212.27 590.25 212.27 590.25 216.05 597.07 216.05"></polygon><polygon class="cls-2" points="610.17 217.51 610.16 208.98 605.93 216.09 605.16 216.09 600.93 209.03 600.93 217.51 599.33 217.51 599.33 205.81 600.7 205.81 605.58 214.03 610.39 205.81 611.76 205.81 611.78 217.51 610.17 217.51"></polygon><polygon class="cls-2" points="622.13 207.98 622.13 211.07 627.54 211.07 627.54 213.24 622.13 213.24 622.13 217.51 619.42 217.51 619.42 205.81 628.26 205.81 628.26 207.98 622.13 207.98"></polygon><path class="cls-2" d="M631.33,216.32c-.93-.92-1.4-2.24-1.4-3.96v-6.55h2.71v6.45c0,2.1.87,3.14,2.61,3.14.85,0,1.49-.25,1.94-.76.45-.51.67-1.3.67-2.38v-6.45h2.67v6.55c0,1.72-.47,3.04-1.4,3.96-.93.93-2.23,1.39-3.9,1.39s-2.97-.46-3.9-1.39"></path><polygon class="cls-2" points="645.58 208.01 641.83 208.01 641.83 205.81 652.03 205.81 652.03 208.01 648.28 208.01 648.28 217.51 645.58 217.51 645.58 208.01"></polygon><path class="cls-2" d="M654.72,216.32c-.93-.92-1.4-2.24-1.4-3.96v-6.55h2.71v6.45c0,2.1.87,3.14,2.61,3.14.85,0,1.49-.25,1.94-.76.45-.51.67-1.3.67-2.38v-6.45h2.67v6.55c0,1.72-.47,3.04-1.4,3.96-.93.93-2.23,1.39-3.9,1.39s-2.97-.46-3.9-1.39"></path><path class="cls-2" d="M674.04,217.51l-2.26-3.26h-2.49v3.26h-2.71v-11.7h5.06c1.04,0,1.94.17,2.7.52.76.35,1.35.84,1.76,1.47.41.64.62,1.39.62,2.26s-.21,1.62-.63,2.25c-.42.63-1.01,1.11-1.78,1.45l2.62,3.76h-2.91ZM673.35,208.54c-.42-.35-1.04-.53-1.86-.53h-2.21v4.08h2.21c.81,0,1.43-.18,1.86-.53.42-.36.63-.86.63-1.5s-.21-1.16-.63-1.51"></path><path class="cls-2" d="M681.17,216.92c-.98-.52-1.74-1.25-2.29-2.16-.55-.92-.83-1.95-.83-3.1s.28-2.18.83-3.1c.55-.92,1.31-1.64,2.29-2.17.97-.52,2.07-.79,3.28-.79s2.31.26,3.28.79c.97.52,1.73,1.25,2.29,2.17.56.92.84,1.95.84,3.1s-.28,2.18-.84,3.1c-.56.92-1.32,1.64-2.29,2.16-.97.52-2.06.79-3.28.79s-2.31-.26-3.28-.79M686.32,214.92c.56-.32.99-.76,1.31-1.33.32-.57.48-1.21.48-1.94s-.16-1.37-.48-1.94c-.32-.57-.75-1.01-1.31-1.33-.56-.32-1.18-.48-1.87-.48s-1.31.16-1.87.48c-.56.32-.99.76-1.31,1.33-.32.57-.48,1.22-.48,1.94s.16,1.37.48,1.94c.32.57.76,1.01,1.31,1.33.56.32,1.18.48,1.87.48s1.31-.16,1.87-.48"></path><path class="cls-2" d="M692.1,217.28c-.22-.22-.33-.49-.33-.83s.11-.59.33-.81c.22-.22.49-.33.8-.33s.57.11.79.32c.21.21.32.49.32.82s-.11.61-.33.83c-.22.22-.48.33-.78.33s-.58-.11-.8-.33"></path><path class="cls-2" d="M535.56,103.88c.97-.53,2.09-.79,3.34-.79,1.92,0,3.55.68,4.91,2.04l2.09-2.04c-.83-.95-1.86-1.67-3.08-2.16-1.22-.49-2.58-.74-4.07-.74-1.83,0-3.48.39-4.95,1.18-1.47.79-2.62,1.88-3.45,3.27-.83,1.39-1.25,2.96-1.25,4.71s.42,3.32,1.25,4.7c.83,1.39,1.98,2.48,3.43,3.27,1.46.79,3.09,1.18,4.91,1.18,1.29,0,2.54-.2,3.76-.59,1.22-.39,2.29-.95,3.21-1.68v-7.1h-3.13v5.54c-1.05.61-2.27.92-3.66.92-1.24,0-2.34-.27-3.32-.81-.98-.54-1.74-1.29-2.29-2.24-.55-.95-.83-2.02-.83-3.2s.28-2.31.83-3.26c.55-.95,1.31-1.69,2.29-2.21"></path><path class="cls-2" d="M564.26,101.38c-1.46-.79-3.09-1.18-4.91-1.18s-3.45.39-4.91,1.18c-1.46.79-2.6,1.88-3.43,3.28-.83,1.4-1.25,2.96-1.25,4.69s.42,3.29,1.25,4.69c.83,1.4,1.98,2.49,3.43,3.28,1.46.79,3.09,1.18,4.91,1.18s3.45-.39,4.91-1.18c1.46-.79,2.6-1.88,3.43-3.27.83-1.39,1.25-2.96,1.25-4.7s-.42-3.32-1.25-4.71c-.83-1.39-1.98-2.48-3.43-3.27M564.8,112.57c-.54.96-1.29,1.7-2.24,2.24-.95.53-2.02.8-3.2.8s-2.26-.27-3.2-.8c-.95-.53-1.7-1.28-2.24-2.24-.54-.96-.81-2.03-.81-3.22s.27-2.26.81-3.22c.54-.96,1.29-1.7,2.24-2.24.95-.53,2.02-.8,3.2-.8s2.25.27,3.2.8c.95.53,1.7,1.28,2.24,2.24.54.96.81,2.03.81,3.22s-.27,2.26-.81,3.22"></path><polygon class="cls-2" points="579.91 114.19 573.98 100.45 570.39 100.45 578.18 118.25 581.43 118.25 589.19 100.45 585.88 100.45 579.91 114.19"></polygon><polygon class="cls-2" points="595.4 110.57 603.99 110.57 603.99 107.85 595.4 107.85 595.4 103.22 605.09 103.22 605.09 100.45 592.09 100.45 592.09 118.25 605.44 118.25 605.44 115.48 595.4 115.48 595.4 110.57"></polygon><path class="cls-2" d="M624.07,110.24c.65-.97.98-2.12.98-3.46s-.31-2.43-.92-3.38c-.61-.95-1.49-1.68-2.63-2.19-1.14-.51-2.49-.76-4.03-.76h-7.33v17.8h3.31v-5.19h4.02c.31,0,.53,0,.69-.03l3.64,5.21h3.56l-4.1-5.85c1.22-.48,2.16-1.2,2.81-2.16M617.32,110.34h-3.87v-7.1h3.87c1.44,0,2.53.31,3.28.92.75.61,1.12,1.48,1.12,2.62s-.37,2.01-1.12,2.63c-.75.62-1.84.93-3.28.93"></path><polygon class="cls-2" points="642.3 112.51 632.48 100.45 629.76 100.45 629.76 118.25 633.04 118.25 633.04 106.2 642.86 118.25 645.58 118.25 645.58 100.45 642.3 100.45 642.3 112.51"></polygon><path class="cls-2" d="M664.6,101.38c-1.46-.79-3.09-1.18-4.91-1.18s-3.45.39-4.91,1.18c-1.46.79-2.6,1.88-3.43,3.28-.83,1.4-1.25,2.96-1.25,4.69s.42,3.29,1.25,4.69c.83,1.4,1.98,2.49,3.43,3.28,1.46.79,3.09,1.18,4.91,1.18s3.45-.39,4.91-1.18c1.46-.79,2.6-1.88,3.43-3.27.83-1.39,1.25-2.96,1.25-4.7s-.42-3.32-1.25-4.71c-.83-1.39-1.98-2.48-3.43-3.27M665.14,112.57c-.54.96-1.29,1.7-2.24,2.24-.95.53-2.02.8-3.2.8s-2.26-.27-3.2-.8c-.95-.53-1.7-1.28-2.24-2.24-.54-.96-.81-2.03-.81-3.22s.27-2.26.81-3.22c.54-.96,1.29-1.7,2.24-2.24.95-.53,2.02-.8,3.2-.8s2.25.27,3.2.8c.95.53,1.7,1.28,2.24,2.24.54.96.81,2.03.81,3.22s-.27,2.26-.81,3.22"></path><path class="cls-2" d="M694.69,101.56c-1.47-.74-3.16-1.11-5.06-1.11h-7.78v17.8h7.78c1.9,0,3.59-.37,5.06-1.11,1.48-.74,2.62-1.78,3.43-3.13.81-1.35,1.22-2.9,1.22-4.67s-.41-3.32-1.22-4.67c-.81-1.35-1.96-2.39-3.43-3.13M695.21,112.57c-.53.92-1.3,1.64-2.29,2.14-.99.5-2.14.75-3.45.75h-4.32v-12.21h4.32c1.31,0,2.45.25,3.45.75s1.76,1.21,2.29,2.14c.53.92.8,2,.8,3.22s-.27,2.29-.8,3.22"></path><path class="cls-2" d="M720.53,104.65c-.83-1.39-1.98-2.48-3.43-3.27-1.46-.79-3.09-1.18-4.91-1.18s-3.45.39-4.91,1.18c-1.46.79-2.6,1.88-3.43,3.28-.83,1.4-1.25,2.96-1.25,4.69s.42,3.29,1.25,4.69c.83,1.4,1.98,2.49,3.43,3.28,1.46.79,3.09,1.18,4.91,1.18s3.45-.39,4.91-1.18c1.46-.79,2.6-1.88,3.43-3.27.83-1.39,1.25-2.96,1.25-4.7s-.42-3.32-1.25-4.71M717.63,112.57c-.54.96-1.29,1.7-2.24,2.24-.95.53-2.02.8-3.2.8s-2.26-.27-3.2-.8c-.95-.53-1.7-1.28-2.24-2.24-.54-.96-.81-2.03-.81-3.22s.27-2.26.81-3.22c.54-.96,1.29-1.7,2.24-2.24.95-.53,2.02-.8,3.2-.8s2.25.27,3.2.8c.95.53,1.7,1.28,2.24,2.24.54.96.81,2.03.81,3.22s-.27,2.26-.81,3.22"></path><path class="cls-2" d="M564.91,127.64c3.44,1.55,6.1,3.76,7.97,6.64,1.87,2.88,2.8,6.26,2.8,10.15s-.94,7.26-2.8,10.11c-1.87,2.85-4.53,5.05-7.97,6.6-3.44,1.55-7.5,2.32-12.18,2.32h-9v13.5h-14.61v-51.66h23.61c4.67,0,8.73.78,12.18,2.32M558.64,150c1.52-1.3,2.29-3.16,2.29-5.57s-.76-4.28-2.29-5.61c-1.53-1.33-3.79-1.99-6.79-1.99h-8.12v15.13h8.12c3,0,5.26-.65,6.79-1.96"></path><rect class="cls-2" x="578.34" y="125.32" width="14.61" height="51.66"></rect><path class="cls-2" d="M636.49,166.94h-21.84l-4.06,10.04h-14.91l22.8-51.66h14.39l22.88,51.66h-15.2l-4.06-10.04ZM632.21,156.17l-6.64-16.53-6.64,16.53h13.28Z"></path><path class="cls-2" d="M658.81,171.74c-4.26-4.18-6.38-10.11-6.38-17.78v-28.63h14.61v28.19c0,8.27,3.27,12.4,9.81,12.4s9.74-4.13,9.74-12.4v-28.19h14.39v28.63c0,7.67-2.13,13.6-6.38,17.78-4.26,4.18-10.22,6.27-17.9,6.27s-13.64-2.09-17.9-6.27"></path><polygon class="cls-2" points="719.58 125.32 719.58 125.32 704.97 125.32 704.97 134.71 719.58 125.32"></polygon><polygon class="cls-2" points="704.97 138.95 704.97 176.98 719.58 176.98 719.58 129.56 704.97 138.95"></polygon><rect class="cls-2" x="539.79" y="109.15" width="5.88" height="2.61"></rect></g><g><g><path class="cls-2" d="M145.6,114.42c-1.16,0-2.28-.19-3.34-.57-1.07-.38-1.89-.87-2.47-1.46l.65-1.27c.55.54,1.29.99,2.22,1.35.93.37,1.91.55,2.94.55s1.78-.12,2.4-.37c.62-.25,1.07-.58,1.36-.99s.44-.88.44-1.39c0-.61-.18-1.1-.52-1.47-.35-.37-.81-.67-1.37-.88-.57-.22-1.19-.41-1.88-.57-.69-.16-1.37-.34-2.06-.52-.69-.19-1.31-.44-1.89-.75-.57-.31-1.04-.73-1.39-1.24-.35-.51-.53-1.19-.53-2.02,0-.77.2-1.49.61-2.13.41-.65,1.04-1.17,1.89-1.56s1.94-.59,3.26-.59c.88,0,1.75.12,2.61.37.86.25,1.61.58,2.23,1.02l-.56,1.32c-.67-.45-1.38-.78-2.13-.98-.75-.21-1.48-.31-2.18-.31-.94,0-1.71.13-2.32.38-.61.25-1.06.59-1.35,1.02-.29.42-.44.9-.44,1.44,0,.61.17,1.1.52,1.48s.81.66,1.39.87c.57.21,1.2.4,1.89.56.69.16,1.37.34,2.04.54.68.19,1.3.44,1.88.75.57.31,1.04.71,1.39,1.22.35.51.53,1.17.53,1.99,0,.76-.21,1.46-.63,2.11s-1.05,1.17-1.91,1.56c-.86.39-1.96.59-3.3.59Z"></path><path class="cls-2" d="M156.69,112.86h9.41v1.43h-11.06v-15.64h10.73v1.43h-9.07v12.78ZM156.51,105.64h8.27v1.41h-8.27v-1.41Z"></path><path class="cls-2" d="M176.77,114.42c-1.18,0-2.26-.2-3.26-.59s-1.86-.95-2.59-1.67-1.3-1.56-1.71-2.53c-.41-.97-.61-2.03-.61-3.17s.2-2.21.61-3.17c.41-.97.98-1.81,1.72-2.53.74-.71,1.61-1.27,2.6-1.67s2.09-.59,3.26-.59,2.2.19,3.2.57,1.84.95,2.53,1.71l-1.05,1.05c-.64-.66-1.35-1.13-2.12-1.42-.77-.29-1.61-.44-2.5-.44-.94,0-1.81.16-2.61.48-.8.32-1.5.77-2.1,1.36-.6.59-1.06,1.27-1.4,2.06-.33.78-.5,1.64-.5,2.58s.17,1.8.5,2.58c.34.78.8,1.47,1.4,2.06.6.59,1.3,1.04,2.1,1.36.8.32,1.68.48,2.61.48s1.73-.15,2.5-.45c.77-.3,1.48-.77,2.12-1.43l1.05,1.05c-.69.76-1.53,1.33-2.53,1.72-1,.39-2.07.58-3.22.58Z"></path><path class="cls-2" d="M186.05,114.29v-15.64h5.85c1.33,0,2.47.21,3.42.64.95.42,1.69,1.04,2.2,1.83s.77,1.76.77,2.89-.26,2.05-.77,2.85c-.51.8-1.25,1.41-2.2,1.83-.95.42-2.09.64-3.42.64h-4.94l.74-.76v5.72h-1.65ZM187.7,108.7l-.74-.78h4.89c1.56,0,2.75-.34,3.56-1.03s1.22-1.65,1.22-2.88-.41-2.22-1.22-2.91c-.81-.68-2-1.03-3.56-1.03h-4.89l.74-.78v9.41ZM196.73,114.29l-4.02-5.68h1.79l4.04,5.68h-1.81Z"></path><path class="cls-2" d="M203.86,112.86h9.41v1.43h-11.06v-15.64h10.73v1.43h-9.07v12.78ZM203.68,105.64h8.27v1.41h-8.27v-1.41Z"></path><path class="cls-2" d="M220.19,114.29v-14.21h-5.5v-1.43h12.65v1.43h-5.5v14.21h-1.65Z"></path></g><g><path class="cls-2" d="M228.04,114.29l7.15-15.64h1.63l7.15,15.64h-1.74l-6.57-14.68h.67l-6.57,14.68h-1.72ZM230.85,110.11l.49-1.34h9.1l.49,1.34h-10.08Z"></path><path class="cls-2" d="M246.56,114.29v-15.64h5.85c1.33,0,2.47.21,3.42.64.95.42,1.69,1.04,2.2,1.83s.77,1.76.77,2.89-.26,2.05-.77,2.85c-.51.8-1.25,1.41-2.2,1.83-.95.42-2.09.64-3.42.64h-4.94l.74-.76v5.72h-1.65ZM248.22,108.7l-.74-.78h4.89c1.56,0,2.75-.34,3.56-1.03s1.22-1.65,1.22-2.88-.41-2.22-1.22-2.91c-.81-.68-2-1.03-3.56-1.03h-4.89l.74-.78v9.41ZM257.25,114.29l-4.02-5.68h1.79l4.04,5.68h-1.81Z"></path><path class="cls-2" d="M262.72,114.29v-15.64h1.65v15.64h-1.65Z"></path><path class="cls-2" d="M266.97,114.29l7.15-15.64h1.63l7.15,15.64h-1.74l-6.57-14.68h.67l-6.57,14.68h-1.72ZM269.78,110.11l.49-1.34h9.1l.49,1.34h-10.08Z"></path><path class="cls-2" d="M291.35,114.29v-15.64h6.37c1.67,0,3.13.33,4.39.99,1.26.66,2.24,1.58,2.94,2.76.7,1.18,1.05,2.53,1.05,4.07s-.35,2.89-1.05,4.07c-.7,1.18-1.68,2.1-2.94,2.76s-2.72.99-4.39.99h-6.37ZM293,112.86h4.63c1.39,0,2.59-.27,3.61-.82,1.02-.54,1.81-1.3,2.38-2.26.57-.96.85-2.07.85-3.32s-.28-2.38-.85-3.33c-.57-.95-1.36-1.7-2.38-2.25-1.02-.54-2.22-.82-3.61-.82h-4.63v12.78Z"></path><path class="cls-2" d="M311.46,112.86h9.41v1.43h-11.06v-15.64h10.73v1.43h-9.07v12.78ZM311.28,105.64h8.27v1.41h-8.27v-1.41Z"></path></g><g><path class="cls-2" d="M22.99,139.03v-15.64h3.64v15.64h-3.64Z"></path><path class="cls-2" d="M30.32,139.03v-15.64h2.99l9.23,11.26h-1.45v-11.26h3.58v15.64h-2.99l-9.23-11.26h1.45v11.26h-3.58Z"></path><path class="cls-2" d="M51.61,139.03v-12.69h-5.01v-2.95h13.63v2.95h-5.01v12.69h-3.62Z"></path><path class="cls-2" d="M65.78,136.13h8.51v2.91h-12.11v-15.64h11.82v2.91h-8.22v9.83ZM65.51,129.67h7.53v2.84h-7.53v-2.84Z"></path><path class="cls-2" d="M77.18,139.03v-15.64h3.64v12.69h7.8v2.95h-11.44Z"></path><path class="cls-2" d="M90.67,139.03v-15.64h3.64v15.64h-3.64Z"></path><path class="cls-2" d="M105.56,139.3c-1.24,0-2.38-.2-3.42-.59-1.04-.39-1.94-.96-2.7-1.69-.76-.73-1.35-1.59-1.78-2.57-.42-.98-.64-2.06-.64-3.24s.21-2.26.64-3.24c.42-.98,1.02-1.84,1.8-2.57.77-.73,1.68-1.29,2.73-1.69,1.04-.39,2.19-.59,3.44-.59,1.39,0,2.63.23,3.74.69s2.04,1.13,2.8,2.01l-2.3,2.15c-.58-.61-1.21-1.06-1.88-1.35-.67-.29-1.41-.44-2.21-.44-.75,0-1.43.12-2.06.37-.63.25-1.17.59-1.62,1.04-.45.45-.8.98-1.05,1.59-.25.61-.37,1.29-.37,2.03s.12,1.38.37,2c.25.62.6,1.15,1.05,1.6.45.45.99.8,1.61,1.05.62.25,1.3.38,2.04.38s1.41-.12,2.09-.36,1.34-.63,1.98-1.18l2.06,2.61c-.86.66-1.85,1.15-2.97,1.49-1.12.33-2.23.5-3.35.5ZM108.57,136.84v-5.88h3.31v6.35l-3.31-.47Z"></path><path class="cls-2" d="M118.83,136.13h8.51v2.91h-12.11v-15.64h11.82v2.91h-8.22v9.83ZM116.66,122.12l2.95-3.22h3.08l2.95,3.22h-2.55l-3.11-2.66h2.32l-3.11,2.66h-2.55ZM118.56,129.67h7.53v2.84h-7.53v-2.84Z"></path><path class="cls-2" d="M130.23,139.03v-15.64h2.99l9.23,11.26h-1.45v-11.26h3.58v15.64h-2.99l-9.23-11.26h1.45v11.26h-3.58Z"></path><path class="cls-2" d="M155.77,139.3c-1.21,0-2.33-.2-3.36-.59s-1.93-.96-2.69-1.69c-.76-.73-1.35-1.59-1.78-2.57-.42-.98-.64-2.06-.64-3.24s.21-2.26.64-3.24c.42-.98,1.02-1.84,1.79-2.57.77-.73,1.67-1.29,2.7-1.69,1.04-.39,2.16-.59,3.36-.59,1.36,0,2.58.24,3.69.7,1.1.47,2.03,1.16,2.77,2.07l-2.35,2.15c-.52-.61-1.11-1.07-1.78-1.39s-1.38-.47-2.16-.47c-.73,0-1.4.12-2.01.37s-1.14.59-1.59,1.04c-.45.45-.79.98-1.04,1.59-.25.61-.37,1.29-.37,2.03s.12,1.42.37,2.03c.25.61.59,1.14,1.04,1.59.45.45.98.79,1.59,1.04s1.28.37,2.01.37c.77,0,1.49-.16,2.16-.48s1.25-.79,1.78-1.4l2.35,2.15c-.75.91-1.67,1.6-2.77,2.08s-2.34.72-3.71.72Z"></path><path class="cls-2" d="M164.66,139.03v-15.64h3.64v15.64h-3.64Z"></path><path class="cls-2" d="M169.94,139.03l6.95-15.64h3.58l7.02,15.64h-3.8l-5.74-13.81h1.45l-5.74,13.81h-3.71ZM173.44,135.68l.92-2.75h8.09l.94,2.75h-9.94Z"></path><path class="cls-2" d="M193.38,139.03l6.95-15.64h3.58l7.02,15.64h-3.8l-5.74-13.81h1.45l-5.74,13.81h-3.71ZM196.88,135.68l.92-2.75h8.09l.94,2.75h-9.94Z"></path><path class="cls-2" d="M212.55,139.03v-15.64h6.77c1.4,0,2.61.23,3.62.68,1.01.45,1.79,1.11,2.35,1.96.55.85.83,1.85.83,3.02s-.28,2.19-.83,3.03c-.55.84-1.33,1.48-2.35,1.92-1.01.44-2.22.66-3.62.66h-4.78l1.65-1.56v5.94h-3.64ZM216.19,133.49l-1.65-1.72h4.58c1.1,0,1.94-.24,2.5-.71.57-.48.85-1.15.85-2.01s-.28-1.53-.85-2c-.57-.47-1.4-.7-2.5-.7h-4.58l1.65-1.72v8.87ZM222.52,139.03l-3.93-5.68h3.89l3.93,5.68h-3.89Z"></path><path class="cls-2" d="M232.21,139.03v-12.69h-5.01v-2.95h13.63v2.95h-5.01v12.69h-3.62Z"></path><path class="cls-2" d="M242.78,139.03v-15.64h3.64v15.64h-3.64Z"></path><path class="cls-2" d="M253.76,139.03h-3.64v-15.64h11.82v2.91h-8.18v12.74ZM253.47,130.43h7.51v2.91h-7.51v-2.91Z"></path><path class="cls-2" d="M264.39,139.03v-15.64h3.64v15.64h-3.64Z"></path><path class="cls-2" d="M279.21,139.3c-1.21,0-2.33-.2-3.36-.59s-1.93-.96-2.69-1.69c-.76-.73-1.35-1.59-1.78-2.57-.42-.98-.64-2.06-.64-3.24s.21-2.26.64-3.24c.42-.98,1.02-1.84,1.79-2.57.77-.73,1.67-1.29,2.7-1.69,1.04-.39,2.16-.59,3.36-.59,1.36,0,2.58.24,3.69.7,1.1.47,2.03,1.16,2.77,2.07l-2.35,2.15c-.52-.61-1.11-1.07-1.78-1.39s-1.38-.47-2.16-.47c-.73,0-1.4.12-2.01.37s-1.14.59-1.59,1.04c-.45.45-.79.98-1.04,1.59-.25.61-.37,1.29-.37,2.03s.12,1.42.37,2.03c.25.61.59,1.14,1.04,1.59.45.45.98.79,1.59,1.04s1.28.37,2.01.37c.77,0,1.49-.16,2.16-.48s1.25-.79,1.78-1.4l2.35,2.15c-.75.91-1.67,1.6-2.77,2.08s-2.34.72-3.71.72Z"></path><path class="cls-2" d="M288.1,139.03v-15.64h3.64v15.64h-3.64Z"></path><path class="cls-2" d="M293.38,139.03l6.95-15.64h3.58l7.02,15.64h-3.8l-5.74-13.81h1.45l-5.74,13.81h-3.71ZM296.88,135.68l.92-2.75h8.09l.94,2.75h-9.94Z"></path><path class="cls-2" d="M312.55,139.03v-15.64h3.64v12.69h7.8v2.95h-11.44Z"></path></g><g><path class="cls-2" d="M99.79,158.34h8.51v2.91h-12.11v-15.64h11.82v2.91h-8.22v9.83ZM99.52,151.88h7.53v2.84h-7.53v-2.84Z"></path><path class="cls-2" d="M118.67,161.51c-1.21,0-2.33-.2-3.36-.59s-1.93-.96-2.69-1.69c-.76-.73-1.35-1.59-1.78-2.57-.42-.98-.64-2.06-.64-3.24s.21-2.26.64-3.24c.42-.98,1.02-1.84,1.79-2.57.77-.73,1.67-1.29,2.7-1.69,1.04-.39,2.16-.59,3.36-.59,1.36,0,2.58.24,3.69.7,1.1.47,2.03,1.16,2.77,2.07l-2.35,2.15c-.52-.61-1.11-1.07-1.78-1.39s-1.38-.47-2.16-.47c-.73,0-1.4.12-2.01.37s-1.14.59-1.59,1.04c-.45.45-.79.98-1.04,1.59-.25.61-.37,1.29-.37,2.03s.12,1.42.37,2.03c.25.61.59,1.14,1.04,1.59.45.45.98.79,1.59,1.04s1.28.37,2.01.37c.77,0,1.49-.16,2.16-.48s1.25-.79,1.78-1.4l2.35,2.15c-.75.91-1.67,1.6-2.77,2.08s-2.34.72-3.71.72Z"></path></g><g><path class="cls-2" d="M134.23,161.51c-1.24,0-2.38-.2-3.42-.6-1.04-.4-1.95-.97-2.73-1.7-.77-.73-1.37-1.59-1.8-2.57-.42-.98-.64-2.06-.64-3.22s.21-2.25.64-3.23c.42-.98,1.02-1.83,1.8-2.56.77-.73,1.68-1.3,2.72-1.7,1.04-.4,2.17-.6,3.41-.6s2.37.2,3.41.59,1.94.96,2.72,1.69c.77.73,1.37,1.59,1.8,2.57.42.98.64,2.06.64,3.24s-.21,2.24-.64,3.23c-.42.99-1.02,1.85-1.8,2.58-.77.73-1.68,1.29-2.72,1.69s-2.16.59-3.39.59ZM134.21,158.45c.7,0,1.34-.12,1.93-.37.59-.25,1.11-.6,1.55-1.05.45-.46.79-.98,1.04-1.59.25-.6.37-1.28.37-2.02s-.12-1.42-.37-2.02c-.25-.6-.59-1.13-1.04-1.59-.45-.45-.96-.8-1.55-1.05-.59-.25-1.23-.37-1.93-.37s-1.35.12-1.94.37c-.6.25-1.11.6-1.55,1.05-.44.46-.78.98-1.03,1.59-.25.6-.37,1.28-.37,2.02s.12,1.42.37,2.02c.25.6.59,1.13,1.03,1.59.44.45.96.8,1.55,1.05.6.25,1.24.37,1.94.37Z"></path><path class="cls-2" d="M145.49,161.25v-15.64h2.99l9.23,11.26h-1.45v-11.26h3.58v15.64h-2.99l-9.23-11.26h1.45v11.26h-3.58Z"></path><path class="cls-2" d="M171.14,161.51c-1.24,0-2.38-.2-3.42-.6-1.04-.4-1.95-.97-2.73-1.7-.77-.73-1.37-1.59-1.8-2.57-.42-.98-.64-2.06-.64-3.22s.21-2.25.64-3.23c.42-.98,1.02-1.83,1.8-2.56.77-.73,1.68-1.3,2.72-1.7,1.04-.4,2.17-.6,3.41-.6s2.37.2,3.41.59,1.94.96,2.72,1.69c.77.73,1.37,1.59,1.8,2.57.42.98.64,2.06.64,3.24s-.21,2.24-.64,3.23c-.42.99-1.02,1.85-1.8,2.58-.77.73-1.68,1.29-2.72,1.69s-2.16.59-3.39.59ZM171.12,158.45c.7,0,1.34-.12,1.93-.37.59-.25,1.11-.6,1.55-1.05.45-.46.79-.98,1.04-1.59.25-.6.37-1.28.37-2.02s-.12-1.42-.37-2.02c-.25-.6-.59-1.13-1.04-1.59-.45-.45-.96-.8-1.55-1.05-.59-.25-1.23-.37-1.93-.37s-1.35.12-1.94.37c-.6.25-1.11.6-1.55,1.05-.44.46-.78.98-1.03,1.59-.25.6-.37,1.28-.37,2.02s.12,1.42.37,2.02c.25.6.59,1.13,1.03,1.59.44.45.96.8,1.55,1.05.6.25,1.24.37,1.94.37Z"></path><path class="cls-2" d="M182.41,161.25v-15.64h2.99l6.66,11.04h-1.59l6.53-11.04h3.02v15.64h-3.37l-.04-10.44h.67l-5.27,8.76h-1.61l-5.34-8.76h.74v10.44h-3.37Z"></path><path class="cls-2" d="M203.75,161.25v-15.64h3.64v15.64h-3.64Z"></path><path class="cls-2" d="M209.02,161.25l6.95-15.64h3.58l7.02,15.64h-3.8l-5.74-13.81h1.45l-5.74,13.81h-3.71ZM212.53,157.89l.92-2.75h8.09l.94,2.75h-9.94Z"></path><path class="cls-2" d="M234.52,161.25v-15.64h7.11c1.7,0,3.2.32,4.49.97,1.3.65,2.31,1.56,3.04,2.73.73,1.17,1.1,2.54,1.1,4.12s-.37,2.95-1.1,4.12-1.74,2.08-3.04,2.73c-1.3.65-2.79.97-4.49.97h-7.11ZM238.16,158.3h3.29c1.04,0,1.95-.2,2.71-.59.77-.39,1.36-.96,1.79-1.7.42-.74.64-1.6.64-2.58s-.21-1.86-.64-2.59c-.42-.73-1.02-1.29-1.79-1.69-.77-.39-1.67-.59-2.71-.59h-3.29v9.74Z"></path><path class="cls-2" d="M252.98,161.25v-15.64h3.64v15.64h-3.64Z"></path><path class="cls-2" d="M267.86,161.51c-1.24,0-2.38-.2-3.42-.59-1.04-.39-1.94-.96-2.7-1.69-.76-.73-1.35-1.59-1.78-2.57-.42-.98-.64-2.06-.64-3.24s.21-2.26.64-3.24c.42-.98,1.02-1.84,1.8-2.57.77-.73,1.68-1.29,2.73-1.69,1.04-.39,2.19-.59,3.44-.59,1.39,0,2.63.23,3.74.69s2.04,1.13,2.8,2.01l-2.3,2.15c-.58-.61-1.21-1.06-1.88-1.35-.67-.29-1.41-.44-2.21-.44-.75,0-1.43.12-2.06.37-.63.25-1.17.59-1.62,1.04-.45.45-.8.98-1.05,1.59-.25.61-.37,1.29-.37,2.03s.12,1.38.37,2c.25.62.6,1.15,1.05,1.6.45.45.99.8,1.61,1.05.62.25,1.3.38,2.04.38s1.41-.12,2.09-.36,1.34-.63,1.98-1.18l2.06,2.61c-.86.66-1.85,1.15-2.97,1.49-1.12.33-2.23.5-3.35.5ZM270.88,159.06v-5.88h3.31v6.35l-3.31-.47Z"></path><path class="cls-2" d="M277.53,161.25v-15.64h3.64v15.64h-3.64Z"></path><path class="cls-2" d="M288.1,161.25v-12.69h-5.01v-2.95h13.63v2.95h-5.01v12.69h-3.62Z"></path></g><g><path class="cls-2" d="M294.29,161.25l6.95-15.64h3.58l7.02,15.64h-3.8l-5.74-13.81h1.45l-5.74,13.81h-3.71ZM297.8,157.89l.92-2.75h8.09l.94,2.75h-9.94Z"></path><path class="cls-2" d="M313.47,161.25v-15.64h3.64v12.69h7.8v2.95h-11.44Z"></path><path class="cls-2" d="M326.09,164.69l1.47-5.36.49,2.03c-.63,0-1.14-.19-1.55-.57s-.61-.89-.61-1.53.21-1.2.63-1.6c.42-.39.93-.59,1.54-.59s1.14.2,1.54.6.6.93.6,1.59c0,.18-.02.36-.04.55s-.09.41-.17.66c-.08.25-.21.59-.39,1.01l-1.27,3.22h-2.23Z"></path></g><g><path class="cls-2" d="M74.38,185.92c-1.21,0-2.33-.2-3.36-.59s-1.93-.96-2.69-1.69c-.76-.73-1.35-1.59-1.78-2.57-.42-.98-.64-2.06-.64-3.24s.21-2.26.64-3.24c.42-.98,1.02-1.84,1.79-2.57.77-.73,1.67-1.29,2.7-1.69,1.04-.39,2.16-.59,3.36-.59,1.36,0,2.58.24,3.69.7,1.1.47,2.03,1.16,2.77,2.07l-2.35,2.15c-.52-.61-1.11-1.07-1.78-1.39s-1.38-.47-2.16-.47c-.73,0-1.4.12-2.01.37s-1.14.59-1.59,1.04c-.45.45-.79.98-1.04,1.59-.25.61-.37,1.29-.37,2.03s.12,1.42.37,2.03c.25.61.59,1.14,1.04,1.59.45.45.98.79,1.59,1.04s1.28.37,2.01.37c.77,0,1.49-.16,2.16-.48s1.25-.79,1.78-1.4l2.35,2.15c-.75.91-1.67,1.6-2.77,2.08s-2.34.72-3.71.72Z"></path><path class="cls-2" d="M83.28,185.65v-15.64h3.64v15.64h-3.64Z"></path><path class="cls-2" d="M94.2,182.75h8.51v2.91h-12.11v-15.64h11.82v2.91h-8.22v9.83ZM92.04,168.73l2.95-3.22h3.08l2.95,3.22h-2.55l-3.11-2.66h2.32l-3.11,2.66h-2.55ZM93.94,176.29h7.53v2.84h-7.53v-2.84Z"></path><path class="cls-2" d="M105.6,185.65v-15.64h2.99l9.23,11.26h-1.45v-11.26h3.58v15.64h-2.99l-9.23-11.26h1.45v11.26h-3.58Z"></path><path class="cls-2" d="M131.14,185.92c-1.21,0-2.33-.2-3.36-.59s-1.93-.96-2.69-1.69c-.76-.73-1.35-1.59-1.78-2.57-.42-.98-.64-2.06-.64-3.24s.21-2.26.64-3.24c.42-.98,1.02-1.84,1.79-2.57.77-.73,1.67-1.29,2.7-1.69,1.04-.39,2.16-.59,3.36-.59,1.36,0,2.58.24,3.69.7,1.1.47,2.03,1.16,2.77,2.07l-2.35,2.15c-.52-.61-1.11-1.07-1.78-1.39s-1.38-.47-2.16-.47c-.73,0-1.4.12-2.01.37s-1.14.59-1.59,1.04c-.45.45-.79.98-1.04,1.59-.25.61-.37,1.29-.37,2.03s.12,1.42.37,2.03c.25.61.59,1.14,1.04,1.59.45.45.98.79,1.59,1.04s1.28.37,2.01.37c.77,0,1.49-.16,2.16-.48s1.25-.79,1.78-1.4l2.35,2.15c-.75.91-1.67,1.6-2.77,2.08s-2.34.72-3.71.72Z"></path><path class="cls-2" d="M140.04,185.65v-15.64h3.64v15.64h-3.64Z"></path><path class="cls-2" d="M145.31,185.65l6.95-15.64h3.58l7.02,15.64h-3.8l-5.74-13.81h1.45l-5.74,13.81h-3.71ZM148.82,182.3l.92-2.75h8.09l.94,2.75h-9.94Z"></path></g><text class="cls-1" transform="translate(160.78 185.65)"><tspan x="0" y="0">, </tspan></text><g><path class="cls-2" d="M177.49,185.65v-12.69h-5.01v-2.95h13.63v2.95h-5.01v12.69h-3.62Z"></path><path class="cls-2" d="M191.66,182.75h8.51v2.91h-12.11v-15.64h11.82v2.91h-8.22v9.83ZM191.39,176.29h7.53v2.84h-7.53v-2.84Z"></path><path class="cls-2" d="M210.54,185.92c-1.21,0-2.33-.2-3.36-.59s-1.93-.96-2.69-1.69c-.76-.73-1.35-1.59-1.78-2.57-.42-.98-.64-2.06-.64-3.24s.21-2.26.64-3.24c.42-.98,1.02-1.84,1.79-2.57.77-.73,1.67-1.29,2.7-1.69,1.04-.39,2.16-.59,3.36-.59,1.36,0,2.58.24,3.69.7,1.1.47,2.03,1.16,2.77,2.07l-2.35,2.15c-.52-.61-1.11-1.07-1.78-1.39s-1.38-.47-2.16-.47c-.73,0-1.4.12-2.01.37s-1.14.59-1.59,1.04c-.45.45-.79.98-1.04,1.59-.25.61-.37,1.29-.37,2.03s.12,1.42.37,2.03c.25.61.59,1.14,1.04,1.59.45.45.98.79,1.59,1.04s1.28.37,2.01.37c.77,0,1.49-.16,2.16-.48s1.25-.79,1.78-1.4l2.35,2.15c-.75.91-1.67,1.6-2.77,2.08s-2.34.72-3.71.72Z"></path><path class="cls-2" d="M219.43,185.65v-15.64h2.99l9.23,11.26h-1.45v-11.26h3.58v15.64h-2.99l-9.23-11.26h1.45v11.26h-3.58Z"></path><path class="cls-2" d="M245.09,185.92c-1.24,0-2.38-.2-3.42-.6-1.04-.4-1.95-.97-2.73-1.7-.77-.73-1.37-1.59-1.8-2.57-.42-.98-.64-2.06-.64-3.22s.21-2.25.64-3.23c.42-.98,1.02-1.83,1.8-2.56.77-.73,1.68-1.3,2.72-1.7,1.04-.4,2.17-.6,3.41-.6s2.37.2,3.41.59,1.94.96,2.72,1.69c.77.73,1.37,1.59,1.8,2.57.42.98.64,2.06.64,3.24s-.21,2.24-.64,3.23c-.42.99-1.02,1.85-1.8,2.58-.77.73-1.68,1.29-2.72,1.69s-2.16.59-3.39.59ZM245.06,182.86c.7,0,1.34-.12,1.93-.37.59-.25,1.11-.6,1.55-1.05.45-.46.79-.98,1.04-1.59.25-.6.37-1.28.37-2.02s-.12-1.42-.37-2.02c-.25-.6-.59-1.13-1.04-1.59-.45-.45-.96-.8-1.55-1.05-.59-.25-1.23-.37-1.93-.37s-1.35.12-1.94.37c-.6.25-1.11.6-1.55,1.05-.44.46-.78.98-1.03,1.59-.25.6-.37,1.28-.37,2.02s.12,1.42.37,2.02c.25.6.59,1.13,1.03,1.59.44.45.96.8,1.55,1.05.6.25,1.24.37,1.94.37Z"></path><path class="cls-2" d="M256.35,185.65v-15.64h3.64v12.69h7.8v2.95h-11.44Z"></path><path class="cls-2" d="M277.44,185.92c-1.24,0-2.38-.2-3.42-.6-1.04-.4-1.95-.97-2.73-1.7-.77-.73-1.37-1.59-1.8-2.57-.42-.98-.64-2.06-.64-3.22s.21-2.25.64-3.23c.42-.98,1.02-1.83,1.8-2.56.77-.73,1.68-1.3,2.72-1.7,1.04-.4,2.17-.6,3.41-.6s2.37.2,3.41.59,1.94.96,2.72,1.69c.77.73,1.37,1.59,1.8,2.57.42.98.64,2.06.64,3.24s-.21,2.24-.64,3.23c-.42.99-1.02,1.85-1.8,2.58-.77.73-1.68,1.29-2.72,1.69s-2.16.59-3.39.59ZM277.42,182.86c.7,0,1.34-.12,1.93-.37.59-.25,1.11-.6,1.55-1.05.45-.46.79-.98,1.04-1.59.25-.6.37-1.28.37-2.02s-.12-1.42-.37-2.02c-.25-.6-.59-1.13-1.04-1.59-.45-.45-.96-.8-1.55-1.05-.59-.25-1.23-.37-1.93-.37s-1.35.12-1.94.37c-.6.25-1.11.6-1.55,1.05-.44.46-.78.98-1.03,1.59-.25.6-.37,1.28-.37,2.02s.12,1.42.37,2.02c.25.6.59,1.13,1.03,1.59.44.45.96.8,1.55,1.05.6.25,1.24.37,1.94.37Z"></path></g><g><path class="cls-2" d="M292.55,185.92c-1.24,0-2.38-.2-3.42-.59-1.04-.39-1.94-.96-2.7-1.69-.76-.73-1.35-1.59-1.78-2.57-.42-.98-.64-2.06-.64-3.24s.21-2.26.64-3.24c.42-.98,1.02-1.84,1.8-2.57.77-.73,1.68-1.29,2.73-1.69,1.04-.39,2.19-.59,3.44-.59,1.39,0,2.63.23,3.74.69s2.04,1.13,2.8,2.01l-2.3,2.15c-.58-.61-1.21-1.06-1.88-1.35-.67-.29-1.41-.44-2.21-.44-.75,0-1.43.12-2.06.37-.63.25-1.17.59-1.62,1.04-.45.45-.8.98-1.05,1.59-.25.61-.37,1.29-.37,2.03s.12,1.38.37,2c.25.62.6,1.15,1.05,1.6.45.45.99.8,1.61,1.05.62.25,1.3.38,2.04.38s1.41-.12,2.09-.36,1.34-.63,1.98-1.18l2.06,2.61c-.86.66-1.85,1.15-2.97,1.49-1.12.33-2.23.5-3.35.5ZM295.57,183.46v-5.88h3.31v6.35l-3.31-.47Z"></path><path class="cls-2" d="M302.23,185.65v-15.64h3.64v15.64h-3.64Z"></path><path class="cls-2" d="M307.5,185.65l6.95-15.64h3.58l7.02,15.64h-3.8l-5.74-13.81h1.45l-5.74,13.81h-3.71ZM311.01,182.3l.92-2.75h8.09l.94,2.75h-9.94Z"></path></g><g><path class="cls-2" d="M125.67,207.49h8.51v2.91h-12.11v-15.64h11.82v2.91h-8.22v9.83ZM125.4,201.03h7.53v2.84h-7.53v-2.84Z"></path><path class="cls-2" d="M143.39,210.39v-15.64h3.64v15.64h-3.64Z"></path><path class="cls-2" d="M150.72,210.39v-15.64h2.99l9.23,11.26h-1.45v-11.26h3.58v15.64h-2.99l-9.23-11.26h1.45v11.26h-3.58Z"></path><path class="cls-2" d="M176.37,210.66c-1.24,0-2.38-.2-3.42-.6-1.04-.4-1.95-.97-2.73-1.7-.77-.73-1.37-1.59-1.8-2.57-.42-.98-.64-2.06-.64-3.22s.21-2.25.64-3.23c.42-.98,1.02-1.83,1.8-2.56.77-.73,1.68-1.3,2.72-1.7,1.04-.4,2.17-.6,3.41-.6s2.37.2,3.41.59,1.94.96,2.72,1.69c.77.73,1.37,1.59,1.8,2.57.42.98.64,2.06.64,3.24s-.21,2.24-.64,3.23c-.42.99-1.02,1.85-1.8,2.58-.77.73-1.68,1.29-2.72,1.69s-2.16.59-3.39.59ZM176.35,207.6c.7,0,1.34-.12,1.93-.37.59-.25,1.11-.6,1.55-1.05.45-.46.79-.98,1.04-1.59.25-.6.37-1.28.37-2.02s-.12-1.42-.37-2.02c-.25-.6-.59-1.13-1.04-1.59-.45-.45-.96-.8-1.55-1.05-.59-.25-1.23-.37-1.93-.37s-1.35.12-1.94.37c-.6.25-1.11.6-1.55,1.05-.44.46-.78.98-1.03,1.59-.25.6-.37,1.28-.37,2.02s.12,1.42.37,2.02c.25.6.59,1.13,1.03,1.59.44.45.96.8,1.55,1.05.6.25,1.24.37,1.94.37Z"></path></g><path class="cls-2" d="M189.4,210.39l-6.77-15.64h3.93l5.9,13.85h-2.3l5.99-13.85h3.6l-6.77,15.64h-3.58Z"></path><path class="cls-2" d="M198.09,210.39l6.95-15.64h3.58l7.02,15.64h-3.8l-5.74-13.81h1.45l-5.74,13.81h-3.71ZM201.6,207.04l.92-2.75h8.09l.94,2.75h-9.94Z"></path><path class="cls-2" d="M224.75,210.66c-1.21,0-2.33-.2-3.36-.59s-1.93-.96-2.69-1.69c-.76-.73-1.35-1.59-1.78-2.57-.42-.98-.64-2.06-.64-3.24s.21-2.26.64-3.24c.42-.98,1.02-1.84,1.79-2.57.77-.73,1.67-1.29,2.7-1.69,1.04-.39,2.16-.59,3.36-.59,1.36,0,2.58.24,3.69.7,1.1.47,2.03,1.16,2.77,2.07l-2.35,2.15c-.52-.61-1.11-1.07-1.78-1.39s-1.38-.47-2.16-.47c-.73,0-1.4.12-2.01.37s-1.14.59-1.59,1.04c-.45.45-.79.98-1.04,1.59-.25.61-.37,1.29-.37,2.03s.12,1.42.37,2.03c.25.61.59,1.14,1.04,1.59.45.45.98.79,1.59,1.04s1.28.37,2.01.37c.77,0,1.49-.16,2.16-.48s1.25-.79,1.78-1.4l2.35,2.15c-.75.91-1.67,1.6-2.77,2.08s-2.34.72-3.71.72ZM223.57,215.58c-.39,0-.76-.04-1.13-.13-.37-.09-.68-.21-.95-.36l.54-1.47c.22.1.45.19.69.25s.5.09.78.09c.42,0,.71-.07.88-.2.17-.13.26-.3.26-.51,0-.19-.09-.35-.26-.47-.17-.12-.45-.18-.84-.18h-.76l.58-2.37h1.85l-.31,1.3c.67.07,1.16.29,1.46.64.31.35.46.75.46,1.2,0,.7-.3,1.25-.89,1.64-.6.39-1.39.59-2.37.59Z"></path><path class="cls-2" d="M230.43,210.39l6.95-15.64h3.58l7.02,15.64h-3.8l-5.74-13.81h1.45l-5.74,13.81h-3.71ZM233.94,207.04l.92-2.75h8.09l.94,2.75h-9.94ZM240.87,193.57c-.39,0-.73-.07-1.03-.22-.3-.15-.57-.32-.8-.5-.24-.19-.46-.35-.67-.49-.21-.14-.42-.21-.63-.21-.31,0-.56.11-.75.32-.19.22-.29.52-.32.93h-1.77c.03-1,.28-1.79.74-2.38.46-.59,1.09-.88,1.88-.88.39,0,.73.07,1.04.21.31.14.58.3.82.49s.46.35.66.5c.2.15.41.22.61.22.31,0,.57-.11.76-.32.19-.22.3-.51.31-.88h1.77c-.01.95-.26,1.73-.73,2.32s-1.1.89-1.89.89Z"></path><path class="cls-2" d="M257.2,210.66c-1.24,0-2.38-.2-3.42-.6-1.04-.4-1.95-.97-2.73-1.7-.77-.73-1.37-1.59-1.8-2.57-.42-.98-.64-2.06-.64-3.22s.21-2.25.64-3.23c.42-.98,1.02-1.83,1.8-2.56.77-.73,1.68-1.3,2.72-1.7,1.04-.4,2.17-.6,3.41-.6s2.37.2,3.41.59,1.94.96,2.72,1.69c.77.73,1.37,1.59,1.8,2.57.42.98.64,2.06.64,3.24s-.21,2.24-.64,3.23c-.42.99-1.02,1.85-1.8,2.58-.77.73-1.68,1.29-2.72,1.69s-2.16.59-3.39.59ZM257.18,207.6c.7,0,1.34-.12,1.93-.37.59-.25,1.11-.6,1.55-1.05.45-.46.79-.98,1.04-1.59.25-.6.37-1.28.37-2.02s-.12-1.42-.37-2.02c-.25-.6-.59-1.13-1.04-1.59-.45-.45-.96-.8-1.55-1.05-.59-.25-1.23-.37-1.93-.37s-1.35.12-1.94.37c-.6.25-1.11.6-1.55,1.05-.44.46-.78.98-1.03,1.59-.25.6-.37,1.28-.37,2.02s.12,1.42.37,2.02c.25.6.59,1.13,1.03,1.59.44.45.96.8,1.55,1.05.6.25,1.24.37,1.94.37Z"></path><g><path class="cls-2" d="M273.16,205.5v-2.79h6.32v2.79h-6.32Z"></path><path class="cls-2" d="M293.96,210.66c-1.25,0-2.45-.17-3.61-.5-1.15-.34-2.08-.77-2.78-1.31l1.23-2.73c.66.48,1.44.87,2.37,1.17.92.31,1.85.46,2.79.46.72,0,1.29-.07,1.73-.22.44-.15.76-.35.97-.59.21-.25.31-.53.31-.86,0-.42-.16-.75-.49-1-.33-.25-.76-.45-1.31-.6-.54-.16-1.14-.3-1.78-.45s-1.28-.31-1.93-.51c-.65-.2-1.24-.47-1.79-.8-.54-.34-.98-.77-1.3-1.32-.32-.54-.48-1.23-.48-2.04,0-.89.24-1.71.71-2.45.48-.74,1.2-1.33,2.18-1.77.98-.44,2.2-.66,3.68-.66.98,0,1.96.12,2.92.36.96.24,1.8.58,2.51,1.03l-1.14,2.73c-.7-.4-1.42-.7-2.17-.91-.75-.2-1.46-.3-2.15-.3s-1.29.08-1.72.23c-.43.16-.75.37-.95.64-.2.27-.3.57-.3.89,0,.42.16.75.49,1.01.33.25.76.45,1.3.59.54.14,1.13.28,1.79.42.66.14,1.3.32,1.94.53.64.21,1.23.47,1.77.79s.97.75,1.31,1.3c.34.54.5,1.22.5,2.02,0,.88-.24,1.68-.73,2.41-.48.73-1.22,1.32-2.2,1.77-.98.45-2.21.67-3.69.67Z"></path><path class="cls-2" d="M303.05,210.39v-15.64h3.64v15.64h-3.64Z"></path><path class="cls-2" d="M308.33,210.39l6.95-15.64h3.58l7.02,15.64h-3.8l-5.74-13.81h1.45l-5.74,13.81h-3.71ZM311.84,207.04l.92-2.75h8.09l.94,2.75h-9.94Z"></path></g></g></svg>