<svg xmlns="http://www.w3.org/2000/svg" id="Camada_1" data-name="Camada 1" viewBox="0 0 912.32 864"><defs><style>      .cls-1 {        fill: #888989;      }    </style></defs><path class="cls-1" d="M311.47,358.29c21.99-10.82,43.86-19.03,65.44-20.67.17-3.78.34-7.52.5-11.23-21.61,2.27-43.44,9.59-65.4,19.69-.18,4.06-.36,8.13-.55,12.21"></path><path class="cls-1" d="M377.15,346.12c-20.18,1.16-40.64,8.54-61.22,18.55-.18,4.04-.36,8.1-.54,12.17,20.6-10.51,41.09-18.51,61.25-19.2.17-3.87.34-7.71.51-11.52"></path><path class="cls-1" d="M305.24,402.89c25.58-14.23,51.08-26.5,75.95-24.8.18-3.99.36-7.96.53-11.9-24.9-1.12-50.36,10.38-75.93,24.27-.18,4.14-.37,8.28-.56,12.43"></path><path class="cls-1" d="M383.47,408.09c-.18,4.1-.37,8.21-.55,12.35-54.37-7.96-112.25,62.77-166.62,54.84l2.34-11.95c53.84,6.26,111.09-63.63,164.83-55.24"></path><path class="cls-1" d="M393.74,432.05c-.19,4.16-.37,8.32-.56,12.49-30.7-11.82-62.8,7.74-94.79,24.84-31.84,17.55-63.58,32.67-94.29,25.01l2.33-11.88c60.87,18.23,126.58-71.91,187.31-50.46"></path><path class="cls-1" d="M387.89,452.36c-.19,4.18-.37,8.38-.56,12.58-29.47-7.46-60.1,11.27-90.58,26.52-30.4,15.9-60.65,28.33-90.19,24.86l2.34-11.93c28.89,4.38,58.59-9.22,88.41-25.39,30.52-16.02,61.15-34.73,90.59-26.63"></path><path class="cls-1" d="M278.58,549.19c-.17,3.9-.35,7.78-.52,11.65-17.49,5.43-34.89,8.97-52.3,12.67l2.12-10.84c16.84-3.14,33.73-7.37,50.7-13.47"></path><path class="cls-1" d="M380.02,485.26c-28.19-2.5-57.28,15.08-86.16,28.12-29.56,14.26-58.9,23.77-87.82,23.62l2.35-12.01c28.24,1.72,57.04-9.19,86.02-24,28.93-14.05,58.03-31.98,86.18-28.6l-.58,12.88Z"></path><path class="cls-1" d="M340.75,514.92c-18.15,6.44-36.41,15.6-54.58,22.65-23.01,9.37-45.87,15.34-68.62,18.62l2.22-11.35c22.13-2.35,44.46-9.31,66.93-19.36,18.21-7.84,36.5-17.69,54.66-24.25l-.61,13.7Z"></path><path class="cls-1" d="M369.44,308.35c-.16,3.54-.32,7.12-.48,10.73-16.46,2.73-33.03,7.99-49.68,14.87l.53-11.84c16.61-6.18,33.16-10.78,49.63-13.75"></path><path class="cls-1" d="M341.97,296.29c7.87-2.03,15.74-3.9,23.6-5.8-.03,3.45-.06,6.95-.09,10.47-8,1.73-15.99,3.7-23.99,5.99l.48-10.66Z"></path><path class="cls-1" d="M377.5,398.38c-31.88-1.6-64.88,21.87-97.6,39l.56-12.56c32.72-17.17,65.68-39.88,97.57-38.52-.18,4-.36,8.02-.54,12.07"></path><path class="cls-1" d="M429.08,486.2h-8.53l-1.77,4.01h-2.36l7.27-16.06h2.27l7.29,16.06h-2.41l-1.77-4.01ZM428.28,484.36l-3.46-7.87-3.46,7.87h6.93Z"></path><path class="cls-1" d="M451.39,491.68c-.52.61-1.12,1.08-1.81,1.4-.69.32-1.43.48-2.22.48-1.01,0-1.95-.24-2.83-.72-.88-.48-1.88-1.3-3.02-2.47-1.51-.08-2.88-.48-4.09-1.21-1.22-.73-2.16-1.71-2.84-2.92-.68-1.21-1.02-2.57-1.02-4.05s.37-2.94,1.11-4.2c.74-1.25,1.76-2.24,3.06-2.95,1.3-.71,2.76-1.07,4.38-1.07s3.06.36,4.36,1.07c1.3.71,2.32,1.69,3.05,2.94.73,1.25,1.1,2.65,1.1,4.21,0,1.32-.26,2.52-.79,3.62-.53,1.1-1.27,2.03-2.22,2.77-.96.75-2.05,1.27-3.29,1.56.54.57,1.05.98,1.55,1.23.5.25,1.01.38,1.53.38,1.13,0,2.11-.46,2.94-1.38l1.08,1.31ZM436.66,485.34c.54.94,1.29,1.68,2.25,2.21.96.54,2.02.8,3.2.8s2.22-.27,3.16-.8c.95-.54,1.69-1.27,2.24-2.21.54-.94.81-1.99.81-3.15s-.27-2.21-.81-3.15c-.54-.94-1.29-1.68-2.24-2.21-.95-.54-2-.8-3.16-.8s-2.24.27-3.2.8c-.96.54-1.7,1.27-2.25,2.21-.54.94-.81,1.99-.81,3.15s.27,2.21.81,3.15"></path><path class="cls-1" d="M455.39,488.56c-1.19-1.22-1.79-2.98-1.79-5.28v-9.13h2.29v9.04c0,3.44,1.51,5.16,4.52,5.16,1.47,0,2.59-.42,3.37-1.27.78-.85,1.17-2.14,1.17-3.89v-9.04h2.22v9.13c0,2.31-.6,4.07-1.79,5.29-1.19,1.22-2.86,1.82-5,1.82s-3.81-.61-5-1.83"></path><rect class="cls-1" x="471.51" y="474.15" width="2.29" height="16.06"></rect><polygon class="cls-1" points="487.98 476.15 482.47 476.15 482.47 474.15 495.75 474.15 495.75 476.15 490.25 476.15 490.25 490.21 487.98 490.21 487.98 476.15"></polygon><polygon class="cls-1" points="509.7 488.21 509.7 490.21 498.04 490.21 498.04 474.15 509.38 474.15 509.38 476.15 500.34 476.15 500.34 481.08 508.39 481.08 508.39 483.03 500.34 483.03 500.34 488.21 509.7 488.21"></polygon><polygon class="cls-1" points="527.68 490.21 527.66 478.51 521.85 488.26 520.8 488.26 514.99 478.58 514.99 490.21 512.79 490.21 512.79 474.15 514.67 474.15 521.37 485.44 527.98 474.15 529.86 474.15 529.88 490.21 527.68 490.21"></polygon><polygon class="cls-1" points="543.69 477.18 538.55 477.18 538.55 474.15 552.54 474.15 552.54 477.18 547.4 477.18 547.4 490.21 543.69 490.21 543.69 477.18"></polygon><path class="cls-1" d="M564.61,490.21l-3.1-4.47h-3.42v4.47h-3.72v-16.06h6.95c1.42,0,2.66.24,3.7.71,1.05.47,1.85,1.15,2.42,2.02.56.87.85,1.9.85,3.1s-.29,2.22-.86,3.09c-.57.86-1.39,1.53-2.44,1.98l3.6,5.16h-3.99ZM563.67,477.9c-.58-.48-1.43-.72-2.55-.72h-3.03v5.59h3.03c1.12,0,1.96-.24,2.55-.73.58-.49.87-1.18.87-2.06s-.29-1.59-.87-2.07"></path><path class="cls-1" d="M582.4,486.77h-7.46l-1.42,3.44h-3.81l7.16-16.06h3.67l7.18,16.06h-3.9l-1.42-3.44ZM581.23,483.95l-2.55-6.15-2.55,6.15h5.09Z"></path><path class="cls-1" d="M603.35,483.32c.52.68.78,1.52.78,2.51,0,1.41-.55,2.49-1.64,3.25-1.09.76-2.69,1.14-4.78,1.14h-8.3v-16.06h7.84c1.96,0,3.46.38,4.51,1.12,1.05.75,1.57,1.77,1.57,3.05,0,.78-.19,1.48-.56,2.09-.37.61-.9,1.09-1.57,1.44.92.29,1.64.78,2.16,1.46M593.1,476.95v3.78h3.69c.92,0,1.61-.16,2.09-.48.47-.32.71-.79.71-1.42s-.24-1.1-.71-1.41c-.47-.31-1.17-.47-2.09-.47h-3.69ZM599.65,486.93c.5-.32.75-.82.75-1.49,0-1.33-.99-2-2.96-2h-4.33v3.97h4.33c.98,0,1.72-.16,2.21-.48"></path><path class="cls-1" d="M617.36,486.77h-7.46l-1.42,3.44h-3.81l7.16-16.06h3.67l7.18,16.06h-3.9l-1.42-3.44ZM616.19,483.95l-2.55-6.15-2.55,6.15h5.09Z"></path><polygon class="cls-1" points="624.36 474.15 628.08 474.15 628.08 487.18 636.13 487.18 636.13 490.21 624.36 490.21 624.36 474.15"></polygon><polygon class="cls-1" points="652.74 474.15 652.74 490.21 649.02 490.21 649.02 483.63 641.73 483.63 641.73 490.21 638.01 490.21 638.01 474.15 641.73 474.15 641.73 480.48 649.02 480.48 649.02 474.15 652.74 474.15"></polygon><path class="cls-1" d="M659.83,489.41c-1.34-.72-2.39-1.71-3.14-2.97-.76-1.26-1.14-2.68-1.14-4.25s.38-2.99,1.14-4.25c.76-1.26,1.8-2.25,3.14-2.97,1.34-.72,2.84-1.08,4.51-1.08s3.16.36,4.49,1.08c1.33.72,2.38,1.71,3.14,2.97.76,1.26,1.15,2.68,1.15,4.25s-.38,2.99-1.15,4.25c-.77,1.26-1.81,2.25-3.14,2.97-1.33.72-2.83,1.08-4.49,1.08s-3.17-.36-4.51-1.08M666.91,486.67c.76-.44,1.36-1.04,1.8-1.82.44-.78.65-1.67.65-2.66s-.22-1.88-.65-2.66c-.44-.78-1.04-1.39-1.8-1.82-.77-.44-1.62-.65-2.57-.65s-1.8.22-2.57.65c-.76.44-1.37,1.04-1.8,1.82-.44.78-.65,1.67-.65,2.66s.22,1.88.65,2.66c.44.78,1.04,1.39,1.8,1.82.77.44,1.62.65,2.57.65s1.8-.22,2.57-.65"></path><path class="cls-1" d="M674.83,489.9c-.31-.3-.46-.68-.46-1.13s.15-.81.46-1.11c.31-.3.67-.45,1.1-.45s.79.14,1.08.44c.29.29.44.67.44,1.12s-.15.84-.45,1.13c-.3.3-.65.45-1.07.45s-.79-.15-1.1-.45"></path><path class="cls-1" d="M429.08,512.75h-8.53l-1.77,4.01h-2.36l7.27-16.06h2.27l7.29,16.06h-2.41l-1.77-4.01ZM428.28,510.91l-3.46-7.87-3.46,7.87h6.93Z"></path><path class="cls-1" d="M451.39,518.23c-.52.61-1.12,1.08-1.81,1.4-.69.32-1.43.48-2.22.48-1.01,0-1.95-.24-2.83-.72-.88-.48-1.88-1.3-3.02-2.47-1.51-.08-2.88-.48-4.09-1.21-1.22-.73-2.16-1.71-2.84-2.92-.68-1.21-1.02-2.57-1.02-4.05s.37-2.94,1.11-4.2c.74-1.25,1.76-2.24,3.06-2.95,1.3-.71,2.76-1.07,4.38-1.07s3.06.36,4.36,1.07c1.3.71,2.32,1.69,3.05,2.93.73,1.25,1.1,2.65,1.1,4.21,0,1.32-.26,2.52-.79,3.62-.53,1.1-1.27,2.03-2.22,2.77-.96.75-2.05,1.27-3.29,1.56.54.57,1.05.98,1.55,1.23.5.25,1.01.38,1.53.38,1.13,0,2.11-.46,2.94-1.38l1.08,1.31ZM436.66,511.89c.54.94,1.29,1.68,2.25,2.21.96.54,2.02.8,3.2.8s2.22-.27,3.16-.8c.95-.54,1.69-1.27,2.24-2.21.54-.94.81-1.99.81-3.15s-.27-2.21-.81-3.15c-.54-.94-1.29-1.68-2.24-2.21-.95-.54-2-.8-3.16-.8s-2.24.27-3.2.8c-.96.54-1.7,1.27-2.25,2.21-.54.94-.81,1.99-.81,3.15s.27,2.21.81,3.15"></path><path class="cls-1" d="M455.39,515.11c-1.19-1.22-1.79-2.98-1.79-5.28v-9.13h2.29v9.04c0,3.44,1.51,5.16,4.52,5.16,1.47,0,2.59-.42,3.37-1.27.78-.85,1.17-2.14,1.17-3.89v-9.04h2.22v9.13c0,2.31-.6,4.07-1.79,5.29-1.19,1.22-2.86,1.82-5,1.82s-3.81-.61-5-1.83"></path><rect class="cls-1" x="471.51" y="500.7" width="2.29" height="16.06"></rect><polygon class="cls-1" points="487.98 502.7 482.47 502.7 482.47 500.7 495.75 500.7 495.75 502.7 490.25 502.7 490.25 516.76 487.98 516.76 487.98 502.7"></polygon><polygon class="cls-1" points="509.7 514.77 509.7 516.76 498.04 516.76 498.04 500.7 509.38 500.7 509.38 502.7 500.34 502.7 500.34 507.63 508.39 507.63 508.39 509.58 500.34 509.58 500.34 514.77 509.7 514.77"></polygon><polygon class="cls-1" points="527.68 516.76 527.66 505.06 521.85 514.81 520.8 514.81 514.99 505.13 514.99 516.76 512.79 516.76 512.79 500.7 514.67 500.7 521.37 511.99 527.98 500.7 529.86 500.7 529.88 516.76 527.68 516.76"></polygon><polygon class="cls-1" points="544.08 503.69 544.08 507.93 551.51 507.93 551.51 510.91 544.08 510.91 544.08 516.76 540.36 516.76 540.36 500.7 552.5 500.7 552.5 503.69 544.08 503.69"></polygon><path class="cls-1" d="M556.72,515.13c-1.28-1.27-1.91-3.08-1.91-5.43v-8.99h3.72v8.85c0,2.88,1.19,4.31,3.58,4.31,1.16,0,2.05-.35,2.66-1.04.61-.7.92-1.79.92-3.27v-8.85h3.67v8.99c0,2.36-.64,4.17-1.92,5.43-1.28,1.27-3.06,1.9-5.36,1.9s-4.08-.63-5.36-1.9"></path><polygon class="cls-1" points="576.26 503.73 571.12 503.73 571.12 500.7 585.11 500.7 585.11 503.73 579.97 503.73 579.97 516.76 576.26 516.76 576.26 503.73"></polygon><path class="cls-1" d="M588.8,515.13c-1.28-1.27-1.91-3.08-1.91-5.43v-8.99h3.72v8.85c0,2.88,1.19,4.31,3.58,4.31,1.16,0,2.05-.35,2.66-1.04.61-.7.92-1.79.92-3.27v-8.85h3.67v8.99c0,2.36-.64,4.17-1.92,5.43-1.28,1.27-3.06,1.9-5.36,1.9s-4.08-.63-5.36-1.9"></path><path class="cls-1" d="M615.31,516.76l-3.1-4.47h-3.42v4.47h-3.72v-16.06h6.95c1.42,0,2.66.24,3.7.71,1.05.47,1.85,1.15,2.42,2.02.56.87.85,1.9.85,3.1s-.29,2.22-.86,3.09c-.57.86-1.39,1.53-2.44,1.98l3.6,5.16h-3.99ZM614.37,504.46c-.58-.48-1.43-.72-2.55-.72h-3.03v5.59h3.03c1.12,0,1.96-.24,2.55-.73.58-.49.87-1.18.87-2.06s-.29-1.59-.87-2.07"></path><path class="cls-1" d="M625.1,515.96c-1.34-.72-2.39-1.71-3.14-2.97-.76-1.26-1.14-2.68-1.14-4.25s.38-2.99,1.14-4.25c.76-1.26,1.8-2.25,3.14-2.97,1.34-.72,2.84-1.08,4.51-1.08s3.16.36,4.5,1.08c1.33.72,2.38,1.71,3.14,2.97.76,1.26,1.15,2.68,1.15,4.25s-.38,2.99-1.15,4.25c-.77,1.26-1.81,2.25-3.14,2.97-1.33.72-2.83,1.08-4.5,1.08s-3.17-.36-4.51-1.08M632.17,513.22c.76-.44,1.36-1.04,1.8-1.82.44-.78.65-1.67.65-2.66s-.22-1.88-.65-2.66c-.44-.78-1.04-1.39-1.8-1.82-.77-.44-1.62-.65-2.57-.65s-1.8.22-2.57.65c-.76.44-1.37,1.04-1.8,1.82-.44.78-.65,1.67-.65,2.66s.22,1.88.65,2.66c.44.78,1.04,1.39,1.8,1.82.76.44,1.62.65,2.57.65s1.8-.22,2.57-.65"></path><path class="cls-1" d="M640.1,516.45c-.31-.3-.46-.68-.46-1.13s.15-.81.46-1.11c.31-.3.67-.45,1.1-.45s.79.14,1.08.44c.29.29.44.67.44,1.12s-.15.84-.45,1.13c-.3.3-.65.45-1.07.45s-.79-.15-1.1-.45"></path><path class="cls-1" d="M425.29,360.84c1.34-.72,2.87-1.08,4.59-1.08,2.63,0,4.87.93,6.74,2.79l2.86-2.79c-1.14-1.3-2.55-2.29-4.22-2.97-1.67-.68-3.54-1.01-5.58-1.01-2.51,0-4.78.54-6.79,1.62-2.01,1.08-3.59,2.58-4.73,4.48-1.14,1.91-1.71,4.06-1.71,6.46s.57,4.55,1.71,6.46c1.14,1.91,2.71,3.4,4.71,4.49,2,1.08,4.25,1.62,6.74,1.62,1.77,0,3.49-.27,5.17-.8,1.68-.54,3.14-1.3,4.4-2.3v-9.74h-4.29v7.61c-1.44.84-3.12,1.26-5.03,1.26-1.7,0-3.22-.37-4.55-1.12-1.34-.74-2.39-1.77-3.14-3.07-.76-1.3-1.14-2.77-1.14-4.4s.38-3.17,1.14-4.47c.76-1.3,1.8-2.31,3.14-3.04"></path><path class="cls-1" d="M464.68,357.4c-2-1.08-4.25-1.62-6.74-1.62s-4.73.54-6.74,1.62c-2,1.08-3.57,2.58-4.71,4.5-1.14,1.92-1.71,4.07-1.71,6.44s.57,4.52,1.71,6.44c1.14,1.92,2.71,3.42,4.71,4.5,2,1.08,4.24,1.62,6.74,1.62s4.73-.54,6.74-1.62c2-1.08,3.57-2.58,4.71-4.48,1.14-1.91,1.71-4.06,1.71-6.46s-.57-4.55-1.71-6.46c-1.14-1.91-2.71-3.4-4.71-4.49M465.41,372.76c-.74,1.32-1.77,2.34-3.07,3.07-1.3.73-2.77,1.1-4.4,1.1s-3.09-.37-4.4-1.1c-1.3-.73-2.33-1.76-3.07-3.07-.74-1.31-1.12-2.79-1.12-4.41s.37-3.1,1.12-4.42c.75-1.31,1.77-2.34,3.07-3.07,1.3-.73,2.77-1.1,4.4-1.1s3.09.37,4.4,1.1c1.3.73,2.33,1.76,3.07,3.07.75,1.32,1.12,2.79,1.12,4.42s-.37,3.1-1.12,4.41"></path><polygon class="cls-1" points="486.14 374.98 478.01 356.13 473.09 356.13 483.77 380.56 488.24 380.56 498.88 356.13 494.35 356.13 486.14 374.98"></polygon><polygon class="cls-1" points="507.4 370.02 519.2 370.02 519.2 366.29 507.4 366.29 507.4 359.94 520.7 359.94 520.7 356.13 502.86 356.13 502.86 380.56 521.19 380.56 521.19 376.76 507.4 376.76 507.4 370.02"></polygon><path class="cls-1" d="M546.75,369.57c.9-1.33,1.34-2.91,1.34-4.75s-.42-3.34-1.26-4.64c-.84-1.3-2.04-2.3-3.61-3-1.57-.7-3.41-1.05-5.53-1.05h-10.05v24.43h4.54v-7.12h5.51c.42,0,.73-.01.94-.03l4.99,7.15h4.89l-5.62-8.03c1.68-.65,2.96-1.64,3.86-2.97M537.49,369.71h-5.3v-9.74h5.3c1.98,0,3.48.42,4.5,1.26,1.02.84,1.54,2.04,1.54,3.6s-.51,2.76-1.54,3.61c-1.02.85-2.53,1.27-4.5,1.27"></path><polygon class="cls-1" points="571.76 372.67 558.29 356.13 554.55 356.13 554.55 380.56 559.05 380.56 559.05 364.02 572.53 380.56 576.26 380.56 576.26 356.13 571.76 356.13 571.76 372.67"></polygon><path class="cls-1" d="M602.37,357.4c-2-1.08-4.25-1.62-6.74-1.62s-4.74.54-6.74,1.62c-2,1.08-3.57,2.58-4.71,4.5-1.14,1.92-1.71,4.07-1.71,6.44s.57,4.52,1.71,6.44c1.14,1.92,2.71,3.42,4.71,4.5,2,1.08,4.24,1.62,6.74,1.62s4.73-.54,6.74-1.62c2-1.08,3.57-2.58,4.71-4.48,1.14-1.91,1.71-4.06,1.71-6.46s-.57-4.55-1.71-6.46c-1.14-1.91-2.71-3.4-4.71-4.49M603.1,372.76c-.74,1.32-1.77,2.34-3.07,3.07-1.3.73-2.77,1.1-4.4,1.1s-3.09-.37-4.4-1.1c-1.3-.73-2.33-1.76-3.07-3.07-.74-1.31-1.12-2.79-1.12-4.41s.37-3.1,1.12-4.42c.75-1.31,1.77-2.34,3.07-3.07,1.3-.73,2.77-1.1,4.4-1.1s3.09.37,4.4,1.1c1.3.73,2.33,1.76,3.07,3.07.75,1.32,1.12,2.79,1.12,4.42s-.37,3.1-1.12,4.41"></path><path class="cls-1" d="M643.66,357.65c-2.02-1.01-4.34-1.52-6.95-1.52h-10.68v24.43h10.68c2.61,0,4.92-.51,6.95-1.52,2.02-1.01,3.6-2.44,4.71-4.29,1.12-1.85,1.68-3.98,1.68-6.4s-.56-4.56-1.68-6.4c-1.12-1.85-2.69-3.28-4.71-4.29M644.37,372.76c-.73,1.27-1.78,2.25-3.14,2.93-1.36.69-2.94,1.03-4.73,1.03h-5.93v-16.75h5.93c1.79,0,3.37.34,4.73,1.03s2.41,1.66,3.14,2.93c.73,1.27,1.1,2.74,1.1,4.42s-.37,3.15-1.1,4.41"></path><path class="cls-1" d="M679.12,361.89c-1.14-1.91-2.71-3.4-4.71-4.49-2-1.08-4.25-1.62-6.74-1.62s-4.74.54-6.74,1.62c-2,1.08-3.57,2.58-4.71,4.5-1.14,1.92-1.71,4.07-1.71,6.44s.57,4.52,1.71,6.44c1.14,1.92,2.71,3.42,4.71,4.5,2,1.08,4.25,1.62,6.74,1.62s4.73-.54,6.74-1.62c2-1.08,3.57-2.58,4.71-4.48,1.14-1.91,1.71-4.06,1.71-6.46s-.57-4.55-1.71-6.46M675.14,372.76c-.74,1.32-1.77,2.34-3.07,3.07-1.3.73-2.77,1.1-4.4,1.1s-3.09-.37-4.4-1.1c-1.3-.73-2.33-1.76-3.07-3.07-.74-1.31-1.12-2.79-1.12-4.41s.37-3.1,1.12-4.42c.75-1.31,1.77-2.34,3.07-3.07,1.3-.73,2.77-1.1,4.4-1.1s3.09.37,4.4,1.1c1.3.73,2.33,1.76,3.07,3.07.75,1.32,1.12,2.79,1.12,4.42s-.37,3.1-1.12,4.41"></path><path class="cls-1" d="M465.56,393.45c4.72,2.13,8.37,5.16,10.94,9.11,2.56,3.95,3.85,8.59,3.85,13.93s-1.28,9.96-3.85,13.87c-2.57,3.92-6.21,6.94-10.94,9.06-4.73,2.13-10.3,3.19-16.71,3.19h-12.35v18.53h-20.05v-70.89h32.4c6.41,0,11.98,1.06,16.71,3.19M456.96,424.13c2.09-1.79,3.14-4.34,3.14-7.64s-1.05-5.87-3.14-7.7c-2.09-1.82-5.2-2.73-9.32-2.73h-11.14v20.76h11.14c4.12,0,7.22-.89,9.32-2.68"></path><rect class="cls-1" x="483.99" y="390.26" width="20.05" height="70.89"></rect><path class="cls-1" d="M563.79,447.37h-29.97l-5.57,13.77h-20.46l31.29-70.89h19.75l31.39,70.89h-20.86l-5.57-13.77ZM557.92,432.59l-9.11-22.68-9.11,22.68h18.23Z"></path><path class="cls-1" d="M594.42,453.95c-5.84-5.74-8.76-13.87-8.76-24.4v-39.29h20.05v38.68c0,11.34,4.49,17.01,13.47,17.01s13.37-5.67,13.37-17.01v-38.68h19.75v39.29c0,10.53-2.92,18.67-8.76,24.4-5.84,5.74-14.03,8.61-24.56,8.61s-18.72-2.87-24.56-8.61"></path><polygon class="cls-1" points="677.82 390.26 677.82 390.26 657.76 390.26 657.76 403.14 677.82 390.26"></polygon><polygon class="cls-1" points="657.76 408.97 657.76 461.14 677.81 461.14 677.81 396.08 657.76 408.97"></polygon><rect class="cls-1" x="431.09" y="368.07" width="8.07" height="3.58"></rect></svg>