<svg xmlns="http://www.w3.org/2000/svg" id="Camada_1" data-name="Camada 1" viewBox="0 0 912.32 864"><defs><style>      .cls-1 {        fill: #888989;      }    </style></defs><g><path class="cls-1" d="M543.78,378.29c16.02-7.88,31.96-13.87,47.69-15.06.12-2.75.24-5.48.37-8.19-15.75,1.65-31.66,6.99-47.66,14.35-.13,2.96-.27,5.93-.4,8.9"></path><path class="cls-1" d="M591.65,369.41c-14.71.84-29.62,6.23-44.61,13.52-.13,2.95-.26,5.9-.4,8.87,15.01-7.66,29.94-13.49,44.63-13.99.13-2.82.25-5.62.38-8.4"></path><path class="cls-1" d="M539.25,410.78c18.64-10.37,37.22-19.31,55.35-18.07.13-2.91.26-5.8.39-8.67-18.14-.81-36.7,7.57-55.33,17.68-.13,3.02-.27,6.04-.4,9.06"></path><path class="cls-1" d="M596.25,414.57c-.13,2.98-.27,5.98-.4,9-39.62-5.8-81.8,45.74-121.42,39.97l1.71-8.71c39.24,4.56,80.95-46.37,120.12-40.26"></path><path class="cls-1" d="M603.74,432.03c-.14,3.03-.27,6.07-.41,9.1-22.37-8.61-45.76,5.64-69.08,18.1-23.2,12.79-46.33,23.81-68.71,18.23l1.69-8.66c44.36,13.28,92.25-52.4,136.5-36.77"></path><path class="cls-1" d="M599.47,446.84c-.14,3.05-.27,6.1-.41,9.17-21.47-5.44-43.8,8.21-66.01,19.32-22.15,11.59-44.2,20.65-65.72,18.12l1.7-8.7c21.06,3.19,42.7-6.72,64.42-18.5,22.24-11.68,44.56-25.31,66.01-19.41"></path><path class="cls-1" d="M519.81,517.4c-.13,2.84-.25,5.67-.38,8.49-12.74,3.96-25.43,6.54-38.12,9.23l1.55-7.9c12.27-2.29,24.58-5.37,36.95-9.81"></path><path class="cls-1" d="M593.74,470.81c-20.54-1.83-41.74,10.99-62.79,20.49-21.54,10.39-42.92,17.33-63.99,17.21l1.71-8.75c20.58,1.25,41.57-6.7,62.68-17.49,21.08-10.24,42.29-23.3,62.8-20.84l-.42,9.38Z"></path><path class="cls-1" d="M565.12,492.42c-13.22,4.69-26.53,11.37-39.78,16.51-16.77,6.82-33.43,11.18-50,13.57l1.62-8.27c16.12-1.71,32.4-6.79,48.78-14.11,13.27-5.71,26.6-12.89,39.83-17.67l-.45,9.98Z"></path><path class="cls-1" d="M586.03,341.89c-.12,2.58-.23,5.19-.35,7.82-11.99,1.99-24.07,5.82-36.2,10.84l.39-8.63c12.11-4.5,24.16-7.86,36.17-10.02"></path><path class="cls-1" d="M566.01,333.11c5.73-1.48,11.47-2.84,17.2-4.23-.02,2.52-.04,5.06-.06,7.63-5.83,1.26-11.65,2.69-17.48,4.36l.35-7.77Z"></path><path class="cls-1" d="M591.9,407.5c-23.23-1.16-47.28,15.94-71.12,28.42l.41-9.15c23.84-12.51,47.87-29.06,71.11-28.07-.13,2.91-.26,5.84-.39,8.8"></path><path class="cls-1" d="M629.49,471.49h-6.22l-1.29,2.92h-1.72l5.3-11.7h1.65l5.32,11.7h-1.76l-1.29-2.92ZM628.91,470.16l-2.52-5.73-2.52,5.73h5.05Z"></path><path class="cls-1" d="M645.75,475.49c-.38.45-.82.79-1.32,1.02-.5.23-1.04.35-1.62.35-.74,0-1.42-.18-2.06-.53-.64-.35-1.37-.95-2.2-1.8-1.1-.06-2.1-.35-2.98-.89-.89-.54-1.58-1.25-2.07-2.13-.5-.89-.74-1.87-.74-2.95s.27-2.15.81-3.06c.54-.91,1.28-1.63,2.23-2.15.95-.52,2.01-.78,3.19-.78s2.23.26,3.18.78c.95.52,1.69,1.23,2.22,2.14.53.91.8,1.93.8,3.07,0,.96-.19,1.84-.58,2.64-.38.8-.92,1.48-1.62,2.02-.7.55-1.5.93-2.4,1.14.39.41.77.71,1.13.89.36.18.73.28,1.11.28.82,0,1.54-.33,2.14-1l.79.95ZM635.01,470.87c.4.69.94,1.22,1.64,1.61.7.39,1.47.58,2.33.58s1.62-.19,2.31-.58c.69-.39,1.23-.93,1.63-1.61.4-.69.59-1.45.59-2.3s-.2-1.61-.59-2.3c-.39-.69-.94-1.22-1.63-1.61-.69-.39-1.46-.59-2.31-.59s-1.64.2-2.33.59c-.7.39-1.24.93-1.64,1.61-.4.69-.59,1.45-.59,2.3s.2,1.61.59,2.3"></path><path class="cls-1" d="M648.66,473.22c-.87-.89-1.3-2.17-1.3-3.85v-6.65h1.67v6.59c0,2.51,1.1,3.76,3.29,3.76,1.07,0,1.89-.31,2.46-.93.57-.62.85-1.56.85-2.83v-6.59h1.62v6.65c0,1.68-.43,2.97-1.3,3.85-.87.89-2.08,1.33-3.64,1.33s-2.77-.44-3.64-1.34"></path><rect class="cls-1" x="660.41" y="462.72" width="1.67" height="11.7"></rect><polygon class="cls-1" points="672.41 464.17 668.4 464.17 668.4 462.72 678.08 462.72 678.08 464.17 674.06 464.17 674.06 474.42 672.41 474.42 672.41 464.17"></polygon><polygon class="cls-1" points="688.24 472.97 688.24 474.42 679.75 474.42 679.75 462.72 688 462.72 688 464.17 681.42 464.17 681.42 467.77 687.29 467.77 687.29 469.19 681.42 469.19 681.42 472.97 688.24 472.97"></polygon><polygon class="cls-1" points="701.34 474.42 701.33 465.89 697.1 473 696.33 473 692.1 465.95 692.1 474.42 690.49 474.42 690.49 462.72 691.86 462.72 696.75 470.94 701.56 462.72 702.93 462.72 702.95 474.42 701.34 474.42"></polygon><polygon class="cls-1" points="713.01 464.93 709.27 464.93 709.27 462.72 719.46 462.72 719.46 464.93 715.72 464.93 715.72 474.42 713.01 474.42 713.01 464.93"></polygon><path class="cls-1" d="M728.26,474.42l-2.26-3.26h-2.49v3.26h-2.71v-11.7h5.06c1.04,0,1.94.17,2.7.52.76.35,1.35.84,1.76,1.47.41.64.62,1.39.62,2.26s-.21,1.62-.63,2.25c-.42.63-1.01,1.11-1.78,1.45l2.62,3.76h-2.91ZM727.57,465.45c-.42-.35-1.04-.53-1.86-.53h-2.21v4.08h2.21c.81,0,1.43-.18,1.86-.53.42-.36.63-.86.63-1.5s-.21-1.16-.63-1.51"></path><path class="cls-1" d="M741.22,471.91h-5.43l-1.04,2.51h-2.77l5.22-11.7h2.67l5.23,11.7h-2.84l-1.04-2.51ZM740.37,469.86l-1.86-4.48-1.86,4.48h3.71Z"></path><path class="cls-1" d="M756.49,469.4c.38.5.57,1.11.57,1.83,0,1.03-.4,1.81-1.19,2.36-.8.55-1.96.83-3.48.83h-6.05v-11.7h5.72c1.43,0,2.52.27,3.29.82.76.55,1.14,1.29,1.14,2.22,0,.57-.14,1.08-.41,1.52-.27.44-.65.8-1.14,1.05.67.21,1.19.57,1.57,1.06M749.02,464.76v2.76h2.69c.67,0,1.18-.12,1.52-.35.35-.23.52-.58.52-1.04s-.17-.8-.52-1.03c-.35-.23-.85-.34-1.52-.34h-2.69ZM753.79,472.03c.36-.23.54-.6.54-1.09,0-.97-.72-1.45-2.16-1.45h-3.16v2.89h3.16c.71,0,1.25-.12,1.61-.35"></path><path class="cls-1" d="M766.69,471.91h-5.43l-1.04,2.51h-2.77l5.22-11.7h2.67l5.23,11.7h-2.84l-1.04-2.51ZM765.84,469.86l-1.86-4.48-1.86,4.48h3.71Z"></path><polygon class="cls-1" points="771.8 462.72 774.51 462.72 774.51 472.21 780.37 472.21 780.37 474.42 771.8 474.42 771.8 462.72"></polygon><polygon class="cls-1" points="792.48 462.72 792.48 474.42 789.77 474.42 789.77 469.62 784.45 469.62 784.45 474.42 781.75 474.42 781.75 462.72 784.45 462.72 784.45 467.33 789.77 467.33 789.77 462.72 792.48 462.72"></polygon><path class="cls-1" d="M797.65,473.83c-.98-.52-1.74-1.25-2.29-2.16-.55-.92-.83-1.95-.83-3.1s.28-2.18.83-3.1c.55-.92,1.31-1.64,2.29-2.17.97-.52,2.07-.79,3.28-.79s2.31.26,3.28.79c.97.52,1.73,1.25,2.29,2.17.56.92.84,1.95.84,3.1s-.28,2.18-.84,3.1c-.56.92-1.32,1.64-2.29,2.16-.97.52-2.06.79-3.28.79s-2.31-.26-3.28-.79M802.8,471.84c.56-.32.99-.76,1.31-1.33.32-.57.48-1.21.48-1.94s-.16-1.37-.48-1.94c-.32-.57-.76-1.01-1.31-1.33-.56-.32-1.18-.48-1.87-.48s-1.31.16-1.87.48c-.56.32-.99.76-1.31,1.33-.32.57-.48,1.22-.48,1.94s.16,1.37.48,1.94c.32.57.76,1.01,1.31,1.33.56.32,1.18.48,1.87.48s1.31-.16,1.87-.48"></path><path class="cls-1" d="M808.58,474.19c-.22-.22-.33-.49-.33-.83s.11-.59.33-.81c.22-.22.49-.33.8-.33s.57.11.79.32c.21.21.32.49.32.82s-.11.61-.33.83c-.22.22-.48.33-.78.33s-.58-.11-.8-.33"></path><path class="cls-1" d="M629.49,490.84h-6.22l-1.29,2.93h-1.72l5.3-11.7h1.65l5.32,11.7h-1.76l-1.29-2.93ZM628.91,489.51l-2.52-5.73-2.52,5.73h5.05Z"></path><path class="cls-1" d="M645.75,494.84c-.38.45-.82.79-1.32,1.02-.5.23-1.04.35-1.62.35-.74,0-1.42-.18-2.06-.53-.64-.35-1.37-.95-2.2-1.8-1.1-.06-2.1-.35-2.98-.89-.89-.54-1.58-1.25-2.07-2.13-.5-.89-.74-1.87-.74-2.95s.27-2.15.81-3.06c.54-.91,1.28-1.63,2.23-2.15.95-.52,2.01-.78,3.19-.78s2.23.26,3.18.78c.95.52,1.69,1.23,2.22,2.14.53.91.8,1.93.8,3.07,0,.96-.19,1.84-.58,2.64-.38.8-.92,1.48-1.62,2.02-.7.55-1.5.93-2.4,1.14.39.41.77.71,1.13.89.36.18.73.28,1.11.28.82,0,1.54-.33,2.14-1l.79.95ZM635.01,490.22c.4.69.94,1.22,1.64,1.61.7.39,1.47.58,2.33.58s1.62-.19,2.31-.58c.69-.39,1.23-.93,1.63-1.61.4-.69.59-1.45.59-2.3s-.2-1.61-.59-2.3c-.39-.69-.94-1.22-1.63-1.61-.69-.39-1.46-.59-2.31-.59s-1.64.2-2.33.59c-.7.39-1.24.93-1.64,1.61-.4.69-.59,1.45-.59,2.3s.2,1.61.59,2.3"></path><path class="cls-1" d="M648.66,492.56c-.87-.89-1.3-2.17-1.3-3.85v-6.65h1.67v6.59c0,2.51,1.1,3.76,3.29,3.76,1.07,0,1.89-.31,2.46-.93.57-.62.85-1.56.85-2.83v-6.59h1.62v6.65c0,1.68-.43,2.97-1.3,3.85-.87.89-2.08,1.33-3.64,1.33s-2.77-.44-3.64-1.34"></path><rect class="cls-1" x="660.41" y="482.07" width="1.67" height="11.7"></rect><polygon class="cls-1" points="672.41 483.52 668.4 483.52 668.4 482.07 678.08 482.07 678.08 483.52 674.06 483.52 674.06 493.77 672.41 493.77 672.41 483.52"></polygon><polygon class="cls-1" points="688.24 492.31 688.24 493.77 679.75 493.77 679.75 482.07 688 482.07 688 483.52 681.42 483.52 681.42 487.12 687.29 487.12 687.29 488.54 681.42 488.54 681.42 492.31 688.24 492.31"></polygon><polygon class="cls-1" points="701.34 493.77 701.33 485.24 697.1 492.35 696.33 492.35 692.1 485.29 692.1 493.77 690.49 493.77 690.49 482.07 691.86 482.07 696.75 490.29 701.56 482.07 702.93 482.07 702.95 493.77 701.34 493.77"></polygon><polygon class="cls-1" points="713.29 484.24 713.29 487.33 718.71 487.33 718.71 489.51 713.29 489.51 713.29 493.77 710.58 493.77 710.58 482.07 719.43 482.07 719.43 484.24 713.29 484.24"></polygon><path class="cls-1" d="M722.5,492.58c-.93-.92-1.4-2.24-1.4-3.96v-6.55h2.71v6.45c0,2.1.87,3.14,2.61,3.14.85,0,1.49-.25,1.94-.76.45-.51.67-1.3.67-2.38v-6.45h2.67v6.55c0,1.72-.47,3.04-1.4,3.96-.93.93-2.23,1.39-3.9,1.39s-2.97-.46-3.9-1.39"></path><polygon class="cls-1" points="736.74 484.27 733 484.27 733 482.07 743.2 482.07 743.2 484.27 739.45 484.27 739.45 493.77 736.74 493.77 736.74 484.27"></polygon><path class="cls-1" d="M745.89,492.58c-.93-.92-1.4-2.24-1.4-3.96v-6.55h2.71v6.45c0,2.1.87,3.14,2.61,3.14.85,0,1.49-.25,1.94-.76.45-.51.67-1.3.67-2.38v-6.45h2.67v6.55c0,1.72-.47,3.04-1.4,3.96-.93.93-2.23,1.39-3.9,1.39s-2.97-.46-3.9-1.39"></path><path class="cls-1" d="M765.21,493.77l-2.26-3.26h-2.49v3.26h-2.71v-11.7h5.06c1.04,0,1.94.17,2.7.52.76.35,1.35.84,1.76,1.47.41.64.62,1.39.62,2.26s-.21,1.62-.63,2.25c-.42.63-1.01,1.11-1.78,1.45l2.62,3.76h-2.91ZM764.52,484.8c-.42-.35-1.04-.53-1.86-.53h-2.21v4.08h2.21c.81,0,1.43-.18,1.86-.53.42-.36.63-.86.63-1.5s-.21-1.16-.63-1.51"></path><path class="cls-1" d="M772.33,493.18c-.98-.52-1.74-1.25-2.29-2.16-.55-.92-.83-1.95-.83-3.1s.28-2.18.83-3.1c.55-.92,1.31-1.64,2.29-2.17.97-.52,2.07-.79,3.28-.79s2.31.26,3.28.79c.97.52,1.73,1.25,2.29,2.17.56.92.84,1.95.84,3.1s-.28,2.18-.84,3.1c-.56.92-1.32,1.64-2.29,2.16-.97.52-2.06.79-3.28.79s-2.31-.26-3.28-.79M777.49,491.19c.56-.32.99-.76,1.31-1.33.32-.57.48-1.21.48-1.94s-.16-1.37-.48-1.94c-.32-.57-.75-1.01-1.31-1.33-.56-.32-1.18-.48-1.87-.48s-1.31.16-1.87.48c-.56.32-.99.76-1.31,1.33-.32.57-.48,1.22-.48,1.94s.16,1.37.48,1.94c.32.57.76,1.01,1.31,1.33.56.32,1.18.48,1.87.48s1.31-.16,1.87-.48"></path><path class="cls-1" d="M783.27,493.54c-.22-.22-.33-.49-.33-.83s.11-.59.33-.81c.22-.22.49-.33.8-.33s.57.11.79.32c.21.21.32.49.32.82s-.11.61-.33.83c-.22.22-.48.33-.78.33s-.58-.11-.8-.33"></path><path class="cls-1" d="M626.73,380.14c.97-.53,2.09-.79,3.34-.79,1.92,0,3.55.68,4.91,2.04l2.09-2.04c-.83-.95-1.86-1.67-3.08-2.16-1.22-.49-2.58-.74-4.07-.74-1.83,0-3.48.39-4.95,1.18-1.47.79-2.62,1.88-3.45,3.27-.83,1.39-1.25,2.96-1.25,4.71s.42,3.32,1.25,4.7c.83,1.39,1.98,2.48,3.43,3.27,1.46.79,3.09,1.18,4.91,1.18,1.29,0,2.54-.2,3.76-.59,1.22-.39,2.29-.95,3.21-1.68v-7.1h-3.13v5.54c-1.05.61-2.27.92-3.66.92-1.24,0-2.34-.27-3.32-.81-.98-.54-1.74-1.29-2.29-2.24-.55-.95-.83-2.02-.83-3.2s.28-2.31.83-3.26c.55-.95,1.31-1.69,2.29-2.21"></path><path class="cls-1" d="M655.43,377.64c-1.46-.79-3.09-1.18-4.91-1.18s-3.45.39-4.91,1.18c-1.46.79-2.6,1.88-3.43,3.28-.83,1.4-1.25,2.96-1.25,4.69s.42,3.29,1.25,4.69c.83,1.4,1.98,2.49,3.43,3.28,1.46.79,3.09,1.18,4.91,1.18s3.45-.39,4.91-1.18c1.46-.79,2.6-1.88,3.43-3.27.83-1.39,1.25-2.96,1.25-4.7s-.42-3.32-1.25-4.71c-.83-1.39-1.98-2.48-3.43-3.27M655.97,388.83c-.54.96-1.29,1.7-2.24,2.24-.95.53-2.02.8-3.2.8s-2.26-.27-3.2-.8c-.95-.53-1.7-1.28-2.24-2.24-.54-.96-.81-2.03-.81-3.22s.27-2.26.81-3.22c.54-.96,1.29-1.7,2.24-2.24.95-.53,2.02-.8,3.2-.8s2.25.27,3.2.8c.95.53,1.7,1.28,2.24,2.24.54.96.81,2.03.81,3.22s-.27,2.26-.81,3.22"></path><polygon class="cls-1" points="671.07 390.45 665.15 376.71 661.56 376.71 669.34 394.52 672.6 394.52 680.36 376.71 677.05 376.71 671.07 390.45"></polygon><polygon class="cls-1" points="686.56 386.83 695.16 386.83 695.16 384.11 686.56 384.11 686.56 379.48 696.26 379.48 696.26 376.71 683.26 376.71 683.26 394.52 696.61 394.52 696.61 391.74 686.56 391.74 686.56 386.83"></polygon><path class="cls-1" d="M715.24,386.5c.65-.97.98-2.12.98-3.46s-.31-2.43-.92-3.38c-.61-.95-1.49-1.68-2.63-2.19-1.14-.51-2.49-.76-4.03-.76h-7.33v17.8h3.31v-5.19h4.02c.31,0,.53,0,.69-.03l3.64,5.21h3.56l-4.1-5.85c1.22-.48,2.16-1.2,2.81-2.16M708.49,386.6h-3.87v-7.1h3.87c1.44,0,2.53.31,3.28.92.75.61,1.12,1.48,1.12,2.62s-.37,2.01-1.12,2.63c-.75.62-1.84.93-3.28.93"></path><polygon class="cls-1" points="733.46 388.77 723.65 376.71 720.93 376.71 720.93 394.52 724.21 394.52 724.21 382.46 734.02 394.52 736.75 394.52 736.75 376.71 733.46 376.71 733.46 388.77"></polygon><path class="cls-1" d="M755.77,377.64c-1.46-.79-3.09-1.18-4.91-1.18s-3.45.39-4.91,1.18c-1.46.79-2.6,1.88-3.43,3.28-.83,1.4-1.25,2.96-1.25,4.69s.42,3.29,1.25,4.69c.83,1.4,1.98,2.49,3.43,3.28,1.46.79,3.09,1.18,4.91,1.18s3.45-.39,4.91-1.18c1.46-.79,2.6-1.88,3.43-3.27.83-1.39,1.25-2.96,1.25-4.7s-.42-3.32-1.25-4.71c-.83-1.39-1.98-2.48-3.43-3.27M756.31,388.83c-.54.96-1.29,1.7-2.24,2.24-.95.53-2.02.8-3.2.8s-2.26-.27-3.2-.8c-.95-.53-1.7-1.28-2.24-2.24-.54-.96-.81-2.03-.81-3.22s.27-2.26.81-3.22c.54-.96,1.29-1.7,2.24-2.24.95-.53,2.02-.8,3.2-.8s2.25.27,3.2.8c.95.53,1.7,1.28,2.24,2.24.54.96.81,2.03.81,3.22s-.27,2.26-.81,3.22"></path><path class="cls-1" d="M785.86,377.82c-1.47-.74-3.16-1.11-5.06-1.11h-7.78v17.8h7.78c1.9,0,3.59-.37,5.06-1.11,1.48-.74,2.62-1.78,3.43-3.13.81-1.35,1.22-2.9,1.22-4.67s-.41-3.32-1.22-4.67c-.81-1.35-1.96-2.39-3.43-3.13M786.38,388.83c-.53.92-1.3,1.64-2.29,2.14-.99.5-2.14.75-3.45.75h-4.32v-12.21h4.32c1.31,0,2.45.25,3.45.75s1.76,1.21,2.29,2.14c.53.92.8,2,.8,3.22s-.27,2.29-.8,3.22"></path><path class="cls-1" d="M811.7,380.91c-.83-1.39-1.98-2.48-3.43-3.27-1.46-.79-3.09-1.18-4.91-1.18s-3.45.39-4.91,1.18c-1.46.79-2.6,1.88-3.43,3.28-.83,1.4-1.25,2.96-1.25,4.69s.42,3.29,1.25,4.69c.83,1.4,1.98,2.49,3.43,3.28,1.46.79,3.09,1.18,4.91,1.18s3.45-.39,4.91-1.18c1.46-.79,2.6-1.88,3.43-3.27.83-1.39,1.25-2.96,1.25-4.7s-.42-3.32-1.25-4.71M808.8,388.83c-.54.96-1.29,1.7-2.24,2.24-.95.53-2.02.8-3.2.8s-2.26-.27-3.2-.8c-.95-.53-1.7-1.28-2.24-2.24-.54-.96-.81-2.03-.81-3.22s.27-2.26.81-3.22c.54-.96,1.29-1.7,2.24-2.24.95-.53,2.02-.8,3.2-.8s2.25.27,3.2.8c.95.53,1.7,1.28,2.24,2.24.54.96.81,2.03.81,3.22s-.27,2.26-.81,3.22"></path><path class="cls-1" d="M656.08,403.9c3.44,1.55,6.1,3.76,7.97,6.64,1.87,2.88,2.8,6.26,2.8,10.15s-.94,7.26-2.8,10.11c-1.87,2.85-4.53,5.05-7.97,6.6-3.44,1.55-7.5,2.32-12.18,2.32h-9v13.5h-14.61v-51.66h23.61c4.67,0,8.73.78,12.18,2.32M649.8,426.26c1.52-1.3,2.29-3.16,2.29-5.57s-.76-4.28-2.29-5.61c-1.53-1.33-3.79-1.99-6.79-1.99h-8.12v15.13h8.12c3,0,5.26-.65,6.79-1.96"></path><rect class="cls-1" x="669.51" y="401.58" width="14.61" height="51.66"></rect><path class="cls-1" d="M727.66,443.2h-21.84l-4.06,10.04h-14.91l22.8-51.66h14.39l22.88,51.66h-15.2l-4.06-10.04ZM723.38,432.43l-6.64-16.53-6.64,16.53h13.28Z"></path><path class="cls-1" d="M749.98,448c-4.26-4.18-6.38-10.11-6.38-17.78v-28.63h14.61v28.19c0,8.27,3.27,12.4,9.81,12.4s9.74-4.13,9.74-12.4v-28.19h14.39v28.63c0,7.67-2.13,13.6-6.38,17.78-4.26,4.18-10.22,6.27-17.9,6.27s-13.64-2.09-17.9-6.27"></path><polygon class="cls-1" points="810.75 401.58 810.75 401.58 796.14 401.58 796.14 410.97 810.75 401.58"></polygon><polygon class="cls-1" points="796.14 415.21 796.14 453.24 810.75 453.24 810.75 405.82 796.14 415.21"></polygon><rect class="cls-1" x="630.96" y="385.41" width="5.88" height="2.61"></rect></g><g><path class="cls-1" d="M232.63,410.98l.77-1.52c1.33,1.3,3.7,2.26,6.14,2.26,3.48,0,4.99-1.46,4.99-3.29,0-5.1-11.45-1.97-11.45-8.85,0-2.74,2.12-5.1,6.86-5.1,2.1,0,4.27.61,5.76,1.65l-.66,1.57c-1.6-1.04-3.46-1.54-5.1-1.54-3.4,0-4.92,1.51-4.92,3.37,0,5.1,11.45,2.02,11.45,8.79,0,2.74-2.18,5.08-6.94,5.08-2.79,0-5.53-.98-6.91-2.42"></path><polygon class="cls-1" points="263.9 411.54 263.9 413.24 250.75 413.24 250.75 394.63 263.5 394.63 263.5 396.33 252.72 396.33 252.72 402.95 262.33 402.95 262.33 404.63 252.72 404.63 252.72 411.54 263.9 411.54"></polygon><path class="cls-1" d="M266.77,403.94c0-5.45,4.15-9.46,9.75-9.46,2.71,0,5.16.9,6.8,2.71l-1.25,1.25c-1.52-1.54-3.38-2.2-5.5-2.2-4.49,0-7.87,3.29-7.87,7.7s3.38,7.7,7.87,7.7c2.12,0,3.98-.66,5.5-2.23l1.25,1.25c-1.65,1.81-4.09,2.74-6.83,2.74-5.58,0-9.73-4.01-9.73-9.46"></path><path class="cls-1" d="M300.23,413.24l-4.25-5.98c-.48.05-.96.08-1.49.08h-4.99v5.9h-1.97v-18.6h6.96c4.73,0,7.6,2.39,7.6,6.38,0,2.92-1.54,4.97-4.25,5.85l4.54,6.38h-2.15ZM300.12,401.01c0-2.98-1.97-4.68-5.69-4.68h-4.94v9.33h4.94c3.72,0,5.69-1.73,5.69-4.65"></path><polygon class="cls-1" points="319.89 411.54 319.89 413.24 306.74 413.24 306.74 394.63 319.49 394.63 319.49 396.33 308.7 396.33 308.7 402.95 318.32 402.95 318.32 404.63 308.7 404.63 308.7 411.54 319.89 411.54"></polygon><polygon class="cls-1" points="328.13 396.33 321.59 396.33 321.59 394.63 336.63 394.63 336.63 396.33 330.09 396.33 330.09 413.24 328.13 413.24 328.13 396.33"></polygon><path class="cls-1" d="M350.5,408.27h-10.36l-2.23,4.97h-2.05l8.5-18.6h1.94l8.5,18.6h-2.07l-2.23-4.97ZM349.79,406.67l-4.47-9.99-4.47,9.99h8.93Z"></path><path class="cls-1" d="M370.59,413.24l-4.25-5.98c-.48.05-.96.08-1.49.08h-5v5.9h-1.97v-18.6h6.96c4.73,0,7.6,2.39,7.6,6.38,0,2.92-1.54,4.97-4.25,5.85l4.54,6.38h-2.15ZM370.48,401.01c0-2.98-1.96-4.68-5.68-4.68h-4.94v9.33h4.94c3.72,0,5.68-1.73,5.68-4.65"></path><rect class="cls-1" x="377.1" y="394.63" width="1.97" height="18.6"></rect><path class="cls-1" d="M396.79,408.27h-10.36l-2.23,4.97h-2.05l8.5-18.6h1.94l8.5,18.6h-2.07l-2.23-4.97ZM396.08,406.67l-4.47-9.99-4.47,9.99h8.93Z"></path><path class="cls-1" d="M44.38,422.7h7.58c5.95,0,9.96,3.83,9.96,9.3s-4.01,9.3-9.96,9.3h-7.58v-18.6ZM51.85,439.6c4.94,0,8.13-3.14,8.13-7.6s-3.19-7.6-8.13-7.6h-5.5v15.2h5.5Z"></path><path class="cls-1" d="M77.73,436.33h-10.37l-2.23,4.97h-2.05l8.5-18.6h1.94l8.5,18.6h-2.07l-2.23-4.97ZM77.01,434.74l-4.46-9.99-4.47,9.99h8.93Z"></path><path class="cls-1" d="M89.61,439.63l1.73-3.88c1.65,1.09,3.99,1.83,6.14,1.83s3.03-.61,3.03-1.51c0-2.95-10.57-.8-10.57-7.7,0-3.32,2.71-6.03,8.24-6.03,2.42,0,4.92.56,6.75,1.62l-1.62,3.9c-1.78-.96-3.53-1.43-5.16-1.43-2.2,0-3,.74-3,1.68,0,2.84,10.55.72,10.55,7.57,0,3.24-2.71,6-8.24,6-3.06,0-6.08-.82-7.84-2.05"></path><polygon class="cls-1" points="123.04 437.23 123.04 441.3 108.11 441.3 108.11 422.7 122.69 422.7 122.69 426.77 113.31 426.77 113.31 429.9 121.58 429.9 121.58 433.83 113.31 433.83 113.31 437.23 123.04 437.23"></polygon><path class="cls-1" d="M138.4,431.6h4.65v7.7c-2.15,1.54-5.1,2.37-7.81,2.37-5.93,0-10.26-4.01-10.26-9.67s4.33-9.67,10.36-9.67c3.48,0,6.3,1.19,8.13,3.4l-3.35,3.03c-1.28-1.41-2.74-2.07-4.52-2.07-3.19,0-5.31,2.1-5.31,5.31s2.12,5.31,5.26,5.31c.98,0,1.91-.19,2.84-.61v-5.1Z"></path><path class="cls-1" d="M146.24,433.01v-10.31h5.26v10.15c0,3.19,1.33,4.46,3.53,4.46s3.51-1.28,3.51-4.46v-10.15h5.18v10.31c0,5.55-3.24,8.66-8.74,8.66s-8.74-3.11-8.74-8.66"></path><path class="cls-1" d="M175.41,436.36h-2.87v4.94h-5.26v-18.6h8.5c5.07,0,8.26,2.63,8.26,6.88,0,2.74-1.33,4.76-3.64,5.87l4.01,5.85h-5.63l-3.38-4.94ZM175.47,426.84h-2.92v5.45h2.92c2.18,0,3.27-1.01,3.27-2.71s-1.09-2.74-3.27-2.74"></path><path class="cls-1" d="M199.41,437.69h-7.86l-1.46,3.61h-5.37l8.21-18.6h5.18l8.24,18.6h-5.47l-1.46-3.61ZM197.87,433.81l-2.39-5.95-2.39,5.95h4.79Z"></path><polygon class="cls-1" points="225.53 422.7 225.53 441.3 221.2 441.3 212.99 431.39 212.99 441.3 207.83 441.3 207.83 422.7 212.17 422.7 220.37 432.61 220.37 422.7 225.53 422.7"></polygon><path class="cls-1" d="M243.17,435.14l3.35,3.03c-1.7,2.15-4.28,3.37-7.47,3.51l-.24.98c1.65.18,2.29,1.17,2.29,2.15,0,1.7-1.67,2.76-4.2,2.76-.9,0-1.94-.24-2.52-.56l.69-2c.45.22,1.01.37,1.65.37.96,0,1.33-.32,1.33-.74,0-.4-.34-.67-1.2-.67h-.98l.58-2.47c-4.81-.82-8.15-4.54-8.15-9.51,0-5.66,4.33-9.67,10.23-9.67,3.43,0,6.19,1.25,8,3.51l-3.35,3.03c-1.17-1.41-2.6-2.18-4.38-2.18-3.06,0-5.18,2.12-5.18,5.31s2.13,5.31,5.18,5.31c1.78,0,3.21-.77,4.38-2.18"></path><path class="cls-1" d="M261,437.69h-7.86l-1.46,3.61h-5.37l8.21-18.6h5.18l8.24,18.6h-5.47l-1.46-3.61ZM259.47,433.81l-2.39-5.95-2.39,5.95h4.79Z"></path><path class="cls-1" d="M293.93,429.58c0,4.23-3.19,6.86-8.26,6.86h-3.24v4.86h-5.26v-18.6h8.5c5.07,0,8.26,2.63,8.26,6.88M288.62,429.58c0-1.73-1.09-2.74-3.27-2.74h-2.92v5.45h2.92c2.18,0,3.27-1.01,3.27-2.71"></path><path class="cls-1" d="M296.14,433.01v-10.31h5.26v10.15c0,3.18,1.33,4.46,3.53,4.46s3.51-1.28,3.51-4.46v-10.15h5.18v10.31c0,5.55-3.24,8.66-8.74,8.66s-8.74-3.11-8.74-8.66M305.89,417.15h5.05l-4.99,4.04h-3.61l3.56-4.04Z"></path><path class="cls-1" d="M334.88,436.2c0,3.21-2.66,5.1-7.65,5.1h-10.04v-18.6h9.51c4.89,0,7.28,2,7.28,4.86,0,1.78-.9,3.21-2.5,4.04,2.1.74,3.4,2.34,3.4,4.6M322.39,426.5v3.59h3.61c1.75,0,2.66-.61,2.66-1.81s-.9-1.78-2.66-1.78h-3.61ZM329.56,435.61c0-1.28-.96-1.89-2.76-1.89h-4.41v3.78h4.41c1.81,0,2.76-.61,2.76-1.89"></path><polygon class="cls-1" points="337.62 422.7 342.88 422.7 342.88 437.13 351.75 437.13 351.75 441.3 337.62 441.3 337.62 422.7"></polygon><rect class="cls-1" x="353.83" y="422.7" width="5.26" height="18.6"></rect><path class="cls-1" d="M361.88,432c0-5.66,4.33-9.67,10.23-9.67,3.43,0,6.19,1.25,8,3.51l-3.35,3.03c-1.17-1.41-2.6-2.18-4.39-2.18-3.06,0-5.18,2.12-5.18,5.31s2.12,5.31,5.18,5.31c1.78,0,3.22-.77,4.39-2.18l3.35,3.03c-1.81,2.26-4.57,3.51-8,3.51-5.9,0-10.23-4.01-10.23-9.67"></path><path class="cls-1" d="M394.59,437.69h-7.87l-1.46,3.61h-5.37l8.21-18.6h5.18l8.24,18.6h-5.48l-1.46-3.61ZM393.04,433.81l-2.39-5.95-2.39,5.95h4.78Z"></path><path class="cls-1" d="M312.74,467.11l.77-1.52c1.33,1.3,3.7,2.26,6.14,2.26,3.48,0,4.99-1.46,4.99-3.29,0-5.1-11.45-1.97-11.45-8.85,0-2.74,2.12-5.1,6.86-5.1,2.1,0,4.27.61,5.76,1.65l-.66,1.57c-1.6-1.04-3.46-1.54-5.1-1.54-3.4,0-4.92,1.51-4.92,3.37,0,5.1,11.45,2.02,11.45,8.79,0,2.74-2.18,5.08-6.94,5.08-2.79,0-5.53-.98-6.91-2.42"></path><path class="cls-1" d="M329.09,467.11l.77-1.52c1.33,1.3,3.69,2.26,6.14,2.26,3.48,0,5-1.46,5-3.29,0-5.1-11.45-1.97-11.45-8.85,0-2.74,2.13-5.1,6.86-5.1,2.1,0,4.28.61,5.77,1.65l-.67,1.57c-1.59-1.04-3.45-1.54-5.1-1.54-3.4,0-4.92,1.51-4.92,3.37,0,5.1,11.45,2.02,11.45,8.79,0,2.74-2.18,5.08-6.94,5.08-2.79,0-5.53-.98-6.91-2.42"></path><path class="cls-1" d="M361.77,457.14c0,3.96-2.87,6.35-7.6,6.35h-5v5.87h-1.97v-18.6h6.96c4.73,0,7.6,2.39,7.6,6.38M359.8,457.14c0-2.98-1.96-4.68-5.68-4.68h-4.94v9.3h4.94c3.72,0,5.68-1.7,5.68-4.62"></path><rect class="cls-1" x="365.49" y="459.19" width="6.96" height="1.65"></rect><path class="cls-1" d="M391.9,457.14c0,3.96-2.87,6.35-7.6,6.35h-5v5.87h-1.97v-18.6h6.96c4.73,0,7.6,2.39,7.6,6.38M389.93,457.14c0-2.98-1.96-4.68-5.68-4.68h-4.94v9.3h4.94c3.72,0,5.68-1.7,5.68-4.62"></path><rect class="cls-1" x="396.15" y="450.76" width="1.97" height="18.6"></rect></g></svg>