<svg xmlns="http://www.w3.org/2000/svg" xmlns:xlink="http://www.w3.org/1999/xlink" width="130" zoomAndPan="magnify" viewBox="0 0 97.5 135.000003" height="180" preserveAspectRatio="xMidYMid meet" version="1.0"><defs><clipPath id="d4fab9ade6"><path d="M 0.109375 0 L 96.894531 0 L 96.894531 134.007812 L 0.109375 134.007812 Z M 0.109375 0 " clip-rule="nonzero"/></clipPath><clipPath id="091dbbc0ac"><path d="M 0.257812 0 L 96.894531 0 L 96.894531 134 L 0.257812 134 Z M 0.257812 0 " clip-rule="nonzero"/></clipPath><clipPath id="0692d2d4be"><path d="M 0.257812 0 L 96.894531 0 L 96.894531 134.007812 L 0.257812 134.007812 Z M 0.257812 0 " clip-rule="nonzero"/></clipPath><clipPath id="01e03d3c99"><path d="M 5 4 L 96.894531 4 L 96.894531 134.007812 L 5 134.007812 Z M 5 4 " clip-rule="nonzero"/></clipPath><clipPath id="bb2e5f219a"><path d="M 15 12 L 96.894531 12 L 96.894531 130 L 15 130 Z M 15 12 " clip-rule="nonzero"/></clipPath></defs><g clip-path="url(#d4fab9ade6)"><path fill="#ffffff" d="M 0.109375 0 L 96.894531 0 L 96.894531 134.007812 L 0.109375 134.007812 Z M 0.109375 0 " fill-opacity="1" fill-rule="nonzero"/><path fill="#ffffff" d="M 0.109375 0 L 96.894531 0 L 96.894531 134.007812 L 0.109375 134.007812 Z M 0.109375 0 " fill-opacity="1" fill-rule="nonzero"/></g><g clip-path="url(#091dbbc0ac)"><path fill="#ffffff" d="M 0.257812 0.0898438 L 97.042969 0.0898438 L 97.042969 133.917969 L 0.257812 133.917969 Z M 0.257812 0.0898438 " fill-opacity="1" fill-rule="nonzero"/></g><g clip-path="url(#0692d2d4be)"><path stroke-linecap="butt" transform="matrix(3.122035, 0, 0, 3.112279, 0.25919, 0.0896904)" fill="none" stroke-linejoin="miter" d="M 26.213179 3.869551 C 28.221334 9.522563 35.146654 25.362042 13.957802 23.676431 C 2.470653 22.762711 0.0796347 32.486043 1.278272 36.59025 C 4.418751 47.335241 23.97981 44.963084 17.881524 22.584486 C 13.155791 5.242641 23.387998 -4.081566 26.213179 3.869551 Z M 26.213179 3.869551 " stroke="#00dbff" stroke-width="0.408" stroke-opacity="1" stroke-miterlimit="10"/><path stroke-linecap="butt" transform="matrix(3.122035, 0, 0, 3.112279, 0.25919, 0.0896904)" fill="none" stroke-linejoin="miter" d="M 26.430885 6.293167 C 28.906984 11.275951 35.339337 27.357666 16.037274 25.823923 C 5.574848 24.991785 2.727147 32.398185 4.289879 35.96395 C 7.22141 42.652428 24.521574 40.455987 19.97476 23.635012 C 15.703207 7.830676 23.012642 -0.588597 26.430885 6.293167 Z M 26.430885 6.293167 " stroke="#00dbff" stroke-width="0.408" stroke-opacity="1" stroke-miterlimit="10"/></g><g clip-path="url(#01e03d3c99)"><path stroke-linecap="butt" transform="matrix(3.122035, 0, 0, 3.112279, 0.25919, 0.0896904)" fill="none" stroke-linejoin="miter" d="M 27.936063 9.778606 C 31.84352 18.999893 32.974594 30.067447 18.813658 28.207375 C 10.321852 27.092838 6.563286 31.957642 7.718132 34.918444 C 9.622438 39.804585 26.110581 37.925686 21.925361 24.337873 C 17.716367 10.668478 25.015793 2.891821 27.936063 9.779861 Z M 27.936063 9.778606 " stroke="#00dbff" stroke-width="0.408" stroke-opacity="1" stroke-miterlimit="10"/></g><g clip-path="url(#bb2e5f219a)"><path stroke-linecap="butt" transform="matrix(3.122035, 0, 0, 3.112279, 0.25919, 0.0896904)" fill="none" stroke-linejoin="miter" d="M 28.556652 11.462962 C 31.712146 19.599836 32.542934 34.257002 20.531538 30.987442 C 14.896192 29.454954 9.649964 31.173198 10.655919 33.753703 C 12.316244 38.011034 28.213827 36.374371 24.833119 25.487553 C 21.137113 13.582842 26.578525 6.368474 28.556652 11.462962 Z M 28.556652 11.462962 " stroke="#00dbff" stroke-width="0.408" stroke-opacity="1" stroke-miterlimit="10"/></g></svg>