<svg xmlns="http://www.w3.org/2000/svg" id="Camada_1" data-name="Camada 1" viewBox="0 0 912.32 864"><defs><style>      .cls-1 {        fill: #888989;      }    </style></defs><g><path class="cls-1" d="M222.88,369.69h73.79v19.28h-54.51v35.58h49.78v19.28h-49.78v48.55h-19.28v-122.69Z"></path><path class="cls-1" d="M372.73,486.42c-3.74,2.45-7.86,4.36-12.36,5.7-4.5,1.34-9.44,2.02-14.81,2.02-6.78,0-12.97-1.08-18.58-3.24-5.61-2.16-10.4-5.26-14.37-9.29-3.97-4.03-7.04-8.85-9.2-14.46-2.16-5.61-3.24-11.8-3.24-18.58s1.08-13.12,3.24-18.67c2.16-5.55,5.23-10.34,9.2-14.37,3.97-4.03,8.76-7.13,14.37-9.29,5.61-2.16,11.8-3.24,18.58-3.24,5.96,0,11.39.79,16.3,2.37,4.91,1.58,9.23,3.89,12.97,6.92l6.31-7.36h10.87v87.64h-19.28v-6.13ZM319.1,448.74c0,3.97.64,7.6,1.93,10.87,1.28,3.27,3.07,6.08,5.35,8.41,2.28,2.34,5.08,4.15,8.41,5.43,3.33,1.29,6.98,1.93,10.95,1.93s7.59-.7,11.22-2.1c3.62-1.4,6.84-3.33,9.64-5.78,2.8-2.45,5.05-5.32,6.75-8.59,1.69-3.27,2.48-6.72,2.37-10.34-.12-3.62-1.02-7.04-2.72-10.25-1.7-3.21-3.92-6.05-6.66-8.5-2.75-2.45-5.9-4.38-9.46-5.78-3.57-1.4-7.27-2.1-11.13-2.1-8.06,0-14.52,2.45-19.37,7.36-4.85,4.91-7.27,11.39-7.27,19.46Z"></path><path class="cls-1" d="M486.66,492.03h-8.76l-6.31-5.26c-7.48,5.03-16.48,7.54-26.99,7.54-6.9,0-13.15-1.08-18.75-3.24-5.61-2.16-10.4-5.26-14.37-9.29-3.97-4.03-7.04-8.85-9.2-14.46-2.16-5.61-3.24-11.8-3.24-18.58s1.08-13.12,3.24-18.67c2.16-5.55,5.23-10.34,9.2-14.37,3.97-4.03,8.76-7.13,14.37-9.29,5.61-2.16,11.86-3.24,18.75-3.24,8.65,0,16.24,1.7,22.78,5.08v-38.56h19.28v122.34ZM471.06,448.91c0-8.06-2.43-14.55-7.27-19.46-4.85-4.91-11.3-7.36-19.37-7.36s-14.52,2.45-19.37,7.36c-4.85,4.91-7.27,11.39-7.27,19.46,0,3.97.64,7.6,1.93,10.87,1.28,3.27,3.07,6.08,5.35,8.41,2.28,2.34,5.08,4.15,8.41,5.43,3.33,1.29,6.98,1.93,10.95,1.93s7.77-.64,11.04-1.93c3.27-1.29,6.05-3.1,8.33-5.43,2.28-2.34,4.06-5.14,5.35-8.41,1.28-3.27,1.93-6.89,1.93-10.87Z"></path><path class="cls-1" d="M512.6,449.97c.23,7.71,2.74,13.88,7.54,18.49,4.79,4.62,11.16,6.92,19.1,6.92,5.49,0,10.22-1.14,14.2-3.42,3.97-2.28,7.07-5.4,9.29-9.38l18.58,5.26c-3.27,8.18-8.56,14.61-15.86,19.28-7.3,4.67-16.1,7.01-26.38,7.01-6.78,0-12.97-1.08-18.58-3.24-5.61-2.16-10.4-5.26-14.37-9.29-3.97-4.03-7.04-8.85-9.2-14.46-2.16-5.61-3.24-11.8-3.24-18.58s1.08-13.12,3.24-18.67c2.16-5.55,5.23-10.34,9.2-14.37,3.97-4.03,8.76-7.13,14.37-9.29,5.61-2.16,11.8-3.24,18.58-3.24s13.15,1.17,18.75,3.51c5.61,2.34,10.4,5.58,14.37,9.73,3.97,4.15,7.04,9.09,9.2,14.81,2.16,5.73,3.24,12.04,3.24,18.93h-72.04ZM563.25,435.94c-1.99-4.44-5.06-7.89-9.2-10.34-4.15-2.45-9.09-3.68-14.81-3.68s-10.66,1.23-14.81,3.68c-4.15,2.45-7.22,5.9-9.2,10.34h48.02Z"></path></g><g><rect class="cls-1" x="632.65" y="441.69" width="3.29" height="10.73"></rect><g><path class="cls-1" d="M579.53,413.21c6.25,1.03,26.79,5.3,41.74,24.71,7.02,9.12,10.41,18.46,12.12,24.85-1.65-9.73-3.3-19.45-4.95-29.18,0,0-25.08-22.92-27.36-22.92s-21.55,2.55-21.55,2.55Z"></path><path class="cls-1" d="M688.26,414.17c-6.25,1.03-26.79,5.3-41.74,24.71-7.02,9.12-10.41,18.46-12.12,24.85,1.65-9.73,3.3-19.45,4.95-29.18,0,0,25.08-22.92,27.36-22.92,2.28,0,21.55,2.55,21.55,2.55Z"></path><path class="cls-1" d="M579.45,411.97c-.39.8.16,1.75,1,1.74,6.28-.1,17.22.84,28.11,7.94,16.92,11.02,22.8,29.79,24.84,41.11.23,1.28,1.94,1.29,2.17.01,1.99-10.81,7.59-28.33,23.39-39.57,11.4-8.11,23.07-9.37,29.4-9.44.84,0,1.37-.98.96-1.77-1.15-2.22-2.3-4.45-3.45-6.67-.18-.35-.51-.57-.88-.61-4.27-.4-24-1.31-38.36,15.12-11.47,13.13-12.16,28.91-12.22,32.94-.12-4.87-1.07-18.19-10.18-30.14-14.17-18.58-36.14-18.19-40.63-17.9-.39.02-.73.27-.91.64-1.07,2.2-2.15,4.4-3.22,6.61Z"></path></g><g><path class="cls-1" d="M579.52,399.32c6.25.96,26.79,4.94,41.74,23.02,7.02,8.49,10.41,17.2,12.12,23.15-1.65-9.06-3.3-18.12-4.95-27.19,0,0-25.08-21.36-27.36-21.36s-21.55,2.38-21.55,2.38Z"></path><g><path class="cls-1" d="M688.24,400.22c-6.25.96-26.79,4.94-41.74,23.02-7.02,8.49-10.41,17.2-12.12,23.15,1.65-9.06,3.3-18.12,4.95-27.19,0,0,25.08-21.36,27.36-21.36,2.28,0,21.55,2.38,21.55,2.38Z"></path><path class="cls-1" d="M579.44,398.17c-.39.74.16,1.63,1,1.62,6.28-.09,17.22.79,28.11,7.39,16.92,10.27,22.8,27.75,24.84,38.3.23,1.19,1.94,1.2,2.17.01,1.99-10.07,7.59-26.39,23.39-36.87,11.4-7.56,23.07-8.73,29.4-8.79.84,0,1.37-.91.96-1.65-1.15-2.07-2.3-4.15-3.45-6.22-.18-.32-.51-.53-.88-.57-4.27-.37-24-1.22-38.36,14.09-11.47,12.23-12.16,26.93-12.22,30.68-.12-4.54-1.07-16.95-10.18-28.08-14.17-17.31-36.14-16.94-40.63-16.68-.39.02-.73.25-.91.59-1.07,2.05-2.15,4.1-3.22,6.16Z"></path></g></g><circle class="cls-1" cx="633.38" cy="380.32" r="17.52"></circle><g><rect class="cls-1" x="632.74" y="446.07" width="3.29" height="9.67" transform="translate(1268.76 901.81) rotate(180)"></rect><g><path class="cls-1" d="M689.14,481.42c-6.25-.93-26.79-4.78-41.74-22.27-7.02-8.22-10.41-16.64-12.12-22.4,1.65,8.77,3.3,17.54,4.95,26.3,0,0,25.08,20.66,27.36,20.66s21.55-2.3,21.55-2.3Z"></path><path class="cls-1" d="M580.42,480.55c6.25-.93,26.79-4.78,41.74-22.27,7.02-8.22,10.41-16.64,12.12-22.4-1.65,8.77-3.3,17.54-4.95,26.3,0,0-25.08,20.66-27.36,20.66-2.28,0-21.55-2.3-21.55-2.3Z"></path><path class="cls-1" d="M689.23,482.53c.39-.72-.16-1.58-1-1.57-6.28.09-17.22-.76-28.11-7.15-16.92-9.94-22.8-26.85-24.84-37.06-.23-1.15-1.94-1.16-2.17,0-1.99,9.74-7.59,25.54-23.39,35.67-11.4,7.31-23.07,8.45-29.4,8.51-.84,0-1.37.88-.96,1.59,1.15,2.01,2.3,4.01,3.45,6.02.18.31.51.52.88.55,4.27.36,24,1.18,38.36-13.63,11.47-11.84,12.16-26.06,12.22-29.69.12,4.39,1.07,16.4,10.18,27.17,14.17,16.75,36.14,16.39,40.63,16.14.39-.02.73-.24.91-.57,1.07-1.99,2.15-3.97,3.22-5.96Z"></path></g><g><path class="cls-1" d="M689.16,493.94c-6.25-.87-26.79-4.45-41.74-20.75-7.02-7.66-10.41-15.5-12.12-20.87,1.65,8.17,3.3,16.34,4.95,24.51,0,0,25.08,19.25,27.36,19.25s21.55-2.14,21.55-2.14Z"></path><g><path class="cls-1" d="M580.43,493.13c6.25-.87,26.79-4.45,41.74-20.75,7.02-7.66,10.41-15.5,12.12-20.87-1.65,8.17-3.3,16.34-4.95,24.51,0,0-25.08,19.25-27.36,19.25-2.28,0-21.55-2.14-21.55-2.14Z"></path><path class="cls-1" d="M689.24,494.97c.39-.67-.16-1.47-1-1.46-6.28.08-17.22-.71-28.11-6.67-16.92-9.26-22.8-25.02-24.84-34.53-.23-1.08-1.94-1.08-2.17,0-1.99,9.08-7.59,23.79-23.39,33.23-11.4,6.81-23.07,7.87-29.4,7.93-.84,0-1.37.82-.96,1.48,1.15,1.87,2.3,3.74,3.45,5.61.18.29.51.48.88.51,4.27.33,24,1.1,38.36-12.7,11.47-11.03,12.16-24.28,12.22-27.66.12,4.09,1.07,15.28,10.18,25.31,14.17,15.61,36.14,15.27,40.63,15.03.39-.02.73-.22.91-.53,1.07-1.85,2.15-3.7,3.22-5.55Z"></path></g></g></g></g></svg>